MeshVersionFormatted 1

Dimension
2

Identifier
";2, Date: 26/03/29 00:38 40s"

Geometry
"Maillage_L0.01656.mesh.gmsh"

Vertices
1322
0.01656 0.002484 19
0.01656 0.00276 20
0.01656 0.000276 4
0.01656 0 3
0.01656 0.000552 11
0.01656 0.00138 11
0.01656 0.001794 11
0.01656 0.001587 11
0.0164456017242 0.00262722295505 0
0.0163375763605 0.002484 18
0.0163395470825 0.00276 20
0.0164456017242 0.000132777036472 0
0.0163375763605 0.000276 4
0.0163395470825 0 2
0.0163508835034 0.000552 10
0.01656 0.000759 11
0.01656 0.002208 12
0.01656 0.002001 11
0.01656 0.000966 11
0.01656 0.001173 11
0.0164205889936 0.00124199999152 0
0.0164205889936 0.001518 0
0.0164205889936 0.00193199999576 0
0.0164031626252 0.00174224998993 0
0.0162357281061 0.002622 0
0.0161299384353 0.002484 18
0.0161338798793 0.00276 20
0.0162357281061 0.000137999991518 0
0.0161299384353 0.000276 4
0.0161338798793 0 2
0.0161417670068 0.000552 10
0.0162463252419 0.000707249992048 0
0.0163508835031 0.000862499996819 0
0.0160581204058 0.000717599999152 0
0.0163508835034 0.002208 12
0.0162811779957 0.00207 0
0.0163090601986 0.00104879998897 0
0.0161882373304 0.00128799998728 0
0.016234707663 0.00147199998728 0
0.0162811779957 0.00165599998728 0
0.0162463252419 0.0018974999947 0
0.0160290755423 0.002622 0
0.0159223005101 0.002484 18
0.0159282126761 0.00276 20
0.0160290755423 0.000137999991518 0
0.0159223005101 0.000276 4
0.0159282126761 0 2
0.0159326505101 0.000552 10
0.0161835903022 0.000883199994062 0
0.0158908272048 0.000841799982611 0
0.0158629450019 0.000689999991518 0
0.0161417670068 0.002208 12
0.0160894878756 0.00205274999947 0
0.0161138847778 0.00115919998558 0
0.0160488263324 0.00137999997879 0
0.0161417669977 0.00179399999152 0
0.0160952966651 0.00163299998091 0
0.0160023559998 0.00193199999576 0
0.0158224229786 0.002622 0
0.015714662585 0.002484 18
0.0157225454728 0.00276 20
0.015714662585 0.000276 4
0.0158224229786 0.000137999991518 0
0.0157225454728 0 2
0.0157235340135 0.000552 10
0.0159187093909 0.000993599973704 0
0.0157235340039 0.000966 0
0.0156973944429 0.000758999993638 0
0.0159326505101 0.002208 12
0.0158629450019 0.00207 0
0.0158629450019 0.00186299999364 0
0.0159187093909 0.00126959998219 0
0.0159094153345 0.00147199998728 0
0.0159326504923 0.00169049998834 0
0.0156157704149 0.002622 0
0.0155070246598 0.002484 18
0.0155168782696 0.00276 20
0.0155070246598 0.000276 4
0.0156157704149 0.000137999991518 0
0.0155168782696 0 2
0.0155144175169 0.000552 10
0.0156451153208 0.0011729999894 0
0.0155144175155 0.000966 0
0.0155144175155 0.000758999993638 0
0.0157235340039 0.00179399999152 0
0.0157235340135 0.002208 12
0.0157235340039 0.00200099999788 0
0.0155144175155 0.00137999999576 0
0.0157235340039 0.00137999999576 0
0.0157235340039 0.00158699998516 0
0.0155144175169 0.002208 12
0.0154091178511 0.002622 0
0.0152993867346 0.002484 18
0.0153112110664 0.00276 20
0.0152993867346 0.000276 4
0.0154091178511 0.000137999991518 0
0.0153112110664 0 2
0.0153053010203 0.000552 10
0.0153837196933 0.0011729999894 0
0.0152791614491 0.000758999993638 0
0.0153053010101 0.000966 0
0.0153575801322 0.00137999999576 0
0.0155666966376 0.00179399999152 0
0.0155144175155 0.00200099999788 0
0.0155144175155 0.00158699998516 0
0.0153053010203 0.002208 12
0.0153053010101 0.00200099999788 0
0.0152024652874 0.002622 0
0.0150917488094 0.002484 18
0.0151055438632 0.00276 20
0.0150917488094 0.000276 4
0.0152024652874 0.000137999991518 0
0.0151055438632 0 2
0.0150961845237 0.000552 10
0.0150961845217 0.000758999993638 0
0.015226882327 0.0011729999894 0
0.0150961845217 0.000966 0
0.0153445103517 0.00158699998516 0
0.0152007427659 0.00137999999576 0
0.0153053010101 0.00179399999152 0
0.0151876729684 0.00189749997773 0
0.0150961845237 0.002208 12
0.0150700449607 0.00200099999788 0
0.0149958127237 0.002622 0
0.0148841108842 0.002484 18
0.01489987666 0.00276 20
0.0148841108842 0.000276 4
0.0149958127237 0.000137999991518 0
0.01489987666 0 2
0.014887068027 0.000552 10
0.0148611493053 0.000758996990838 0
0.0148870680164 0.000966 0
0.0150569751462 0.0011729999894 0
0.0151746032049 0.00158699998516 0
0.0150439053827 0.00137999999576 0
0.0150439053827 0.00179399999152 0
0.014887068027 0.002208 12
0.0148870680164 0.00200099999788 0
0.0147891699148 0.002622 0
0.014678376831 0.00248402765958 18
0.014694228971 0.00276 20
0.014678376831 0.000275972340425 4
0.0147891699148 0.000137999991518 0
0.014694228971 0 2
0.0146797182809 0.000552023988031 10
0.0146797182771 0.000759017976508 0
0.0146797182771 0.00096601197727 0
0.0148870680164 0.0011729999894 0
0.0148870680164 0.00158699998516 0
0.0148870680164 0.00137999999576 0
0.0146797182771 0.00137999999576 0
0.0148870680164 0.00179399999152 0
0.0146797182771 0.00200098199804 0
0.0146797182809 0.00220797601197 12
0.0145841884008 0.00262201382645 0
0.01449 0.002484 18
0.01449 0.00276 21
0.01449 0.000276 5
0.0145841884008 0.000137986165065 0
0.01449 0 2
0.01449 0.000552 10
0.01449 0.002208 13
0.0145294551767 0.000896388800832 0
0.0144899999958 0.000717599999152 0
0.0145498613916 0.00107450648518 0
0.014412878641 0.00107823528425 0
0.0146797182771 0.001173005995 0
0.0144899999958 0.00137999999576 0
0.0146797182771 0.00158699399652 0
0.0146347466131 0.00181543608193 0
0.0144899999958 0.00187679999746 0
0.0144739451096 0.00204159597145 0
0.0144059053758 0.00261122125412 0
0.0143294511889 0.00247595981888 17
0.0143294511889 0.00221604018112 13
0.0142873897987 0.00276 21
0.0143294511889 0.00028404018112 5
0.0143093458615 0.0001482691266 0
0.0142873897987 0 1
0.0143294511889 0.00054395981888 9
0.0143117371591 0.000721910849441 0
0.0143294511856 0.00204883214276 0
0.0143294511856 0.000878375885509 0
0.0142758958904 0.00108196408331 0
0.014393670713 0.00120957587533 0
0.0143176329789 0.00132935471922 0
0.0144257804683 0.00154238392396 0
0.0144418353544 0.00170878793979 0
0.0143294511856 0.00188162410601 0
0.0142977793641 0.00160128018251 0
0.0141614079822 0.00245991649009 17
0.0141238024053 0.00260995822892 0
0.0141614079822 0.00223208350991 14
0.014086196851 0.00276 21
0.0141614079822 0.000300083509913 6
0.0141238024053 0.000150041745633 0
0.014086196851 0 1
0.0141614079822 0.000527916490087 9
0.0141614079802 0.000717268367878 0
0.014140289016 0.00203633498093 0
0.0141614079802 0.000906620256711 0
0.0141253234677 0.0011431808277 0
0.0141614079802 0.00128532405134 0
0.0142389279779 0.00145333522683 0
0.0141614079802 0.00166402782901 0
0.0142007814918 0.00183654607165 0
0.0139310864473 0.00259260226517 0
0.0139747510492 0.00243398791913 16
0.013974751045 0.0020824096565 0
0.0139747510492 0.00225801208087 14
0.013775143152 0.00264617494943 0
0.0138850039032 0.00276 21
0.0139747510492 0.00032601208087 6
0.0139310864473 0.000167397709378 0
0.0138850039032 0 1
0.0139747510492 0.00050198791913 8
0.013974751045 0.000677590335019 0
0.013974751045 0.000853192741721 0
0.013974751045 0.00190680723283 0
0.013974751045 0.00102879516539 0
0.013974751045 0.00120439757209 0
0.0140258415842 0.00159014712319 0
0.0140769321404 0.00144908943721 0
0.013974751045 0.00173120482613 0
0.0138065010595 0.00240076533629 16
0.0137824175454 0.00197836221064 0
0.0138065010595 0.00229123466371 15
0.0138065010536 0.00212555561805 0
0.0136721948667 0.00253951179328 0
0.0136838109555 0.00276 21
0.0136838109555 0 1
0.0138065010595 0.000359234663707 7
0.0137486511606 0.000189851121306 0
0.0138065010595 0.000468765336293 8
0.0138065010536 0.000634444356505 0
0.0138065010536 0.00080012339122 0
0.0136860834955 0.000726872442127 0
0.0138065010536 0.000965802408971 0
0.0138065010536 0.00179419756558 0
0.0137583340372 0.00166548976851 0
0.0138065010536 0.00113148144369 0
0.013895802919 0.0013415580138 0
0.0138805674241 0.00150357923089 0
0.013662 0.002346 15
0.0136619999873 0.00190015384224 0
0.0136619999873 0.00204876921968 0
0.0136619999873 0.00219738461408 0
0.0135477186935 0.00260975252863 0
0.0135151480339 0.00240777561298 0
0.0134826180077 0.00276 21
0.0135477186935 0.000150247462884 0
0.0134826180077 0 1
0.013662 0.000414 7
0.0135459354374 0.000287741741309 0
0.0135994289631 0.000563155168918 0
0.0134831995137 0.000564627966 0
0.0136981252496 0.000883308654708 0
0.0135367791536 0.000712498140077 0
0.0136619999873 0.00115707692112 0
0.0136619999873 0.00100846152672 0
0.0136619999873 0.00175153844784 0
0.0136619999873 0.0016029230704 0
0.0137342505289 0.00135261732638 0
0.0136619999873 0.001454307676 0
0.0135070383022 0.00186544941327 0
0.0135285412176 0.00225624587389 0
0.0135206779192 0.00200230182197 0
0.0135246095684 0.00212927384793 0
0.013373309535 0.00249864855355 0
0.0133897207365 0.00231747189812 0
0.0132814250599 0.00276 21
0.0132814250599 0 1
0.013373309535 0.000261351421005 0
0.0134287410882 0.000414332564347 0
0.013216843057 0.000178617883828 0
0.0133237185297 0.000539418662225 0
0.0133797872194 0.000690369573433 0
0.0134718857774 0.000867189250809 0
0.0135577209526 0.00121563035152 0
0.0135367016406 0.001091106863 0
0.0135041904941 0.00160044241826 0
0.0134933986852 0.00172859702152 0
0.01351498232 0.00147228781499 0
0.0135576538561 0.00136649575926 0
0.0133731939188 0.00187641199158 0
0.0132019870006 0.00253951179328 0
0.0133646411638 0.00217780988647 0
0.0133395615912 0.00203814790874 0
0.0132466904484 0.00234446591696 0
0.0130802321122 0.00276 21
0.0130350119438 0.00260975252863 0
0.0130802321122 0 1
0.0130350119438 0.000150247462884 0
0.0132094412905 0.000339125689698 0
0.0130873109319 0.000277824849941 0
0.0132163247771 0.000667328986858 0
0.0131289506584 0.000545378100637 0
0.0133256328741 0.000816397312085 0
0.013406671441 0.00102264548178 0
0.0134501540893 0.0012760299441 0
0.0133394557976 0.00118287239861 0
0.0131947823332 0.000862899403156 0
0.0133165274513 0.00175641940601 0
0.0133616863916 0.00159422326309 0
0.0133953215523 0.00140962889529 0
0.0132195400803 0.00190328622075 0
0.0130225172758 0.00246484978264 0
0.0131251046653 0.00212695663633 0
0.0130700153465 0.00230552051641 0
0.0128790391644 0.00276 21
0.01286029689 0.0025868126631 0
0.0128790391644 0 1
0.0128602750051 0.000173190178535 0
0.0130391008244 0.000419971788911 0
0.0128390918794 0.000328673315952 0
0.0130445512797 0.000643116901104 0
0.0132370020752 0.00101404795629 0
0.013184213478 0.00113661054851 0
0.0132715248941 0.00134480429513 0
0.0130592498672 0.000911065384754 0
0.0131311976689 0.00167931265807 0
0.0132019870006 0.00151056691626 0
0.0129855571163 0.0020264867977 0
0.0130593375761 0.00185061086476 0
0.0128344789 0.00238662310904 0
0.0129109832726 0.00220425396877 0
0.0126778462167 0.00276 21
0.012677846216 0.00256285713862 0
0.0124766532689 0.00276 21
0.0128063367766 0.00199946678853 0
0.012677846216 0.000197142852902 0
0.0126778462167 0 1
0.012677846216 0.000394285701562 0
0.012849861566 0.000651167492864 0
0.0128179087537 0.000484156470334 0
0.0128729811585 0.000851242160131 0
0.0130224089545 0.00108839318001 0
0.013082940314 0.00129336107112 0
0.012853718739 0.00103812388118 0
0.0130344631439 0.00146883561283 0
0.0129978065047 0.00161773805456 0
0.0128730378384 0.00181333776937 0
0.012649104364 0.00236571427299 0
0.012677846216 0.00216857142433 0
0.0124766532687 0.00236571427299 0
0.0124766532687 0.00256285713862 0
0.0122754603212 0.00276 21
0.0126203625119 0.0019714285587 0
0.012677846216 0.00177428571004 0
0.0124910241778 0.000197142852902 0
0.0124766532689 0 1
0.0124766532687 0.000394285701562 0
0.0122754603212 0 1
0.012677846216 0.000788571415848 0
0.012677846216 0.000591428567187 0
0.012677846216 0.000985714281473 0
0.012677846216 0.00118285713013 0
0.0128724572632 0.00139671470053 0
0.0128851175602 0.00123939781928 0
0.0128597969831 0.00155403159874 0
0.0124766532687 0.00216857142433 0
0.0122754603044 0.00236571427299 0
0.0122610893954 0.00256285713862 0
0.0120742673734 0.00276 21
0.0124766532687 0.0019714285587 0
0.012677846216 0.00157714284442 0
0.0125125805668 0.00177428571004 0
0.0124335404906 0.000591428567187 0
0.0122754603044 0.000394285701562 0
0.0122754603044 0.000197142852902 0
0.0120742673734 0 1
0.0124766532687 0.000788571415848 0
0.0124766532687 0.000985714281473 0
0.0124766532687 0.00118285713013 0
0.012677846216 0.00137999999576 0
0.0122323475433 0.00216857142433 0
0.0122754603044 0.0019714285587 0
0.0120742673571 0.00236571427299 0
0.0120742673571 0.00216857142433 0
0.0120742673571 0.00256285713862 0
0.0118730744256 0.00276 21
0.0123473149345 0.00177428571004 0
0.0124766532687 0.00157714284442 0
0.0122754603044 0.000788571415848 0
0.0122754603044 0.000591428567187 0
0.0121030092091 0.000394285701562 0
0.012059896448 0.000197142852902 0
0.0118730744256 0 1
0.0122754603044 0.000985714281473 0
0.0122754603044 0.00118285713013 0
0.0123760567866 0.00137999999576 0
0.0122036056913 0.00177428571004 0
0.0119521145029 0.00206999998304 0
0.0120742673571 0.0019714285587 0
0.0119018162618 0.00236571427299 0
0.0118299616487 0.00216857142433 0
0.0118587035007 0.00256285713862 0
0.0116718814779 0.00276 21
0.0122754603044 0.00157714284442 0
0.0121317510612 0.000788571415848 0
0.012031154596 0.000591428567187 0
0.0120742673571 0.000985714281473 0
0.0118730744098 0.000394285701562 0
0.0118730744098 0.000197142852902 0
0.0116718814779 0 1
0.0120742673571 0.00118285713013 0
0.0121748638392 0.00137999999576 0
0.0119161871878 0.00118285713013 0
0.0120742673571 0.00157714284442 0
0.0119449290399 0.00177428571004 0
0.0118155907226 0.0019714285587 0
0.0116718814624 0.00236571427299 0
0.0116718814624 0.00216857142433 0
0.0114706885301 0.00276 21
0.0116718814624 0.00256285713862 0
0.0114706885301 0 1
0.0112694955824 0 1
0.0118730744098 0.000788571415848 0
0.0118730744098 0.000591428567187 0
0.0118730744098 0.000985714281473 0
0.0114706885151 0.000197142852902 0
0.0116718814624 0.000394285701562 0
0.0116575105364 0.000197142852902 0
0.0116287687013 0.000591428567187 0
0.0119736708919 0.00137999999576 0
0.0117581070185 0.00118285713013 0
0.0118730744098 0.00157714284442 0
0.0116718814624 0.0019714285587 0
0.0116718814624 0.00177428571004 0
0.0112694955824 0.00276 21
0.0114706885151 0.00216857142433 0
0.0114994303671 0.00236571427299 0
0.0114563175891 0.00256285713862 0
0.0112694955678 0.00256285713862 0
0.0112694955678 0.00216857142433 0
0.0112694955678 0.000197142852902 0
0.0110683026346 0 1
0.0116718814624 0.000788571415848 0
0.0116718814624 0.000985714281473 0
0.0114706885151 0.000394285701562 0
0.0114706885151 0.000788571415848 0
0.0114706885151 0.000591428567187 0
0.0112407537327 0.000394285701562 0
0.0116718814624 0.00137999999576 0
0.0115856559233 0.00118285713013 0
0.011413204828 0.0019714285587 0
0.0116718814624 0.00157714284442 0
0.0114706885151 0.00177428571004 0
0.0110683026346 0.00276 21
0.0112694955678 0.0019714285587 0
0.0112694955678 0.00236571427299 0
0.0110539316944 0.00256285713862 0
0.0111473427135 0.00206999998304 0
0.0111545281596 0.00226714284866 0
0.0110683026204 0.000197142852902 0
0.0108671096869 0 1
0.0114706885151 0.000985714281473 0
0.0112694955678 0.000591428567187 0
0.0113269792718 0.000788571415848 0
0.0110683026204 0.000394285701562 0
0.0110683026204 0.000591428567187 0
0.0114706885151 0.00137999999576 0
0.0113557211239 0.00118285713013 0
0.0111401572505 0.00177428571004 0
0.0113054228659 0.00177428571004 0
0.0113844629759 0.00157714284442 0
0.0108671096869 0.00276 21
0.0110108189333 0.0019714285587 0
0.0110395607684 0.00236571427299 0
0.0108671096731 0.00256285713862 0
0.0110251898593 0.00216857142433 0
0.0106659167391 0.00276 21
0.0108527387471 0.000197142852902 0
0.0108958515251 0.000394285701562 0
0.0106659167391 0 1
0.0106659167258 0.000197142852902 0
0.0111976409546 0.000985714281473 0
0.0110754880834 0.0010842857058 0
0.0110683026204 0.000788571415848 0
0.010780884117 0.000492857125892 0
0.0109102224512 0.000591428567187 0
0.0109533352292 0.00118285713013 0
0.0112694955678 0.00137999999576 0
0.0111832700286 0.00118285713013 0
0.0109964480073 0.00177428571004 0
0.0111545281766 0.00157714284442 0
0.0106659167258 0.00256285713862 0
0.0108671096731 0.0019714285587 0
0.0108671096731 0.00216857142433 0
0.0108671096731 0.00236571427299 0
0.0104647237784 0.00256285713862 0
0.0104647237914 0.00276 21
0.0104647237914 0 1
0.0106659167258 0.000394285701562 0
0.0104647237784 0.000197142852902 0
0.0109389643032 0.000985714281473 0
0.010809625986 0.000788571415848 0
0.0106659167258 0.000591428567187 0
0.0105509493176 0.000492857125892 0
0.0107808841339 0.00118285713013 0
0.0109677061553 0.00137999999576 0
0.0108311823581 0.00177428571004 0
0.0108671096731 0.00157714284442 0
0.0106659167258 0.00177428571004 0
0.0106084330387 0.0019714285587 0
0.0106371748737 0.00236571427299 0
0.0106659167258 0.00216857142433 0
0.0104647237784 0.00236571427299 0
0.0102779017571 0.00256285713862 0
0.0102635308436 0.00276 21
0.0100623378958 0 1
0.0102635308436 0 1
0.0104359819264 0.000394285701562 0
0.0102635308311 0.000197142852902 0
0.0106659167258 0.000985714281473 0
0.0106659167258 0.000788571415848 0
0.0105437638546 0.000689999991518 0
0.0104216110004 0.000591428567187 0
0.0106228039477 0.00118285713013 0
0.0106659167258 0.00137999999576 0
0.0106659167258 0.00157714284442 0
0.0105006510935 0.00177428571004 0
0.0104647237784 0.0019714285587 0
0.0104647237784 0.00216857142433 0
0.0102635308311 0.00236571427299 0
0.0100623378838 0.00256285713862 0
0.0100623378958 0.00276 21
0.00986114494808 0 1
0.0100623378838 0.000197142852902 0
0.0100335960317 0.000394285701562 0
0.0102635308311 0.000394285701562 0
0.0102635308311 0.000591428567187 0
0.0102635308311 0.000788571415848 0
0.0104647237784 0.000985714281473 0
0.0104072400913 0.000788571415848 0
0.0104647237784 0.00137999999576 0
0.0104647237784 0.00118285713013 0
0.0104647237784 0.00157714284442 0
0.0103353854612 0.00177428571004 0
0.0102635308311 0.0019714285587 0
0.0102204180531 0.00216857142433 0
0.0102635308311 0.00157714284442 0
0.0100623378838 0.00236571427299 0
0.0100623378838 0.00216857142433 0
0.0098898867885 0.00236571427299 0
0.00987551586248 0.00256285713862 0
0.00986114494808 0.00276 21
0.00965995200033 0 1
0.00984677401044 0.000197142852902 0
0.00986114493646 0.000394285701562 0
0.0100623378838 0.000591428567187 0
0.0101198215879 0.000788571415848 0
0.0102635308311 0.000985714281473 0
0.0102635308311 0.00118285713013 0
0.0102635308311 0.00137999999576 0
0.010191676218 0.00177428571004 0
0.0100623378838 0.0019714285587 0
0.0100623378838 0.00157714284442 0
0.00990425771452 0.00216857142433 0
0.00991862864054 0.0019714285587 0
0.00968869384117 0.00236571427299 0
0.00965995200033 0.00276 21
0.00964558106311 0.00256285713862 0
0.00945875905257 0 1
0.00965995198913 0.000197142852902 0
0.00965995198913 0.000394285701562 0
0.00986114493646 0.000788571415848 0
0.0098180321584 0.000591428567187 0
0.00965995198913 0.00216857142433 0
0.00999048327065 0.000985714281473 0
0.0100623378838 0.00118285713013 0
0.00996174141861 0.00137999999576 0
0.00990425771452 0.00157714284442 0
0.00993299956656 0.00177428571004 0
0.00971743569321 0.0019714285587 0
0.0094587590418 0.00236571427299 0
0.00945875905257 0.00276 21
0.0094587590418 0.00256285713862 0
0.00925756610481 0.00276 21
0.00925756610481 0 1
0.00978929032332 0.000985714281473 0
0.00965276652612 0.0010842857058 0
0.00925756609447 0.000197142852902 0
0.00944438811578 0.000197142852902 0
0.00948750089384 0.000394285701562 0
0.00965995198913 0.000591428567187 0
0.00965995198913 0.000788571415848 0
0.0094587590418 0.00216857142433 0
0.0094587590418 0.0019714285587 0
0.0097749193973 0.00118285713013 0
0.00976054847128 0.00137999999576 0
0.00974617754526 0.00157714284442 0
0.00965995198913 0.00177428571004 0
0.00949468633989 0.00177428571004 0
0.00928630794651 0.00236571427299 0
0.00925756609447 0.00256285713862 0
0.00905637315706 0 1
0.00905637315706 0.00276 21
0.00905637314714 0.00256285713862 0
0.00905637314714 0.000197142852902 0
0.00954498459793 0.00118285713013 0
0.0095306136719 0.000985714281473 0
0.00925756609447 0.000394285701562 0
0.00941564626374 0.000591428567187 0
0.00925756609447 0.000591428567187 0
0.00938690441169 0.000985714281473 0
0.00951624274588 0.000788571415848 0
0.00931504979855 0.0019714285587 0
0.00925756609447 0.00216857142433 0
0.00932942072458 0.00177428571004 0
0.00955935552395 0.00137999999576 0
0.0094587590418 0.00157714284442 0
0.00905637314714 0.00216857142433 0
0.00905637314714 0.00236571427299 0
0.0088551802093 0 1
0.00885518019981 0.000197142852902 0
0.0088551802093 0.00276 21
0.00886955112583 0.00256285713862 0
0.0090276312951 0.000394285701562 0
0.00937253350264 0.00118285713013 0
0.00922163877942 0.000985714281473 0
0.00905637314714 0.000591428567187 0
0.00925756609447 0.000788571415848 0
0.00918571146437 0.00177428571004 0
0.00905637314714 0.0019714285587 0
0.00925756609447 0.00157714284442 0
0.00935816257662 0.00137999999576 0
0.00889829297788 0.00216857142433 0
0.00882643834777 0.00236571427299 0
0.00885518019981 0.000394285701562 0
0.00865398726154 0 1
0.00865398725248 0.000197142852902 0
0.00865398726154 0.00276 21
0.00865398725248 0.00256285713862 0
0.00885518019981 0.000591428567187 0
0.00914259870327 0.00118285713013 0
0.00905637314714 0.000985714281473 0
0.00899888944306 0.000788571415848 0
0.00905637314714 0.00157714284442 0
0.00892703482992 0.00177428571004 0
0.00885518019981 0.0019714285587 0
0.00905637314714 0.00137999999576 0
0.00865398725248 0.00216857142433 0
0.00865398725248 0.00236571427299 0
0.00865398725248 0.000591428567187 0
0.00862524540044 0.000394285701562 0
0.00845279431379 0 1
0.00845279430515 0.000197142852902 0
0.00845279431379 0.00276 21
0.00846716523117 0.00256285713862 0
0.00885518019981 0.000788571415848 0
0.00897014760798 0.00118285713013 0
0.00885518019981 0.000985714281473 0
0.0085965035484 0.000788571415848 0
0.00885518019981 0.00157714284442 0
0.00865398725248 0.0019714285587 0
0.00878332556971 0.00177428571004 0
0.00875458373463 0.00137999999576 0
0.00849590708322 0.00216857142433 0
0.00842405245311 0.00236571427299 0
0.00839531060107 0.0019714285587 0
0.00845279430515 0.000591428567187 0
0.00845279430515 0.000394285701562 0
0.00825160136603 0 1
0.0082372304318 0.000197142852902 0
0.00825160136603 0.00276 21
0.00825160135782 0.00256285713862 0
0.00825160135782 0.00236571427299 0
0.00865398725248 0.000985714281473 0
0.00874021280861 0.00118285713013 0
0.00848872162021 0.000985714281473 0
0.00845279430515 0.000788571415848 0
0.00865398725248 0.00157714284442 0
0.00852464893526 0.00177428571004 0
0.0085533907873 0.00137999999576 0
0.00838093967505 0.00177428571004 0
0.00825160135782 0.0019714285587 0
0.00825160135782 0.00216857142433 0
0.00829471413589 0.000591428567187 0
0.00822285950578 0.000394285701562 0
0.00805040841828 0 1
0.0080504084105 0.000197142852902 0
0.00805040841828 0.00276 21
0.00803603748447 0.00256285713862 0
0.00807915026254 0.00236571427299 0
0.00845279430515 0.00118285713013 0
0.00832345598793 0.000985714281473 0
0.00819411765374 0.000788571415848 0
0.00824441589481 0.00167571426875 0
0.00836656874903 0.00157714284442 0
0.00835219782301 0.00137999999576 0
0.0081222630406 0.00177428571004 0
0.00810789211458 0.0019714285587 0
0.00800729563243 0.00216857142433 0
0.00784921546317 0.00216857142433 0
0.0080504084105 0.000788571415848 0
0.0080504084105 0.000591428567187 0
0.0080504084105 0.000394285701562 0
0.00784921547052 0 1
0.00784921546317 0.000197142852902 0
0.00782047361112 0.000394285701562 0
0.00784921547052 0.00276 21
0.00784921546317 0.00256285713862 0
0.00784921546317 0.00236571427299 0
0.0081653758017 0.00118285713013 0
0.0080504084105 0.000985714281473 0
0.00813663396662 0.00157714284442 0
0.00815100487568 0.00137999999576 0
0.00797855378039 0.00177428571004 0
0.00784921546317 0.0019714285587 0
0.0076911352939 0.00216857142433 0
0.00790669916725 0.000788571415848 0
0.00784921546317 0.000591428567187 0
0.00764802252276 0 1
0.00764802251584 0.000197142852902 0
0.00764802251584 0.000591428567187 0
0.00764802251584 0.000394285701562 0
0.00764802252276 0.00276 21
0.0076192806638 0.00236571427299 0
0.00766239344186 0.00256285713862 0
0.00793544101929 0.00118285713013 0
0.00784921546317 0.000985714281473 0
0.00768394983089 0.000985714281473 0
0.00796418285437 0.00157714284442 0
0.00784202998319 0.00167571426875 0
0.00784921546317 0.00137999999576 0
0.00771987714594 0.00177428571004 0
0.00759053881175 0.0019714285587 0
0.00744682956851 0.00216857142433 0
0.00764802251584 0.000788571415848 0
0.00751868419861 0.000985714281473 0
0.00744682957501 0 1
0.00746120049453 0.000197142852902 0
0.00724563662725 0 1
0.00748994234657 0.000591428567187 0
0.00744682956851 0.000394285701562 0
0.00704444367949 0 1
0.00744682956851 0.00236571427299 0
0.00744682957501 0.00276 21
0.00744682956851 0.00256285713862 0
0.00728874939924 0.00216857142433 0
0.00764802251584 0.00118285713013 0
0.007734248055 0.00157714284442 0
0.00764802251584 0.00137999999576 0
0.00744682956851 0.00118285713013 0
0.00744682956851 0.0019714285587 0
0.00757616788573 0.00177428571004 0
0.00730312032526 0.0019714285587 0
0.00744682956851 0.000788571415848 0
0.0073749749384 0.000985714281473 0
0.00724563662118 0.000197142852902 0
0.00724563662118 0.000394285701562 0
0.00724563662118 0.000591428567187 0
0.00684325073174 0 1
0.00703007274783 0.000197142852902 0
0.00724563662725 0.00276 21
0.00727437847322 0.00236571427299 0
0.00724563662118 0.00256285713862 0
0.00716659652806 0.00206999998304 0
0.00715941106505 0.00226714284866 0
0.00744682956851 0.00137999999576 0
0.00744682956851 0.00157714284442 0
0.00728874936531 0.00118285713013 0
0.00717378199107 0.00187285711741 0
0.00731749125128 0.00177428571004 0
0.00724563662118 0.00157714284442 0
0.00724563662118 0.000788571415848 0
0.00711629828699 0.000985714281473 0
0.00704444367385 0.000394285701562 0
0.00708755645191 0.000591428567187 0
0.00684325072652 0.000394285701562 0
0.00664205778398 0 1
0.00684325072652 0.000197142852902 0
0.00704444367949 0.00276 21
0.00704444367385 0.00256285713862 0
0.00704444367385 0.00236571427299 0
0.00704444367385 0.0019714285587 0
0.00704444367385 0.00216857142433 0
0.00724563662118 0.00137999999576 0
0.00713066921301 0.00118285713013 0
0.00708755643495 0.00157714284442 0
0.00704444367385 0.00177428571004 0
0.00704444367385 0.000788571415848 0
0.00697258904374 0.000985714281473 0
0.00684325072652 0.000591428567187 0
0.00644086483622 0 1
0.00664205777919 0.000394285701562 0
0.00664205777919 0.000197142852902 0
0.00644086483186 0.000197142852902 0
0.00684325073174 0.00276 21
0.0068288798005 0.00256285713862 0
0.00687199257856 0.00236571427299 0
0.0069007344306 0.0019714285587 0
0.00680013794846 0.00216857142433 0
0.00623967188847 0 1
0.00685043617257 0.0010842857058 0
0.00704444367385 0.00137999999576 0
0.00695821811772 0.00118285713013 0
0.00692947626568 0.00157714284442 0
0.00684325072652 0.00177428571004 0
0.00684325072652 0.000788571415848 0
0.00671391239233 0.000985714281473 0
0.00664205777919 0.000591428567187 0
0.00623967188453 0.000197142852902 0
0.00644086483186 0.000394285701562 0
0.00664205778398 0.00276 21
0.00664205777919 0.00256285713862 0
0.00664205777919 0.00216857142433 0
0.00664205777919 0.00236571427299 0
0.00667798507728 0.00177428571004 0
0.00664205777919 0.0019714285587 0
0.00603847894071 0 1
0.0060384789372 0.000197142852902 0
0.00672828331835 0.00118285713013 0
0.00674265424437 0.00137999999576 0
0.00664205777919 0.00157714284442 0
0.00644086483186 0.000591428567187 0
0.00657020314909 0.000985714281473 0
0.00658457407511 0.000788571415848 0
0.00623967188453 0.000591428567187 0
0.00621093003249 0.000394285701562 0
0.00583728599296 0 1
0.00644086483622 0.00276 21
0.00645523575788 0.00256285713862 0
0.00641212297982 0.00236571427299 0
0.00648397760992 0.00216857142433 0
0.006512719445 0.00177428571004 0
0.00644086483186 0.0019714285587 0
0.0058516569159 0.000197142852902 0
0.0060384789372 0.000394285701562 0
0.00655583222307 0.00118285713013 0
0.00644086483186 0.00157714284442 0
0.00654146129704 0.00137999999576 0
0.00640493751681 0.000985714281473 0
0.00644086483186 0.000788571415848 0
0.00618218818045 0.000788571415848 0
0.0060384789372 0.000591428567187 0
0.0056360930452 0 1
0.00563609304255 0.000197142852902 0
0.00623967188847 0.00276 21
0.00623967188453 0.00256285713862 0
0.00623967188453 0.00236571427299 0
0.00623967188453 0.00216857142433 0
0.00636901020176 0.00177428571004 0
0.00623967188453 0.0019714285587 0
0.00580854413783 0.000394285701562 0
0.00588039875097 0.000591428567187 0
0.00623967188453 0.00157714284442 0
0.00632589742369 0.00118285713013 0
0.00623967188453 0.00137999999576 0
0.00623967188453 0.000985714281473 0
0.0060384789372 0.000985714281473 0
0.0060384789372 0.000788571415848 0
0.00563609304255 0.000394285701562 0
0.00543490009744 0 1
0.00544927102124 0.000197142852902 0
0.00523370714969 0 1
0.00603847894071 0.00276 21
0.00605284986322 0.00256285713862 0
0.00600973708516 0.00236571427299 0
0.0060815916983 0.00216857142433 0
0.00611033355034 0.00177428571004 0
0.00598099523312 0.0019714285587 0
0.00563609304255 0.000591428567187 0
0.00577980228579 0.000788571415848 0
0.0060384789372 0.00157714284442 0
0.0060384789372 0.00137999999576 0
0.0060384789372 0.00118285713013 0
0.00583728598987 0.000985714281473 0
0.00543490009522 0.000394285701562 0
0.00547801285631 0.000591428567187 0
0.00523370714789 0.000394285701562 0
0.00523370714789 0.000197142852902 0
0.00503251420193 0 1
0.00583728599296 0.00276 21
0.00583728598987 0.00256285713862 0
0.00583728598987 0.00157714284442 0
0.00583728598987 0.00236571427299 0
0.00583728598987 0.00216857142433 0
0.00583728598987 0.00177428571004 0
0.00583728598987 0.0019714285587 0
0.00563609304255 0.000788571415848 0
0.00567202034063 0.000985714281473 0
0.00583728598987 0.00137999999576 0
0.00575106043375 0.00118285713013 0
0.00537741639113 0.000788571415848 0
0.00523370714789 0.000788571415848 0
0.00523370714789 0.000591428567187 0
0.00506125603563 0.000394285701562 0
0.00501814327454 0.000197142852902 0
0.00483132125417 0 1
0.0056360930452 0.00276 21
0.00565046396857 0.00256285713862 0
0.00563609304255 0.00177428571004 0
0.00563609304255 0.00157714284442 0
0.0056073511905 0.00236571427299 0
0.00567920580364 0.00216857142433 0
0.00563609304255 0.0019714285587 0
0.00550675470836 0.000985714281473 0
0.00552112563438 0.00118285713013 0
0.0055354965604 0.00137999999576 0
0.00523370714789 0.000985714281473 0
0.00508999788768 0.000788571415848 0
0.00503251420056 0.000591428567187 0
0.00483132125323 0.000394285701562 0
0.00483132125323 0.000197142852902 0
0.00463012830642 0 1
0.00543490009744 0.00276 21
0.00543490009522 0.00256285713862 0
0.00543490009522 0.00236571427299 0
0.0054708273933 0.00177428571004 0
0.00543490009522 0.00157714284442 0
0.00543490009522 0.00216857142433 0
0.00543490009522 0.0019714285587 0
0.00534867453909 0.00118285713013 0
0.00533430361307 0.00137999999576 0
0.00511873973972 0.00118285713013 0
0.00503251420056 0.000985714281473 0
0.00483132125323 0.000788571415848 0
0.00483132125323 0.000591428567187 0
0.00465887014098 0.000394285701562 0
0.00461575737988 0.000197142852902 0
0.00442893535857 0.000197142852902 0
0.00442893535866 0 1
0.00523370714969 0.00276 21
0.00523370714789 0.00236571427299 0
0.00524807807391 0.00256285713862 0
0.00519059436982 0.00216857142433 0
0.00530556176103 0.00177428571004 0
0.00523370714789 0.00157714284442 0
0.00523370714789 0.0019714285587 0
0.00513311066574 0.00137999999576 0
0.00494628864443 0.00118285713013 0
0.00458701552784 0.000591428567187 0
0.00483132125323 0.000985714281473 0
0.00468761199302 0.000788571415848 0
0.00442893535857 0.000591428567187 0
0.00442893535857 0.000394285701562 0
0.0042421133203 0.000197142852902 0
0.0042277424109 0 1
0.00503251420193 0.00276 21
0.00503251420056 0.00236571427299 0
0.00503251420056 0.00256285713862 0
0.00503251420056 0.00216857142433 0
0.00507562696166 0.00157714284442 0
0.00503251420056 0.0019714285587 0
0.00516185251778 0.00177428571004 0
0.00491754679239 0.00157714284442 0
0.00471635384506 0.00118285713013 0
0.00493191771841 0.00137999999576 0
0.00442893535857 0.000788571415848 0
0.00455827367579 0.000985714281473 0
0.00427085517234 0.000591428567187 0
0.00422774239428 0.000394285701562 0
0.00402654944695 0.000197142852902 0
0.00402654946315 0 1
0.00483132125417 0.00276 21
0.00486006308831 0.00236571427299 0
0.00481695032721 0.00256285713862 0
0.00488880494035 0.0019714285587 0
0.00478820847517 0.00216857142433 0
0.00490317586637 0.00177428571004 0
0.0047450956971 0.00157714284442 0
0.00422774239428 0.000788571415848 0
0.00454390274977 0.00118285713013 0
0.0046301283059 0.00137999999576 0
0.00438582256354 0.00118285713013 0
0.00429959702438 0.000985714281473 0
0.00415588778114 0.000985714281473 0
0.00402654944695 0.000591428567187 0
0.00402654944695 0.000394285701562 0
0.00382535651539 0 1
0.00382535649962 0.000197142852902 0
0.00475946662312 0.00187285711741 0
0.00463012830642 0.00276 21
0.0046301283059 0.00256285713862 0
0.0046301283059 0.00236571427299 0
0.0046301283059 0.00216857142433 0
0.0046301283059 0.0019714285587 0
0.0046301283059 0.00177428571004 0
0.00451516089773 0.00157714284442 0
0.00402654944695 0.000788571415848 0
0.00432833887642 0.00137999999576 0
0.00422774239428 0.00118285713013 0
0.00403373490996 0.0010842857058 0
0.00382535649962 0.000591428567187 0
0.00379661466454 0.000394285701562 0
0.00362416355229 0.000197142852902 0
0.00362416356764 0 1
0.0037678728125 0.000788571415848 0
0.00442893535866 0.00276 21
0.00442893535857 0.00256285713862 0
0.00440019350653 0.00236571427299 0
0.00447204811967 0.00216857142433 0
0.00434989524849 0.00206999998304 0
0.00442893535857 0.00177428571004 0
0.00448641904569 0.0019714285587 0
0.00422774239428 0.00157714284442 0
0.00382535649962 0.000985714281473 0
0.00412714592909 0.00137999999576 0
0.00408044041104 0.00123214285078 0
0.00391158205574 0.00118285713013 0
0.00366009085038 0.000985714281473 0
0.00342297061988 0 1
0.00322177767212 0 1
0.00362416355229 0.000591428567187 0
0.00362416355229 0.000394285701562 0
0.00342297060496 0.000197142852902 0
0.00362416355229 0.000788571415848 0
0.00422774239428 0.00177428571004 0
0.00402654944695 0.00157714284442 0
0.0042277424109 0.00276 21
0.00422774239428 0.00236571427299 0
0.00422774239428 0.00256285713862 0
0.00422774239428 0.00216857142433 0
0.00422774239428 0.0019714285587 0
0.00402654944695 0.00177428571004 0
0.00402654944695 0.0019714285587 0
0.00302058472437 0 1
0.00373913096046 0.00118285713013 0
0.00382535649962 0.00137999999576 0
0.00358105077423 0.00118285713013 0
0.00349482523506 0.000985714281473 0
0.00322177765763 0.000197142852902 0
0.00342297060496 0.000591428567187 0
0.00339422876988 0.000394285701562 0
0.00336548691784 0.000788571415848 0
0.00281939177661 0 1
0.00386846927768 0.00157714284442 0
0.00402654946315 0.00276 21
0.00405529129899 0.00236571427299 0
0.00402654944695 0.00256285713862 0
0.00402654944695 0.00216857142433 0
0.00382535649962 0.0019714285587 0
0.00382535649962 0.00177428571004 0
0.00371038910841 0.00157714284442 0
0.0030205847103 0.000197142852902 0
0.00281939176297 0.000197142852902 0
0.00352356708711 0.00137999999576 0
0.00342297060496 0.00118285713013 0
0.00335111599182 0.000985714281473 0
0.00322177765763 0.000788571415848 0
0.00322177765763 0.000394285701562 0
0.00322177765763 0.000591428567187 0
0.00261819882885 0 1
0.00382535651539 0.00276 21
0.00382535649962 0.00216857142433 0
0.00382535649962 0.00256285713862 0
0.00382535649962 0.00236571427299 0
0.00368164725637 0.0019714285587 0
0.00362416355229 0.00177428571004 0
0.00345889792001 0.00177428571004 0
0.00342297060496 0.00157714284442 0
0.00260382788962 0.000197142852902 0
0.00299184285826 0.000394285701562 0
0.00281939176297 0.000394285701562 0
0.00332237413978 0.00137999999576 0
0.00322177765763 0.00118285713013 0
0.00309243934041 0.000985714281473 0
0.00307806841438 0.000788571415848 0
0.0030205847103 0.000591428567187 0
0.0024170058811 0 1
0.00221581293334 0 1
0.00201461998558 0 1
0.00362416356764 0.00276 21
0.00362416355229 0.00216857142433 0
0.00360979262627 0.00256285713862 0
0.00362416355229 0.00236571427299 0
0.00342297060496 0.00216857142433 0
0.00342297060496 0.0019714285587 0
0.00329363228773 0.00177428571004 0
0.00322177765763 0.00157714284442 0
0.00241700586831 0.000197142852902 0
0.0027044243548 0.000492857125892 0
0.0025894569636 0.000394285701562 0
0.00281939176297 0.000591428567187 0
0.00312118119245 0.00137999999576 0
0.0030205847103 0.00118285713013 0
0.00294873009716 0.000985714281473 0
0.00281939176297 0.000788571415848 0
0.00181342703783 0 1
0.002230183847 0.000197142852902 0
0.00201461997365 0.000197142852902 0
0.00342297061988 0.00276 21
0.00342297060496 0.00256285713862 0
0.00342297060496 0.00236571427299 0
0.00326489043569 0.00216857142433 0
0.00322177765763 0.0019714285587 0
0.00314992304449 0.00177428571004 0
0.0030205847103 0.00157714284442 0
0.00241700586831 0.000394285701562 0
0.00257508603758 0.000591428567187 0
0.00241700586831 0.000591428567187 0
0.00261819881564 0.000788571415848 0
0.00291998824512 0.00137999999576 0
0.00282657720902 0.0010842857058 0
0.0028732827101 0.00123214285078 0
0.00269005344575 0.000985714281473 0
0.00161223409007 0 1
0.0017990561003 0.000197142852902 0
0.00221581292098 0.000394285701562 0
0.00201461997365 0.000394285701562 0
0.00184216887837 0.000394285701562 0
0.00141104114232 0 1
0.00322177767212 0.00276 21
0.00320740673161 0.00256285713862 0
0.00322177765763 0.00236571427299 0
0.0030205847103 0.00216857142433 0
0.0030205847103 0.0019714285587 0
0.00281939176297 0.00157714284442 0
0.00289124639308 0.00177428571004 0
0.00225892569905 0.000591428567187 0
0.00241700586831 0.000788571415848 0
0.0025463442025 0.000985714281473 0
0.00271879529779 0.00137999999576 0
0.00270442437177 0.00118285713013 0
0.00261819881564 0.00157714284442 0
0.001612234079 0.000197142852902 0
0.001612234079 0.000394285701562 0
0.00201461997365 0.000591428567187 0
0.00181342702633 0.000591428567187 0
0.00141104113167 0.000197142852902 0
0.00120984819456 0 1
0.00125632788165 0.000139646594738 0
0.0030205847103 0.00256285713862 0
0.00302058472437 0.00276 21
0.0030205847103 0.00236571427299 0
0.00286250454103 0.00216857142433 0
0.00281939176297 0.0019714285587 0
0.00274753714983 0.00177428571004 0
0.00258227148362 0.00177428571004 0
0.00221581292098 0.000788571415848 0
0.00201461997365 0.000788571415848 0
0.00228766755109 0.000985714281473 0
0.00241700586831 0.00118285713013 0
0.00251760235046 0.00137999999576 0
0.00241700586831 0.00157714284442 0
0.00143978298371 0.000394285701562 0
0.001612234079 0.000591428567187 0
0.00181342702633 0.000788571415848 0
0.0012706987907 0.000336789443399 0
0.0010086552468 0 1
0.000807462299047 0 1
0.00110161463162 0.0002792932022 0
0.000405076403534 0 1
0.00060626935129 0 1
0.00283376268899 0.00256285713862 0
0.00281939177661 0.00276 21
0.00279064991093 0.00236571427299 0
0.00261819881564 0.00216857142433 0
0.00261819881564 0.0019714285587 0
0.00241700586831 0.00177428571004 0
0.00201461997365 0.000985714281473 0
0.00212958738182 0.00118285713013 0
0.00231640940313 0.00137999999576 0
0.00225892568208 0.00157714284442 0
0.00225174020211 0.00177428569308 0
0.00141104113167 0.000591428567187 0
0.00181342702633 0.000985714281473 0
0.00146852483575 0.000788571415848 0
0.001612234079 0.000788571415848 0
0 0 22
0.000203883455778 0 1
0.000271832893919 0.000139024166879 0
0.00120475679265 0.000580481172523 0
0.00105004354263 0.000424413490029 0
0.000842764615162 0.000139490992015 0
0.000674661285943 0.000139490992015 0
0.00091137781592 0.000314204841342 0
0.000592822311741 0.000278981979788 0
0.000456702280876 0.000156752308181 0
0.00261819881564 0.00256285713862 0
0.00261819882885 0.00276 21
0.00261819881564 0.00236571427299 0
0.00241700586831 0.00216857142433 0
0.00235952218119 0.0019714285587 0
0.00197150719559 0.00118285713013 0
0.00181342702633 0.00118285713013 0
0.00201461997365 0.00137999999576 0
0.00221581292098 0.0019714285587 0
0.00208647460376 0.00177428571004 0
0.00210084552978 0.00157714284442 0
0.00128506973369 0.000780360878332 0
0.00141104113167 0.000985714281473 0
0.001612234079 0.000985714281473 0
0 0.000209937705891 22
0.000153621833993 0.000315555524556 0
0.000327362979683 0.000377791711081 0
0.00110161463162 0.000772150340816 0
0.000998472453634 0.000569533777859 0
0.000762142623229 0.000392581010277 0
0.000792188131582 0.000558586400159 0
0.000510983354504 0.000418472984527 0
0.00238826401627 0.00236571427299 0
0.0024170058811 0.00276 21
0.00241700586831 0.00256285713862 0
0.00221581292098 0.00216857142433 0
0.00181342702633 0.00137999999576 0
0.00166253232007 0.00128142855446 0
0.00192839443449 0.00157714284442 0
0.00207210367774 0.0019714285587 0
0.00194276536051 0.00177428571004 0
0.00122417741046 0.000957237524084 0
0.00128885353319 0.00109341221609 0
0.00149726668779 0.00118285713013 0
0.00151163761381 0.00137999999576 0
0.00182061248934 0.00167571426875 0
0.00221581292098 0.00236571427299 0
0 0.000422650381293 22
0.000153621833993 0.000474392840524 0
0.00103731372318 0.000928760766695 0
0.000438140396023 0.000600056120681 0
0.000806941193598 0.000790403361388 0
0.000612907430538 0.000628409695408 0
0.00221581293334 0.00276 21
0.00221581292098 0.00256285713862 0
0.000994180095164 0.00111166525363 0
0.00197150719559 0.00216857142433 0
0.00201461997365 0.00236571427299 0
0.00169845963512 0.00157714284442 0
0.0016840887091 0.00177428571004 0
0.00181342702633 0.0019714285587 0
0.00116666593471 0.00120111016767 0
0.00133915177426 0.00129055508171 0
0.00152600853983 0.00157714284442 0
0.00135227638558 0.00150932436778 0
0.00181342702633 0.00216857142433 0
0 0.000635394741006 22
0.000170387925661 0.000704866481337 0
0.000306561922102 0.00079206750639 0
0.000821694272579 0.00102222033958 0
0.000476722610445 0.000843330511493 0
0.000649208433029 0.000932775425537 0
0.00201461998558 0.00276 21
0.00200024904763 0.00256285713862 0
0.000805418095374 0.00120986699425 0
0.000946507828182 0.00129456556717 0
0.00181342702633 0.00236571427299 0
0.00154037946586 0.00177428571004 0
0.00166971778308 0.0019714285587 0
0.00110310291773 0.00144497726371 0
0.001363773123 0.00166703865349 0
0.00119291515735 0.00163864875676 0
0.00138740712734 0.0018192336061 0
0.00165534685706 0.00216857142433 0
0 0.000848139100718 22
0.000146046787364 0.000907274341208 0
0.000317815076457 0.000986762937289 0
0.000664328362566 0.00112516845526 0
0.00047821483242 0.001057797311 0
0.00181342703783 0.00276 21
0.00181342702633 0.00256285713862 0
0.000679448292102 0.00131756148498 0
0.000898835578165 0.00147746589769 0
0.00164097593104 0.00236571427299 0
0.00153319398588 0.00206999998304 0
0.00141104113167 0.0019714285587 0
0.00104043319134 0.00167287236449 0
0.00120915017753 0.00183868348848 0
0.00152600852287 0.00226714284866 0
0 0.00106088346043 22
0.000158907525505 0.00113019538005 0
0.00030722123181 0.00118281921342 0
0.000500894726724 0.00134638687254 0
0.000333705809498 0.00139203148607 0
0.00159786315298 0.00256285713862 0
0.00161223409007 0.00276 21
0.000694568221639 0.00150995453166 0
0.000887951242302 0.00170709598919 0
0.00141104113167 0.00236571427299 0
0.00141104113167 0.00216857142433 0
0.00122538523164 0.0020387182202 0
0.0010393023063 0.0018468302886 0
0.00141104113167 0.00256285713862 0
0 0.00127362782014 22
0.000143016775499 0.00142427981121 0
0.000490300882077 0.00154244316564 0
0.000286033559481 0.00157493181658 0
0.00141104114232 0.00276 21
0.000704699855623 0.0017682882192 0
0.000877066906438 0.00193672609767 0
0.00125632786468 0.00242321053115 0
0.00113255728163 0.00220379160542 0
0.00100481209403 0.00207025885154 0
0.00127179920665 0.00261332438474 0
0 0.00148637217986 22
0.00015328095681 0.00164773365197 0
0.000582271371508 0.00186937242733 0
0.000475071884736 0.00175644989206 0
0.000317815076457 0.00177323703726 0
0.00120984819456 0.00276 21
0.000714831506572 0.0020266219237 0
0.000854073431591 0.0021732975432 0
0.00110161463162 0.00248070678932 0
0.00099331535661 0.00231997314574 0
0 0.00169911653957 22
0.00015328095681 0.00183352450835 0
0.000459842887394 0.00197045663546 0
0.000292093600176 0.00200633475209 0
0.0010086552468 0.00276 21
0.000612907430538 0.00213159027914 0
0.000866463273002 0.0026104453272 0
0.000762142623229 0.00228869270618 0
0.00091137781592 0.00244579513321 0
0 0.00191186089928 22
0.000136401233759 0.00205513351018 0
0.000340775859804 0.00219840610898 0
0.000807462299047 0.00276 21
0.00058207934499 0.00231133597311 0
0.000676873993316 0.00248101799476 0
0 0.00212460525899 22
0.000153621833993 0.00228560713403 0
0.000327362979683 0.00238220826347 0
0.00060626935129 0.00276 21
0.000488739884105 0.0025091962874 0
0 0.00233734961871 22
0.000153621833993 0.00244444446696 0
0.000271832893919 0.00262097580767 0
0.000405076403534 0.00276 21
0 0.00255006229411 22
0.000203883455778 0.00276 21
0 0.00276 22

Edges
247
1322 1320 22
1320 1316 22
1316 1311 22
1311 1305 22
1305 1296 22
1296 1286 22
1286 1275 22
1275 1261 22
1261 1246 22
1246 1228 22
1228 1209 22
1209 1186 22
1186 1162 22
157 176 21
176 194 21
194 212 21
212 230 21
230 250 21
250 271 21
271 290 21
290 310 21
310 327 21
327 329 21
329 347 21
347 364 21
364 381 21
381 398 21
398 414 21
414 430 21
430 449 21
449 467 21
467 472 21
472 492 21
492 510 21
510 527 21
527 547 21
547 562 21
562 577 21
577 579 21
579 598 21
598 617 21
617 633 21
633 649 21
649 666 21
666 683 21
683 702 21
702 718 21
718 739 21
739 756 21
756 774 21
774 790 21
790 806 21
806 823 21
823 840 21
840 858 21
858 875 21
875 892 21
892 908 21
908 925 21
925 941 21
941 957 21
957 975 21
975 991 21
991 1012 21
1012 1030 21
1030 1046 21
1046 1065 21
1065 1084 21
1084 1105 21
1105 1126 21
1126 1148 21
1148 1173 21
1173 1195 21
1195 1215 21
1215 1234 21
1234 1251 21
1251 1267 21
1267 1279 21
1279 1291 21
1291 1300 21
1300 1308 21
1308 1314 21
1314 1319 21
1319 1321 21
1321 1322 21
2 11 20
11 27 20
27 44 20
44 61 20
61 77 20
77 94 20
94 110 20
110 126 20
126 141 20
141 157 20
1 2 19
156 140 18
140 125 18
125 109 18
109 93 18
93 76 18
76 60 18
60 43 18
43 26 18
26 10 18
10 1 18
191 174 17
174 156 17
225 208 16
208 191 16
227 244 15
244 225 15
193 210 14
210 227 14
162 175 13
175 193 13
17 35 12
35 52 12
52 69 12
69 86 12
86 91 12
91 106 12
106 122 12
122 137 12
137 154 12
154 162 12
5 16 11
16 19 11
19 20 11
20 6 11
6 8 11
8 7 11
7 18 11
18 17 11
161 145 10
145 130 10
130 114 10
114 98 10
98 81 10
81 65 10
65 48 10
48 31 10
31 15 10
15 5 10
198 180 9
180 161 9
234 216 8
216 198 8
232 253 7
253 234 7
195 213 6
213 232 6
158 177 5
177 195 5
3 13 4
13 29 4
29 46 4
46 62 4
62 78 4
78 95 4
95 111 4
111 127 4
127 142 4
142 158 4
4 3 3
160 144 2
144 129 2
129 113 2
113 97 2
97 80 2
80 64 2
64 47 2
47 30 2
30 14 2
14 4 2
1162 1163 1
1163 1145 1
1145 1146 1
1146 1143 1
1143 1142 1
1142 1123 1
1123 1104 1
1104 1099 1
1099 1081 1
1081 1064 1
1064 1063 1
1063 1062 1
1062 1045 1
1045 1028 1
1028 1019 1
1019 1005 1
1005 1004 1
1004 989 1
989 972 1
972 956 1
956 940 1
940 924 1
924 907 1
907 891 1
891 874 1
874 857 1
857 855 1
855 838 1
838 822 1
822 812 1
812 795 1
795 786 1
786 772 1
772 754 1
754 737 1
737 734 1
734 732 1
732 714 1
714 699 1
699 681 1
681 664 1
664 647 1
647 631 1
631 615 1
615 597 1
597 580 1
580 564 1
564 548 1
548 528 1
528 511 1
511 512 1
512 493 1
493 475 1
475 456 1
456 437 1
437 417 1
417 416 1
416 405 1
405 388 1
388 371 1
371 353 1
353 351 1
351 332 1
332 312 1
312 292 1
292 272 1
272 252 1
252 231 1
231 215 1
215 197 1
197 179 1
179 160 1

Triangles
2395
1321 1322 1320 0
1318 1320 1317 0
1312 1317 1316 0
1318 1319 1321 0
1320 1318 1321 0
1315 1310 1314 0
1313 1315 1318 0
1313 1309 1315 0
1312 1311 1306 0
1318 1315 1319 0
1297 1299 1306 0
1299 1298 1307 0
1312 1306 1307 0
1297 1290 1299 0
1296 1297 1305 0
1296 1286 1287 0
1315 1314 1319 0
1307 1309 1313 0
1304 1295 1294 0
1310 1304 1302 0
1303 1295 1304 0
1310 1308 1314 0
1233 1250 1232 0
1214 1233 1232 0
1264 1268 1277 0
1249 1253 1264 0
1231 1249 1233 0
1236 1237 1253 0
1231 1236 1249 0
1231 1217 1236 0
1236 1217 1237 0
1287 1278 1290 0
1276 1262 1263 0
1286 1276 1287 0
1249 1250 1233 0
1276 1263 1265 0
1262 1248 1263 0
1275 1262 1276 0
1275 1261 1262 0
1302 1300 1308 0
1317 1313 1318 0
1316 1317 1320 0
1312 1313 1317 0
1311 1312 1316 0
1307 1313 1312 0
1301 1292 1293 0
1307 1301 1309 0
1298 1292 1301 0
1296 1287 1297 0
1258 1241 1243 0
1259 1258 1243 0
1269 1254 1258 0
1281 1280 1269 0
1268 1253 1254 0
1214 1192 1213 0
1204 1205 1224 0
1299 1290 1298 0
1287 1276 1278 0
1297 1287 1290 0
1286 1275 1276 0
1309 1310 1315 0
1298 1301 1307 0
1303 1310 1309 0
1294 1291 1300 0
1224 1205 1206 0
1226 1224 1206 0
1223 1204 1224 0
1241 1223 1224 0
1242 1243 1226 0
1254 1237 1241 0
1217 1211 1203 0
1285 1291 1294 0
1119 1139 1138 0
1100 1119 1118 0
1103 1121 1119 0
1083 1103 1100 0
1081 1083 1100 0
1082 1101 1083 0
1120 1140 1121 0
1177 1178 1159 0
1154 1177 1153 0
1154 1179 1177 0
1185 1160 1161 0
1277 1289 1278 0
1144 1167 1142 0
1165 1189 1190 0
1166 1165 1190 0
1158 1160 1183 0
1169 1167 1144 0
1141 1158 1165 0
1191 1167 1169 0
1192 1191 1169 0
1183 1160 1184 0
1189 1183 1203 0
1189 1165 1183 0
1214 1191 1192 0
1211 1231 1213 0
1241 1224 1226 0
1248 1230 1232 0
1230 1229 1212 0
1214 1232 1212 0
1248 1247 1230 0
1229 1228 1210 0
1188 1212 1210 0
1247 1246 1229 0
1230 1247 1229 0
1248 1262 1247 0
1261 1247 1262 0
1261 1246 1247 0
1118 1099 1100 0
1103 1119 1100 0
1138 1122 1118 0
1285 1279 1291 0
1282 1285 1294 0
1274 1279 1285 0
1118 1119 1138 0
1064 1083 1081 0
1083 1063 1082 0
1082 1063 1062 0
1073 1082 1062 0
1075 1073 1054 0
1091 1082 1073 0
1112 1101 1091 0
1132 1112 1113 0
1114 1134 1113 0
1094 1114 1113 0
1098 1116 1114 0
1153 1133 1132 0
1133 1140 1120 0
1132 1133 1120 0
1153 1140 1133 0
1102 1103 1083 0
1120 1102 1101 0
1120 1103 1102 0
1083 1064 1063 0
1266 1267 1279 0
1266 1252 1267 0
1185 1184 1160 0
1159 1185 1161 0
1159 1178 1185 0
1206 1220 1225 0
1177 1198 1178 0
1179 1200 1198 0
1256 1240 1245 0
1260 1256 1245 0
1257 1240 1256 0
1283 1272 1271 0
1293 1284 1295 0
1293 1292 1281 0
1239 1221 1240 0
1244 1239 1257 0
1225 1220 1239 0
1135 1134 1114 0
1081 1100 1099 0
1235 1234 1251 0
1238 1219 1235 0
1245 1238 1255 0
1260 1271 1256 0
1270 1260 1255 0
1270 1271 1260 0
1240 1222 1227 0
1218 1219 1238 0
1208 1197 1194 0
1216 1208 1194 0
1219 1197 1208 0
1252 1238 1235 0
1251 1252 1235 0
1251 1267 1252 0
1218 1197 1219 0
1196 1216 1194 0
1215 1234 1216 0
1114 1116 1135 0
1080 1098 1094 0
1080 1079 1098 0
1095 1090 1110 0
1117 1115 1110 0
1078 1058 1077 0
1306 1299 1307 0
1305 1306 1311 0
1305 1297 1306 0
1221 1202 1222 0
1257 1239 1240 0
1207 1200 1202 0
1221 1207 1202 0
1220 1200 1207 0
1288 1292 1298 0
1290 1289 1298 0
1268 1254 1269 0
1258 1273 1269 0
1226 1243 1241 0
1242 1244 1259 0
1225 1242 1226 0
1259 1272 1273 0
1258 1259 1273 0
1244 1257 1259 0
1239 1244 1242 0
1257 1272 1259 0
1284 1283 1295 0
1273 1284 1281 0
1272 1283 1284 0
1243 1242 1259 0
1257 1271 1272 0
1220 1199 1198 0
1302 1308 1310 0
1303 1304 1310 0
1294 1300 1302 0
1093 1092 1113 0
1091 1093 1112 0
1091 1092 1093 0
1252 1255 1238 0
1134 1154 1153 0
1113 1134 1132 0
1135 1154 1134 0
1180 1176 1197 0
1202 1181 1201 0
1157 1176 1180 0
1155 1137 1156 0
1117 1130 1131 0
1137 1117 1131 0
1157 1156 1152 0
1155 1136 1137 0
1179 1155 1182 0
1136 1115 1117 0
1135 1136 1155 0
1135 1116 1136 0
1110 1111 1130 0
1097 1095 1115 0
1096 1097 1116 0
1096 1078 1097 0
1130 1129 1151 0
1090 1111 1110 0
1089 1071 1088 0
1090 1089 1111 0
1090 1072 1089 0
1185 1205 1184 0
1185 1178 1199 0
1153 1159 1140 0
1153 1177 1159 0
1120 1112 1132 0
1121 1103 1120 0
1139 1121 1140 0
1139 1119 1121 0
1101 1112 1120 0
1177 1179 1198 0
1132 1134 1153 0
1135 1155 1154 0
1179 1182 1200 0
1116 1115 1136 0
1270 1255 1266 0
1295 1283 1294 0
1270 1282 1271 0
1220 1206 1199 0
1221 1239 1220 0
1199 1205 1185 0
1198 1199 1178 0
1206 1205 1199 0
1239 1242 1225 0
1265 1278 1276 0
1250 1249 1264 0
1248 1250 1263 0
1248 1232 1250 0
1284 1273 1272 0
1280 1281 1292 0
1258 1254 1241 0
1281 1269 1273 0
1280 1268 1269 0
1264 1253 1268 0
1263 1264 1265 0
1263 1250 1264 0
1237 1223 1241 0
1225 1226 1206 0
1277 1278 1265 0
1264 1277 1265 0
1268 1280 1277 0
1284 1293 1281 0
1303 1293 1295 0
1303 1301 1293 0
1289 1290 1278 0
1280 1289 1277 0
1288 1298 1289 0
1280 1288 1289 0
1280 1292 1288 0
1202 1201 1222 0
1220 1207 1221 0
1198 1200 1220 0
1182 1181 1202 0
1154 1155 1179 0
1157 1180 1181 0
1227 1218 1238 0
1245 1227 1238 0
1245 1240 1227 0
1221 1222 1240 0
1201 1218 1222 0
1181 1180 1201 0
1200 1182 1202 0
1157 1152 1176 0
1182 1157 1181 0
1156 1137 1152 0
1182 1156 1157 0
1182 1155 1156 0
1115 1095 1110 0
1137 1136 1117 0
1116 1097 1115 0
1150 1151 1129 0
1149 1150 1128 0
1174 1175 1150 0
1197 1175 1194 0
1176 1151 1175 0
1304 1294 1302 0
1309 1301 1303 0
1260 1245 1255 0
1282 1283 1271 0
1274 1282 1270 0
1294 1283 1282 0
1257 1256 1271 0
1222 1218 1227 0
1197 1218 1201 0
1219 1216 1235 0
1274 1285 1282 0
1266 1274 1270 0
1266 1279 1274 0
1054 1062 1045 0
1038 1045 1028 0
1038 1054 1045 0
1061 1076 1055 0
1074 1075 1056 0
1076 1074 1056 0
1076 1092 1074 0
1091 1101 1082 0
1075 1091 1073 0
1056 1075 1054 0
1092 1091 1075 0
1093 1113 1112 0
1113 1092 1094 0
1098 1114 1094 0
1101 1102 1083 0
1073 1062 1054 0
1255 1252 1266 0
1235 1216 1234 0
1038 1037 1055 0
1054 1038 1056 0
1028 1037 1038 0
1196 1174 1172 0
1215 1216 1195 0
1197 1176 1175 0
1197 1201 1180 0
1174 1150 1149 0
1208 1216 1219 0
1053 1072 1057 0
1130 1117 1110 0
1129 1130 1111 0
1131 1152 1137 0
1151 1131 1130 0
1151 1152 1131 0
1128 1150 1129 0
1176 1152 1151 0
1057 1040 1039 0
1077 1058 1057 0
1072 1077 1057 0
1095 1078 1077 0
1078 1079 1059 0
1037 1028 1019 0
1024 1019 1005 0
1196 1194 1174 0
1195 1196 1173 0
1195 1216 1196 0
1147 1126 1148 0
1173 1172 1148 0
1068 1066 1049 0
1048 1068 1049 0
1067 1086 1068 0
1085 1086 1067 0
1105 1085 1084 0
1106 1107 1085 0
1107 1087 1086 0
1125 1127 1106 0
1128 1129 1109 0
1038 1055 1056 0
1024 1037 1019 0
1024 1043 1037 0
1006 1007 987 0
1041 1023 1040 0
1078 1059 1058 0
1042 1027 1041 0
972 973 989 0
1125 1106 1126 0
1147 1125 1126 0
1147 1127 1125 0
1085 1107 1086 0
1126 1106 1105 0
1109 1129 1111 0
1052 1070 1071 0
1053 1052 1071 0
1051 1070 1052 0
1108 1127 1128 0
1109 1108 1128 0
1087 1107 1108 0
1088 1108 1109 0
1106 1127 1107 0
1147 1149 1127 0
1174 1194 1175 0
1151 1150 1175 0
1149 1147 1172 0
1127 1149 1128 0
1172 1173 1196 0
1149 1172 1174 0
1147 1148 1172 0
1026 1007 1025 0
956 973 972 0
970 953 964 0
986 970 982 0
971 954 970 0
955 971 973 0
940 955 956 0
939 954 955 0
1067 1084 1085 0
1024 1005 1004 0
1008 1026 1024 0
989 1008 1004 0
988 973 987 0
989 988 1008 0
989 973 988 0
1043 1055 1037 0
1076 1094 1092 0
1076 1080 1094 0
1075 1074 1092 0
1056 1055 1076 0
1097 1078 1095 0
1060 1079 1080 0
1060 1042 1059 0
1027 1042 1044 0
1096 1116 1098 0
1079 1096 1098 0
1079 1078 1096 0
1061 1080 1076 0
1043 1061 1055 0
1060 1080 1061 0
1105 1106 1085 0
1032 1046 1048 0
907 922 924 0
939 955 940 0
1003 1022 1023 0
1003 999 1020 0
1009 1003 1023 0
1009 990 1003 0
1003 990 999 0
1027 1009 1023 0
1027 1025 1009 0
986 982 990 0
1002 1021 1020 0
1001 1000 1021 0
985 1001 1002 0
985 984 1001 0
968 984 969 0
964 968 969 0
952 936 935 0
983 998 1000 0
967 965 983 0
968 967 984 0
968 952 967 0
981 996 998 0
966 981 983 0
966 963 981 0
949 950 966 0
962 945 947 0
1035 1050 1051 0
1044 1060 1061 0
1032 1031 1014 0
1046 1032 1030 0
1049 1031 1032 0
1065 1067 1048 0
1066 1050 1047 0
1068 1086 1066 0
1048 1067 1068 0
1032 1048 1049 0
1046 1065 1048 0
1065 1084 1067 0
1058 1041 1040 0
987 973 971 0
1006 987 986 0
1007 1026 1008 0
987 1007 988 0
1006 1025 1007 0
1043 1026 1044 0
1061 1043 1044 0
1024 1026 1043 0
1024 1004 1008 0
1006 986 990 0
1025 1006 1009 0
1044 1025 1027 0
1044 1026 1025 0
1007 1008 988 0
1077 1090 1095 0
1071 1072 1053 0
1051 1052 1053 0
1088 1109 1089 0
1071 1089 1072 0
1042 1060 1044 0
1023 1041 1027 0
1059 1079 1060 0
1041 1059 1042 0
1041 1058 1059 0
1033 1034 1018 0
965 967 952 0
970 986 971 0
969 982 964 0
999 990 982 0
1020 999 1002 0
1022 1040 1023 0
1020 1022 1003 0
1020 1039 1022 0
964 951 968 0
985 999 982 0
984 985 969 0
1002 999 985 0
953 951 964 0
982 970 964 0
954 938 953 0
955 954 971 0
924 939 940 0
922 907 906 0
938 922 921 0
923 939 924 0
938 923 922 0
938 939 923 0
983 1000 984 0
981 998 983 0
997 996 980 0
974 979 980 0
995 1016 997 0
994 995 997 0
994 1015 995 0
1010 998 996 0
1016 1010 996 0
1016 1017 1010 0
1011 1000 998 0
1034 1035 1018 0
1021 1039 1020 0
1029 1036 1021 0
1017 1029 1011 0
1035 1036 1029 0
1017 1035 1029 0
998 1017 1011 0
1018 1035 1017 0
1034 1050 1035 0
1051 1053 1036 0
985 982 969 0
1009 1006 990 0
970 954 953 0
987 971 986 0
973 956 955 0
1001 984 1000 0
934 920 936 0
938 921 934 0
939 938 954 0
923 924 922 0
907 891 906 0
965 966 983 0
984 967 983 0
952 949 965 0
965 949 966 0
951 952 968 0
951 936 952 0
950 932 945 0
963 950 948 0
933 932 950 0
935 933 949 0
902 886 899 0
917 902 915 0
932 917 915 0
933 918 917 0
918 903 902 0
935 918 933 0
935 936 919 0
905 906 890 0
921 905 920 0
921 906 905 0
945 932 930 0
947 945 930 0
948 950 945 0
962 948 945 0
946 962 947 0
974 980 962 0
960 974 962 0
960 979 974 0
963 966 950 0
962 963 948 0
980 996 981 0
906 891 890 0
889 905 890 0
921 922 906 0
977 993 994 0
975 976 959 0
992 993 977 0
991 992 975 0
991 1014 992 0
978 979 961 0
1016 996 997 0
993 1013 1015 0
1018 1017 1016 0
950 949 933 0
893 909 896 0
925 927 908 0
913 928 931 0
909 910 896 0
926 928 913 0
914 913 931 0
927 926 910 0
908 927 909 0
925 941 943 0
913 896 910 0
942 928 926 0
942 958 944 0
927 943 926 0
958 961 944 0
929 930 912 0
946 947 931 0
946 960 962 0
960 946 944 0
979 997 980 0
961 979 960 0
978 997 979 0
958 977 961 0
994 997 978 0
980 963 962 0
911 912 895 0
898 911 894 0
929 912 911 0
931 929 914 0
947 930 929 0
874 890 891 0
998 1010 1017 0
977 994 978 0
994 993 1015 0
1036 1035 1051 0
981 963 980 0
1032 1014 1030 0
1033 1031 1049 0
1047 1033 1049 0
1066 1047 1049 0
1034 1033 1047 0
1018 1016 1033 0
1013 1014 1031 0
1033 1015 1031 0
993 1014 1013 0
977 976 992 0
961 977 978 0
958 959 977 0
1015 1013 1031 0
1016 1015 1033 0
1016 995 1015 0
977 959 976 0
1012 1030 1014 0
1039 1040 1022 0
1000 1011 1021 0
1077 1072 1090 0
1040 1057 1058 0
1039 1053 1057 0
1036 1053 1039 0
1070 1050 1066 0
1069 1070 1066 0
1127 1108 1107 0
1088 1070 1087 0
1111 1089 1109 0
1071 1070 1088 0
1051 1050 1070 0
1021 1011 1029 0
1039 1021 1036 0
1002 1001 1021 0
1069 1066 1086 0
1087 1069 1086 0
1087 1070 1069 0
1047 1050 1034 0
1088 1087 1108 0
1012 1014 991 0
856 873 855 0
889 890 873 0
872 889 873 0
870 872 873 0
870 888 872 0
904 920 905 0
919 920 904 0
918 919 903 0
936 920 919 0
949 952 935 0
934 921 920 0
951 934 936 0
937 953 938 0
951 937 934 0
951 953 937 0
934 937 938 0
874 857 873 0
883 882 865 0
915 899 900 0
886 882 899 0
992 1014 993 0
959 943 957 0
943 958 942 0
975 959 957 0
975 992 976 0
944 946 928 0
942 944 928 0
961 960 944 0
903 919 904 0
822 829 839 0
943 959 958 0
926 943 942 0
941 957 943 0
856 855 838 0
829 846 839 0
870 873 856 0
899 915 902 0
873 857 855 0
888 889 872 0
890 874 873 0
946 931 928 0
925 943 927 0
821 830 813 0
795 804 812 0
843 828 826 0
825 843 826 0
861 863 845 0
894 880 898 0
845 828 843 0
861 845 843 0
862 844 845 0
880 862 863 0
848 832 844 0
862 848 844 0
866 850 848 0
845 863 862 0
860 861 842 0
860 879 861 0
875 893 876 0
879 863 861 0
878 896 897 0
860 878 879 0
876 893 878 0
897 881 879 0
908 909 892 0
880 877 866 0
914 929 911 0
897 913 898 0
931 947 929 0
912 916 901 0
894 911 895 0
880 894 895 0
898 914 911 0
930 932 916 0
788 786 772 0
773 788 772 0
787 805 788 0
788 805 789 0
854 870 856 0
839 854 856 0
838 839 856 0
838 822 839 0
846 847 864 0
813 830 829 0
812 813 829 0
804 821 813 0
864 882 871 0
854 864 871 0
847 865 864 0
836 853 837 0
883 885 900 0
882 883 899 0
869 885 883 0
829 822 812 0
830 846 829 0
820 837 821 0
837 853 847 0
830 837 847 0
820 836 837 0
846 854 839 0
795 786 804 0
801 785 783 0
802 801 784 0
796 802 784 0
798 796 784 0
814 802 796 0
818 819 802 0
819 803 801 0
821 805 820 0
772 754 773 0
910 909 927 0
913 897 896 0
926 913 910 0
914 898 913 0
881 897 898 0
879 878 897 0
878 860 876 0
878 893 896 0
859 876 860 0
859 858 876 0
892 909 893 0
841 842 825 0
859 841 840 0
859 842 841 0
875 876 858 0
875 892 893 0
734 751 737 0
852 836 851 0
865 853 869 0
847 846 830 0
865 847 853 0
865 882 864 0
805 787 803 0
804 805 821 0
789 786 788 0
804 789 805 0
804 786 789 0
818 802 814 0
798 815 814 0
780 779 797 0
784 780 798 0
768 750 763 0
762 743 747 0
722 721 742 0
725 727 743 0
724 725 743 0
724 709 725 0
708 724 726 0
707 692 709 0
721 705 708 0
689 676 692 0
782 800 799 0
781 766 782 0
797 781 799 0
797 779 781 0
777 759 778 0
764 748 759 0
765 764 782 0
765 748 764 0
765 747 746 0
744 743 762 0
746 729 748 0
799 815 797 0
779 766 781 0
800 816 799 0
844 828 845 0
866 848 862 0
827 828 844 0
816 827 832 0
816 800 810 0
830 821 837 0
769 755 751 0
785 769 770 0
771 787 773 0
755 771 773 0
785 787 771 0
824 806 823 0
794 792 809 0
791 806 807 0
812 804 813 0
884 901 885 0
917 932 933 0
846 864 854 0
869 883 865 0
871 870 854 0
886 871 882 0
886 888 871 0
917 918 902 0
888 870 871 0
887 903 888 0
902 887 886 0
902 903 887 0
904 889 888 0
903 904 888 0
886 887 888 0
918 935 919 0
904 905 889 0
901 895 912 0
900 901 916 0
900 885 901 0
883 900 899 0
868 885 869 0
853 852 869 0
849 850 868 0
884 895 901 0
868 884 885 0
881 863 879 0
880 881 898 0
880 863 881 0
877 880 895 0
884 877 895 0
884 866 877 0
866 862 880 0
916 932 915 0
900 916 915 0
912 930 916 0
841 824 823 0
858 859 840 0
810 827 816 0
811 810 800 0
811 827 810 0
794 811 793 0
808 826 811 0
826 828 811 0
809 826 808 0
825 842 843 0
816 815 799 0
793 811 800 0
832 833 816 0
844 832 827 0
833 849 831 0
848 850 832 0
867 868 850 0
866 867 850 0
866 884 867 0
824 825 809 0
763 780 768 0
745 763 750 0
745 761 763 0
780 784 768 0
815 798 797 0
814 796 798 0
831 814 815 0
802 819 801 0
831 818 814 0
831 849 834 0
833 831 815 0
816 833 815 0
832 850 833 0
834 851 835 0
818 834 835 0
818 831 834 0
755 737 751 0
852 868 869 0
836 852 853 0
851 868 852 0
835 851 836 0
849 868 851 0
777 793 782 0
764 777 782 0
759 741 760 0
764 759 777 0
748 741 759 0
843 842 861 0
809 825 826 0
824 841 825 0
806 824 807 0
823 840 841 0
842 859 860 0
790 791 775 0
769 785 771 0
783 785 770 0
803 787 785 0
801 803 785 0
819 835 817 0
849 851 834 0
817 805 803 0
819 817 803 0
835 820 817 0
769 752 770 0
771 755 769 0
788 773 787 0
754 755 773 0
754 737 755 0
752 736 753 0
732 733 751 0
779 780 763 0
762 779 761 0
797 798 780 0
783 768 784 0
801 783 784 0
753 735 749 0
767 753 749 0
770 752 753 0
745 742 761 0
779 763 761 0
750 731 745 0
783 767 768 0
731 742 745 0
749 731 750 0
730 722 723 0
749 730 731 0
767 749 750 0
768 767 750 0
783 770 767 0
735 730 749 0
736 735 753 0
751 736 752 0
733 717 736 0
716 713 730 0
717 716 735 0
717 701 716 0
712 706 722 0
730 712 722 0
713 697 712 0
735 716 730 0
701 700 698 0
733 732 714 0
715 733 714 0
701 715 700 0
717 733 715 0
713 716 701 0
735 736 717 0
751 734 732 0
736 751 733 0
752 769 751 0
758 756 774 0
791 807 809 0
775 791 792 0
776 775 792 0
778 776 792 0
760 757 776 0
778 760 776 0
778 759 760 0
758 774 775 0
790 806 791 0
738 729 719 0
714 699 700 0
739 756 758 0
740 720 718 0
757 740 758 0
775 776 758 0
741 729 738 0
719 720 740 0
728 711 729 0
704 720 719 0
665 681 664 0
715 714 700 0
699 681 700 0
696 697 688 0
682 665 680 0
700 682 698 0
700 681 682 0
664 647 648 0
740 718 739 0
758 740 739 0
704 684 703 0
720 702 718 0
669 654 651 0
686 669 670 0
686 687 671 0
696 706 712 0
697 696 712 0
688 706 696 0
672 688 679 0
687 706 688 0
691 705 686 0
675 691 686 0
690 707 691 0
721 706 705 0
742 721 726 0
722 706 721 0
723 722 742 0
731 723 742 0
731 730 723 0
730 713 712 0
648 665 664 0
645 662 646 0
679 680 663 0
698 697 713 0
680 698 682 0
680 697 698 0
663 680 665 0
679 697 680 0
662 679 663 0
646 662 663 0
645 654 662 0
672 687 688 0
671 687 672 0
654 671 672 0
669 686 671 0
688 697 679 0
713 701 698 0
753 767 770 0
682 681 665 0
631 632 647 0
703 684 702 0
720 703 702 0
720 704 703 0
711 704 719 0
729 711 719 0
738 757 741 0
740 738 719 0
740 757 738 0
741 748 729 0
728 727 710 0
778 793 777 0
757 758 776 0
811 828 827 0
709 724 707 0
693 709 692 0
727 725 709 0
659 661 656 0
641 628 643 0
660 668 678 0
649 667 650 0
660 678 659 0
650 667 660 0
685 694 678 0
695 694 704 0
711 695 704 0
711 728 710 0
644 660 659 0
656 641 643 0
618 617 634 0
678 661 659 0
710 727 709 0
694 710 693 0
695 711 710 0
676 674 661 0
693 692 677 0
690 674 676 0
690 673 674 0
667 685 668 0
702 684 683 0
704 685 684 0
811 794 808 0
782 793 800 0
778 794 793 0
757 760 741 0
792 794 778 0
774 790 775 0
809 808 794 0
791 809 792 0
807 824 809 0
850 849 833 0
884 868 867 0
817 820 805 0
818 835 819 0
836 820 835 0
766 779 762 0
782 766 765 0
782 799 781 0
717 715 701 0
693 677 678 0
695 710 694 0
747 727 728 0
746 747 728 0
729 746 728 0
748 765 746 0
762 761 744 0
765 762 747 0
765 766 762 0
744 742 726 0
743 744 726 0
724 743 726 0
727 747 743 0
761 742 744 0
692 676 677 0
710 709 693 0
689 690 676 0
707 689 692 0
707 690 689 0
648 632 646 0
665 648 663 0
647 632 648 0
684 667 683 0
694 685 704 0
678 677 661 0
685 678 668 0
694 693 678 0
616 619 630 0
597 600 615 0
708 707 724 0
721 708 726 0
705 691 708 0
667 668 660 0
683 667 666 0
684 685 667 0
650 633 649 0
666 667 649 0
609 613 625 0
629 628 614 0
629 644 643 0
618 629 614 0
643 659 656 0
629 643 628 0
644 659 643 0
618 634 629 0
657 673 655 0
641 657 640 0
674 673 657 0
661 674 656 0
661 677 676 0
584 580 564 0
551 550 530 0
587 607 586 0
581 587 567 0
581 602 587 0
586 566 568 0
567 587 568 0
565 584 564 0
550 566 549 0
585 584 565 0
604 585 586 0
604 603 585 0
599 614 596 0
598 599 596 0
618 614 599 0
633 634 617 0
650 660 644 0
634 650 644 0
629 634 644 0
633 650 634 0
530 550 549 0
620 611 627 0
581 590 582 0
590 591 611 0
582 590 601 0
602 582 601 0
602 581 582 0
581 570 590 0
549 548 528 0
511 529 528 0
566 585 565 0
549 566 565 0
550 568 566 0
549 528 529 0
708 691 707 0
687 686 705 0
706 687 705 0
671 654 669 0
675 673 690 0
670 675 686 0
658 655 673 0
670 658 675 0
670 652 658 0
620 606 602 0
611 620 601 0
627 636 620 0
621 606 620 0
637 621 636 0
637 623 621 0
637 638 623 0
583 600 580 0
603 583 584 0
603 600 583 0
635 630 619 0
638 635 622 0
651 645 635 0
616 632 615 0
672 679 662 0
616 615 600 0
619 616 600 0
630 632 616 0
663 648 646 0
631 615 632 0
597 580 600 0
642 636 627 0
674 657 656 0
691 675 690 0
658 652 642 0
627 612 626 0
591 572 573 0
601 590 611 0
590 571 572 0
592 612 611 0
555 558 572 0
553 554 571 0
570 552 553 0
590 570 571 0
581 567 570 0
534 516 515 0
524 505 507 0
542 538 539 0
558 542 556 0
558 555 542 0
507 489 490 0
508 524 506 0
490 471 469 0
505 488 507 0
502 504 521 0
488 502 485 0
488 504 502 0
489 488 468 0
505 504 488 0
539 522 523 0
488 485 468 0
563 546 547 0
544 541 543 0
559 544 543 0
559 560 544 0
526 510 527 0
545 559 543 0
526 545 543 0
561 559 545 0
491 487 492 0
508 491 509 0
508 506 491 0
578 595 576 0
598 596 579 0
614 595 596 0
618 598 617 0
613 609 614 0
641 625 628 0
625 640 624 0
588 589 569 0
595 588 576 0
609 608 588 0
598 618 599 0
658 673 675 0
642 655 658 0
636 642 652 0
626 639 642 0
610 626 612 0
593 594 612 0
624 640 639 0
608 624 610 0
608 609 625 0
625 613 628 0
640 625 641 0
624 608 625 0
640 657 655 0
496 515 497 0
479 496 497 0
520 538 536 0
501 520 500 0
521 504 522 0
503 521 520 0
503 502 521 0
653 637 652 0
651 653 669 0
651 638 653 0
605 604 623 0
622 605 623 0
622 603 605 0
580 584 583 0
564 548 565 0
627 611 612 0
642 627 626 0
636 621 620 0
670 669 653 0
620 602 601 0
603 619 600 0
585 603 584 0
604 605 603 0
603 622 619 0
566 586 585 0
607 606 623 0
662 654 672 0
630 645 646 0
632 630 646 0
619 622 635 0
651 654 645 0
638 651 635 0
638 637 653 0
623 638 622 0
607 623 604 0
606 621 623 0
652 637 636 0
652 670 653 0
635 645 630 0
591 590 572 0
607 587 602 0
567 552 570 0
551 567 568 0
535 533 532 0
553 571 570 0
593 612 592 0
573 574 592 0
575 589 593 0
613 614 628 0
589 588 608 0
595 614 609 0
588 595 609 0
561 576 569 0
559 561 569 0
563 547 562 0
578 577 596 0
595 578 596 0
563 577 578 0
577 579 596 0
639 655 642 0
624 639 626 0
640 655 639 0
610 624 626 0
641 656 657 0
529 511 512 0
495 514 512 0
530 549 529 0
514 531 529 0
494 513 495 0
475 473 476 0
480 481 498 0
531 530 529 0
513 531 514 0
532 551 531 0
518 532 531 0
499 498 517 0
494 499 513 0
494 498 499 0
535 532 518 0
533 553 552 0
532 533 552 0
535 553 533 0
549 565 548 0
532 552 551 0
607 602 606 0
586 607 604 0
586 568 587 0
574 593 592 0
556 574 558 0
560 575 574 0
557 560 574 0
557 544 560 0
540 541 557 0
569 589 575 0
563 576 561 0
546 563 561 0
562 577 563 0
594 610 612 0
589 594 593 0
589 610 594 0
576 588 569 0
608 610 589 0
576 563 578 0
514 529 512 0
513 514 495 0
513 518 531 0
476 494 495 0
475 476 495 0
473 494 476 0
437 455 456 0
474 494 473 0
551 568 550 0
531 551 530 0
552 567 551 0
493 475 495 0
547 546 527 0
493 495 512 0
435 450 446 0
469 454 451 0
454 453 435 0
468 464 450 0
489 507 488 0
503 501 486 0
429 447 427 0
428 429 411 0
448 447 429 0
465 466 448 0
446 465 448 0
464 486 465 0
446 450 465 0
485 503 486 0
466 447 448 0
468 471 489 0
464 468 485 0
453 471 468 0
450 453 468 0
450 435 453 0
465 450 464 0
446 431 435 0
444 445 426 0
483 462 466 0
483 463 462 0
465 486 466 0
560 559 575 0
540 557 556 0
539 540 556 0
523 524 540 0
541 544 557 0
524 541 540 0
525 509 526 0
524 525 541 0
508 509 525 0
534 537 553 0
497 515 516 0
519 537 534 0
500 519 515 0
500 520 519 0
390 406 389 0
391 390 374 0
407 406 390 0
399 407 391 0
425 406 407 0
427 425 409 0
392 410 409 0
447 444 427 0
426 408 425 0
444 426 425 0
462 444 447 0
462 445 444 0
445 439 426 0
463 445 462 0
484 463 483 0
439 438 420 0
426 439 420 0
457 438 439 0
477 457 463 0
459 458 442 0
477 459 457 0
477 479 459 0
461 479 481 0
460 461 481 0
458 479 461 0
455 436 443 0
441 457 459 0
442 441 459 0
438 457 441 0
526 527 546 0
545 526 546 0
543 525 526 0
456 473 475 0
455 473 456 0
436 455 437 0
460 474 455 0
491 506 487 0
510 509 492 0
554 555 571 0
537 554 553 0
537 555 554 0
534 515 519 0
535 534 553 0
535 516 534 0
519 520 536 0
491 492 509 0
436 437 417 0
423 404 422 0
424 422 419 0
441 424 438 0
442 440 424 0
441 442 424 0
458 443 440 0
429 428 448 0
455 474 473 0
443 458 461 0
455 443 460 0
436 421 440 0
416 436 417 0
440 423 422 0
416 421 436 0
416 423 421 0
443 461 460 0
484 483 501 0
482 484 501 0
500 482 501 0
478 477 484 0
496 478 482 0
496 477 478 0
477 463 484 0
481 474 460 0
497 481 479 0
497 516 498 0
496 500 515 0
477 496 479 0
478 484 482 0
480 494 474 0
481 480 474 0
498 494 480 0
497 498 481 0
516 517 498 0
486 483 466 0
485 486 464 0
501 483 486 0
520 501 503 0
500 496 482 0
517 518 499 0
535 517 516 0
535 518 517 0
499 518 513 0
432 431 413 0
414 433 415 0
451 431 432 0
452 451 434 0
452 469 451 0
490 506 507 0
467 470 452 0
487 506 490 0
472 487 467 0
472 492 487 0
451 435 431 0
454 471 453 0
451 454 435 0
469 471 454 0
470 469 452 0
490 489 471 0
470 490 469 0
470 487 490 0
524 508 525 0
505 524 523 0
507 506 524 0
467 487 470 0
591 592 611 0
555 572 571 0
573 592 591 0
558 573 572 0
558 574 573 0
538 542 555 0
556 557 574 0
539 523 540 0
542 539 556 0
522 504 505 0
538 522 539 0
538 521 522 0
536 538 555 0
537 536 555 0
537 519 536 0
522 505 523 0
520 521 538 0
503 485 502 0
559 569 575 0
593 574 575 0
526 509 510 0
561 545 546 0
541 525 543 0
449 467 452 0
423 405 404 0
440 421 423 0
424 440 422 0
442 458 440 0
416 405 423 0
457 445 463 0
457 439 445 0
479 458 459 0
419 418 438 0
424 419 438 0
443 436 440 0
403 419 422 0
404 403 422 0
404 387 403 0
388 404 405 0
387 386 403 0
401 385 400 0
403 401 419 0
386 385 401 0
403 386 401 0
370 350 352 0
387 370 386 0
387 371 370 0
418 401 400 0
371 387 388 0
371 353 370 0
385 368 384 0
402 406 408 0
434 433 430 0
449 434 430 0
451 433 434 0
449 452 434 0
428 411 413 0
431 428 413 0
446 448 428 0
380 395 378 0
398 397 381 0
415 412 397 0
414 415 398 0
412 413 396 0
432 412 415 0
432 413 412 0
433 451 432 0
415 433 432 0
414 430 433 0
402 420 418 0
389 402 400 0
389 406 402 0
418 400 402 0
438 418 420 0
419 401 418 0
353 351 370 0
369 368 385 0
369 352 368 0
370 369 386 0
370 352 369 0
412 395 397 0
446 428 431 0
396 395 412 0
411 396 413 0
393 394 379 0
411 393 396 0
411 394 393 0
363 362 346 0
376 379 394 0
381 397 380 0
397 398 415 0
427 444 425 0
350 370 351 0
350 351 332 0
331 333 350 0
312 313 332 0
295 293 275 0
297 314 294 0
274 276 294 0
296 316 297 0
314 315 295 0
332 313 331 0
312 293 313 0
369 385 386 0
311 325 307 0
310 311 291 0
328 325 311 0
346 328 327 0
343 325 328 0
346 343 328 0
347 346 329 0
395 380 397 0
361 348 344 0
376 361 362 0
378 376 362 0
367 382 383 0
348 367 349 0
365 382 367 0
361 365 348 0
377 382 365 0
394 377 376 0
394 392 377 0
410 394 411 0
429 410 411 0
427 409 410 0
377 365 361 0
392 382 377 0
410 392 394 0
399 383 382 0
409 399 392 0
409 425 407 0
399 391 383 0
344 325 343 0
361 344 343 0
360 366 375 0
341 360 340 0
322 341 340 0
321 324 341 0
342 349 360 0
330 348 349 0
323 330 342 0
323 326 330 0
348 365 367 0
376 377 361 0
282 303 304 0
342 341 324 0
323 342 324 0
349 366 360 0
340 338 322 0
342 360 341 0
358 375 359 0
338 358 359 0
360 375 358 0
363 347 364 0
380 363 364 0
381 380 364 0
378 363 380 0
396 379 395 0
362 363 378 0
379 376 378 0
395 379 378 0
396 393 379 0
345 343 346 0
361 345 362 0
361 343 345 0
346 347 363 0
331 350 332 0
294 275 273 0
276 277 296 0
254 274 273 0
256 277 276 0
255 256 274 0
255 258 256 0
316 334 335 0
372 355 354 0
314 335 315 0
294 314 295 0
316 335 314 0
331 313 315 0
292 272 275 0
368 372 384 0
279 300 280 0
259 279 280 0
259 263 279 0
321 341 322 0
338 318 319 0
322 338 319 0
357 356 339 0
260 238 241 0
258 257 278 0
335 334 355 0
315 335 333 0
331 315 333 0
313 295 315 0
313 293 295 0
255 235 237 0
260 241 259 0
236 238 257 0
220 221 241 0
218 220 238 0
218 201 220 0
201 183 184 0
202 220 201 0
218 217 199 0
388 387 404 0
329 346 327 0
2 11 9 0
9 1 2 0
25 9 11 0
10 1 9 0
25 11 27 0
42 25 27 0
10 9 25 0
10 25 26 0
42 44 59 0
25 42 26 0
27 44 42 0
43 26 42 0
59 44 61 0
59 61 75 0
43 59 60 0
43 42 59 0
61 77 75 0
75 76 60 0
59 75 60 0
77 92 75 0
92 77 94 0
92 94 108 0
76 92 93 0
76 75 92 0
94 110 108 0
108 93 92 0
124 108 110 0
109 93 108 0
126 124 110 0
124 126 139 0
109 124 125 0
109 108 124 0
139 141 155 0
124 139 125 0
126 141 139 0
140 125 139 0
157 155 141 0
155 157 173 0
140 155 156 0
140 139 155 0
156 155 173 0
173 176 192 0
156 173 174 0
157 176 173 0
174 173 192 0
176 194 192 0
207 194 212 0
191 192 208 0
191 174 192 0
192 194 207 0
207 212 211 0
208 207 225 0
208 192 207 0
211 212 230 0
229 211 230 0
229 225 211 0
248 230 250 0
225 229 244 0
225 207 211 0
269 250 271 0
248 250 269 0
249 248 269 0
229 230 248 0
291 290 310 0
307 286 291 0
326 309 325 0
309 308 289 0
325 309 307 0
326 308 309 0
269 271 286 0
349 342 330 0
265 245 267 0
285 265 267 0
282 261 265 0
330 344 348 0
330 326 344 0
285 282 265 0
321 303 306 0
321 322 304 0
289 269 286 0
307 289 286 0
289 308 287 0
325 344 326 0
291 311 307 0
290 291 286 0
310 327 311 0
311 327 328 0
240 262 243 0
224 239 240 0
222 224 243 0
223 222 243 0
223 205 222 0
205 206 224 0
358 340 360 0
305 304 322 0
305 284 283 0
301 300 319 0
301 280 300 0
264 262 283 0
268 246 247 0
323 306 308 0
245 246 267 0
285 303 282 0
288 285 267 0
306 303 285 0
288 306 285 0
268 287 288 0
246 268 267 0
266 287 268 0
308 306 288 0
324 321 306 0
261 239 245 0
239 261 240 0
289 270 269 0
324 306 323 0
270 266 249 0
288 287 308 0
287 270 289 0
267 268 288 0
266 270 287 0
247 266 268 0
247 244 266 0
249 269 270 0
229 249 244 0
308 326 323 0
262 264 243 0
261 262 240 0
304 303 321 0
319 305 322 0
281 282 304 0
283 281 304 0
283 262 281 0
262 282 281 0
261 245 265 0
345 346 362 0
372 368 355 0
356 372 354 0
384 400 385 0
389 384 372 0
389 400 384 0
373 389 372 0
375 374 357 0
391 407 390 0
408 426 420 0
402 408 420 0
406 425 408 0
374 390 389 0
383 391 375 0
349 367 366 0
382 392 399 0
399 409 407 0
366 367 383 0
410 429 427 0
447 466 462 0
235 255 234 0
280 301 299 0
263 259 241 0
284 264 283 0
333 355 352 0
358 338 340 0
339 359 357 0
337 318 338 0
339 337 359 0
339 320 337 0
354 336 356 0
320 317 337 0
302 317 320 0
276 274 256 0
297 276 296 0
297 294 276 0
278 299 298 0
299 301 317 0
257 260 278 0
337 338 359 0
301 318 317 0
301 319 318 0
373 374 389 0
356 373 372 0
356 374 373 0
375 357 359 0
383 375 366 0
391 374 375 0
333 352 350 0
292 293 312 0
355 368 352 0
248 249 229 0
290 286 271 0
289 307 309 0
260 280 278 0
238 260 257 0
280 299 278 0
259 280 260 0
305 283 304 0
300 305 319 0
300 284 305 0
279 284 300 0
279 263 284 0
263 264 284 0
243 264 263 0
262 261 282 0
336 354 334 0
336 339 356 0
316 336 334 0
320 339 336 0
296 302 316 0
317 318 337 0
357 374 356 0
334 354 355 0
333 335 355 0
316 320 336 0
302 298 317 0
316 302 320 0
296 298 302 0
314 297 316 0
277 298 296 0
273 274 294 0
258 278 277 0
298 299 317 0
253 234 255 0
166 183 163 0
166 184 183 0
185 166 165 0
185 184 166 0
167 185 165 0
168 187 186 0
202 221 220 0
203 202 184 0
203 221 202 0
235 234 216 0
236 237 235 0
238 236 218 0
257 237 236 0
237 258 255 0
217 236 235 0
257 258 237 0
180 199 198 0
217 235 216 0
198 217 216 0
218 236 217 0
242 243 263 0
241 242 263 0
221 203 223 0
238 220 241 0
223 204 205 0
242 223 243 0
242 221 223 0
202 201 184 0
222 205 224 0
186 204 203 0
185 186 203 0
185 168 186 0
190 188 206 0
186 187 204 0
168 169 187 0
190 187 188 0
204 190 205 0
204 187 190 0
184 185 203 0
164 163 183 0
167 168 185 0
147 132 148 0
163 147 165 0
163 146 147 0
150 149 169 0
148 150 167 0
135 133 119 0
168 151 169 0
228 210 227 0
244 247 227 0
226 219 209 0
188 171 189 0
193 210 209 0
247 228 227 0
249 266 244 0
246 228 247 0
241 221 242 0
209 219 200 0
245 226 246 0
219 224 206 0
209 228 226 0
193 209 200 0
210 228 209 0
239 224 219 0
245 239 226 0
240 243 224 0
5 16 15 0
37 33 19 0
15 16 32 0
20 21 37 0
83 67 82 0
15 32 31 0
19 20 37 0
22 6 8 0
21 20 6 0
38 37 21 0
22 39 21 0
72 66 54 0
38 55 54 0
89 82 72 0
74 90 73 0
56 74 57 0
71 85 74 0
58 71 74 0
41 58 56 0
70 86 87 0
103 105 90 0
82 67 66 0
88 82 89 0
99 116 101 0
88 99 82 0
102 119 116 0
88 102 99 0
88 105 102 0
34 31 32 0
18 17 35 0
36 23 35 0
36 35 52 0
53 41 36 0
23 7 18 0
35 23 18 0
41 40 24 0
53 58 41 0
52 53 36 0
52 69 53 0
56 40 41 0
36 41 23 0
69 70 53 0
24 40 22 0
23 24 7 0
23 41 24 0
74 85 90 0
70 71 58 0
87 85 71 0
104 87 86 0
104 103 87 0
90 105 89 0
73 57 74 0
72 73 89 0
55 39 57 0
85 103 90 0
91 104 86 0
91 106 107 0
24 8 7 0
24 22 8 0
39 38 21 0
57 39 40 0
57 73 55 0
58 74 56 0
90 89 73 0
56 57 40 0
21 6 22 0
33 32 16 0
19 33 16 0
49 34 32 0
37 49 33 0
50 67 68 0
37 54 49 0
55 38 39 0
72 55 73 0
72 54 55 0
49 54 66 0
37 38 54 0
22 40 39 0
66 50 49 0
72 82 66 0
51 65 48 0
83 68 67 0
83 84 68 0
123 122 137 0
120 103 104 0
123 121 107 0
134 118 120 0
150 135 149 0
105 103 120 0
119 102 118 0
88 89 105 0
107 122 123 0
70 87 71 0
53 70 58 0
69 86 70 0
121 123 136 0
120 121 136 0
120 107 121 0
104 107 120 0
85 87 103 0
91 107 104 0
106 122 107 0
51 68 65 0
34 51 48 0
50 66 67 0
34 50 51 0
34 49 50 0
99 83 82 0
101 100 84 0
99 101 83 0
167 165 147 0
115 100 117 0
81 65 68 0
49 32 33 0
68 51 50 0
48 31 34 0
118 102 105 0
120 118 105 0
134 119 118 0
135 119 134 0
149 135 134 0
150 148 135 0
116 99 102 0
117 116 133 0
117 101 116 0
136 134 120 0
138 136 123 0
152 149 136 0
84 100 98 0
68 84 81 0
83 101 84 0
100 114 98 0
81 84 98 0
101 117 100 0
153 138 154 0
115 131 130 0
100 115 114 0
117 132 115 0
189 172 182 0
170 171 188 0
170 153 171 0
136 138 152 0
138 137 154 0
170 152 153 0
123 137 138 0
182 162 175 0
182 172 162 0
193 182 175 0
206 205 190 0
200 206 189 0
200 219 206 0
136 149 134 0
153 152 138 0
170 169 152 0
172 171 153 0
188 169 170 0
132 117 133 0
167 147 148 0
131 115 132 0
147 131 132 0
147 146 131 0
166 163 165 0
164 146 163 0
164 145 146 0
130 114 115 0
145 130 131 0
189 182 200 0
188 189 206 0
171 172 189 0
146 145 131 0
181 164 183 0
161 145 164 0
193 200 182 0
133 135 148 0
132 133 148 0
116 119 133 0
154 172 153 0
151 168 167 0
150 151 167 0
150 169 151 0
152 169 149 0
188 187 169 0
162 172 154 0
203 204 223 0
226 228 246 0
164 180 161 0
201 199 183 0
199 180 181 0
181 180 164 0
199 217 198 0
183 199 181 0
201 218 199 0
226 239 219 0
12 4 3 0
12 14 4 0
13 12 3 0
13 28 12 0
12 28 14 0
28 30 14 0
29 28 13 0
29 45 28 0
45 30 28 0
46 45 29 0
47 30 45 0
45 46 63 0
45 63 47 0
63 64 47 0
62 63 46 0
62 79 63 0
79 64 63 0
79 80 64 0
78 79 62 0
78 96 79 0
79 96 80 0
96 97 80 0
95 96 78 0
95 112 96 0
112 97 96 0
112 113 97 0
111 112 95 0
111 128 112 0
112 128 113 0
128 129 113 0
127 128 111 0
127 143 128 0
143 129 128 0
143 142 159 0
129 143 144 0
127 142 143 0
159 144 143 0
159 160 144 0
158 159 142 0
158 178 159 0
177 178 158 0
159 178 160 0
195 196 178 0
178 179 160 0
195 178 177 0
196 179 178 0
196 195 213 0
214 196 213 0
197 179 196 0
214 197 196 0
232 233 214 0
214 215 197 0
232 214 213 0
233 215 214 0
233 232 253 0
254 233 253 0
231 215 233 0
254 251 233 0
251 252 231 0
233 251 231 0
254 273 251 0
255 274 253 0
273 252 251 0
256 258 277 0
252 273 272 0
295 275 294 0
278 298 277 0
292 275 293 0
272 273 275 0
254 253 274 0
1162 1163 1186 0
1171 1164 1145 0
1164 1163 1145 0
1188 1164 1171 0
1187 1186 1164 0
1168 1146 1143 0
1191 1168 1167 0
1171 1146 1168 0
1187 1210 1209 0
1163 1164 1186 0
1171 1193 1188 0
1146 1171 1145 0
1170 1191 1193 0
1143 1167 1168 0
1188 1210 1187 0
1164 1188 1187 0
1193 1212 1188 0
1124 1142 1123 0
1193 1191 1214 0
1212 1193 1214 0
1232 1230 1212 0
1229 1210 1212 0
1209 1210 1228 0
1209 1186 1187 0
1170 1168 1191 0
1171 1170 1193 0
1171 1168 1170 0
1142 1167 1143 0
1203 1211 1189 0
1204 1203 1184 0
1205 1204 1184 0
1223 1203 1204 0
1223 1217 1203 0
1165 1166 1141 0
1138 1139 1158 0
1161 1139 1140 0
1159 1161 1140 0
1160 1139 1161 0
1190 1192 1169 0
1166 1190 1169 0
1144 1166 1169 0
1144 1141 1166 0
1189 1213 1190 0
1158 1183 1165 0
1211 1213 1189 0
1183 1184 1203 0
1213 1233 1214 0
1190 1213 1192 0
1231 1233 1213 0
1217 1231 1211 0
1237 1254 1253 0
1249 1236 1253 0
1217 1223 1237 0
1158 1139 1160 0
1141 1122 1138 0
1142 1124 1144 0
1123 1104 1124 0
1122 1104 1118 0
1141 1124 1122 0
1158 1141 1138 0
1144 1124 1141 0
1124 1104 1122 0
1229 1246 1228 0
1118 1104 1099 0

SubDomainFromMesh
1
3 1 1 0

SubDomainFromGeom
1
2 1 1 0

VertexOnGeometricVertex
247
 1 1
 2 2
 3 3
 4 4
 5 5
 6 6
 7 7
 8 8
 10 9
 11 10
 13 11
 14 12
 15 13
 16 14
 17 15
 18 16
 19 17
 20 18
 26 19
 27 20
 29 21
 30 22
 31 23
 35 24
 43 25
 44 26
 46 27
 47 28
 48 29
 52 30
 60 31
 61 32
 62 33
 64 34
 65 35
 69 36
 76 37
 77 38
 78 39
 80 40
 81 41
 86 42
 91 43
 93 44
 94 45
 95 46
 97 47
 98 48
 106 49
 109 50
 110 51
 111 52
 113 53
 114 54
 122 55
 125 56
 126 57
 127 58
 129 59
 130 60
 137 61
 140 62
 141 63
 142 64
 144 65
 145 66
 154 67
 156 68
 157 69
 158 70
 160 71
 161 72
 162 73
 174 74
 175 75
 176 76
 177 77
 179 78
 180 79
 191 80
 193 81
 194 82
 195 83
 197 84
 198 85
 208 86
 210 87
 212 88
 213 89
 215 90
 216 91
 225 92
 227 93
 230 94
 231 95
 232 96
 234 97
 244 98
 250 99
 252 100
 253 101
 271 102
 272 103
 290 104
 292 105
 310 106
 312 107
 327 108
 329 109
 332 110
 347 111
 351 112
 353 113
 364 114
 371 115
 381 116
 388 117
 398 118
 405 119
 414 120
 416 121
 417 122
 430 123
 437 124
 449 125
 456 126
 467 127
 472 128
 475 129
 492 130
 493 131
 510 132
 511 133
 512 134
 527 135
 528 136
 547 137
 548 138
 562 139
 564 140
 577 141
 579 142
 580 143
 597 144
 598 145
 615 146
 617 147
 631 148
 633 149
 647 150
 649 151
 664 152
 666 153
 681 154
 683 155
 699 156
 702 157
 714 158
 718 159
 732 160
 734 161
 737 162
 739 163
 754 164
 756 165
 772 166
 774 167
 786 168
 790 169
 795 170
 806 171
 812 172
 822 173
 823 174
 838 175
 840 176
 855 177
 857 178
 858 179
 874 180
 875 181
 891 182
 892 183
 907 184
 908 185
 924 186
 925 187
 940 188
 941 189
 956 190
 957 191
 972 192
 975 193
 989 194
 991 195
 1004 196
 1005 197
 1012 198
 1019 199
 1028 200
 1030 201
 1045 202
 1046 203
 1062 204
 1063 205
 1064 206
 1065 207
 1081 208
 1084 209
 1099 210
 1104 211
 1105 212
 1123 213
 1126 214
 1142 215
 1143 216
 1145 217
 1146 218
 1148 219
 1162 220
 1163 221
 1173 222
 1186 223
 1195 224
 1209 225
 1215 226
 1228 227
 1234 228
 1246 229
 1251 230
 1261 231
 1267 232
 1275 233
 1279 234
 1286 235
 1291 236
 1296 237
 1300 238
 1305 239
 1308 240
 1311 241
 1314 242
 1316 243
 1319 244
 1320 245
 1321 246
 1322 247

VertexOnGeometricEdge
0

EdgeOnGeometricEdge
247
1 1
2 2
3 3
4 4
5 5
6 6
7 7
8 8
9 9
10 10
11 11
12 12
13 13
14 14
15 15
16 16
17 17
18 18
19 19
20 20
21 21
22 22
23 23
24 24
25 25
26 26
27 27
28 28
29 29
30 30
31 31
32 32
33 33
34 34
35 35
36 36
37 37
38 38
39 39
40 40
41 41
42 42
43 43
44 44
45 45
46 46
47 47
48 48
49 49
50 50
51 51
52 52
53 53
54 54
55 55
56 56
57 57
58 58
59 59
60 60
61 61
62 62
63 63
64 64
65 65
66 66
67 67
68 68
69 69
70 70
71 71
72 72
73 73
74 74
75 75
76 76
77 77
78 78
79 79
80 80
81 81
82 82
83 83
84 84
85 85
86 86
87 87
88 88
89 89
90 90
91 91
92 92
93 93
94 94
95 95
96 96
97 97
98 98
99 99
100 100
101 101
102 102
103 103
104 104
105 105
106 106
107 107
108 108
109 109
110 110
111 111
112 112
113 113
114 114
115 115
116 116
117 117
118 118
119 119
120 120
121 121
122 122
123 123
124 124
125 125
126 126
127 127
128 128
129 129
130 130
131 131
132 132
133 133
134 134
135 135
136 136
137 137
138 138
139 139
140 140
141 141
142 142
143 143
144 144
145 145
146 146
147 147
148 148
149 149
150 150
151 151
152 152
153 153
154 154
155 155
156 156
157 157
158 158
159 159
160 160
161 161
162 162
163 163
164 164
165 165
166 166
167 167
168 168
169 169
170 170
171 171
172 172
173 173
174 174
175 175
176 176
177 177
178 178
179 179
180 180
181 181
182 182
183 183
184 184
185 185
186 186
187 187
188 188
189 189
190 190
191 191
192 192
193 193
194 194
195 195
196 196
197 197
198 198
199 199
200 200
201 201
202 202
203 203
204 204
205 205
206 206
207 207
208 208
209 209
210 210
211 211
212 212
213 213
214 214
215 215
216 216
217 217
218 218
219 219
220 220
221 221
222 222
223 223
224 224
225 225
226 226
227 227
228 228
229 229
230 230
231 231
232 232
233 233
234 234
235 235
236 236
237 237
238 238
239 239
240 240
241 241
242 242
243 243
244 244
245 245
246 246
247 247

End
