MeshVersionFormatted 1

Dimension
2

Identifier
";2, Date: 26/03/29 00:38 58s"

Geometry
"Maillage_L0.0138.mesh.gmsh"

Vertices
1111
0.0138 0.000276 4
0.0138 0.002484 19
0.0138 0.00276 20
0.0138 0 3
0.0136824910114 0.000133549118004 0
0.0135697715943 0.000276 4
0.0138 0.00179294387755 11
0.0138 0.00158647193878 11
0.0138 0.00138 11
0.0138 0.00117352806122 11
0.0138 0.000967056122449 11
0.0138 0.00199941581633 11
0.0138 0.002208 12
0.0136824910114 0.00262645087351 0
0.0135697715943 0.002484 18
0.0135723251758 0.00276 20
0.0135723251758 0 2
0.0134638310278 0.000137999991518 0
0.0133527833201 0.000276 4
0.0136547878624 0.00193129591832 0
0.0136363613156 0.00174185394265 0
0.0136544211504 0.00151799999152 0
0.0136544211504 0.00124199998586 0
0.0138 0.000760584183673 11
0.0138 0.000552 11
0.0136363613156 0.00101814603473 0
0.0136547878624 0.000828704073201 0
0.0135832819326 0.002208 12
0.0134732726992 0.00205261797523 0
0.0134638310278 0.002622 0
0.0133527833201 0.002484 18
0.0133578904832 0.00276 20
0.0133578904832 0 2
0.0132481195423 0.000137999991518 0
0.013135795046 0.000276 4
0.0135088423078 0.00165599998728 0
0.0134072671674 0.00187679998897 0
0.0135088422937 0.00147199997879 0
0.0135088423078 0.0011039999901 0
0.0135088422937 0.00128799998445 0
0.0135832819326 0.000552 10
0.0135095757319 0.000690352040135 0
0.0134727226383 0.000862764025506 0
0.0133643636102 0.002208 12
0.013309083961 0.00205261797523 0
0.0132481195423 0.002622 0
0.013135795046 0.002484 18
0.0131434557906 0.00276 20
0.0131434557906 0 2
0.0130324080708 0.000137999991518 0
0.0129188067719 0.000276 4
0.0133610021618 0.00172039998247 0
0.0133147371703 0.0015639999901 0
0.0132176846369 0.00193199999293 0
0.0133147371703 0.00128799998445 0
0.0133632634794 0.000965999994345 0
0.0133147371703 0.00112699998233 0
0.0133643636102 0.000552 10
0.013309083961 0.00070738200215 0
0.0132176846369 0.000827999998586 0
0.0130721057944 0.00206999998869 0
0.0131454452877 0.002208 12
0.0130324080708 0.002622 0
0.0129188067719 0.002484 18
0.012929021098 0.00276 20
0.012929021098 0 2
0.0128166965853 0.000137999991518 0
0.0127018184977 0.000276 4
0.0131206320611 0.00147199999293 0
0.0130963689277 0.00166749997632 0
0.0130721057944 0.00186299998798 0
0.0131206320611 0.00128799998445 0
0.0131448952086 0.0010694999947 0
0.0131454452877 0.000552 10
0.0130447409976 0.000896999989397 0
0.0130721057944 0.00068999998869 0
0.0129265269518 0.00200099999788 0
0.0129265269652 0.002208 12
0.0127018184977 0.002484 18
0.0128166965853 0.002622 0
0.0127145864054 0.00276 20
0.0127145864054 0 2
0.0126009850997 0.000137999991518 0
0.0124848302236 0.000276 4
0.0129265269518 0.00158699999647 0
0.0129265269518 0.00137999999576 0
0.0129265269518 0.00179399999717 0
0.0129265269518 0.00117299999505 0
0.0128717973724 0.000965999994345 0
0.0129265269652 0.000552 10
0.0129265269518 0.000758999993638 0
0.0127349734309 0.00200099999788 0
0.0127076086427 0.002208 12
0.0124848302236 0.002484 18
0.0126009850997 0.002622 0
0.0125001517128 0.00276 20
0.0125001517128 0 2
0.0123853152066 0.000137999991518 0
0.0122701360552 0.000275968820755 4
0.0127076086341 0.00137999999576 0
0.0127076086341 0.00179399999717 0
0.0127486558081 0.00158699999647 0
0.0127076086341 0.00117299999505 0
0.0126528790547 0.000965999994345 0
0.0127076086341 0.000758999993638 0
0.0127076086427 0.000552 10
0.0125160550991 0.00200099999788 0
0.0124886903203 0.002208 12
0.0122701360552 0.00248403117925 18
0.0123853152066 0.002622 0
0.0122858002063 0.00276 20
0.0122858002063 0 2
0.0121725680247 0.000137984397881 0
0.012075 0.000276 5
0.0125439448345 0.00138000658382 0
0.0124886903165 0.00179399999717 0
0.0125707846785 0.00158699999647 0
0.0124886903165 0.00117299999505 0
0.0124886903165 0.000965999994345 0
0.0124886903165 0.000758999993638 0
0.0124886903203 0.000552 10
0.0122718717795 0.000552026352685 10
0.0122718717675 0.00179398682104 0
0.0122718717675 0.00200098023369 0
0.0122718717795 0.00220797364731 12
0.012075 0.002484 18
0.0121725680247 0.0026220155795 0
0.0119135864415 0.00247589278627 17
0.012075 0.00276 21
0.012075 0 2
0.0119900542467 0.000149514697674 0
0.0119135864415 0.000284107213734 5
0.012380281049 0.00138001317189 0
0.0122718717675 0.0015869934084 0
0.0122718717675 0.00117300658312 0
0.0122718717675 0.000966013170473 0
0.0122989740879 0.000759023051863 0
0.0120749999965 0.000735999987276 0
0.012075 0.000552 10
0.012075 0.002208 13
0.0120749999965 0.00165599998728 0
0.0121157102178 0.00186556872509 0
0.0120749999965 0.0020239999901 0
0.0118929310401 0.00261172281787 0
0.0117464079822 0.00245991649009 17
0.0118703828447 0.00276 21
0.0118703828447 0 1
0.0118083954044 0.000150041742805 0
0.0117464079822 0.000300083509913 6
0.0120749999965 0.00147199999293 0
0.0121798985467 0.00132565294818 0
0.0120749999965 0.0011039999901 0
0.0120423558983 0.00088854719208 0
0.0119135864415 0.000543892786266 9
0.0119135864307 0.00071111422531 0
0.011977444904 0.00155775265329 0
0.0119135864415 0.00221610721373 13
0.0119295510491 0.00205151857435 0
0.0119614802857 0.00172234129836 0
0.0119135864307 0.00188166432713 0
0.0117078217486 0.00260995823457 0
0.0115597510492 0.00243398791913 16
0.0116692355169 0.00276 21
0.0116617748984 0.000158719721851 0
0.0116692355169 0 1
0.0115597510492 0.00032601208087 6
0.0117464079822 0.000527916490087 9
0.0115597510492 0.00050198791913 8
0.011958507344 0.00136931698322 0
0.0120097118002 0.00122509439123 0
0.0118783304903 0.000899912012709 0
0.0119135864307 0.00104555710347 0
0.0117464079696 0.000717268367878 0
0.0118258022291 0.00168457404726 0
0.0118235132727 0.0014534637676 0
0.0117464079822 0.00223208350991 14
0.0117464079696 0.0020427316095 0
0.0117855674087 0.0018366461763 0
0.0115597510492 0.00225801208087 14
0.0113915010595 0.00240076533629 16
0.0115151543925 0.00259260227648 0
0.0114680881892 0.00276 21
0.0115151543925 0.000167397715033 0
0.0114680881892 0 1
0.0113915010595 0.000359234663707 7
0.0115801247924 0.000690829137561 0
0.0113915010515 0.000634444356505 0
0.0113915010595 0.000468765336293 8
0.0118420146915 0.00126663397351 0
0.0117464079696 0.000906620259539 0
0.0117464079696 0.0010959721512 0
0.0115597510486 0.000853192741721 0
0.011683051094 0.00164483795461 0
0.0116619321354 0.00144908944852 0
0.0115437408934 0.00208775291299 0
0.0115277307524 0.00191749375429 0
0.0115597510486 0.00173120483178 0
0.0113915010595 0.00229123466371 15
0.0113915010515 0.00212555562087 0
0.011247 0.002346 15
0.0113327693928 0.00257014886738 0
0.0112669408615 0.00276 21
0.0112669408615 0 1
0.0113327693928 0.000189851124134 0
0.011247 0.000414 7
0.0114207331262 0.000779632453328 0
0.0112469999936 0.000711230760531 0
0.0112469999936 0.000562615371783 0
0.011641246024 0.00125735281902 0
0.0115597510486 0.00102879515973 0
0.0113915010515 0.000965802423108 0
0.0114963483817 0.00158375933337 0
0.0114808029254 0.00141844197207 0
0.0113674175489 0.00197836220781 0
0.0113433340322 0.00166548976851 0
0.0113915010515 0.00179419756841 0
0.0112469999936 0.00100846153803 0
0.0112469999936 0.0021973846056 0
0.0112469999936 0.00204876921685 0
0.0111495327373 0.00228649849345 0
0.0111150444619 0.00243962377968 0
0.0111680890662 0.00258995069377 0
0.0110657935337 0.00276 21
0.0111183073491 0.000516437156165 0
0.0110657935337 0 1
0.0111680890662 0.000170049283613 0
0.0111150444619 0.000320376197702 0
0.0112469999936 0.000859846149279 0
0.0111215702363 0.000712498142904 0
0.0110014644124 0.000577465490404 0
0.0114655674333 0.00125642076345 0
0.0113915010515 0.00113148144934 0
0.0113610194642 0.00136067731674 0
0.0113682628428 0.00151726248177 0
0.0112469999936 0.00115707691264 0
0.0112469999936 0.00190015384224 0
0.0112469999936 0.00160292306474 0
0.0112469999936 0.00175153845349 0
0.0111214926074 0.00101542206813 0
0.0111194023674 0.00216504034919 0
0.0110892719974 0.00204358221906 0
0.0110090078165 0.00226914804898 0
0.010864646206 0.00276 21
0.0109463602464 0.00247225825021 0
0.0110034087396 0.00260975252015 0
0.0109739123223 0.000432603615856 0
0.0109463602464 0.000287741741309 0
0.010864646206 0 1
0.0110034087396 0.000150247457229 0
0.0110565685925 0.000867189253637 0
0.010937102857 0.00071324215589 0
0.0108469106614 0.000528921382199 0
0.0112469999936 0.00130569230138 0
0.0112469999936 0.00145430769013 0
0.0110892312108 0.00116967346092 0
0.0110997370242 0.00157340652987 0
0.0111054421322 0.00188853620111 0
0.0110781173869 0.0017285970187 0
0.0109912454484 0.00102264548461 0
0.0106634988782 0.00276 21
0.0109577120747 0.00195380836552 0
0.010924023627 0.00211592315009 0
0.0108627229201 0.00225108644701 0
0.0108014222133 0.00238624975807 0
0.0107862194918 0.00253951179611 0
0.0106189658617 0.00260975252015 0
0.0106634988782 0 1
0.0108185311896 0.000381181159808 0
0.0108008835471 0.000178617881001 0
0.0108727413157 0.000849018835514 0
0.0107803749883 0.00066594799855 0
0.0106856910053 0.000478283570245 0
0.0109904093156 0.0012919791045 0
0.0110569009929 0.00140108581605 0
0.0109239176525 0.00118287240709 0
0.0109461853517 0.00154262952586 0
0.0108435852583 0.00163349315265 0
0.010900951053 0.00175641940318 0
0.0108212930022 0.000968153414795 0
0.0104623515505 0.00276 21
0.0108038018757 0.00190328624054 0
0.0107508510312 0.00203245299948 0
0.0106990350302 0.00217976359809 0
0.010550590295 0.0023345518757 0
0.0106064503353 0.0024648497883 0
0.0104439593101 0.00258681265462 0
0.0106189658617 0.000150247457229 0
0.0104623515505 0 1
0.0106185226377 0.000338721538824 0
0.0106792790234 0.000829896046273 0
0.010614139511 0.000704048441695 0
0.0105489999985 0.000578200837117 0
0.0108558734116 0.00134480429513 0
0.0107685031836 0.00118286881617 0
0.0107862194918 0.00151056691626 0
0.0107153120585 0.00167931265807 0
0.0106063197474 0.000993908122629 0
0.0102612042228 0.00276 21
0.0105694285109 0.00202648680053 0
0.0106433320714 0.00185061087889 0
0.0102612042195 0.00256285713862 0
0.0104947302546 0.00220425397725 0
0.0103795955351 0.00208946467867 0
0.0104180982319 0.00238662310056 0
0.0104369082577 0.000173190178535 0
0.0102612042228 0 1
0.0104437231718 0.000365903410792 0
0.0104373586494 0.000893379720915 0
0.0104076054532 0.000681556253496 0
0.0104120904263 0.000510534307246 0
0.0106063197474 0.00118286508388 0
0.0106184161401 0.0014058255889 0
0.0105369398685 0.00158306091375 0
0.0105901359699 0.00171683588218 0
0.0104798187652 0.0011116282615 0
0.010060056895 0.00276 21
0.0100600568938 0.00256285713862 0
0.0104567215072 0.00181333778916 0
0.0102612042195 0.00236571428147 0
0.0102612042195 0.00197142856719 0
0.0102612042195 0.00216857142433 0
0.010060056895 0 1
0.0102612042195 0.000394285710044 0
0.0102468365564 0.000197142852902 0
0.0103492814345 0.00103811842977 0
0.0102612042195 0.00078857142433 0
0.0102181012161 0.000591428567187 0
0.0104434585465 0.00129661864264 0
0.0103520829169 0.00148330993188 0
0.0104016205504 0.00167690589404 0
0.0102612042195 0.00118285713862 0
0.00985890956728 0.00276 21
0.00985890955399 0.00256285713862 0
0.0100313215535 0.00236571428147 0
0.0102612042195 0.00177428571004 0
0.0100600568938 0.00216857142433 0
0.0101175275462 0.00197142856719 0
0.00985890955399 0.00236571428147 0
0.00985890956728 0 1
0.0100600568938 0.000197142852902 0
0.0100600568938 0.000394285710044 0
0.0100600568938 0.000591428567187 0
0.0101893658899 0.000985714281473 0
0.0100600568938 0.00078857142433 0
0.00965776223954 0 1
0.0101606305496 0.00137999999576 0
0.0101462628865 0.0015771428529 0
0.0100600568938 0.00118285713862 0
0.00965776223954 0.00276 21
0.00967212990552 0.00256285713862 0
0.00965776222829 0.00236571428147 0
0.00985890955399 0.00216857142433 0
0.00998821855008 0.00177428571004 0
0.00985890955399 0.00197142856719 0
0.00970086523171 0.00216857142433 0
0.0094566149118 0.00276 21
0.0096433945652 0.000197142852902 0
0.0098445418909 0.000197142852902 0
0.00988764489431 0.000394285710044 0
0.00985890955399 0.000591428567187 0
0.00993074789772 0.000985714281473 0
0.00980143890162 0.00078857142433 0
0.0094566149026 0.000197142852902 0
0.0094566149118 0 1
0.00985890955399 0.0015771428529 0
0.0099594832239 0.00137999999576 0
0.00985890955399 0.00118285713862 0
0.00944224723951 0.00256285713862 0
0.0094566149026 0.00236571428147 0
0.0094566149026 0.00216857142433 0
0.0097152328948 0.00197142856719 0
0.00972960055789 0.00177428571004 0
0.0095859238987 0.00206999998869 0
0.00970086521757 0.0015771428529 0
0.00925546758406 0.00276 21
0.00925546757691 0.00256285713862 0
0.00962902690211 0.000394285710044 0
0.00965776222829 0.000591428567187 0
0.0094566149026 0.000394285710044 0
0.00965776222829 0.000985714281473 0
0.00960029156179 0.00078857142433 0
0.00926983524 0.000197142852902 0
0.00925546758406 0 1
0.00905432025632 0.00276 21
0.00965776222829 0.00137999999576 0
0.00954282089529 0.0015771428529 0
0.00957155623561 0.00118285713862 0
0.00925546757691 0.00236571428147 0
0.00925546757691 0.00216857142433 0
0.00925546757691 0.00197142856719 0
0.0093991442361 0.00197142856719 0
0.0095284532322 0.00177428571004 0
0.0090830555774 0.00236571428147 0
0.00906868791431 0.00256285713862 0
0.0094566149026 0.00078857142433 0
0.0094566149026 0.000591428567187 0
0.00925546757691 0.000394285710044 0
0.0094566149026 0.000985714281473 0
0.00905432025122 0.000197142852902 0
0.00905432025632 0 1
0.00885317292858 0.00276 21
0.00885317292553 0.00256285713862 0
0.00937040890992 0.0015771428529 0
0.0094566149026 0.00137999999576 0
0.0093416735696 0.00118285713862 0
0.00909742325463 0.00216857142433 0
0.00911179091772 0.00197142856719 0
0.00925546757691 0.00177428571004 0
0.0092123645735 0.0015771428529 0
0.00888190825171 0.00236571428147 0
0.00885317292553 0.00216857142433 0
0.00925546757691 0.00078857142433 0
0.0092123645735 0.000591428567187 0
0.0090255849109 0.000394285710044 0
0.00918362924732 0.000985714281473 0
0.00885317292553 0.000197142852902 0
0.00885317292858 0 1
0.00865202560084 0.00276 21
0.00865202559984 0.00256285713862 0
0.00865202559984 0.00236571428147 0
0.00925546757691 0.00137999999576 0
0.00916926158423 0.00118285713862 0
0.00891064359203 0.00197142856719 0
0.00905432025122 0.00177428571004 0
0.00905432025122 0.0015771428529 0
0.00869512858911 0.00216857142433 0
0.0087094962522 0.00197142856719 0
0.00905432025122 0.00078857142433 0
0.00905432025122 0.000591428567187 0
0.00885317292553 0.000394285710044 0
0.00898248192162 0.000985714281473 0
0.00901121724781 0.00118285713862 0
0.00865202560084 0 1
0.00865202559984 0.000197142852902 0
0.0084508782731 0.00276 21
0.00846524593723 0.00256285713862 0
0.00847961360033 0.00236571428147 0
0.00845087826001 0.00216857142433 0
0.0089537465813 0.00137999999576 0
0.00885317292553 0.00177428571004 0
0.00885317292553 0.0015771428529 0
0.00865202559984 0.00177428571004 0
0.00850834892651 0.00197142856719 0
0.00885317292553 0.00078857142433 0
0.00881006992212 0.000591428567187 0
0.00860892259642 0.000591428567187 0
0.00862329025952 0.000394285710044 0
0.00881725375366 0.000985714281473 0
0.00885317292553 0.00118285713862 0
0.00824973094536 0.00276 21
0.0084508782731 0 1
0.00843651059691 0.000197142852902 0
0.00842214293382 0.000394285710044 0
0.00823536327122 0.00256285713862 0
0.00824973093431 0.00236571428147 0
0.00824973093431 0.00216857142433 0
0.00835030459009 0.00197142856719 0
0.00875259925561 0.00137999999576 0
0.00865202559984 0.0015771428529 0
0.00849398126342 0.0015771428529 0
0.00845087826001 0.00177428571004 0
0.00865202559984 0.000985714281473 0
0.00859455493333 0.00078857142433 0
0.00845087826001 0.000591428567187 0
0.00845087826001 0.00078857142433 0
0.00865202559984 0.00118285713862 0
0.00804858360862 0.00256285713862 0
0.00804858361762 0.00276 21
0.00824973093431 0.000197142852902 0
0.00824973094536 0 1
0.00824973093431 0.000591428567187 0
0.00824973093431 0.000394285710044 0
0.00804858360862 0.00236571428147 0
0.00819226026781 0.00197142856719 0
0.00804858360862 0.00216857142433 0
0.00824973093431 0.00177428571004 0
0.00845087826001 0.00137999999576 0
0.00833593694114 0.0015771428529 0
0.00845087826001 0.000985714281473 0
0.00824973093431 0.00078857142433 0
0.00836467226732 0.00118285713862 0
0.00784743628293 0.00256285713862 0
0.00784743628988 0.00276 21
0.00806295127171 0.000197142852902 0
0.00804858361762 0 1
0.00801984828244 0.000394285710044 0
0.00809168661203 0.000591428567187 0
0.00781870095675 0.00236571428147 0
0.00789053928634 0.00216857142433 0
0.00790490694943 0.00197142856719 0
0.00804858360862 0.00197142856719 0
0.00776841412179 0.00206999998869 0
0.00804139977708 0.0016757142744 0
0.00816352494163 0.0015771428529 0
0.00824973093431 0.00137999999576 0
0.00812042193822 0.000887142845833 0
0.00824973093431 0.000985714281473 0
0.00799111294212 0.00078857142433 0
0.00813478960131 0.00118285713862 0
0.00764628895724 0.00256285713862 0
0.00764628896214 0.00276 21
0.00784743628988 0 1
0.00784743628293 0.000197142852902 0
0.00784743628293 0.000394285710044 0
0.00784743628293 0.000591428567187 0
0.00764628895724 0.00236571428147 0
0.00764628895724 0.00216857142433 0
0.00777559795334 0.00187285713155 0
0.00791927461252 0.00177428571004 0
0.00764628895724 0.00197142856719 0
0.00784743628293 0.0015771428529 0
0.00804858360862 0.00137999999576 0
0.00797674527903 0.000985714281473 0
0.00784743628293 0.00078857142433 0
0.00784743628293 0.00118285713862 0
0.00745950929464 0.00256285713862 0
0.0074451416344 0.00276 21
0.00744514163155 0.00236571428147 0
0.00764628896214 0 1
0.00764628895724 0.000394285710044 0
0.00764628895724 0.000197142852902 0
0.00752416379269 0.00068999998869 0
0.00764628895724 0.000591428567187 0
0.00768939194651 0.0015771428529 0
0.00748824462082 0.00216857142433 0
0.00750261229805 0.00197142856719 0
0.00764628895724 0.00177428571004 0
0.00774686261302 0.00137999999576 0
0.00764628895724 0.00078857142433 0
0.00771812728683 0.000985714281473 0
0.00756008295042 0.00118285713862 0
0.00728709729513 0.00216857142433 0
0.00724399430585 0.00236571428147 0
0.00724399430666 0.00276 21
0.00725836196895 0.00256285713862 0
0.00704284697892 0.00276 21
0.0074451416344 0 1
0.00743077395432 0.000197142852902 0
0.00744514163155 0.000394285710044 0
0.00738767096504 0.00078857142433 0
0.00740203862813 0.000591428567187 0
0.00753134762423 0.0015771428529 0
0.00730146495822 0.00197142856719 0
0.00744514163155 0.00177428571004 0
0.00744514163155 0.00137999999576 0
0.00744514163155 0.000985714281473 0
0.00735893562472 0.00118285713862 0
0.00710031763253 0.00197142856719 0
0.00704284696603 0.00216857142433 0
0.00707158230635 0.00236571428147 0
0.00704284696603 0.00256285713862 0
0.00684169965118 0.00276 21
0.00685606730342 0.00256285713862 0
0.00724399430666 0 1
0.00722962662863 0.000197142852902 0
0.00724399430585 0.000394285710044 0
0.00724399430585 0.00078857142433 0
0.00720089130244 0.000591428567187 0
0.00707876612375 0.00177428571004 0
0.00733020029854 0.0015771428529 0
0.00724399430585 0.00177428571004 0
0.00724399430585 0.00137999999576 0
0.00720089128831 0.00118285713862 0
0.00717215596212 0.000985714281473 0
0.00700692779416 0.000985714281473 0
0.00691353796993 0.00177428571004 0
0.00684169964033 0.00197142856719 0
0.00688480264375 0.00216857142433 0
0.00684169964033 0.00236571428147 0
0.00664055232344 0.00276 21
0.00664055231464 0.00256285713862 0
0.00666928765496 0.00236571428147 0
0.00704284697892 0 1
0.00704284696603 0.000197142852902 0
0.00701411163984 0.000394285710044 0
0.00699974397675 0.000591428567187 0
0.00698537631366 0.00078857142433 0
0.00684169964033 0.000985714281473 0
0.00704284696603 0.0015771428529 0
0.00704284696603 0.00137999999576 0
0.00704284696603 0.00118285713862 0
0.00684169964033 0.0015771428529 0
0.00684169964033 0.00118285713862 0
0.00671239064424 0.00177428571004 0
0.00669802298114 0.00197142856719 0
0.00664055231464 0.00216857142433 0
0.00643940498895 0.00256285713862 0
0.0064394049957 0.00276 21
0.00643940498895 0.00236571428147 0
0.00643940498895 0.00216857142433 0
0.00679859665106 0.000591428567187 0
0.00684169965118 0 1
0.00684169964033 0.000197142852902 0
0.00681296431415 0.000394285710044 0
0.00678422897383 0.00078857142433 0
0.00664055231464 0.000591428567187 0
0.00667647147237 0.000985714281473 0
0.00684169964033 0.00137999999576 0
0.00664055231464 0.0015771428529 0
0.00664055231464 0.00118285713862 0
0.00648250796409 0.0015771428529 0
0.00656871398505 0.00177428571004 0
0.00643940498895 0.00197142856719 0
0.00623825766326 0.00197142856719 0
0.00623825766326 0.00236571428147 0
0.00623825766796 0.00276 21
0.00625262532635 0.00256285713862 0
0.00628136066667 0.00216857142433 0
0.00603711034022 0.00276 21
0.00664055231464 0.000394285710044 0
0.00664055232344 0 1
0.00664055231464 0.000197142852902 0
0.00664055231464 0.00078857142433 0
0.00648250799236 0.000591428567187 0
0.00651124331854 0.000985714281473 0
0.00653997865886 0.00137999999576 0
0.00635319899626 0.00118285713862 0
0.00632446365594 0.0015771428529 0
0.00631009599285 0.00177428571004 0
0.00610894866716 0.00177428571004 0
0.00609458100407 0.00197142856719 0
0.00606584566375 0.00236571428147 0
0.00603711033757 0.00256285713862 0
0.00599400733415 0.00216857142433 0
0.00583596301187 0.00256285713862 0
0.00583596301248 0.00276 21
0.00633164747335 0.000492857131547 0
0.00646814031513 0.000394285710044 0
0.00642503732586 0.000197142852902 0
0.0064394049957 0 1
0.00643940498895 0.00078857142433 0
0.00631727981026 0.00068999998869 0
0.00623825766326 0.000985714281473 0
0.00623825766326 0.00137999999576 0
0.00619515464571 0.00118285713862 0
0.00612331633025 0.0015771428529 0
0.00596527200797 0.00177428571004 0
0.00583596301187 0.00197142856719 0
0.00583596301187 0.00236571428147 0
0.00583596301187 0.00216857142433 0
0.00566355101236 0.00236571428147 0
0.00563481568474 0.00276 21
0.00563481567204 0.00256285713862 0
0.00619515465985 0.000591428567187 0
0.00620952232294 0.000394285710044 0
0.00622389000017 0.000197142852902 0
0.00623825766796 0 1
0.00618078699675 0.00078857142433 0
0.00603711033757 0.000985714281473 0
0.00603711033757 0.00137999999576 0
0.00603711033757 0.00118285713862 0
0.00595090433074 0.0015771428529 0
0.00580004382587 0.00177428571004 0
0.005433668357 0.00276 21
0.00569228633855 0.00197142856719 0
0.00567791867546 0.00216857142433 0
0.00547677134976 0.00216857142433 0
0.00543366834635 0.00236571428147 0
0.00544803600944 0.00256285713862 0
0.00603711033757 0.000394285710044 0
0.00603711033757 0.000591428567187 0
0.00603711033757 0.000197142852902 0
0.00603711034022 0 1
0.00603711033757 0.00078857142433 0
0.00523252102926 0.00276 21
0.00583596301187 0.000985714281473 0
0.00583596301187 0.00137999999576 0
0.00583596301187 0.00118285713862 0
0.00572102167887 0.0015771428529 0
0.00563481567204 0.00177428571004 0
0.00524688868375 0.00256285713862 0
0.00546958748994 0.00177428571004 0
0.00549113901286 0.00197142856719 0
0.00527562402407 0.00216857142433 0
0.00526125636098 0.00236571428147 0
0.00583596301248 0 1
0.00583596301187 0.000591428567187 0
0.00586469833806 0.000394285710044 0
0.00583596301187 0.000197142852902 0
0.00577849234537 0.00078857142433 0
0.00503137370152 0.00276 21
0.00504574135806 0.00256285713862 0
0.00563481567204 0.000985714281473 0
0.00554860967936 0.00118285713862 0
0.00563481567204 0.00137999999576 0
0.00551987435318 0.0015771428529 0
0.00503137369497 0.00236571428147 0
0.00530435935026 0.00177428571004 0
0.00523252102066 0.00197142856719 0
0.00507447669838 0.00216857142433 0
0.00563481568474 0 1
0.00559171268277 0.000591428567187 0
0.00563481567204 0.000394285710044 0
0.00562044800895 0.000197142852902 0
0.00563481567204 0.00078857142433 0
0.00483022637378 0.00276 21
0.00483022636928 0.00256285713862 0
0.00483022636928 0.00236571428147 0
0.00543366834635 0.000985714281473 0
0.00539056534294 0.00118285713862 0
0.00543366834635 0.00137999999576 0
0.00523252102066 0.0015771428529 0
0.00483022636928 0.00216857142433 0
0.00510321202456 0.00177428571004 0
0.00497390302847 0.00197142856719 0
0.00483022636928 0.00197142856719 0
0.005433668357 0 1
0.00541930068326 0.000197142852902 0
0.00543366834635 0.000591428567187 0
0.00540493302017 0.000394285710044 0
0.00537619767985 0.00078857142433 0
0.00462907904604 0.00276 21
0.00462907904358 0.00236571428147 0
0.00464344670668 0.00256285713862 0
0.00467218203286 0.00216857142433 0
0.00447103470717 0.00216857142433 0
0.00523252102066 0.000985714281473 0
0.00523252102066 0.00118285713862 0
0.00513194736488 0.00137999999576 0
0.00503137369497 0.0015771428529 0
0.00468654971009 0.00197142856719 0
0.00483022636928 0.00177428571004 0
0.00523252102926 0 1
0.00523252102066 0.000197142852902 0
0.00520378569448 0.000394285710044 0
0.00523252102066 0.000591428567187 0
0.00517505035416 0.00078857142433 0
0.0044279317183 0.00276 21
0.00441356404066 0.00256285713862 0
0.00445666704408 0.00236571428147 0
0.00434172571107 0.00226714284583 0
0.00434890952848 0.00206999998869 0
0.00448540237026 0.00197142856719 0
0.00503137369497 0.000985714281473 0
0.00503137369497 0.00118285713862 0
0.00493080002505 0.00137999999576 0
0.00483022636928 0.0015771428529 0
0.00462907904358 0.00177428571004 0
0.00503137370152 0 1
0.00503137369497 0.000197142852902 0
0.00503137369497 0.000394285710044 0
0.00503137369497 0.000591428567187 0
0.00503137369497 0.00078857142433 0
0.00422678439056 0.00276 21
0.00402563706282 0.00276 21
0.00422678437806 0.00256285713862 0
0.00422678437806 0.00236571428147 0
0.00422678437806 0.00216857142433 0
0.00442793171789 0.00177428571004 0
0.00422678437806 0.00197142856719 0
0.00483022636928 0.000985714281473 0
0.00474402036245 0.00118285713862 0
0.00462907904358 0.00137999999576 0
0.00462907904358 0.0015771428529 0
0.00483022637378 0 1
0.00481585870619 0.000197142852902 0
0.00480149102896 0.000394285710044 0
0.00483022636928 0.000591428567187 0
0.00477275570277 0.00078857142433 0
0.00382448973508 0.00276 21
0.00404000471546 0.00256285713862 0
0.00383885738977 0.00256285713862 0
0.00405437239269 0.00236571428147 0
0.00406874005578 0.00216857142433 0
0.00434172571107 0.0015771428529 0
0.00408310771887 0.00197142856719 0
0.00422678437806 0.00177428571004 0
0.00462907904358 0.000985714281473 0
0.00454287303676 0.00118285713862 0
0.00442793171789 0.00137999999576 0
0.00462907904358 0.000197142852902 0
0.00462907904604 0 1
0.00462907904358 0.000394285710044 0
0.00462907904358 0.000591428567187 0
0.00442793171789 0.00078857142433 0
0.00462907904358 0.00078857142433 0
0.00362334240734 0.00276 21
0.00363771006408 0.00256285713862 0
0.003853225067 0.00236571428147 0
0.00362334240099 0.00236571428147 0
0.00388196039318 0.00197142856719 0
0.00386759273009 0.00216857142433 0
0.00422678437806 0.00137999999576 0
0.00386040888441 0.00177428571004 0
0.00418368137465 0.0015771428529 0
0.00402563705237 0.00177428571004 0
0.00442793171789 0.000985714281473 0
0.00431299038489 0.00118285713862 0
0.00442793171789 0.000197142852902 0
0.0044279317183 0 1
0.00442793171789 0.000394285710044 0
0.00429862269352 0.000887142845833 0
0.0043058065392 0.00068999998869 0
0.00442793171789 0.000591428567187 0
0.00414057838538 0.00118285713862 0
0.00322104775186 0.00276 21
0.0034221950796 0.00276 21
0.0034221950753 0.00256285713862 0
0.0034221950753 0.00236571428147 0
0.0036664454044 0.00216857142433 0
0.0034221950753 0.00216857142433 0
0.00368081306749 0.00197142856719 0
0.00369518073058 0.00177428571004 0
0.00382448972668 0.0015771428529 0
0.00402563705237 0.00137999999576 0
0.00402563705237 0.0015771428529 0
0.00415494604847 0.000985714281473 0
0.00424115205529 0.000197142852902 0
0.00422678439056 0 1
0.00422678437806 0.000394285710044 0
0.00416931371156 0.00078857142433 0
0.00418368138879 0.000591428567187 0
0.00395379872278 0.000985714281473 0
0.00393943105969 0.00118285713862 0
0.00301990042412 0.00276 21
0.00324978307579 0.00236571428147 0
0.00301990042391 0.00256285713862 0
0.0032210477496 0.00256285713862 0
0.00326415073888 0.00216857142433 0
0.00313484174278 0.00226714284583 0
0.0034796657418 0.00197142856719 0
0.00327851841611 0.00197142856719 0
0.00349403340489 0.00177428571004 0
0.00366644539026 0.0015771428529 0
0.00382448972668 0.00137999999576 0
0.00396816638587 0.00078857142433 0
0.00402563706282 0 1
0.00402563705237 0.000197142852902 0
0.00402563705237 0.000394285710044 0
0.0039825340631 0.000591428567187 0
0.00373828373399 0.00118285713862 0
0.00378857055481 0.000985714281473 0
0.00281875309638 0.00276 21
0.00281875308408 0.00256285713862 0
0.00301990042391 0.00236571428147 0
0.00314202557433 0.00206999998869 0
0.00301990042391 0.00216857142433 0
0.00314920942001 0.00187285713155 0
0.0032928860792 0.00177428571004 0
0.00350840106798 0.0015771428529 0
0.00362334240099 0.00137999999576 0
0.00376701906018 0.00078857142433 0
0.00378138672327 0.000591428567187 0
0.00382448973508 0 1
0.00382448972668 0.000197142852902 0
0.0037957544005 0.000394285710044 0
0.00358023939758 0.00118285713862 0
0.00362334240099 0.000985714281473 0
0.00261760576864 0.00276 21
0.00263197342148 0.00256285713862 0
0.00281875308408 0.00236571428147 0
0.00281875308408 0.00216857142433 0
0.00301990042391 0.00197142856719 0
0.00301990042391 0.00177428571004 0
0.0032210477496 0.0015771428529 0
0.00332162140538 0.00137999999576 0
0.0034221950753 0.00118285713862 0
0.00356587173448 0.00078857142433 0
0.00358023939758 0.000591428567187 0
0.00359460706067 0.000394285710044 0
0.00362334240734 0 1
0.0036089747379 0.000197142852902 0
0.0034221950753 0.000985714281473 0
0.0024164584409 0.00276 21
0.0024164584327 0.00256285713862 0
0.00261760575839 0.00236571428147 0
0.0026607087618 0.00216857142433 0
0.00281875308408 0.00197142856719 0
0.00285467224181 0.00177428571004 0
0.00301990042391 0.0015771428529 0
0.00312047407969 0.00137999999576 0
0.00336472440879 0.00078857142433 0
0.0032210477496 0.00118285713862 0
0.00325696690733 0.000985714281473 0
0.0032210477496 0.000591428567187 0
0.00337909207188 0.000591428567187 0
0.00339345973498 0.000394285710044 0
0.0034221950753 0.000197142852902 0
0.0034221950796 0 1
0.00221531111316 0.00276 21
0.00161186912994 0.00276 21
0.00201416378542 0.00276 21
0.00181301645768 0.00276 21
0.0022296787701 0.00256285713862 0
0.0024164584327 0.00216857142433 0
0.0024164584327 0.00236571428147 0
0.00261760575839 0.00197142856719 0
0.00268944408799 0.00177428571004 0
0.00281875308408 0.0015771428529 0
0.00322104775186 0 1
0.002919326754 0.00137999999576 0
0.00301990042391 0.00118285713862 0
0.0032210477496 0.00078857142433 0
0.00309173875351 0.000985714281473 0
0.00306300341319 0.000591428567187 0
0.0032210477496 0.000394285710044 0
0.0032210477496 0.000197142852902 0
0.0014107218022 0.00276 21
0.000606132491241 0.00276 21
0.0014107217901 0.00256285713862 0
0.00202853144441 0.00256285713862 0
0.00161186912993 0.00256285713862 0
0.00182738411871 0.00256285713862 0
0.00221531110701 0.00236571428147 0
0.0024164584327 0.00197142856719 0
0.00225841411042 0.00216857142433 0
0.0024164584327 0.00177428571004 0
0.00271817942831 0.00137999999576 0
0.00245956142197 0.0015771428529 0
0.00261760575839 0.0015771428529 0
0.00301990042412 0 1
0.00281875308408 0.00118285713862 0
0.00281875308408 0.000985714281473 0
0.00301990042391 0.00078857142433 0
0.00289777525936 0.00068999998869 0
0.00289777525936 0.000492857131547 0
0.00301990042391 0.000394285710044 0
0.00300553274668 0.000197142852902 0
0.00120957447446 0.00276 21
0.00125604355861 0.00262035339395 0
0.00100842714672 0.00276 21
0.000807279818981 0.00276 21
0.000404985163501 0.00276 21
0.00074200036782 0.00262050899102 0
0.0004565991805 0.0026032476692 0
0.00129471310588 0.00245812217312 0
0.0014107217901 0.00236571428147 0
0.00184175178181 0.00236571428147 0
0.00201416378132 0.00236571428147 0
0.00164060445611 0.00236571428147 0
0.00205726677059 0.00216857142433 0
0.00221531110701 0.00197142856719 0
0.00221531110701 0.00177428571004 0
0.00230151709969 0.0015771428529 0
0.00261760575839 0.00118285713862 0
0.0024164584327 0.00137999999576 0
0.00281875309638 0 1
0.00265352491612 0.000985714281473 0
0.00276128241758 0.00078857142433 0
0.00277565009481 0.000591428567187 0
0.0027900177579 0.000394285710044 0
0.00281875308408 0.000197142852902 0
0 0.00276 22
0.000203837835761 0.00276 21
0.00106037304898 0.00260289756873 0
0.000911171619409 0.00249827932224 0
0.000307065887802 0.00255146371787 0
0.000519273442188 0.00245729182257 0
0.000676720922614 0.00248101800042 0
0.0011787044358 0.00235338723591 0
0.0014107217901 0.00216857142433 0
0.00156876612652 0.00216857142433 0
0.0018561194449 0.00216857142433 0
0.00205008293904 0.00177428571004 0
0.00207163444782 0.00197142856719 0
0.002100369774 0.0015771428529 0
0.00248829676229 0.000985714281473 0
0.00221531110701 0.00137999999576 0
0.0024164584327 0.00118285713862 0
0.00261760576864 0 1
0.00261760575839 0.000591428567187 0
0.00261760575839 0.00078857142433 0
0.00261760575839 0.000394285710044 0
0.00261760575839 0.000197142852902 0
0 0.00255006229411 22
0.000136824909902 0.00248014274924 0
0.00110136531298 0.00221784964929 0
0.00094668708149 0.00234106019034 0
0.000408966840579 0.00234152699568 0
0.000581947718013 0.00231133597594 0
0.000792008849999 0.00220141358853 0
0.00125604354447 0.00209463910824 0
0.0014107217901 0.00197142856719 0
0.00161186912993 0.00197142856719 0
0.00181301645562 0.00197142856719 0
0.00188485478522 0.00177428571004 0
0.0024164584327 0.00078857142433 0
0.00181301645562 0.0015771428529 0
0.00201416378132 0.00137999999576 0
0.00221531110701 0.000985714281473 0
0.00212910511432 0.00118285713862 0
0.0024164584409 0 1
0.00245956143611 0.000591428567187 0
0.0024164584327 0.000394285710044 0
0.00240209076961 0.000197142852902 0
0.0019710607779 0.00118285713862 0
0.00229433326815 0.00068999998869 0
0 0.00233734961871 22
0.000153587150521 0.00228560713968 0
0.00110136531298 0.00198784964222 0
0.00094668708149 0.00209463161537 0
0.00043804131069 0.00215994387366 0
0.000612768774408 0.00213159028763 0
0.000731513159332 0.00199565311937 0
0.0012239003654 0.00180276246178 0
0.0014107217901 0.00177428571004 0
0.00161186912993 0.00177428571004 0
0.00161186912993 0.0015771428529 0
0.0021578404405 0.00078857142433 0
0.00171244278571 0.00137999999576 0
0.00181301645562 0.00118285713862 0
0.00201416378132 0.000985714281473 0
0.00221531111316 0 1
0.0021722081036 0.000591428567187 0
0.00221531110701 0.000394285710044 0
0.00220094344392 0.000197142852902 0
0 0.00212460525899 22
0.000136370418301 0.00205513349887 0
0.00030649257071 0.0019679324823 0
0.00103707895483 0.00183123921351 0
0.000850257544257 0.00185971596525 0
0.000476614723119 0.00191666946871 0
0.000663436133688 0.00180933556847 0
0.0012239003654 0.00164504816475 0
0.0014107217901 0.0015771428529 0
0.00103707895483 0.00159466778211 0
0.0014107217901 0.00137999999576 0
0.00195669311481 0.00078857142433 0
0.00201416378132 0.000591428567187 0
0.00161186912993 0.00118285713862 0
0.00174117812603 0.000985714281473 0
0.00201416378542 0 1
0.00198542844099 0.000394285710044 0
0.00199979611822 0.000197142852902 0
0 0.00191186089928 22
0.000146013760805 0.00185272564748 0
0.00030649257071 0.00180909514654 0
0.000850257544257 0.00170200166822 0
0.000522363951143 0.0016801021796 0
0.000381291768599 0.001550868819 0
0.0012239003654 0.00148733388187 0
0.00127151137186 0.00125067560395 0
0.000942712131993 0.00143860092525 0
0.0014107217901 0.00118285713862 0
0.00175554578912 0.00078857142433 0
0.00181301645562 0.000591428567187 0
0.00161186912993 0.00078857142433 0
0.00157594995807 0.000985714281473 0
0.0017842811153 0.000394285710044 0
0.00181301645768 0 1
0.00181301645562 0.000197142852902 0
0.0014107217901 0.000985714281473 0
0 0.00169911653957 22
0.00015887156966 0.00162980460016 0
0.000755572006149 0.00147602354707 0
0.000521089104182 0.00140045712246 0
0.000333630291339 0.00136796849414 0
0.001035804122 0.00131502271084 0
0.00113230095363 0.00112135121214 0
0.000848345309159 0.00128253406838 0
0.00120190615568 0.000962584818237 0
0.00161186912993 0.000394285710044 0
0.00161186912993 0.000591428567187 0
0.00146819245661 0.00078857142433 0
0.00161186912993 0.000197142852902 0
0.00161186912994 0 1
0.00127151137186 0.00080381845261 0
0.000993090549524 0.00099202682033 0
0 0.00148637217986 22
0.000142984410574 0.00133572017465 0
0.000660886468041 0.00125004544006 0
0.00047342764106 0.0012175567976 0
0.000285968828216 0.00118506816928 0
0.000851112720222 0.00107261824138 0
0.00106269575157 0.000859546166161 0
0.00143945713042 0.000394285710044 0
0.0014107217901 0.000591428567187 0
0.0014107217901 0.000197142852902 0
0.0014107218022 0 1
0.00110707679702 0.000707877266234 0
0.00115145784246 0.000556208366307 0
0.000853880131286 0.00086270242852 0
0 0.00127362782014 22
0.000153246281821 0.00111226632824 0
0.000560312656751 0.00101979439382 0
0.000317743146389 0.000986762942944 0
0.000637491191968 0.000876586222334 0
0.000927352300787 0.000709066284574 0
0.00125604355861 0.000435360876211 0
0.001271511386 0.000146675609604 0
0.00120957447446 0 1
0.000993090549524 0.000440026837295 0
0.000714669727185 0.000733378050848 0
0 0.00106088346043 22
0.000153246281821 0.000926475483172 0
0.000292027542817 0.000753665230944 0
0.000459738859599 0.000789543347578 0
0.000792008849999 0.000558586402987 0
0.00110136532712 0.000279293199373 0
0.00100842714672 0 1
0.000911171619409 0.000314204849825 0
0.000612768774408 0.000523441342795 0
0 0.000848139100718 22
0.000136370418301 0.000704866478509 0
0.000340698803487 0.000561593868404 0
0.000676720922614 0.000278981991098 0
0.000842574023597 0.00013949098636 0
0.000807279818981 0 1
0.000510867807493 0.000418472981699 0
0 0.000635394741006 22
0.000163644494893 0.000506593231142 0
0.000307065887802 0.000313504620604 0
0.000488629443551 0.000250803695635 0
0.000606132491241 0 1
0 0.000422650381293 22
0.000136824909902 0.000279857228143 0
0.000271771663094 0.000139024181017 0
0.000404985163501 0 1
0 0.000209937705891 22
0.000203837835761 0 1
0 0 22

Edges
211
943 965 22
965 988 22
988 1007 22
1007 1025 22
1025 1043 22
1043 1059 22
1059 1073 22
1073 1084 22
1084 1093 22
1093 1100 22
1100 1105 22
1105 1109 22
1109 1111 22
129 146 21
146 163 21
163 182 21
182 202 21
202 223 21
223 243 21
243 260 21
260 280 21
280 298 21
298 316 21
316 332 21
332 349 21
349 356 21
356 375 21
375 384 21
384 401 21
401 418 21
418 435 21
435 450 21
450 468 21
468 483 21
483 501 21
501 517 21
517 534 21
534 536 21
536 552 21
552 570 21
570 588 21
588 606 21
606 609 21
609 626 21
626 642 21
642 654 21
654 665 21
665 681 21
681 696 21
696 712 21
712 728 21
728 744 21
744 745 21
745 760 21
760 777 21
777 797 21
797 796 21
796 815 21
815 833 21
833 849 21
849 864 21
864 880 21
880 882 21
882 883 21
883 881 21
881 898 21
898 919 21
919 921 21
921 922 21
922 899 21
899 923 21
923 944 21
944 943 21
3 16 20
16 32 20
32 48 20
48 65 20
65 81 20
81 96 20
96 111 20
111 129 20
2 3 19
126 109 18
109 94 18
94 79 18
79 64 18
64 47 18
47 31 18
31 15 18
15 2 18
145 128 17
128 126 17
180 162 16
162 145 16
198 200 15
200 180 15
176 179 14
179 198 14
140 157 13
157 176 13
13 28 12
28 44 12
44 62 12
62 78 12
78 93 12
93 108 12
108 125 12
125 140 12
25 24 11
24 11 11
11 10 11
10 9 11
9 8 11
8 7 11
7 12 11
12 13 11
139 122 10
122 121 10
121 106 10
106 90 10
90 74 10
74 58 10
58 41 10
41 25 10
167 154 9
154 139 9
188 168 8
168 167 8
185 205 7
205 188 7
149 166 6
166 185 6
114 132 5
132 149 5
1 6 4
6 19 4
19 35 4
35 51 4
51 68 4
68 84 4
84 99 4
99 114 4
4 1 3
130 112 2
112 97 2
97 82 2
82 66 2
66 49 2
49 33 2
33 17 2
17 4 2
1111 1110 1
1110 1108 1
1108 1104 1
1104 1098 1
1098 1090 1
1090 1081 1
1081 1069 1
1069 1056 1
1056 1040 1
1040 1022 1
1022 1003 1
1003 982 1
982 960 1
960 937 1
937 911 1
911 890 1
890 879 1
879 861 1
861 844 1
844 827 1
827 809 1
809 790 1
790 772 1
772 755 1
755 739 1
739 723 1
723 707 1
707 691 1
691 676 1
676 663 1
663 647 1
647 630 1
630 611 1
611 592 1
592 573 1
573 554 1
554 537 1
537 519 1
519 502 1
502 485 1
485 470 1
470 451 1
451 433 1
433 417 1
417 400 1
400 383 1
383 364 1
364 345 1
345 339 1
339 322 1
322 306 1
306 288 1
288 267 1
267 248 1
248 225 1
225 203 1
203 184 1
184 165 1
165 147 1
147 130 1

Triangles
2009
943 965 944 0
966 947 944 0
988 966 965 0
988 989 966 0
1008 989 1007 0
989 1008 992 0
966 989 969 0
988 1007 989 0
1008 1007 1025 0
992 1008 1009 0
992 969 989 0
970 992 993 0
948 969 970 0
949 948 970 0
925 947 948 0
944 947 923 0
944 965 966 0
947 966 969 0
1026 1008 1025 0
949 968 946 0
923 925 899 0
970 993 971 0
925 948 949 0
969 992 970 0
948 947 969 0
924 925 949 0
923 947 925 0
1047 1030 1044 0
1063 1047 1060 0
1063 1062 1047 0
1009 1027 1012 0
1009 1026 1027 0
1043 1044 1026 0
946 921 922 0
924 946 922 0
899 924 922 0
949 946 924 0
968 967 950 0
970 971 949 0
1009 1012 992 0
995 1014 996 0
973 995 996 0
1010 1028 1016 0
973 951 972 0
1033 1048 1031 0
1028 1033 1016 0
1050 1048 1033 0
1064 1050 1061 0
1062 1075 1061 0
1072 1058 1064 0
1064 1048 1050 0
1051 1049 1058 0
1057 1051 1065 0
1057 1042 1051 0
1032 1031 1048 0
1011 1028 1010 0
1011 1013 1028 0
990 967 991 0
995 990 1010 0
995 973 972 0
1030 1027 1044 0
1046 1030 1047 0
1061 1046 1062 0
1061 1045 1046 0
1029 1012 1027 0
929 903 928 0
898 902 881 0
927 930 902 0
951 952 927 0
950 967 972 0
926 950 927 0
900 926 927 0
900 920 926 0
926 945 950 0
973 952 951 0
991 1011 1010 0
968 991 967 0
971 994 991 0
949 971 968 0
994 1012 1013 0
997 974 973 0
905 932 907 0
887 905 907 0
885 906 905 0
886 885 866 0
865 886 866 0
865 884 886 0
906 932 905 0
886 906 885 0
904 929 931 0
931 955 932 0
904 931 906 0
929 953 931 0
974 975 953 0
973 974 952 0
997 975 974 0
997 976 975 0
958 956 979 0
959 958 981 0
934 956 958 0
1059 1044 1043 0
1060 1073 1074 0
1014 1010 1016 0
992 1012 993 0
1047 1044 1060 0
924 899 925 0
1111 1110 1109 0
1107 1108 1103 0
1106 1107 1102 0
1110 1108 1107 0
1107 1109 1110 0
1096 1104 1097 0
1102 1103 1099 0
1108 1104 1103 0
1106 1105 1109 0
1107 1106 1109 0
1102 1101 1106 0
1098 1097 1104 0
1101 1105 1106 0
1099 1096 1092 0
1090 1097 1098 0
1089 1081 1080 0
1074 1063 1060 0
1085 1074 1084 0
1085 1076 1074 0
1094 1086 1085 0
1100 1094 1093 0
1100 1101 1094 0
1076 1063 1074 0
1086 1076 1085 0
1077 1083 1072 0
1064 1077 1072 0
1075 1087 1077 0
1094 1101 1095 0
1038 1054 1037 0
1075 1062 1076 0
1083 1077 1087 0
1064 1061 1075 0
1079 1082 1089 0
1054 1057 1067 0
1071 1078 1082 0
1096 1097 1091 0
1088 1096 1091 0
1103 1104 1096 0
1034 1042 1038 0
1031 1032 1017 0
1015 1031 1017 0
1058 1049 1064 0
1032 1048 1049 0
1045 1028 1029 0
1050 1033 1045 0
1015 996 1014 0
1014 995 1010 0
1031 1014 1016 0
1031 1015 1014 0
1083 1088 1078 0
1034 1049 1051 0
1017 1032 1034 0
1031 1016 1033 0
1095 1092 1087 0
1070 1078 1071 0
1089 1090 1081 0
1092 1088 1083 0
1087 1092 1083 0
1099 1103 1096 0
1086 1095 1087 0
1102 1107 1103 0
1080 1081 1069 0
1055 1068 1069 0
1053 1067 1066 0
1039 1053 1052 0
1037 1054 1053 0
1096 1088 1092 0
1089 1091 1097 0
1082 1088 1091 0
1079 1067 1071 0
1032 1049 1034 0
1078 1070 1065 0
1083 1078 1072 0
1088 1082 1078 0
1057 1054 1042 0
1070 1057 1065 0
1072 1078 1065 0
1071 1057 1070 0
1071 1067 1057 0
1089 1097 1090 0
1068 1079 1080 0
1082 1091 1089 0
1095 1102 1099 0
1095 1101 1102 0
1092 1095 1099 0
1086 1094 1095 0
1076 1086 1087 0
1085 1093 1094 0
1100 1105 1101 0
1055 1069 1056 0
1093 1085 1084 0
1038 1042 1054 0
1020 1038 1021 0
1020 1034 1038 0
1001 1020 1021 0
1000 1017 1020 0
1015 1017 998 0
973 996 997 0
994 971 993 0
997 996 1015 0
991 968 971 0
1010 990 991 0
972 951 950 0
990 972 967 0
990 995 972 0
1077 1064 1075 0
1062 1063 1076 0
1087 1075 1076 0
1045 1033 1028 0
1030 1046 1029 0
1061 1050 1045 0
1064 1049 1048 0
1065 1058 1072 0
1065 1051 1058 0
1030 1029 1027 0
1029 1013 1012 0
1046 1045 1029 0
1028 1013 1029 0
994 993 1012 0
1011 994 1013 0
1011 991 994 0
1026 1044 1027 0
1008 1026 1009 0
1025 1043 1026 0
1046 1047 1062 0
1059 1060 1044 0
1059 1073 1060 0
1073 1084 1074 0
945 921 946 0
968 945 946 0
920 919 945 0
945 919 921 0
968 950 945 0
950 951 927 0
952 930 927 0
900 902 898 0
945 926 920 0
927 902 900 0
1068 1080 1069 0
1066 1068 1055 0
1066 1079 1068 0
1041 1056 1040 0
1024 1006 1005 0
1041 1024 1023 0
1041 1040 1024 0
1034 1051 1042 0
1079 1066 1067 0
1082 1079 1071 0
1089 1080 1079 0
1066 1052 1053 0
1039 1036 1053 0
1055 1039 1052 0
1023 1036 1039 0
1022 1006 1024 0
1024 1005 1023 0
1023 1019 1036 0
1018 999 1002 0
919 920 898 0
980 957 959 0
999 1019 1004 0
1021 1018 1002 0
1036 1019 1018 0
1035 1036 1018 0
1021 1035 1018 0
1037 1053 1035 0
1038 1037 1021 0
1054 1067 1053 0
1024 1040 1022 0
1039 1041 1023 0
1055 1056 1041 0
1039 1055 1041 0
1052 1066 1055 0
960 937 942 0
920 900 898 0
974 953 952 0
883 881 902 0
985 1006 1003 0
903 930 928 0
882 903 901 0
902 930 903 0
985 1003 982 0
931 953 955 0
942 964 960 0
884 865 864 0
882 901 880 0
904 886 884 0
901 904 884 0
883 902 903 0
953 975 955 0
928 953 929 0
901 903 929 0
930 953 928 0
930 952 953 0
931 932 906 0
884 864 880 0
877 897 878 0
862 860 878 0
876 875 896 0
859 876 877 0
842 859 843 0
858 872 876 0
842 858 859 0
842 848 858 0
847 857 863 0
831 847 848 0
831 841 847 0
873 894 874 0
896 917 897 0
877 896 897 0
877 876 896 0
872 875 876 0
859 858 876 0
874 894 893 0
872 874 893 0
863 857 874 0
895 917 896 0
893 895 875 0
915 939 940 0
871 891 892 0
916 941 917 0
895 916 917 0
940 941 916 0
915 940 916 0
914 915 895 0
914 939 915 0
939 961 940 0
897 911 890 0
942 918 917 0
942 937 918 0
850 866 851 0
833 850 834 0
849 865 850 0
1023 1004 1019 0
1003 1006 1022 0
985 984 1005 0
960 964 982 0
977 957 980 0
999 977 980 0
983 961 962 0
983 963 961 0
982 964 985 0
942 941 964 0
915 916 895 0
983 984 963 0
942 917 941 0
962 961 939 0
913 938 939 0
977 983 962 0
984 983 1004 0
1005 984 1004 0
1023 1005 1004 0
1006 985 1005 0
985 964 984 0
963 964 941 0
940 963 941 0
984 964 963 0
911 918 937 0
918 911 897 0
910 889 888 0
886 904 906 0
850 865 866 0
903 882 883 0
904 901 929 0
884 880 901 0
1036 1035 1053 0
999 980 1002 0
1019 999 1018 0
1004 987 999 0
987 977 999 0
983 987 1004 0
983 977 987 0
959 936 958 0
1020 1017 1034 0
986 981 979 0
1002 986 1001 0
1002 981 986 0
1037 1035 1021 0
979 956 978 0
1001 979 1000 0
1020 1001 1000 0
1021 1002 1001 0
981 958 979 0
980 981 1002 0
980 959 981 0
978 976 997 0
979 978 1000 0
956 976 978 0
864 865 849 0
954 933 955 0
976 954 955 0
976 956 954 0
954 956 933 0
975 976 955 0
998 1017 1000 0
978 998 1000 0
997 1015 998 0
936 908 910 0
986 979 1001 0
933 956 934 0
907 933 934 0
932 955 933 0
978 997 998 0
935 912 908 0
957 935 959 0
938 962 939 0
912 938 913 0
957 962 938 0
878 879 862 0
860 877 878 0
846 860 862 0
859 877 860 0
897 879 878 0
888 887 907 0
910 888 907 0
909 910 907 0
936 909 934 0
936 910 909 0
958 936 934 0
959 935 936 0
908 889 910 0
889 870 869 0
912 892 891 0
836 822 819 0
820 836 819 0
853 838 836 0
852 853 837 0
854 838 853 0
850 833 849 0
867 851 866 0
835 816 818 0
834 835 817 0
837 820 835 0
867 868 852 0
860 846 843 0
861 862 879 0
861 844 845 0
757 774 773 0
727 743 742 0
743 751 759 0
709 711 726 0
769 788 787 0
768 769 787 0
752 753 769 0
751 752 768 0
759 751 768 0
776 759 768 0
758 741 742 0
734 735 751 0
736 737 753 0
825 841 831 0
825 804 824 0
814 825 831 0
814 795 805 0
754 738 749 0
770 754 765 0
753 737 754 0
782 763 779 0
803 784 802 0
781 764 782 0
786 766 781 0
802 784 781 0
806 785 786 0
767 749 750 0
783 770 765 0
804 825 806 0
788 770 783 0
749 733 750 0
824 823 840 0
784 803 804 0
806 784 804 0
786 781 784 0
802 823 803 0
826 842 843 0
812 811 830 0
813 832 826 0
788 795 807 0
856 841 840 0
847 863 848 0
856 857 841 0
856 873 857 0
794 810 791 0
775 793 794 0
826 811 807 0
826 830 811 0
830 829 812 0
813 826 807 0
843 846 830 0
897 917 918 0
879 897 890 0
896 875 895 0
858 863 872 0
858 848 863 0
830 826 843 0
832 848 842 0
826 832 842 0
813 814 832 0
847 841 857 0
832 831 848 0
805 783 785 0
825 805 806 0
825 814 805 0
832 814 831 0
813 807 795 0
893 894 914 0
857 873 874 0
855 856 840 0
855 871 856 0
839 855 840 0
823 839 840 0
824 803 823 0
841 824 840 0
804 803 824 0
821 839 823 0
838 854 839 0
822 838 839 0
822 836 838 0
891 889 908 0
854 870 855 0
854 869 870 0
938 935 957 0
938 912 935 0
914 913 939 0
894 892 913 0
913 892 912 0
874 872 863 0
895 893 914 0
875 872 893 0
873 892 894 0
873 871 892 0
908 936 935 0
828 827 809 0
829 828 810 0
812 829 810 0
830 846 829 0
845 827 828 0
833 834 815 0
818 796 815 0
823 802 821 0
797 796 818 0
853 868 869 0
885 887 867 0
907 934 909 0
885 905 887 0
932 933 907 0
808 791 810 0
828 808 810 0
809 790 808 0
818 816 798 0
940 961 963 0
894 913 914 0
957 977 962 0
782 802 781 0
780 800 779 0
780 799 801 0
762 778 780 0
763 761 779 0
760 778 762 0
780 801 800 0
778 798 780 0
836 837 853 0
821 801 822 0
820 837 836 0
816 820 819 0
816 835 820 0
798 816 799 0
851 834 850 0
835 851 852 0
835 834 851 0
818 817 835 0
818 815 817 0
845 862 861 0
839 854 855 0
821 822 839 0
800 821 802 0
801 819 822 0
800 801 821 0
799 819 801 0
867 866 885 0
868 867 887 0
868 853 852 0
888 868 887 0
869 854 853 0
888 869 868 0
888 889 869 0
837 835 852 0
852 851 867 0
799 816 819 0
817 815 834 0
789 808 790 0
772 789 790 0
791 808 789 0
776 787 775 0
759 776 774 0
768 787 776 0
808 828 809 0
794 812 810 0
774 794 791 0
774 776 794 0
845 844 827 0
829 846 845 0
846 862 845 0
828 829 845 0
843 859 860 0
762 780 779 0
777 778 760 0
777 797 798 0
745 761 744 0
760 762 745 0
766 786 767 0
773 789 771 0
773 774 791 0
789 773 791 0
757 758 774 0
771 757 773 0
756 741 757 0
739 740 755 0
740 724 725 0
756 740 741 0
739 724 740 0
685 667 669 0
686 685 669 0
701 684 685 0
702 719 701 0
683 666 668 0
699 683 684 0
699 695 683 0
701 718 700 0
668 685 684 0
686 702 701 0
711 695 699 0
771 756 757 0
772 771 789 0
772 756 771 0
770 753 754 0
735 736 752 0
718 735 734 0
718 719 735 0
719 720 736 0
727 711 717 0
720 737 736 0
702 720 719 0
702 704 720 0
871 855 870 0
891 871 870 0
889 891 870 0
908 912 891 0
873 856 871 0
795 788 783 0
805 795 783 0
814 813 795 0
798 799 780 0
777 798 778 0
797 818 798 0
841 825 824 0
746 747 729 0
764 781 766 0
800 782 779 0
800 802 782 0
716 715 713 0
729 728 744 0
761 762 779 0
747 746 763 0
745 762 761 0
697 698 687 0
714 697 696 0
714 698 697 0
730 713 714 0
746 761 763 0
744 746 729 0
744 761 746 0
750 766 767 0
716 732 733 0
715 716 733 0
731 747 748 0
732 748 750 0
733 732 750 0
716 731 732 0
729 747 730 0
748 766 750 0
763 764 747 0
763 782 764 0
703 706 705 0
730 716 713 0
733 721 715 0
772 755 756 0
675 674 658 0
659 675 658 0
671 687 675 0
674 689 673 0
657 674 673 0
641 643 658 0
639 641 656 0
639 625 641 0
654 665 671 0
675 690 674 0
705 704 689 0
722 737 720 0
721 722 706 0
738 737 722 0
721 738 722 0
703 721 706 0
733 738 721 0
749 765 754 0
748 747 764 0
766 748 764 0
731 730 747 0
732 731 748 0
716 730 731 0
770 788 769 0
753 770 769 0
736 753 752 0
737 738 754 0
785 806 805 0
765 785 783 0
765 767 785 0
767 765 749 0
767 786 785 0
759 774 758 0
735 752 751 0
792 807 811 0
793 792 811 0
787 807 792 0
752 769 768 0
788 807 787 0
786 784 806 0
793 811 812 0
794 793 812 0
775 792 793 0
776 775 794 0
787 792 775 0
695 709 692 0
680 683 695 0
727 726 711 0
699 717 711 0
743 759 758 0
734 743 727 0
734 751 743 0
581 598 583 0
547 563 564 0
547 545 562 0
561 559 579 0
559 548 566 0
579 559 566 0
561 548 559 0
544 561 560 0
544 526 543 0
542 544 560 0
527 510 526 0
532 533 549 0
566 582 579 0
586 590 603 0
568 586 585 0
572 589 586 0
553 571 572 0
589 590 586 0
571 589 572 0
587 607 589 0
588 587 570 0
588 606 607 0
601 616 599 0
602 601 599 0
618 616 601 0
603 608 604 0
650 667 651 0
636 650 634 0
636 652 650 0
670 686 669 0
653 670 669 0
638 653 637 0
638 655 653 0
672 688 686 0
673 672 670 0
673 688 672 0
612 628 629 0
575 594 593 0
596 613 614 0
600 617 615 0
649 651 666 0
664 649 666 0
664 648 649 0
615 633 631 0
635 651 649 0
617 635 633 0
617 634 635 0
636 634 618 0
661 677 678 0
648 661 644 0
664 677 661 0
677 680 692 0
660 661 678 0
664 680 677 0
648 664 661 0
632 648 644 0
627 632 644 0
631 648 632 0
633 649 648 0
633 635 649 0
650 651 635 0
666 680 664 0
667 668 651 0
668 684 683 0
651 668 666 0
667 685 668 0
652 667 650 0
637 652 636 0
652 653 669 0
735 719 736 0
717 718 734 0
727 717 734 0
699 700 717 0
700 684 701 0
717 700 718 0
699 684 700 0
685 686 701 0
652 669 667 0
652 637 653 0
670 672 686 0
692 693 677 0
740 725 741 0
729 714 728 0
714 729 730 0
724 739 723 0
707 708 723 0
710 726 725 0
708 724 723 0
694 708 707 0
694 710 708 0
657 658 674 0
656 657 673 0
656 641 657 0
698 713 715 0
682 697 687 0
714 713 698 0
712 714 696 0
712 728 714 0
690 689 674 0
698 703 687 0
705 689 690 0
703 705 690 0
706 722 705 0
703 715 721 0
687 703 690 0
698 715 703 0
733 749 738 0
694 707 691 0
709 710 692 0
695 711 709 0
680 695 692 0
680 666 683 0
726 710 709 0
741 758 757 0
755 740 756 0
725 726 742 0
710 725 724 0
742 743 758 0
725 742 741 0
726 727 742 0
689 688 673 0
681 697 682 0
704 722 720 0
689 704 688 0
705 722 704 0
679 691 676 0
693 694 679 0
677 693 678 0
692 710 693 0
710 724 708 0
682 687 671 0
665 682 671 0
681 696 697 0
679 678 693 0
691 679 694 0
676 663 679 0
671 675 659 0
681 682 665 0
687 690 675 0
662 660 678 0
663 662 679 0
646 645 662 0
659 642 654 0
671 659 654 0
658 657 641 0
619 618 601 0
603 619 602 0
604 621 620 0
646 647 629 0
629 647 630 0
611 612 630 0
628 645 629 0
620 637 636 0
619 620 636 0
619 604 620 0
608 624 621 0
589 605 608 0
607 623 622 0
624 638 621 0
643 659 658 0
625 643 641 0
623 625 639 0
626 643 625 0
642 659 643 0
655 670 653 0
592 593 611 0
619 636 618 0
639 656 640 0
626 625 623 0
626 642 643 0
702 688 704 0
718 701 719 0
686 688 702 0
607 605 589 0
588 607 587 0
622 624 608 0
607 622 605 0
623 639 622 0
626 623 609 0
620 621 637 0
603 604 619 0
585 603 602 0
590 608 603 0
608 621 604 0
589 608 590 0
605 622 608 0
639 624 622 0
638 637 621 0
640 638 624 0
639 640 624 0
656 655 640 0
655 673 670 0
640 655 638 0
656 673 655 0
573 574 592 0
599 598 582 0
617 616 634 0
650 635 634 0
631 613 615 0
600 598 616 0
583 578 565 0
600 583 598 0
600 597 583 0
617 600 616 0
597 578 583 0
615 597 600 0
615 613 597 0
633 615 617 0
613 595 597 0
614 613 631 0
632 614 631 0
628 610 614 0
595 577 578 0
596 595 613 0
591 577 595 0
565 581 583 0
577 565 578 0
564 581 565 0
523 520 504 0
540 541 522 0
539 520 523 0
556 539 541 0
575 556 558 0
555 538 556 0
538 521 539 0
545 531 528 0
560 545 542 0
547 531 545 0
579 580 562 0
564 546 547 0
557 540 546 0
577 557 564 0
558 541 557 0
529 530 546 0
601 602 619 0
598 599 616 0
582 584 599 0
579 582 598 0
566 584 582 0
584 585 602 0
599 584 602 0
566 567 584 0
560 561 579 0
548 549 567 0
535 550 533 0
552 570 571 0
586 603 585 0
606 623 607 0
606 609 623 0
634 616 618 0
632 627 614 0
633 648 631 0
645 646 629 0
660 645 644 0
660 662 645 0
661 660 644 0
678 679 662 0
627 645 628 0
614 627 628 0
644 645 627 0
710 694 693 0
662 663 646 0
663 647 646 0
629 630 612 0
472 487 486 0
444 462 463 0
429 444 445 0
448 449 466 0
428 431 444 0
415 422 432 0
457 443 438 0
476 457 474 0
476 461 457 0
458 466 449 0
441 459 458 0
425 441 439 0
425 440 441 0
478 494 495 0
460 478 477 0
459 460 477 0
459 442 460 0
461 476 478 0
491 493 476 0
497 499 513 0
479 497 480 0
479 481 497 0
466 481 479 0
477 495 481 0
459 477 458 0
495 512 499 0
478 495 477 0
494 512 495 0
528 515 512 0
524 528 511 0
531 515 528 0
466 462 448 0
477 466 458 0
477 481 466 0
515 499 512 0
480 465 479 0
461 443 457 0
494 478 476 0
442 427 443 0
460 442 461 0
440 427 442 0
555 573 554 0
522 523 529 0
540 522 529 0
541 523 522 0
593 592 574 0
575 593 574 0
612 611 593 0
594 612 593 0
610 628 612 0
551 550 535 0
552 553 536 0
569 550 551 0
553 572 569 0
587 571 570 0
587 589 571 0
572 586 569 0
555 554 538 0
543 532 548 0
506 525 507 0
518 533 532 0
521 537 519 0
577 558 557 0
597 595 578 0
576 575 558 0
591 576 577 0
591 594 576 0
596 610 591 0
595 596 591 0
614 610 596 0
576 558 577 0
594 575 576 0
610 594 591 0
610 612 594 0
556 538 539 0
574 555 556 0
574 573 555 0
527 544 542 0
511 509 527 0
551 534 536 0
518 535 533 0
516 517 535 0
549 548 532 0
568 549 550 0
568 567 549 0
586 568 569 0
567 566 548 0
585 567 568 0
585 584 567 0
569 568 550 0
518 516 535 0
554 537 538 0
553 569 551 0
536 553 551 0
552 571 553 0
502 503 519 0
534 551 535 0
516 501 517 0
534 535 517 0
518 506 516 0
514 505 498 0
485 484 503 0
452 470 451 0
484 469 472 0
484 470 469 0
480 487 471 0
484 472 486 0
503 484 486 0
485 470 484 0
464 446 463 0
480 464 465 0
453 447 464 0
469 453 472 0
451 433 434 0
488 500 506 0
521 538 537 0
486 504 503 0
577 564 565 0
574 556 575 0
557 546 564 0
541 540 557 0
556 541 558 0
539 523 541 0
529 546 540 0
513 499 515 0
530 513 515 0
496 480 497 0
513 496 497 0
498 480 496 0
546 531 547 0
447 434 430 0
464 447 446 0
453 452 447 0
471 453 464 0
447 430 445 0
452 434 447 0
433 417 434 0
447 445 446 0
416 430 434 0
417 416 434 0
417 399 416 0
441 458 439 0
442 459 440 0
461 478 460 0
463 462 479 0
464 463 465 0
446 445 463 0
459 441 440 0
449 439 458 0
448 431 449 0
444 448 462 0
444 431 448 0
432 422 439 0
431 432 449 0
431 415 432 0
422 405 421 0
423 427 440 0
424 423 440 0
407 406 423 0
410 411 406 0
394 410 393 0
402 420 410 0
420 438 426 0
426 443 427 0
467 468 482 0
473 454 467 0
438 455 456 0
437 436 455 0
450 468 454 0
467 454 468 0
488 473 482 0
488 489 473 0
474 491 476 0
500 501 516 0
506 500 516 0
482 501 500 0
514 529 523 0
504 505 523 0
503 504 520 0
486 487 505 0
498 513 514 0
498 496 513 0
528 542 545 0
580 598 581 0
563 580 581 0
579 598 580 0
493 509 511 0
512 493 511 0
494 476 493 0
494 493 512 0
491 490 509 0
475 491 474 0
475 490 491 0
526 507 525 0
508 510 527 0
492 489 507 0
508 492 510 0
490 489 492 0
456 475 474 0
457 456 474 0
438 437 455 0
488 507 489 0
454 455 436 0
482 483 501 0
473 455 454 0
482 473 467 0
475 455 473 0
468 483 482 0
549 533 550 0
543 526 525 0
561 543 548 0
561 544 543 0
525 518 532 0
524 542 528 0
527 524 511 0
527 542 524 0
508 527 509 0
490 508 509 0
490 492 508 0
543 525 532 0
527 526 544 0
510 507 526 0
531 546 530 0
515 531 530 0
514 513 530 0
529 514 530 0
479 465 463 0
466 479 462 0
481 499 497 0
487 480 498 0
471 472 453 0
480 471 464 0
487 472 471 0
512 511 528 0
562 560 579 0
563 562 580 0
564 563 581 0
547 562 563 0
545 560 562 0
505 504 486 0
498 505 487 0
514 523 505 0
521 503 520 0
539 521 520 0
519 503 521 0
502 485 503 0
452 469 470 0
434 452 451 0
453 469 452 0
398 405 415 0
381 398 395 0
380 387 398 0
381 380 398 0
396 381 395 0
378 360 362 0
367 385 387 0
506 518 525 0
488 506 507 0
488 482 500 0
463 445 444 0
400 399 417 0
363 382 364 0
357 363 364 0
357 377 363 0
416 399 414 0
400 383 399 0
456 457 438 0
475 473 489 0
490 475 489 0
507 510 492 0
509 493 491 0
456 455 475 0
390 407 408 0
391 390 408 0
391 389 390 0
443 461 442 0
389 407 390 0
499 481 495 0
366 367 348 0
331 346 348 0
365 385 366 0
354 372 353 0
385 386 404 0
422 415 405 0
439 422 421 0
439 449 432 0
415 412 398 0
428 415 431 0
430 414 429 0
395 398 412 0
409 408 424 0
421 409 425 0
403 408 409 0
421 403 409 0
387 385 404 0
398 387 405 0
380 367 387 0
374 365 372 0
392 374 372 0
386 385 374 0
405 387 404 0
367 366 385 0
392 408 403 0
374 385 365 0
403 386 392 0
403 404 386 0
373 370 391 0
392 373 391 0
371 355 373 0
413 397 396 0
428 429 413 0
415 428 412 0
444 429 428 0
397 379 396 0
414 397 413 0
414 399 397 0
437 420 419 0
450 454 435 0
438 420 437 0
428 413 412 0
430 429 445 0
414 413 429 0
416 414 430 0
382 383 364 0
397 382 379 0
397 399 382 0
352 355 371 0
336 352 354 0
336 334 352 0
376 393 388 0
384 394 375 0
384 402 394 0
409 424 425 0
424 407 423 0
425 424 440 0
408 407 424 0
421 404 403 0
439 421 425 0
405 404 421 0
391 370 389 0
392 391 408 0
392 371 373 0
389 406 407 0
369 389 370 0
406 411 423 0
388 406 389 0
393 410 406 0
383 382 399 0
363 377 379 0
345 357 364 0
345 358 357 0
396 395 412 0
377 396 379 0
378 381 396 0
426 438 443 0
411 426 427 0
411 410 426 0
410 420 426 0
394 402 410 0
401 418 402 0
436 435 454 0
419 436 437 0
419 418 436 0
436 418 435 0
402 419 420 0
402 418 419 0
359 377 358 0
358 345 339 0
322 340 339 0
377 378 396 0
382 363 379 0
359 360 377 0
423 411 427 0
369 388 389 0
333 317 332 0
338 333 350 0
338 334 333 0
352 334 338 0
336 321 319 0
356 375 368 0
384 401 402 0
340 358 339 0
324 340 322 0
324 323 341 0
368 349 356 0
375 394 376 0
201 200 180 0
302 304 321 0
283 302 299 0
300 281 282 0
285 265 266 0
263 264 283 0
262 263 283 0
262 240 242 0
282 262 283 0
240 218 220 0
242 240 220 0
221 242 220 0
263 262 242 0
241 219 240 0
244 265 264 0
284 264 285 0
243 265 245 0
260 280 266 0
244 264 263 0
337 335 320 0
338 355 352 0
353 335 337 0
354 353 337 0
336 354 337 0
371 372 354 0
303 299 302 0
321 303 302 0
320 318 303 0
337 320 321 0
335 318 320 0
365 347 353 0
326 343 344 0
353 347 335 0
343 348 361 0
308 325 326 0
331 348 343 0
325 331 343 0
326 325 343 0
308 297 315 0
315 297 311 0
309 292 291 0
327 309 326 0
327 323 310 0
311 294 312 0
331 325 315 0
297 294 311 0
309 291 308 0
279 294 297 0
290 279 297 0
270 259 279 0
275 293 294 0
312 295 313 0
329 312 313 0
328 311 312 0
312 293 295 0
273 255 274 0
365 366 347 0
367 361 348 0
313 295 296 0
314 313 296 0
300 314 296 0
300 318 314 0
315 328 331 0
308 315 325 0
311 328 315 0
293 312 294 0
329 346 328 0
330 329 313 0
314 330 313 0
335 347 330 0
346 331 328 0
255 275 259 0
239 255 259 0
235 253 255 0
213 231 209 0
234 254 233 0
215 234 212 0
215 237 234 0
233 231 213 0
256 276 274 0
235 232 253 0
350 368 351 0
376 368 375 0
393 376 394 0
388 368 376 0
406 388 393 0
369 368 388 0
351 369 370 0
351 368 369 0
373 355 370 0
333 332 350 0
324 322 306 0
288 305 306 0
324 341 340 0
362 380 381 0
343 361 344 0
367 380 361 0
358 377 357 0
360 378 377 0
341 342 359 0
340 341 359 0
323 327 341 0
344 361 362 0
396 412 413 0
341 327 342 0
272 289 268 0
306 305 324 0
288 287 305 0
288 267 287 0
224 246 227 0
229 224 208 0
229 230 224 0
289 269 268 0
324 305 307 0
267 248 269 0
269 248 249 0
268 269 247 0
287 267 269 0
317 316 332 0
355 351 370 0
354 352 371 0
338 351 355 0
317 333 334 0
350 351 338 0
349 350 332 0
349 368 350 0
321 320 303 0
301 317 319 0
336 337 321 0
5 4 1 0
5 1 6 0
18 5 6 0
17 4 5 0
18 17 5 0
18 19 34 0
17 18 33 0
6 19 18 0
33 18 34 0
34 35 50 0
33 34 49 0
19 35 34 0
50 49 34 0
51 50 35 0
66 49 50 0
50 51 67 0
67 66 50 0
68 67 51 0
82 66 67 0
67 68 83 0
83 97 82 0
67 83 82 0
68 84 83 0
84 98 83 0
98 97 83 0
99 98 84 0
112 97 98 0
99 113 98 0
113 112 98 0
114 113 99 0
130 112 113 0
131 113 114 0
131 130 113 0
132 131 114 0
132 148 131 0
131 147 130 0
132 149 148 0
148 147 131 0
166 164 149 0
165 147 148 0
164 166 183 0
164 165 148 0
149 164 148 0
183 165 164 0
204 183 185 0
183 184 165 0
185 183 166 0
204 184 183 0
227 204 205 0
204 185 205 0
249 226 227 0
203 184 204 0
226 204 227 0
225 226 249 0
203 204 226 0
249 247 269 0
225 249 248 0
225 203 226 0
249 227 247 0
207 187 206 0
229 207 228 0
229 208 207 0
250 229 228 0
205 188 208 0
290 297 308 0
272 271 291 0
270 279 290 0
252 230 251 0
272 252 271 0
268 246 252 0
250 259 270 0
340 359 358 0
205 208 224 0
362 361 380 0
378 362 381 0
360 344 362 0
192 206 186 0
173 192 186 0
210 211 192 0
169 170 151 0
194 189 175 0
209 191 189 0
192 190 210 0
172 152 170 0
190 172 191 0
171 153 172 0
211 228 206 0
231 232 210 0
217 228 211 0
232 217 211 0
235 255 239 0
232 235 217 0
210 232 211 0
231 253 232 0
191 209 210 0
194 212 213 0
214 236 216 0
195 214 196 0
199 218 219 0
257 236 241 0
281 278 261 0
238 236 257 0
211 206 192 0
239 250 228 0
235 239 217 0
259 250 239 0
246 268 247 0
205 224 227 0
271 270 290 0
268 252 272 0
251 270 271 0
252 251 271 0
230 229 251 0
224 230 246 0
229 250 251 0
187 207 208 0
250 270 251 0
346 347 366 0
348 346 366 0
329 328 312 0
309 310 292 0
227 246 247 0
307 289 292 0
324 307 323 0
305 289 307 0
246 230 252 0
310 309 327 0
307 310 323 0
307 292 310 0
291 290 308 0
272 291 292 0
271 290 291 0
308 326 309 0
259 275 279 0
228 217 239 0
275 294 279 0
289 272 292 0
287 289 305 0
287 269 289 0
344 327 326 0
342 360 359 0
344 342 327 0
344 360 342 0
284 304 302 0
265 285 264 0
266 286 285 0
260 266 265 0
280 298 286 0
319 317 334 0
286 301 304 0
285 286 304 0
266 280 286 0
298 317 301 0
374 392 386 0
353 372 365 0
371 392 372 0
253 274 255 0
278 277 276 0
318 330 314 0
299 318 300 0
335 330 318 0
330 347 329 0
329 347 346 0
207 206 228 0
188 187 208 0
188 168 187 0
318 299 303 0
258 238 257 0
240 219 218 0
240 262 241 0
200 220 218 0
221 244 242 0
261 257 241 0
196 214 216 0
282 283 299 0
300 282 299 0
281 261 282 0
262 261 241 0
296 281 300 0
278 276 258 0
236 219 241 0
244 263 242 0
214 219 236 0
214 199 219 0
195 199 214 0
177 195 196 0
179 199 195 0
198 218 199 0
200 221 220 0
174 178 193 0
143 160 142 0
124 143 142 0
140 157 158 0
177 178 160 0
176 177 157 0
134 150 151 0
117 134 133 0
123 142 141 0
116 123 134 0
116 124 123 0
159 156 141 0
142 159 141 0
160 178 159 0
196 178 177 0
193 212 194 0
196 197 178 0
196 216 197 0
197 216 215 0
200 218 198 0
172 170 189 0
175 193 194 0
258 237 238 0
258 256 237 0
261 278 257 0
276 256 258 0
293 276 295 0
274 253 254 0
293 274 276 0
273 275 255 0
293 273 274 0
293 275 273 0
254 237 256 0
233 254 253 0
231 233 253 0
213 234 233 0
213 212 234 0
193 178 197 0
212 193 197 0
175 156 174 0
274 254 256 0
234 237 254 0
197 215 212 0
216 236 238 0
277 296 295 0
276 277 295 0
278 296 277 0
257 278 258 0
281 296 278 0
215 238 237 0
215 216 238 0
168 186 187 0
186 167 173 0
189 194 209 0
169 175 189 0
170 169 189 0
150 156 169 0
174 159 178 0
175 174 193 0
156 159 174 0
155 173 154 0
155 154 139 0
138 155 139 0
122 138 139 0
136 152 153 0
171 173 155 0
179 198 199 0
137 138 122 0
195 176 179 0
173 167 154 0
190 192 173 0
172 190 171 0
191 210 190 0
186 168 167 0
171 190 173 0
206 187 186 0
177 176 195 0
105 120 106 0
160 143 158 0
124 116 107 0
140 143 125 0
142 123 124 0
134 141 150 0
125 143 124 0
158 157 177 0
160 158 177 0
143 140 158 0
120 137 121 0
118 136 119 0
103 118 104 0
133 151 135 0
117 133 115 0
102 117 100 0
86 102 100 0
85 87 102 0
116 134 117 0
151 170 152 0
134 151 133 0
150 169 151 0
153 155 138 0
105 106 91 0
89 105 91 0
104 120 105 0
106 90 91 0
86 100 88 0
70 87 85 0
52 54 70 0
54 61 71 0
45 54 37 0
61 77 71 0
101 117 102 0
78 92 77 0
116 117 101 0
125 124 108 0
141 156 150 0
123 141 134 0
142 160 159 0
115 100 117 0
118 115 133 0
118 103 115 0
119 104 118 0
137 119 136 0
120 104 119 0
137 120 119 0
153 137 136 0
122 121 137 0
121 106 120 0
105 89 104 0
74 76 90 0
89 88 103 0
76 60 75 0
103 100 115 0
89 103 104 0
88 100 103 0
75 73 89 0
40 57 39 0
22 38 23 0
53 69 55 0
25 24 41 0
26 27 11 0
27 24 11 0
39 43 26 0
41 24 27 0
43 56 60 0
42 43 59 0
58 42 59 0
41 27 42 0
27 26 43 0
10 26 11 0
36 53 38 0
27 43 42 0
23 10 9 0
22 23 9 0
39 26 23 0
59 74 58 0
41 42 58 0
75 89 91 0
76 75 91 0
60 73 75 0
59 60 76 0
73 88 89 0
56 73 60 0
56 39 57 0
8 7 21 0
76 74 59 0
43 60 59 0
91 90 76 0
12 13 28 0
29 20 28 0
44 45 29 0
29 37 20 0
44 29 28 0
45 37 29 0
62 45 44 0
61 54 45 0
62 61 45 0
20 21 7 0
21 37 36 0
8 21 22 0
20 37 21 0
12 20 7 0
12 28 20 0
87 77 92 0
70 71 87 0
69 70 85 0
69 53 70 0
71 77 87 0
40 39 23 0
69 72 55 0
52 70 53 0
86 88 72 0
73 56 57 0
78 61 62 0
92 93 107 0
87 92 101 0
102 87 101 0
61 78 77 0
78 93 92 0
107 93 108 0
124 107 108 0
116 101 107 0
39 56 43 0
10 23 26 0
38 22 36 0
55 38 53 0
40 23 38 0
8 22 9 0
86 85 102 0
72 69 86 0
73 72 88 0
73 57 72 0
69 85 86 0
55 57 40 0
38 55 40 0
72 57 55 0
36 37 52 0
21 36 22 0
70 54 71 0
36 52 53 0
37 54 52 0
92 107 101 0
153 171 155 0
137 153 138 0
152 172 153 0
135 151 152 0
118 135 136 0
118 133 135 0
209 194 213 0
210 209 231 0
191 172 189 0
136 135 152 0
169 156 175 0
14 3 16 0
30 14 16 0
2 3 14 0
2 14 15 0
30 32 46 0
14 30 15 0
16 32 30 0
31 15 30 0
32 48 46 0
46 47 31 0
30 46 31 0
48 63 46 0
63 65 80 0
46 63 47 0
48 65 63 0
64 47 63 0
80 81 95 0
63 80 64 0
65 81 80 0
64 80 79 0
95 96 110 0
80 95 79 0
81 96 95 0
79 95 94 0
110 111 127 0
95 110 94 0
96 111 110 0
109 94 110 0
111 129 127 0
127 109 110 0
144 127 129 0
126 109 127 0
144 126 127 0
129 146 144 0
161 146 163 0
128 144 145 0
128 126 144 0
161 144 146 0
181 161 163 0
145 144 161 0
162 161 181 0
181 163 182 0
161 162 145 0
202 201 182 0
180 162 181 0
222 202 223 0
181 201 180 0
181 182 201 0
221 200 201 0
222 223 245 0
265 243 260 0
222 245 221 0
201 222 221 0
201 202 222 0
223 243 245 0
244 245 265 0
301 286 298 0
319 321 304 0
301 319 304 0
334 336 319 0
244 221 245 0
284 302 283 0
264 284 283 0
285 304 284 0
262 282 261 0
316 317 298 0

SubDomainFromMesh
1
3 1 1 0

SubDomainFromGeom
1
2 73 1 0

VertexOnGeometricVertex
211
 1 1
 2 2
 3 3
 4 4
 6 5
 7 6
 8 7
 9 8
 10 9
 11 10
 12 11
 13 12
 15 13
 16 14
 17 15
 19 16
 24 17
 25 18
 28 19
 31 20
 32 21
 33 22
 35 23
 41 24
 44 25
 47 26
 48 27
 49 28
 51 29
 58 30
 62 31
 64 32
 65 33
 66 34
 68 35
 74 36
 78 37
 79 38
 81 39
 82 40
 84 41
 90 42
 93 43
 94 44
 96 45
 97 46
 99 47
 106 48
 108 49
 109 50
 111 51
 112 52
 114 53
 121 54
 122 55
 125 56
 126 57
 128 58
 129 59
 130 60
 132 61
 139 62
 140 63
 145 64
 146 65
 147 66
 149 67
 154 68
 157 69
 162 70
 163 71
 165 72
 166 73
 167 74
 168 75
 176 76
 179 77
 180 78
 182 79
 184 80
 185 81
 188 82
 198 83
 200 84
 202 85
 203 86
 205 87
 223 88
 225 89
 243 90
 248 91
 260 92
 267 93
 280 94
 288 95
 298 96
 306 97
 316 98
 322 99
 332 100
 339 101
 345 102
 349 103
 356 104
 364 105
 375 106
 383 107
 384 108
 400 109
 401 110
 417 111
 418 112
 433 113
 435 114
 450 115
 451 116
 468 117
 470 118
 483 119
 485 120
 501 121
 502 122
 517 123
 519 124
 534 125
 536 126
 537 127
 552 128
 554 129
 570 130
 573 131
 588 132
 592 133
 606 134
 609 135
 611 136
 626 137
 630 138
 642 139
 647 140
 654 141
 663 142
 665 143
 676 144
 681 145
 691 146
 696 147
 707 148
 712 149
 723 150
 728 151
 739 152
 744 153
 745 154
 755 155
 760 156
 772 157
 777 158
 790 159
 796 160
 797 161
 809 162
 815 163
 827 164
 833 165
 844 166
 849 167
 861 168
 864 169
 879 170
 880 171
 881 172
 882 173
 883 174
 890 175
 898 176
 899 177
 911 178
 919 179
 921 180
 922 181
 923 182
 937 183
 943 184
 944 185
 960 186
 965 187
 982 188
 988 189
 1003 190
 1007 191
 1022 192
 1025 193
 1040 194
 1043 195
 1056 196
 1059 197
 1069 198
 1073 199
 1081 200
 1084 201
 1090 202
 1093 203
 1098 204
 1100 205
 1104 206
 1105 207
 1108 208
 1109 209
 1110 210
 1111 211

VertexOnGeometricEdge
0

EdgeOnGeometricEdge
211
1 1
2 2
3 3
4 4
5 5
6 6
7 7
8 8
9 9
10 10
11 11
12 12
13 13
14 14
15 15
16 16
17 17
18 18
19 19
20 20
21 21
22 22
23 23
24 24
25 25
26 26
27 27
28 28
29 29
30 30
31 31
32 32
33 33
34 34
35 35
36 36
37 37
38 38
39 39
40 40
41 41
42 42
43 43
44 44
45 45
46 46
47 47
48 48
49 49
50 50
51 51
52 52
53 53
54 54
55 55
56 56
57 57
58 58
59 59
60 60
61 61
62 62
63 63
64 64
65 65
66 66
67 67
68 68
69 69
70 70
71 71
72 72
73 73
74 74
75 75
76 76
77 77
78 78
79 79
80 80
81 81
82 82
83 83
84 84
85 85
86 86
87 87
88 88
89 89
90 90
91 91
92 92
93 93
94 94
95 95
96 96
97 97
98 98
99 99
100 100
101 101
102 102
103 103
104 104
105 105
106 106
107 107
108 108
109 109
110 110
111 111
112 112
113 113
114 114
115 115
116 116
117 117
118 118
119 119
120 120
121 121
122 122
123 123
124 124
125 125
126 126
127 127
128 128
129 129
130 130
131 131
132 132
133 133
134 134
135 135
136 136
137 137
138 138
139 139
140 140
141 141
142 142
143 143
144 144
145 145
146 146
147 147
148 148
149 149
150 150
151 151
152 152
153 153
154 154
155 155
156 156
157 157
158 158
159 159
160 160
161 161
162 162
163 163
164 164
165 165
166 166
167 167
168 168
169 169
170 170
171 171
172 172
173 173
174 174
175 175
176 176
177 177
178 178
179 179
180 180
181 181
182 182
183 183
184 184
185 185
186 186
187 187
188 188
189 189
190 190
191 191
192 192
193 193
194 194
195 195
196 196
197 197
198 198
199 199
200 200
201 201
202 202
203 203
204 204
205 205
206 206
207 207
208 208
209 209
210 210
211 211

End
