MeshVersionFormatted 1

Dimension
2

Identifier
";2, Date: 26/03/29 00:46 35s"

Geometry
"Maillage_L0.00552.mesh.gmsh"

Vertices
495
0 0.00276 22
0 0.00233734961871 22
0 0.00212460525899 22
0 0.00191186089928 22
0 0.00255006229411 22
0.000203548889632 0.00276 21
0.000136629672763 0.00248014276055 0
0.000163410215698 0.0022534067632 0
0.000136175175507 0.00205513351018 0
0 0.00169911653957 22
0.000145804584114 0.00185272565031 0
0.000404407271242 0.00276 21
0.000271383870694 0.00262097581333 0
0.000306626750915 0.00244649536243 0
0 0.00148637217986 22
0 0.00127362782014 22
0 0.00106088346043 22
0 0.000848139100718 22
0.000408381329913 0.00234152700699 0
0.000340210700035 0.00219840612029 0
0.000291609171055 0.0020063347634 0
0.000306053283965 0.00180909515219 0
0.000158643793705 0.00162980461147 0
0.000605265652852 0.00276 21
0.000455946197312 0.00260324767768 0
0.000540962230102 0.00248101800042 0
0.000581113987186 0.00231133598442 0
0.00014277941292 0.00133572017465 0
0.000153026640569 0.00111226632824 0
0.000153026640569 0.000926475483172 0
0 0.000635394741006 22
0.000136175175507 0.000704866486992 0
0 0.000422650381293 22
0.000459079921707 0.00210234045626 0
0.000611890493564 0.00213159029045 0
0.000475931386769 0.00191666948002 0
0.000464033099767 0.00169610614817 0
0.000305389303235 0.00155267371672 0
0 0 22
0 0.000209937705891 22
0.000153367512097 0.000315555524556 0
0.000806124034462 0.00276 21
0.000673543130291 0.0026205089995 0
0.000723070126771 0.00246089065581 0
0.000760878071179 0.00228869271749 0
0.000285558828668 0.00118506817494 0
0.000333151965366 0.0013679684998 0
0.000306053283965 0.000950904839323 0
0.000291609171055 0.000753665233772 0
0.000153367512097 0.000474392851834 0
0.00081109266363 0.00209154985752 0
0.000637187715479 0.00197046293512 0
0.000662484943049 0.00180933557978 0
0.000650586656048 0.00162820082218 0
0.000452134812765 0.00147554282197 0
0.000203548889632 0 1
0.000271383870694 0.000139024178189 0
0.000326820428568 0.000377791722391 0
0.00100698241607 0.00276 21
0.000909865643138 0.00249827932224 0
0.000945329774869 0.00234106019317 0
0.00109978623742 0.00221784965212 0
0.000428338244416 0.00103441616957 0
0.000440236525763 0.00125497949577 0
0.000475931386769 0.000843330517148 0
0.000437413757996 0.000600056120681 0
0.0010102948337 0.00205150943023 0
0.000930613962276 0.00190981131656 0
0.00084903849933 0.00178085882804 0
0.000841106306111 0.00155495946395 0
0.000636308709383 0.00132409625649 0
0.000830794458884 0.00136380457748 0
0.000404407271242 0 1
0.000455946197312 0.000156752313836 0
0.000510135914566 0.000418472990182 0
0.00105885322075 0.00260289757155 0
0.00120784079768 0.00276 21
0.00117701447152 0.00235338723591 0
0.00125424270562 0.00209463911106 0
0.000624410428036 0.00102467578743 0
0.000611890493564 0.000523441345622 0
0.000629492800014 0.00086228692808 0
0.000634575177646 0.000699898080042 0
0.00117210919689 0.00194678046751 0
0.00108997569946 0.00179892182962 0
0.00103559205561 0.00159466778494 0
0.00102607342827 0.00141821712398 0
0.000820482611657 0.00117264969665 0
0.00101655480093 0.00124176646302 0
0.000605265652852 0 1
0.000675751415461 0.000278981991098 0
0.000760878071179 0.000471307279685 0
0.00129285681985 0.00245812218726 0
0.00125424271128 0.00262035339678 0
0.00140869917929 0.00276 21
0.00140869917383 0.0023657142843 0
0.00140869917383 0.00216857142433 0
0.00140869917383 0.00197142857001 0
0.000820482611657 0.00101493541094 0
0.000852655895077 0.000586702448313 0
0.00082810617245 0.000771352127572 0
0.00132901830241 0.00182973045634 0
0.00124933743664 0.00168803234267 0
0.00122214561189 0.00148733389035 0
0.00121262698455 0.00131088322939 0
0.00101655480093 0.00100519503445 0
0.00116360893723 0.0010767468907 0
0.000806124034462 0 1
0.000865026272011 0.000149554669976 0
0.000945329774869 0.000418939804007 0
0.00140869917383 0.00256285713862 0
0.00152347539242 0.00226714284866 0
0.001638251611 0.0023657142843 0
0.0016095575609 0.00276 21
0.0016095575606 0.00256285713862 0
0.00153782242045 0.00177428571004 0
0.00165259863903 0.00216857142433 0
0.0016095575606 0.00197142857001 0
0.00102163717291 0.000842806180757 0
0.00103800365466 0.000653992104158 0
0.0016095575606 0.00157714285573 0
0.00140869917383 0.00157714285573 0
0.00131066307919 0.0011482987526 0
0.00140869917383 0.00137999999576 0
0.00121516817337 0.000914260228288 0
0.00100698241607 0 1
0.00111413326545 0.000476436056516 0
0.00109978624307 0.0002792932022 0
0.00181041594171 0.0023657142843 0
0.00181041594171 0.00216857142433 0
0.00181041594171 0.00256285713862 0
0.00181041594251 0.00276 21
0.0016812926951 0.00177428571004 0
0.00181041594171 0.00197142857001 0
0.00122335141424 0.000721281765658 0
0.00128293676168 0.000533932309024 0
0.00181041594171 0.00157714285573 0
0.0016095575606 0.00137999999576 0
0.00140869917383 0.000985714281473 0
0.00149478134201 0.00118285714144 0
0.00140869917383 0.000788571427158 0
0.00120784079768 0 1
0.00126968835697 0.000146675612432 0
0.00125424270562 0.000336789454709 0
0.00198258026677 0.0023657142843 0
0.00201127432283 0.00216857142433 0
0.00201127432412 0.00276 21
0.0019969272948 0.00256285713862 0
0.00193953918268 0.00177428571004 0
0.0020686624293 0.00197142857001 0
0.00140869917383 0.000394285712872 0
0.00145174025792 0.000591428567187 0
0.00195388621071 0.00147857142009 0
0.00181041594171 0.00137999999576 0
0.00165259863903 0.00118285714144 0
0.00181041594171 0.00118285714144 0
0.0016095575606 0.000985714281473 0
0.0016095575606 0.000788571427158 0
0.00140869917929 0 1
0.00142304620186 0.000197142852902 0
0.00221213270395 0.0023657142843 0
0.00225517378238 0.00216857142433 0
0.00221213270573 0.00276 21
0.00222647973198 0.00256285713862 0
0.00209735648536 0.00157714285573 0
0.00221213270395 0.00177428571004 0
0.00226952081041 0.00197142857001 0
0.0016095575606 0.000591428567187 0
0.0016095575606 0.000394285712872 0
0.00211170351339 0.00137999999576 0
0.00201127432283 0.00118285714144 0
0.00181041594171 0.000985714281473 0
0.00175302782959 0.000788571427158 0
0.0016095575609 0 1
0.0016095575606 0.000197142852902 0
0.00241299108506 0.00216857142433 0
0.00241299108506 0.00197142857001 0
0.00241299108506 0.0023657142843 0
0.00241299108506 0.00256285713862 0
0.00241299108734 0.00276 21
0.00229821486647 0.00157714285573 0
0.00241299108506 0.00177428571004 0
0.0023125618945 0.00137999999576 0
0.00181041594171 0.000591428567187 0
0.00181041594171 0.000394285712872 0
0.00221213270395 0.00118285714144 0
0.00201127432283 0.000985714281473 0
0.00217626513387 0.000985714281473 0
0.00201127432283 0.000788571427158 0
0.00182476296974 0.000197142852902 0
0.00181041594251 0 1
0.00252776730365 0.00226714284866 0
0.00253494081766 0.00206999998869 0
0.00254211432602 0.00187285714003 0
0.00264254352224 0.0023657142843 0
0.00262819649421 0.00256285713862 0
0.00261384946895 0.00276 21
0.00252776730365 0.00157714285573 0
0.00268558460067 0.00177428571004 0
0.00251342027562 0.00137999999576 0
0.00249907324759 0.00118285714144 0
0.00201127432283 0.000591428567187 0
0.00201127432283 0.000394285712872 0
0.00234125595056 0.000985714281473 0
0.00215474459182 0.000788571427158 0
0.00201127432283 0.000197142852902 0
0.00201127432412 0 1
0.00265689055027 0.00216857142433 0
0.00267123757264 0.00197142857001 0
0.00281470784729 0.00197142857001 0
0.00281470784729 0.0023657142843 0
0.00281470784729 0.00256285713862 0
0.00281470785056 0.00276 21
0.00294383109391 0.00177428571004 0
0.00267123757264 0.00147857142009 0
0.00281470784729 0.00157714285573 0
0.00272862568476 0.00118285714144 0
0.00260667594085 0.00108428571146 0
0.00248472621956 0.000985714281473 0
0.00221213270395 0.000394285712872 0
0.00216909161985 0.000591428567187 0
0.00229104135246 0.000689999997173 0
0.00241299108506 0.000788571427158 0
0.00221213270395 0.000197142852902 0
0.00221213270573 0 1
0.00281470784729 0.00216857142433 0
0.00301556622841 0.00197142857001 0
0.00301556622841 0.00216857142433 0
0.00298687217235 0.0023657142843 0
0.00301556622841 0.00157714285573 0
0.00300121920038 0.00256285713862 0
0.00301556623217 0.00276 21
0.00319184619913 0.00186661341393 0
0.00319184619913 0.00172187610469 0
0.00281470784729 0.00137999999576 0
0.00287926946777 0.00108428571146 0
0.0027429727128 0.000985714281473 0
0.00261384946618 0.000788571427158 0
0.002384297029 0.000394285712872 0
0.0024560321635 0.000591428567187 0
0.00261384946618 0.000591428567187 0
0.00241299108506 0.000197142852902 0
0.00241299108734 0 1
0.00318798009124 0.00210883248734 0
0.00313756709344 0.00231892198476 0
0.00301556622841 0.00137999999576 0
0.00319184619913 0.00157713879545 0
0.00335354520051 0.0020514665541 0
0.00319139863489 0.00258680979602 0
0.00325749139499 0.00246671344702 0
0.00321642461378 0.00276 21
0.00343391161514 0.00193010393959 0
0.00336092722534 0.00176607871255 0
0.00336092722534 0.00157713489916 0
0.00301556622841 0.00118285714144 0
0.00301556622841 0.000985714281473 0
0.00301556622841 0.000788571427158 0
0.00281470784729 0.000788571427158 0
0.0027716667632 0.000591428567187 0
0.00261384946618 0.000394285712872 0
0.00261384946618 0.000197142852902 0
0.00261384946895 0 1
0.00284340190335 0.000394285712872 0
0.00281470785056 0 1
0.00344664718006 0.00217392631031 0
0.00330551829775 0.00225909000056 0
0.00322331776607 0.00139228788334 0
0.00355828714082 0.00207241438131 0
0.00337355941703 0.00260975252863 0
0.00344706836377 0.00243878730477 0
0.0034172829954 0.00276 21
0.00357601750453 0.00179184657107 0
0.00366485363621 0.00194360265681 0
0.00352310660122 0.00166964770219 0
0.00342159882298 0.00140401562714 0
0.0032491050212 0.00113034718262 0
0.00321121005779 0.000946662188221 0
0.00317263012799 0.000760533180366 0
0.00301556622841 0.000591428567187 0
0.00301556622841 0.000394285712872 0
0.00281470784729 0.000197142852902 0
0.00301556623217 0 1
0.00353799641787 0.00229408063427 0
0.00337300934478 0.00122815432931 0
0.00354092129215 0.00124943307526 0
0.00374506620682 0.00205149333613 0
0.00367868706668 0.00221017593721 0
0.00354092129215 0.00253951180459 0
0.00362777418467 0.00241216795734 0
0.00361814137701 0.00276 21
0.0036787085613 0.00157712758725 0
0.00374607993741 0.00173735450408 0
0.00381144535261 0.00189281073505 0
0.0036106202907 0.00141519569074 0
0.00346996796577 0.00108068732779 0
0.00317256178177 0.000373376888133 0
0.00339794139567 0.000909389115452 0
0.00332399000812 0.000733513193815 0
0.00324924339882 0.000555746011441 0
0.00309457531521 0.00018790446428 0
0.00321642461378 0 1
0.0037896633238 0.00148397003045 0
0.00370099067225 0.00126896418593 0
0.00367835888495 0.00113627237441 0
0.00379551021659 0.00216623313658 0
0.00387648906105 0.00204750184013 0
0.00355851504825 0.000856713736842 0
0.00381118193184 0.00230703673817 0
0.00372869167236 0.00253951180459 0
0.00381899975862 0.00276 21
0.00384412910639 0.00159032652211 0
0.0038764113841 0.00174457791208 0
0.00400199999576 0.00190015384224 0
0.00381177797917 0.0013589141585 0
0.0036557271033 0.00100358056289 0
0.0033114014051 0.000352996737163 0
0.00350552994015 0.000727546980725 0
0.00345368041072 0.000580236390596 0
0.00337355941703 0.000150247468539 0
0.0034172829954 0 1
0.00393797779918 0.00149651178754 0
0.0038546417284 0.00118659344468 0
0.00384382491313 0.00105829321409 0
0.00388541358072 0.00260975252863 0
0.00400199999576 0.00204876922533 0
0.00393928401155 0.00219684482825 0
0.00371252486267 0.000806191603378 0
0.004002 0.002346 15
0.00394619011802 0.00247225825021 0
0.00401985814023 0.00276 21
0.00412241754822 0.00197836221629 0
0.00400199999576 0.00160292307605 0
0.00400199999576 0.00175153845915 0
0.00414650105645 0.00179419757124 0
0.00400199999576 0.00130569230421 0
0.00383300810351 0.000929992989164 0
0.00345455309454 0.000302806647786 0
0.00357938578663 0.000431669368984 0
0.00371420098495 0.000576649390424 0
0.00355535653803 0.000178617889483 0
0.00361814137701 0 1
0.00408629228022 0.00150905355027 0
0.00400199999576 0.00115707692112 0
0.00394158756069 0.000984868933882 0
0.0040334540605 0.00258995069659 0
0.00414650105948 0.00229123466371 15
0.00416111709239 0.0021358010983 0
0.00384416992411 0.000716417761146 0
0.00414650105948 0.00240076533629 16
0.00422071652184 0.00276 21
0.00431475104786 0.00208240966215 0
0.00431475104786 0.00190680724414 0
0.00420548668648 0.00166395472694 0
0.00431475104786 0.00173120483178 0
0.00414650105645 0.00129716048406 0
0.00412326284492 0.00116639660589 0
0.00400199999576 0.000859846149279 0
0.00386712289226 0.000573480605088 0
0.0037011656829 0.000287741741309 0
0.00380773256283 0.000384028651195 0
0.00375745003697 0.000150247468539 0
0.00381899975862 0 1
0.00419671918327 0.00144667474488 0
0.00405016701788 0.00103974488425 0
0.00418149455159 0.00257014886456 0
0.00431475104917 0.00225801208087 14
0.00400199999576 0.000711230766186 0
0.00401404174987 0.000570436218236 0
0.00450140798224 0.00223208350991 14
0.00431475104917 0.00243398791913 16
0.00431814575007 0.00258957764817 0
0.00442157490345 0.00276 21
0.00450140797737 0.00204273161798 0
0.00445917006029 0.00184058647767 0
0.00443805110175 0.0016448379631 0
0.00431475104786 0.00155560241377 0
0.00431475104786 0.00137999999576 0
0.00425134837813 0.00117624064966 0
0.00414650105645 0.000965802420281 0
0.00414650105645 0.00080012339122 0
0.004002 0.000414 7
0.00394619011802 0.000287741741309 0
0.00408678737466 0.000189851126961 0
0.00401985814023 0 1
0.00414650105948 0.000468765336293 8
0.00414650105645 0.00063444436216 0
0.00466723560262 0.00204896975696 0
0.00466723560736 0.00221621219689 13
0.00446149143962 0.00260995824023 0
0.00450140798224 0.00245991649009 17
0.00462243328506 0.00276 21
0.00466723560262 0.00188172731524 0
0.0046143521769 0.00167780455123 0
0.00450140797737 0.00147467594018 0
0.00439624602332 0.0012573528275 0
0.00431475104786 0.00102879516539 0
0.00431475104786 0.000853192747376 0
0.00433512479172 0.000690829143216 0
0.00414650105948 0.000359234663707 7
0.0042690005107 0.000167397715033 0
0.00422071652184 0 1
0.00431475104917 0.00050198791913 8
0.00480008735989 0.0020621984823 0
0.00483 0.002208 13
0.00466723560736 0.00247578780311 17
0.00464579945565 0.00261177216331 0
0.00483 0.00276 21
0.00485920117159 0.0019338986815 0
0.00475724375939 0.00176434570673 0
0.00466723560262 0.00154724243747 0
0.00457786581512 0.00130633584215 0
0.00473246442152 0.00143523849324 0
0.00455909289733 0.00111520825797 0
0.00450140797737 0.000906620268021 0
0.00450140797737 0.000717268379188 0
0.00450140798224 0.000527916490087 9
0.00431475104917 0.00032601208087 6
0.00441546056761 0.000158719724678 0
0.00442157490345 0 1
0.00466723560262 0.000711030240216 0
0.00493989972644 0.0020761203229 0
0.00504448752846 0.00220798341061 12
0.00483 0.002484 18
0.00493360126003 0.00262359620029 0
0.00505168132942 0.00276 20
0.0049183149946 0.00180559888635 0
0.00505130079777 0.00194243903504 0
0.00484249417458 0.00158890104034 0
0.00466723560262 0.0012127575597 0
0.00479769324042 0.00132323455466 0
0.00493258517696 0.0014374667066 0
0.00466723560262 0.00104551511799 0
0.00466723560262 0.000878272676274 0
0.00466723560736 0.000543787803106 9
0.00450140798224 0.000300083509913 6
0.00462243328506 0 1
0.00456192063018 0.000150041751288 0
0.00480008735989 0.000697801503558 0
0.00520668459963 0.00206584482029 0
0.00528428362019 0.002208 12
0.00503960593176 0.00248402802049 18
0.00516248008037 0.00262199999435 0
0.00528047474747 0.00276 20
0.00499519839302 0.00168059858599 0
0.00523449749504 0.00184315389433 0
0.0050720817971 0.00155559829128 0
0.00486144081934 0.00117503699621 0
0.00505451588052 0.00133256832035 0
0.00486454404071 0.000994463038382 0
0.00490173593044 0.000841174235272 0
0.00483 0.000552 10
0.00466723560736 0.000284212196894 5
0.00483 0 2
0.00474369246206 0.000150706512407 0
0.00493989972644 0.000683879674276 0
0.00552 0.002208 12
0.00552 0.00199691447368 11
0.00536600532682 0.00192622686667 0
0.0052732788355 0.002484 18
0.00552 0.00276 20
0.00539741623267 0.00262525073181 0
0.00521634205699 0.00167776392578 0
0.00537556243071 0.0017159170395 0
0.00521648865696 0.00146926980302 0
0.00506602595807 0.00113530033806 0
0.00518008366485 0.00122454093164 0
0.00509665603412 0.000792516721884 0
0.00507207235327 0.000940766651205 0
0.00504448752846 0.000552016589393 10
0.00483 0.000276 5
0.00505168132942 0 2
0.00493360126003 0.000136403796884 0
0.00552 0.00179127631579 11
0.00552 0.002484 19
0.00520668459963 0.000694155171223 0
0.00536581564712 0.00153119162295 0
0.00552 0.00158563815789 11
0.00536581564712 0.00137999999576 0
0.00528124804944 0.001093497663 0
0.00536581564712 0.00122880837422 0
0.00528762798164 0.000870236018412 0
0.00528428362019 0.000552 10
0.00503960593176 0.00027597197951 4
0.00528047474747 0 2
0.00516248008037 0.000137999997173 0
0.00536570647752 0.000729140472273 0
0.00552 0.00138 11
0.00552 0.000968723684211 11
0.00552 0.00117436184211 11
0.00552 0.000763085526316 11
0.00552 0.000552 11
0.0052732788355 0.000276 4
0.00552 0 3
0.00539741623267 0.000134749259711 0
0.00552 0.000276 4

Edges
109
1 5 22
5 2 22
2 3 22
3 4 22
4 10 22
10 15 22
15 16 22
16 17 22
17 18 22
18 31 22
31 33 22
33 40 22
40 39 22
407 391 21
391 372 21
372 350 21
350 330 21
330 310 21
310 290 21
290 271 21
271 251 21
251 232 21
232 213 21
213 197 21
197 180 21
180 163 21
163 147 21
147 132 21
132 114 21
114 95 21
95 77 21
77 59 21
59 42 21
42 24 21
24 12 21
12 6 21
6 1 21
460 443 20
443 425 20
425 407 20
474 460 19
423 441 18
441 459 18
459 474 18
390 405 17
405 423 17
349 370 16
370 390 16
346 328 15
328 349 15
369 366 14
366 346 14
404 388 13
388 369 13
456 440 12
440 422 12
422 404 12
491 490 11
490 488 11
488 489 11
489 487 11
487 477 11
477 473 11
473 457 11
457 456 11
451 469 10
469 482 10
482 491 10
416 434 9
434 451 9
385 402 8
402 416 8
399 381 7
381 385 7
435 417 6
417 399 6
470 452 5
452 435 5
495 492 4
492 483 4
483 470 4
493 495 3
453 471 2
471 484 2
484 493 2
39 56 1
56 73 1
73 90 1
90 108 1
108 126 1
126 142 1
142 159 1
159 174 1
174 191 1
191 207 1
207 225 1
225 243 1
243 262 1
262 264 1
264 282 1
282 301 1
301 320 1
320 341 1
341 362 1
362 384 1
384 401 1
401 419 1
419 436 1
436 453 1

Triangles
879
1 5 6 0
13 6 5 0
7 14 13 0
2 7 5 0
2 8 7 0
25 12 13 0
14 25 13 0
26 43 25 0
8 2 3 0
20 8 9 0
20 19 8 0
35 27 34 0
14 7 8 0
14 26 25 0
5 7 13 0
19 26 14 0
8 19 14 0
20 34 19 0
3 9 8 0
4 11 9 0
21 9 11 0
34 21 36 0
34 20 21 0
22 11 23 0
28 46 47 0
36 21 22 0
27 19 34 0
45 27 35 0
45 44 27 0
21 11 22 0
20 9 21 0
3 4 9 0
4 10 11 0
25 24 12 0
6 13 12 0
44 61 60 0
19 27 26 0
35 51 45 0
11 10 23 0
44 45 61 0
42 43 60 0
26 27 44 0
28 15 16 0
47 55 38 0
63 64 46 0
38 37 22 0
28 38 23 0
55 37 38 0
70 86 69 0
71 70 54 0
71 88 72 0
52 34 36 0
51 61 45 0
116 98 102 0
121 116 122 0
138 121 122 0
137 133 121 0
133 118 116 0
118 117 97 0
44 43 26 0
10 15 23 0
160 143 159 0
128 110 109 0
126 128 109 0
144 151 136 0
143 144 128 0
143 160 144 0
159 143 142 0
144 127 128 0
160 151 144 0
174 160 159 0
175 169 160 0
174 175 160 0
174 191 175 0
107 125 123 0
105 107 123 0
106 125 107 0
88 106 89 0
99 101 119 0
110 127 120 0
168 184 173 0
158 168 173 0
152 169 168 0
169 152 151 0
152 168 158 0
155 140 157 0
154 155 156 0
138 140 155 0
102 122 116 0
54 53 37 0
68 69 85 0
84 68 85 0
67 51 68 0
51 35 52 0
86 104 103 0
123 124 105 0
140 138 124 0
157 140 139 0
138 122 124 0
133 149 134 0
155 154 138 0
154 153 137 0
171 170 153 0
172 189 187 0
155 172 156 0
173 184 189 0
157 173 172 0
158 141 152 0
157 158 173 0
157 141 158 0
186 170 171 0
183 181 170 0
102 103 122 0
79 84 98 0
85 103 102 0
51 52 68 0
86 103 85 0
69 86 85 0
22 37 36 0
54 70 69 0
53 54 69 0
55 71 54 0
22 23 38 0
64 63 80 0
104 124 122 0
87 104 86 0
105 124 104 0
87 105 104 0
89 106 107 0
91 90 108 0
110 91 109 0
75 58 74 0
40 39 56 0
74 91 75 0
73 74 57 0
73 90 74 0
57 40 56 0
73 57 56 0
58 50 41 0
57 58 41 0
75 66 58 0
90 91 74 0
41 40 57 0
74 58 57 0
50 33 41 0
91 108 109 0
50 31 33 0
40 41 33 0
30 49 48 0
58 66 50 0
92 110 100 0
83 81 100 0
123 139 140 0
89 107 105 0
125 139 123 0
106 119 125 0
141 139 125 0
65 66 83 0
81 91 92 0
91 110 92 0
126 109 108 0
126 142 128 0
49 50 66 0
142 143 128 0
49 66 65 0
48 49 65 0
32 50 49 0
30 32 49 0
31 50 32 0
175 190 185 0
87 89 105 0
70 87 86 0
72 88 89 0
70 72 87 0
70 71 72 0
71 80 88 0
47 64 55 0
47 46 64 0
99 106 88 0
82 101 99 0
101 100 120 0
80 82 99 0
83 100 101 0
169 151 160 0
185 169 175 0
206 203 190 0
184 169 185 0
184 168 169 0
124 123 140 0
122 103 104 0
82 65 83 0
101 82 83 0
80 65 82 0
88 80 99 0
63 65 80 0
29 48 46 0
18 30 17 0
18 32 30 0
127 110 128 0
136 127 144 0
152 136 151 0
152 141 135 0
135 141 125 0
119 120 135 0
99 119 106 0
101 120 119 0
110 120 100 0
127 136 135 0
83 66 81 0
48 65 63 0
46 48 63 0
18 31 32 0
81 75 91 0
100 81 92 0
66 75 81 0
166 150 149 0
182 167 166 0
199 182 198 0
177 193 176 0
199 209 194 0
199 210 209 0
176 178 162 0
167 176 162 0
192 195 178 0
193 192 176 0
208 195 192 0
59 42 60 0
29 46 28 0
30 29 17 0
30 48 29 0
76 77 59 0
60 76 59 0
43 44 60 0
24 43 42 0
24 25 43 0
61 78 60 0
79 98 97 0
78 79 97 0
84 85 102 0
67 84 79 0
67 68 84 0
51 67 61 0
52 53 69 0
34 52 35 0
36 53 52 0
54 37 55 0
68 52 69 0
36 37 53 0
84 102 98 0
96 97 112 0
94 95 77 0
76 78 93 0
129 130 145 0
111 96 115 0
117 130 129 0
190 175 191 0
242 243 262 0
260 242 261 0
221 239 240 0
203 185 190 0
206 190 207 0
224 206 207 0
224 220 206 0
116 118 98 0
121 133 116 0
137 149 133 0
161 145 146 0
150 162 146 0
178 164 161 0
192 178 176 0
211 195 208 0
212 231 213 0
195 212 196 0
211 229 212 0
180 163 164 0
115 132 114 0
162 178 161 0
146 162 161 0
194 182 199 0
193 194 209 0
177 182 194 0
193 177 194 0
208 193 209 0
208 192 193 0
167 182 177 0
148 132 131 0
190 191 207 0
220 239 221 0
202 203 221 0
224 239 220 0
225 224 207 0
225 242 224 0
135 120 127 0
152 135 136 0
125 119 135 0
224 242 239 0
157 139 141 0
202 189 184 0
172 155 157 0
154 137 138 0
171 154 156 0
153 165 149 0
171 153 154 0
170 165 153 0
153 149 137 0
181 165 170 0
166 149 165 0
198 182 181 0
167 150 166 0
150 146 134 0
181 182 166 0
165 181 166 0
183 198 181 0
134 130 117 0
133 134 118 0
149 150 134 0
28 23 15 0
17 29 16 0
28 47 38 0
16 29 28 0
71 64 80 0
89 87 72 0
55 64 71 0
130 146 145 0
129 113 117 0
131 129 145 0
131 113 129 0
117 118 134 0
78 76 60 0
95 94 111 0
77 76 94 0
130 134 146 0
79 78 62 0
93 96 111 0
62 78 61 0
67 62 61 0
67 79 62 0
97 96 78 0
118 97 98 0
112 113 96 0
117 112 97 0
117 113 112 0
93 94 76 0
96 93 78 0
111 94 93 0
121 138 137 0
113 115 96 0
131 115 113 0
148 131 145 0
132 115 131 0
114 111 115 0
202 184 185 0
243 242 225 0
187 188 171 0
221 205 202 0
203 220 221 0
185 203 202 0
206 220 203 0
240 223 222 0
223 204 205 0
260 259 241 0
95 111 114 0
261 262 281 0
263 260 281 0
242 262 261 0
147 148 163 0
132 148 147 0
145 161 148 0
493 495 494 0
494 495 492 0
485 494 492 0
484 493 494 0
485 484 494 0
485 471 484 0
483 485 492 0
483 472 485 0
472 471 485 0
470 472 483 0
453 471 472 0
470 454 472 0
454 470 452 0
437 454 452 0
453 472 454 0
437 436 454 0
435 437 452 0
437 419 436 0
453 454 436 0
435 417 418 0
418 417 400 0
418 419 437 0
435 418 437 0
400 419 418 0
400 401 419 0
399 400 417 0
399 382 383 0
383 401 400 0
382 399 381 0
383 384 401 0
399 383 400 0
382 384 383 0
358 367 348 0
362 384 382 0
359 361 382 0
361 340 341 0
381 360 382 0
300 280 281 0
359 338 337 0
296 299 279 0
361 362 382 0
340 361 359 0
341 362 361 0
319 316 300 0
340 319 320 0
337 338 318 0
319 337 316 0
340 359 337 0
341 340 320 0
336 327 348 0
344 336 357 0
364 344 357 0
364 343 344 0
315 327 336 0
368 386 367 0
201 200 183 0
254 275 274 0
322 343 335 0
303 322 314 0
294 303 314 0
323 315 336 0
285 304 303 0
285 295 304 0
323 336 344 0
304 323 322 0
304 315 323 0
230 234 214 0
216 214 199 0
486 491 490 0
481 490 488 0
489 479 488 0
467 455 469 0
468 467 481 0
468 450 467 0
475 486 481 0
481 488 479 0
475 467 469 0
486 475 482 0
491 486 482 0
490 481 486 0
481 467 475 0
392 387 373 0
428 426 409 0
408 421 403 0
439 427 445 0
439 422 421 0
420 415 434 0
449 468 465 0
433 449 432 0
433 438 450 0
469 455 451 0
469 482 475 0
476 487 477 0
463 476 477 0
464 476 462 0
428 409 410 0
449 447 432 0
448 431 430 0
466 448 465 0
466 478 464 0
428 410 412 0
445 427 444 0
412 411 430 0
431 412 430 0
410 394 412 0
449 450 468 0
434 438 420 0
451 455 438 0
478 487 476 0
431 428 412 0
447 448 430 0
446 428 431 0
448 446 431 0
462 445 444 0
479 489 480 0
481 479 468 0
489 487 480 0
457 456 440 0
439 458 440 0
439 440 422 0
404 421 422 0
458 457 440 0
445 458 439 0
445 463 458 0
458 473 457 0
403 387 392 0
408 403 392 0
409 408 392 0
426 427 408 0
421 404 403 0
439 421 427 0
404 388 403 0
445 462 463 0
392 374 393 0
388 387 403 0
388 369 373 0
463 477 473 0
458 463 473 0
462 476 463 0
333 353 334 0
354 374 352 0
394 393 375 0
465 468 479 0
480 466 479 0
447 429 432 0
413 429 411 0
447 449 465 0
448 447 465 0
430 429 447 0
408 427 421 0
409 426 408 0
393 409 392 0
393 410 409 0
444 446 462 0
428 444 426 0
428 446 444 0
426 444 427 0
351 369 366 0
392 373 374 0
387 388 373 0
433 432 414 0
415 433 414 0
420 438 433 0
451 438 434 0
351 352 373 0
369 351 373 0
366 347 351 0
351 347 331 0
396 395 378 0
326 346 328 0
352 351 331 0
334 352 331 0
374 373 352 0
366 346 347 0
416 434 415 0
416 415 398 0
346 326 347 0
326 325 347 0
335 355 342 0
322 323 343 0
336 348 357 0
307 327 315 0
307 317 327 0
367 380 357 0
357 380 379 0
379 380 397 0
396 379 397 0
364 357 379 0
396 378 379 0
414 396 397 0
413 395 396 0
315 304 295 0
339 318 338 0
297 317 307 0
298 318 317 0
386 385 402 0
367 386 380 0
368 385 386 0
348 339 358 0
381 385 368 0
394 395 411 0
394 377 395 0
412 394 411 0
375 376 394 0
374 375 393 0
376 377 394 0
354 376 375 0
353 342 363 0
429 413 432 0
393 394 410 0
395 413 411 0
355 378 377 0
378 356 379 0
377 378 395 0
355 335 356 0
363 355 377 0
376 363 377 0
342 355 363 0
332 342 353 0
313 333 334 0
311 292 291 0
325 306 313 0
236 235 217 0
276 295 284 0
246 235 255 0
276 267 255 0
230 235 246 0
267 247 246 0
255 267 246 0
275 294 274 0
267 275 254 0
284 285 275 0
322 335 314 0
253 252 233 0
234 253 233 0
214 234 233 0
247 254 234 0
254 274 253 0
253 274 272 0
267 254 247 0
267 284 275 0
291 292 274 0
214 210 199 0
247 234 230 0
227 210 214 0
272 274 292 0
293 273 292 0
252 253 272 0
246 247 230 0
294 291 274 0
303 294 285 0
304 322 303 0
321 342 332 0
314 321 302 0
335 342 321 0
314 302 294 0
356 335 343 0
321 332 311 0
356 364 379 0
355 356 378 0
343 364 356 0
386 398 380 0
450 449 433 0
455 450 438 0
455 467 450 0
430 411 429 0
413 414 432 0
446 464 462 0
464 478 476 0
448 464 446 0
448 466 464 0
479 466 465 0
480 478 466 0
480 487 478 0
376 353 363 0
354 334 353 0
312 313 293 0
312 333 313 0
291 302 311 0
332 333 312 0
332 353 333 0
354 352 334 0
376 354 353 0
375 374 354 0
331 313 334 0
433 415 420 0
396 414 413 0
397 415 414 0
398 415 397 0
380 398 397 0
402 416 398 0
386 402 398 0
308 328 329 0
288 289 309 0
325 331 347 0
306 325 326 0
270 283 289 0
269 270 288 0
250 266 270 0
273 286 268 0
272 273 252 0
293 306 286 0
308 289 287 0
328 308 326 0
329 309 308 0
293 313 306 0
313 331 325 0
150 167 162 0
321 314 335 0
311 302 321 0
312 311 332 0
312 292 311 0
291 294 302 0
251 269 271 0
216 235 230 0
214 216 230 0
199 198 215 0
226 209 210 0
199 215 216 0
177 176 167 0
201 186 204 0
244 227 233 0
461 460 443 0
461 474 460 0
442 461 443 0
459 474 461 0
425 442 443 0
442 425 424 0
459 442 441 0
459 461 442 0
424 425 407 0
423 424 407 0
441 442 424 0
441 424 423 0
423 407 406 0
406 391 389 0
423 406 405 0
407 391 406 0
406 389 390 0
391 372 389 0
371 372 350 0
390 389 371 0
390 405 406 0
371 350 365 0
370 371 365 0
389 372 371 0
370 390 371 0
345 350 330 0
324 345 330 0
349 370 365 0
349 365 345 0
309 310 290 0
349 329 328 0
330 310 324 0
288 290 271 0
324 310 309 0
329 324 309 0
345 365 350 0
329 345 324 0
329 349 345 0
265 248 268 0
283 265 268 0
283 266 265 0
245 266 250 0
245 244 266 0
290 288 309 0
233 227 214 0
254 253 234 0
252 248 233 0
292 273 272 0
286 306 305 0
287 286 305 0
273 293 286 0
312 293 292 0
250 270 269 0
305 326 308 0
268 286 287 0
306 326 305 0
287 305 308 0
244 245 228 0
245 250 231 0
228 245 229 0
244 248 266 0
227 244 228 0
283 287 289 0
288 270 289 0
266 248 265 0
233 248 244 0
268 287 283 0
252 268 248 0
252 273 268 0
269 251 249 0
229 211 226 0
266 283 270 0
231 212 229 0
213 231 232 0
226 208 209 0
229 226 228 0
211 208 226 0
228 210 227 0
269 288 271 0
249 250 269 0
232 249 251 0
231 250 249 0
231 229 245 0
232 231 249 0
289 308 309 0
319 301 320 0
196 213 197 0
179 196 197 0
164 179 180 0
178 196 179 0
300 301 319 0
280 300 296 0
282 301 300 0
179 197 180 0
195 196 178 0
195 211 212 0
210 228 226 0
212 213 196 0
300 281 282 0
281 262 264 0
282 281 264 0
263 259 260 0
238 223 240 0
259 238 241 0
218 217 201 0
219 218 201 0
219 237 218 0
258 237 238 0
258 256 237 0
204 219 201 0
263 279 259 0
256 255 236 0
257 278 277 0
259 279 258 0
280 296 279 0
275 285 294 0
256 277 276 0
295 285 284 0
276 277 297 0
267 276 284 0
255 256 276 0
343 323 344 0
297 307 295 0
339 338 360 0
358 339 360 0
381 358 360 0
368 367 358 0
348 327 339 0
357 348 367 0
339 317 318 0
295 307 315 0
297 298 317 0
200 198 183 0
217 200 201 0
215 198 200 0
217 215 200 0
235 216 215 0
156 172 171 0
222 223 205 0
221 222 205 0
221 240 222 0
260 241 240 0
242 260 239 0
261 281 260 0
241 238 240 0
239 260 240 0
259 258 238 0
280 279 263 0
281 280 263 0
276 297 295 0
257 277 256 0
298 297 277 0
278 279 299 0
258 257 256 0
258 279 257 0
360 359 382 0
368 358 381 0
338 359 360 0
327 317 339 0
299 318 298 0
299 316 318 0
299 296 316 0
278 299 298 0
277 278 298 0
257 279 278 0
337 319 340 0
318 316 337 0
296 300 316 0
236 255 235 0
237 236 217 0
237 256 236 0
188 205 204 0
172 187 171 0
189 205 187 0
173 189 172 0
202 205 189 0
188 186 171 0
205 188 187 0
204 186 188 0
218 237 217 0
223 219 204 0
238 237 219 0
201 183 186 0
223 238 219 0
217 235 215 0
183 170 186 0
164 148 161 0
179 164 178 0
164 163 148 0

SubDomainFromMesh
1
3 1 1 0

SubDomainFromGeom
1
2 37 1 0

VertexOnGeometricVertex
109
 1 1
 2 2
 3 3
 4 4
 5 5
 6 6
 10 7
 12 8
 15 9
 16 10
 17 11
 18 12
 24 13
 31 14
 33 15
 39 16
 40 17
 42 18
 56 19
 59 20
 73 21
 77 22
 90 23
 95 24
 108 25
 114 26
 126 27
 132 28
 142 29
 147 30
 159 31
 163 32
 174 33
 180 34
 191 35
 197 36
 207 37
 213 38
 225 39
 232 40
 243 41
 251 42
 262 43
 264 44
 271 45
 282 46
 290 47
 301 48
 310 49
 320 50
 328 51
 330 52
 341 53
 346 54
 349 55
 350 56
 362 57
 366 58
 369 59
 370 60
 372 61
 381 62
 384 63
 385 64
 388 65
 390 66
 391 67
 399 68
 401 69
 402 70
 404 71
 405 72
 407 73
 416 74
 417 75
 419 76
 422 77
 423 78
 425 79
 434 80
 435 81
 436 82
 440 83
 441 84
 443 85
 451 86
 452 87
 453 88
 456 89
 457 90
 459 91
 460 92
 469 93
 470 94
 471 95
 473 96
 474 97
 477 98
 482 99
 483 100
 484 101
 487 102
 488 103
 489 104
 490 105
 491 106
 492 107
 493 108
 495 109

VertexOnGeometricEdge
0

EdgeOnGeometricEdge
109
1 1
2 2
3 3
4 4
5 5
6 6
7 7
8 8
9 9
10 10
11 11
12 12
13 13
14 14
15 15
16 16
17 17
18 18
19 19
20 20
21 21
22 22
23 23
24 24
25 25
26 26
27 27
28 28
29 29
30 30
31 31
32 32
33 33
34 34
35 35
36 36
37 37
38 38
39 39
40 40
41 41
42 42
43 43
44 44
45 45
46 46
47 47
48 48
49 49
50 50
51 51
52 52
53 53
54 54
55 55
56 56
57 57
58 58
59 59
60 60
61 61
62 62
63 63
64 64
65 65
66 66
67 67
68 68
69 69
70 70
71 71
72 72
73 73
74 74
75 75
76 76
77 77
78 78
79 79
80 80
81 81
82 82
83 83
84 84
85 85
86 86
87 87
88 88
89 89
90 90
91 91
92 92
93 93
94 94
95 95
96 96
97 97
98 98
99 99
100 100
101 101
102 102
103 103
104 104
105 105
106 106
107 107
108 108
109 109

End
