MeshVersionFormatted 1

Dimension
2

Identifier
";2, Date: 26/03/29 00:39 09s"

Geometry
"Maillage_L0.01104.mesh.gmsh"

Vertices
954
0.01104 0.000276 4
0.01104 0.000968723684211 11
0.01104 0.00117436184211 11
0.01104 0.000552 11
0.01104 0.000763085526316 11
0.0108898626271 0.000834380555671 0
0.01104 0 3
0.0109171784375 0.000134749259711 0
0.010796412145 0.000276 4
0.0108713797424 0.00102478560735 0
0.01104 0.00179127631579 11
0.01104 0.00138 11
0.01104 0.00158563815789 11
0.0108897920641 0.00124733428202 0
0.010810163815 0.000552 10
0.0106983238629 0.000871274721445 0
0.01073465072 0.000695496710317 0
0.010800010101 0 2
0.0106834434448 0.000137999997173 0
0.0105632788355 0.000276 4
0.01104 0.002484 19
0.0107377740279 0.00111306986283 0
0.01104 0.002208 12
0.01104 0.00199691447368 11
0.0108898626271 0.00192561943585 0
0.0108713797424 0.00173521437286 0
0.0108897920641 0.0015126657095 0
0.0107377740279 0.0013799999901 0
0.0105742836202 0.000552 10
0.010583449287 0.00097676812015 0
0.010520704157 0.000713715450335 0
0.0105704747475 0 2
0.0104521091087 0.000137999997173 0
0.010330145526 0.000276 4
0.01104 0.00276 20
0.010796412145 0.002484 18
0.0109171784375 0.00262525073181 0
0.0105567877364 0.00120789965692 0
0.010810163815 0.002208 12
0.0106952960791 0.00204628454118 0
0.0106983238629 0.00188872527007 0
0.0106171164889 0.00148907302053 0
0.0107377740279 0.00164693012869 0
0.0103383991145 0.000552 10
0.0102650728481 0.00069557367474 0
0.0103461070889 0.00100064113832 0
0.0103409393939 0 2
0.0102207747727 0.000137999997173 0
0.0100970122165 0.000276 4
0.010800010101 0.00276 20
0.0105632788355 0.002484 18
0.0106834434448 0.00262199999435 0
0.0102722421774 0.00116156336452 0
0.0103758014449 0.00130272946233 0
0.0105742836202 0.002208 12
0.010520704157 0.00204628454118 0
0.010416786725 0.0019028082779 0
0.010583449287 0.00178323187137 0
0.0104964589726 0.00159814607357 0
0.0101025146088 0.000552 10
0.0101025145992 0.00102514285573 0
0.0101025145992 0.000788571421503 0
0.0101114040404 0 2
0.0099895715985 0.000137999997173 0
0.00986682612123 0.000275964300167 4
0.0105704747475 0.00276 20
0.010330145526 0.002484 18
0.0104521091087 0.00262199999435 0
0.0101983772773 0.00132248560204 0
0.0101961839552 0.00159327601822 0
0.0103383991145 0.002208 12
0.0102650728481 0.00206442631678 0
0.0103128693043 0.00175933202592 0
0.00996923021249 0.00126173080253 0
0.00986926692869 0.000552028912935 10
0.0099025880248 0.000788596201672 0
0.00993590911864 0.00102516350776 0
0.00988213098729 0 2
0.00976341306053 0.000137982150022 0
0.00966 0.000276 5
0.0103409393939 0.00276 20
0.0100970122165 0.002484 18
0.0102207747727 0.00262199999435 0
0.0100025513063 0.0014982980973 0
0.0100358724115 0.00173486540338 0
0.0101025146088 0.002208 12
0.0100691935053 0.00197143269816 0
0.0097856976936 0.00121332894561 0
0.00982201516343 0.00148443809969 0
0.00966 0.000552 10
0.00965999999717 0.000735999992931 0
0.00965999999717 0.000919999998586 0
0.00965999999717 0.00110399999293 0
0.00966 0 2
0.00957369245499 0.000150706512407 0
0.00949723560736 0.000284212196894 5
0.00933140798224 0.000300083509913 6
0.0101114040404 0.00276 20
0.00986682612123 0.00248403569983 18
0.0099895715985 0.00262199999435 0
0.00986926691965 0.00173484475136 0
0.00986926691965 0.00197140791799 0
0.00986926692869 0.00220797108707 12
0.00965999999717 0.00128799999859 0
0.00965999999717 0.00147199999293 0
0.00965999999717 0.00165599999859 0
0.00949723560736 0.000543787803106 9
0.00947974217029 0.000721888902422 0
0.00946224873938 0.000899990006341 0
0.0094972356012 0.00104551511799 0
0.0094972356012 0.00121275755405 0
0.00945223747586 0 1
0.00939182271826 0.000150041745633 0
0.00924526870367 0.000158719724678 0
0.00914475104917 0.00032601208087 6
0.00988213098729 0.00276 20
0.00966 0.002484 18
0.00976341306053 0.0026220178415 0
0.00965999999717 0.00183999999293 0
0.00965999999717 0.00202399999859 0
0.00966 0.002208 13
0.0094972356012 0.0013799999901 0
0.0094972356012 0.00154724243747 0
0.0094972356012 0.00171448487353 0
0.00933140798224 0.000527916490087 9
0.00933140797595 0.000717268379188 0
0.00933140797595 0.000906620268021 0
0.00933140797595 0.00109597215685 0
0.00933140797595 0.00128532404569 0
0.00914475104917 0.00050198791913 8
0.00925118328506 0 1
0.00909871471171 0.000167397715033 0
0.00897650105948 0.000359234663707 7
0.00966 0.00276 21
0.00949723560736 0.00247578780311 17
0.00957369245499 0.00260929347911 0
0.0094972356012 0.00188172730959 0
0.0094972356012 0.00204896975696 0
0.00949723560736 0.00221621219689 13
0.00933140797595 0.00147467593452 0
0.00933140797595 0.00166402783466 0
0.00933140797595 0.0018533797235 0
0.00897650105948 0.000468765336293 8
0.00916512478465 0.000690829137561 0
0.00918549852852 0.000879670369425 0
0.00914475104079 0.00102879516539 0
0.00918622141729 0.00117891950357 0
0.00919445215443 0.00135396458267 0
0.00899111709098 0.000624198893214 0
0.00905012909425 0 1
0.00891641806842 0.000189851126961 0
0.008832 0.000414 7
0.00945223747586 0.00276 21
0.00933140798224 0.00245991649009 17
0.00939182271826 0.00260995823457 0
0.00933140797595 0.00204273161233 0
0.00933140798224 0.00223208350991 14
0.00914475104917 0.00243398791913 16
0.0090658029261 0.00141844198338 0
0.00908134837106 0.0015837593362 0
0.00909689382733 0.00174907670033 0
0.00911273075314 0.00191749375712 0
0.00883199999435 0.000562615377438 0
0.00900573312691 0.000779632453328 0
0.00902040593896 0.000935669762866 0
0.00903548667941 0.00109604526457 0
0.00905056743117 0.00125642076628 0
0.00883199999435 0.000711230760531 0
0.00884907490345 0 1
0.00877890240282 0.000150123980507 0
0.00871457570762 0.000287741741309 0
0.00873429541788 0.000473501478273 0
0.00925118328506 0.00276 21
0.0091965334172 0.00259260227648 0
0.00912874090262 0.00208775291582 0
0.00914475104917 0.00225801208087 14
0.00897650105948 0.00240076533629 16
0.00905438226526 0.00258120775302 0
0.00894601946774 0.00136067731674 0
0.00895326284351 0.00151726248177 0
0.00892833403858 0.00166548977416 0
0.00894037578704 0.00182192598674 0
0.00895241754681 0.00197836221064 0
0.00870409168289 0.000594959605572 0
0.00883199999435 0.00130569230421 0
0.00883199999435 0.000859846143624 0
0.00883199999435 0.00100846153803 0
0.00883199999435 0.00115707692112 0
0.00867388795921 0.000716417755491 0
0.00864802071264 0 1
0.0085867015523 0.000150247462884 0
0.00863333781934 0.000381420575149 0
0.00853062823683 0.000287741741309 0
0.00857078751505 0.000512748696978 0
0.00905012909425 0.00276 21
0.00897650105948 0.00229123466371 15
0.00896445929527 0.00213479843453 0
0.008832 0.002346 15
0.00891641806842 0.00257014886456 0
0.00883199999435 0.00204876921968 0
0.00883199999435 0.0016029230704 0
0.00883199999435 0.00145430768731 0
0.00883199999435 0.00175153845349 0
0.00883199999435 0.00190015383658 0
0.00850823722206 0.000644076818807 0
0.00868437846455 0.00128771214825 0
0.00867354231487 0.00115955755064 0
0.00869009745842 0.000871463767783 0
0.0086627061878 0.00103140295303 0
0.0085420076954 0.000806191603378 0
0.00844696652184 0 1
0.00837009756217 0.000220488181269 0
0.00840863077045 0.000431669363329 0
0.00837163687326 0.000579608160717 0
0.00884907490345 0.00276 21
0.00871478983949 0.00260975252863 0
0.00883199999435 0.00219738461408 0
0.00873237908857 0.00226196461894 0
0.00869945953299 0.00243962378533 0
0.00870626482795 0.00204750183448 0
0.00870618701527 0.00166889310589 0
0.00867384706231 0.00151428355709 0
0.00855878396039 0.00146554439129 0
0.00864110492642 0.0018928107294 0
0.00833464297607 0.000727546969415 0
0.00853045290949 0.00121737044304 0
0.00848510846853 0.00100358055723 0
0.00842760301535 0.00112650681059 0
0.00838772274306 0.000896219360346 0
0.00824591233103 0 1
0.00820243669074 0.000150247462884 0
0.00818989069807 0.000295150174947 0
0.00823446094819 0.000463065125116 0
0.00815277872467 0.000733513188161 0
0.00864802071264 0.00276 21
0.00855805099443 0.00253951179894 0
0.00862937119399 0.00217507214714 0
0.00855015804119 0.00230649066965 0
0.00857934451122 0.00205851604851 0
0.00857562272435 0.00173735450408 0
0.00850813098741 0.0015771275816 0
0.00843992107797 0.00141519569074 0
0.00845432162483 0.00202785120558 0
0.00848367078894 0.00190729121521 0
0.00822686222411 0.000909389109797 0
0.00837009756217 0.00124943307526 0
0.00829901747352 0.00108068732779 0
0.00804485814023 0 1
0.00805859022914 0.000242398250383 0
0.00807789858407 0.000555746011441 0
0.00800107996922 0.000373376882478 0
0.00796248352684 0.000670535287403 0
0.00803979729268 0.000850388284814 0
0.00844696652184 0.00276 21
0.00845106765271 0.00240268730892 0
0.00838446590952 0.00258138210769 0
0.00838838636753 0.00219949610843 0
0.00831714818796 0.00233913986012 0
0.00827870271121 0.00145346257157 0
0.00838854036423 0.00174595202392 0
0.00833203273416 0.00157713115555 0
0.00832570508234 0.00199630493056 0
0.0082706646396 0.00184061125218 0
0.00806576244251 0.000997863768816 0
0.00812030470319 0.00117693904667 0
0.00822435534412 0.00132741558898 0
0.00784380394942 0 1
0.00792295418065 0.00018790446428 0
0.00784380394528 0.000591428561532 0
0.00784380394528 0.000394285712872 0
0.00789037080296 0.000959520658711 0
0.00784380394528 0.000788571421503 0
0.00824591233103 0.00276 21
0.0082441798753 0.00248217513592 0
0.00820243669074 0.00260975252863 0
0.00810019744511 0.00238035415602 0
0.00821493681012 0.00218494805679 0
0.00811142038485 0.00149316880587 0
0.0081553725558 0.0016716068002 0
0.00814933692769 0.00193804261343 0
0.007912732785 0.00111810533797 0
0.00793509477835 0.00127669003985 0
0.00794611632125 0.00142691441482 0
0.00764274975862 0 1
0.00762838873598 0.000197142852902 0
0.00772173532781 0.000689999991518 0
0.0077289158314 0.000492857131547 0
0.00761402772882 0.000394285712872 0
0.00771455482423 0.000985714281473 0
0.00758530570317 0.000788571421503 0
0.00798277600849 0.00210883248169 0
0.00804485814023 0.00276 21
0.00801293029625 0.00249036117602 0
0.00795241160391 0.00227584350422 0
0.00795713787546 0.00157713878979 0
0.00797152607183 0.0019543973328 0
0.00798716033408 0.00176439777788 0
0.00778635989399 0.00197142857001 0
0.0077289158314 0.00118285714144 0
0.00774327684987 0.0013799999901 0
0.00775763785704 0.00157714285007 0
0.00744169556781 0 1
0.00744169556364 0.000197142852902 0
0.00759966671034 0.000591428561532 0
0.00744169556364 0.000394285712872 0
0.00744169556364 0.000591428561532 0
0.00757094468469 0.000985714281473 0
0.00744169556364 0.000788571421503 0
0.00743451504874 0.00108428571146 0
0.00784380394942 0.00276 21
0.00780072090116 0.00216857141868 0
0.00782944292681 0.00256285713862 0
0.00781508191964 0.00236571427865 0
0.00763556923957 0.00167571428006 0
0.00777199887552 0.00177428571004 0
0.00764274975446 0.00197142857001 0
0.00764274975446 0.00216857141868 0
0.00755658366622 0.00118285714144 0
0.00754222265905 0.0013799999901 0
0.00752786164057 0.00157714285007 0
0.00724064137701 0 1
0.00725500237998 0.000197142852902 0
0.00726936339846 0.000394285712872 0
0.00728372441694 0.000591428561532 0
0.0072980854241 0.000788571421503 0
0.00731244644258 0.000985714281473 0
0.00732680744975 0.00118285714144 0
0.00764274975862 0.00276 21
0.00764274975446 0.00236571427865 0
0.00764274975446 0.00256285713862 0
0.00751350063341 0.00177428571004 0
0.00749913961493 0.00197142857001 0
0.00748477860776 0.00216857141868 0
0.00734116846823 0.0013799999901 0
0.00737707099746 0.00167571428006 0
0.0070395871862 0 1
0.00703958718199 0.000197142852902 0
0.00703958718199 0.000394285712872 0
0.00715447528457 0.000492857131547 0
0.00716165579946 0.000689999991518 0
0.00716883630305 0.000887142851488 0
0.00717601680663 0.00108428571146 0
0.00718319731022 0.00128142856012 0
0.00744169556781 0.00276 21
0.00745605657081 0.00256285713862 0
0.00747041758928 0.00236571427865 0
0.00735552947539 0.00226714284866 0
0.00736989048256 0.00187285714003 0
0.00736270999029 0.00206999998869 0
0.00724064137282 0.00157714285007 0
0.00724064137282 0.00177428571004 0
0.0068385329954 0 1
0.00683853299117 0.000197142852902 0
0.00683853299117 0.000394285712872 0
0.00683853299117 0.000591428561532 0
0.00703958718199 0.000591428561532 0
0.00703958718199 0.000788571421503 0
0.00703958718199 0.000985714281473 0
0.00724064137701 0.00276 21
0.00703958718199 0.00118285714144 0
0.00703958718199 0.0013799999901 0
0.00724064137282 0.00256285713862 0
0.00724064137282 0.00236571427865 0
0.00724064137282 0.00216857141868 0
0.00724064137282 0.00197142857001 0
0.00703958718199 0.00157714285007 0
0.00703958718199 0.00177428571004 0
0.00703958718199 0.00197142857001 0
0.00663747880459 0 1
0.00663747880035 0.000197142852902 0
0.00663747880035 0.000591428561532 0
0.00663747880035 0.000394285712872 0
0.00663747880035 0.000788571421503 0
0.00683853299117 0.000788571421503 0
0.00643642460952 0.000591428561532 0
0.00683853299117 0.000985714281473 0
0.00683853299117 0.00118285714144 0
0.00643642461378 0 1
0.0070395871862 0.00276 21
0.00683853299117 0.0013799999901 0
0.00683853299117 0.00157714285007 0
0.00703958718199 0.00256285713862 0
0.00703958718199 0.00236571427865 0
0.00703958718199 0.00216857141868 0
0.00683853299117 0.00177428571004 0
0.00683853299117 0.00197142857001 0
0.00683853299117 0.00216857141868 0
0.00643642460952 0.000197142852902 0
0.00643642460952 0.000394285712872 0
0.00643642460952 0.000788571421503 0
0.00663747880035 0.000985714281473 0
0.00632153649563 0.000492857131547 0
0.00631435599205 0.000689999991518 0
0.00668056183316 0.00118285714144 0
0.00623537042298 0 1
0.0068385329954 0.00276 21
0.00669492285164 0.00147857142009 0
0.00670210335522 0.00167571428006 0
0.00683853299117 0.00256285713862 0
0.00683853299117 0.00236571427865 0
0.00672364487728 0.00226714284866 0
0.00670928387011 0.00187285714003 0
0.0067164643737 0.00206999998869 0
0.00622100940022 0.000197142852902 0
0.00620664839306 0.000394285712872 0
0.00630717547716 0.000887142851488 0
0.00652259068646 0.00118285714144 0
0.00643642460952 0.000985714281473 0
0.00619228737458 0.000591428561532 0
0.00617792636741 0.000788571421503 0
0.00653695170494 0.0013799999901 0
0.00603431623217 0 1
0.00663747880459 0.00276 21
0.0065513127121 0.00157714285007 0
0.00656567373058 0.00177428571004 0
0.00662311778187 0.00256285713862 0
0.0066087567747 0.00236571427865 0
0.00659439575622 0.00216857141868 0
0.00658003474906 0.00197142857001 0
0.00603431622788 0.000197142852902 0
0.00603431622788 0.000394285712872 0
0.00616356534893 0.000985714281473 0
0.00633589751411 0.0013799999901 0
0.00632153649563 0.00118285714144 0
0.00614920433046 0.00118285714144 0
0.00602713571298 0.00108428571146 0
0.00603431622788 0.000591428561532 0
0.00603431622788 0.000788571421503 0
0.00635025852128 0.00157714285007 0
0.00583326204137 0 1
0.00584762304422 0.000197142852902 0
0.00643642461378 0.00276 21
0.00636461953976 0.00177428571004 0
0.00637898055823 0.00197142857001 0
0.00642206359105 0.00256285713862 0
0.00640770258388 0.00236571427865 0
0.0063933415654 0.00216857141868 0
0.0062353704187 0.00216857141868 0
0.0058619840627 0.000394285712872 0
0.00587634508118 0.000591428561532 0
0.00590506710682 0.000985714281473 0
0.00613484332329 0.0013799999901 0
0.00591942811399 0.00118285714144 0
0.00589070608834 0.000788571421503 0
0.00619228737458 0.00167571428006 0
0.00563220785056 0 1
0.0056465688534 0.000197142852902 0
0.00566092987188 0.000394285712872 0
0.00603431622788 0.00157714285007 0
0.00623537042298 0.00276 21
0.0062353704187 0.00197142857001 0
0.0062353704187 0.00256285713862 0
0.00611330180123 0.00206999998869 0
0.00612048230481 0.00226714284866 0
0.0062353704187 0.00236571427865 0
0.00567529089035 0.000591428561532 0
0.00568965189752 0.000788571421503 0
0.005704012916 0.000985714281473 0
0.00571837392317 0.00118285714144 0
0.00583326203705 0.0013799999901 0
0.00603431622788 0.00177428571004 0
0.00547423669953 0.000591428561532 0
0.00543115365976 0 1
0.00544551466258 0.000197142852902 0
0.00545987568105 0.000394285712872 0
0.00583326203705 0.00157714285007 0
0.00603431623217 0.00276 21
0.00597687217659 0.00197142857001 0
0.0060199552094 0.00256285713862 0
0.00599123318376 0.00216857141868 0
0.00600559420223 0.00236571427865 0
0.0054885977067 0.000788571421503 0
0.00550295872518 0.000985714281473 0
0.00551731973234 0.00118285714144 0
0.00563220784623 0.0013799999901 0
0.00583326203705 0.00177428571004 0
0.00583326203705 0.00197142857001 0
0.00534498756716 0.000492857131547 0
0.00535216807075 0.000689999991518 0
0.00523009946895 0 1
0.00523009946459 0.000197142852902 0
0.00523009946459 0.000394285712872 0
0.00563220784623 0.00157714285007 0
0.00583326204137 0.00276 21
0.00583326203705 0.00216857141868 0
0.00571837392317 0.00226714284866 0
0.00583326203705 0.00256285713862 0
0.00583326203705 0.00236571427865 0
0.00535934858564 0.000887142851488 0
0.00536652908923 0.00108428571146 0
0.00543115365541 0.0013799999901 0
0.00563220784623 0.00177428571004 0
0.00563220784623 0.00197142857001 0
0.00523009946459 0.000591428561532 0
0.00507212831789 0.000591428561532 0
0.00523009946459 0.000788571421503 0
0.00502904527815 0 1
0.00504340628093 0.000197142852902 0
0.00505776729941 0.000394285712872 0
0.00543115365541 0.00157714285007 0
0.00563220785056 0.00276 21
0.00558912480211 0.00216857141868 0
0.00560348582059 0.00236571427865 0
0.00561784682775 0.00256285713862 0
0.00523009946459 0.000985714281473 0
0.00523009946459 0.00118285714144 0
0.00523009946459 0.0013799999901 0
0.00523009946459 0.00157714285007 0
0.00494287918552 0.000492857131547 0
0.00543115365541 0.00177428571004 0
0.00543115365541 0.00197142857001 0
0.00543115365541 0.00216857141868 0
0.00495005970041 0.000689999991518 0
0.00508648932505 0.000788571421503 0
0.00482799108734 0 1
0.00482799108294 0.000197142852902 0
0.00482799108294 0.000394285712872 0
0.00523009946459 0.00177428571004 0
0.00543115365976 0.00276 21
0.00543115365541 0.00236571427865 0
0.00543115365541 0.00256285713862 0
0.00502904527376 0.000985714281473 0
0.00502904527376 0.00157714285007 0
0.00502904527376 0.00118285714144 0
0.00502904527376 0.0013799999901 0
0.00482799108294 0.000591428561532 0
0.00523009946459 0.00197142857001 0
0.00523009946459 0.00216857141868 0
0.00523009946459 0.00236571427865 0
0.00471310296905 0.000492857131547 0
0.00482799108294 0.000788571421503 0
0.00462693689654 0 1
0.00461257587364 0.000197142852902 0
0.00459821486647 0.000394285712872 0
0.00502904527376 0.00177428571004 0
0.00523009946895 0.00276 21
0.00523009946459 0.00256285713862 0
0.00482799108294 0.000985714281473 0
0.00482799108294 0.00118285714144 0
0.00482799108294 0.00177428571004 0
0.00482799108294 0.00157714285007 0
0.00482799108294 0.0013799999901 0
0.00470592246547 0.000689999991518 0
0.00502904527376 0.00197142857001 0
0.00502904527376 0.00216857141868 0
0.00502904527376 0.00236571427865 0
0.004583853848 0.000591428561532 0
0.00469874196188 0.000887142851488 0
0.00442588270129 0.000394285712872 0
0.00442588270573 0 1
0.00442588270129 0.000197142852902 0
0.00482799108294 0.00197142857001 0
0.00502904527815 0.00276 21
0.00502904527376 0.00256285713862 0
0.00469156144699 0.00108428571146 0
0.00468438094341 0.00128142856012 0
0.00466283942135 0.00177428571004 0
0.00467720043982 0.00147857142009 0
0.00456949284083 0.000788571421503 0
0.00482799108294 0.00216857141868 0
0.00482799108294 0.00236571427865 0
0.00442588270129 0.000591428561532 0
0.00455513182235 0.000985714281473 0
0.00426791155459 0.000591428561532 0
0.00425355053612 0.000394285712872 0
0.00422482851493 0 1
0.00423918951764 0.000197142852902 0
0.00462693689212 0.00197142857001 0
0.00482799108734 0.00276 21
0.00481363006446 0.00256285713862 0
0.00454077080387 0.00118285714144 0
0.00452640979671 0.0013799999901 0
0.00449768777106 0.00177428571004 0
0.00451204877823 0.00157714285007 0
0.00442588270129 0.000788571421503 0
0.0044187021864 0.00108428571146 0
0.00462693689212 0.00216857141868 0
0.00462693689212 0.00236571427865 0
0.00428227256176 0.000788571421503 0
0.00429663358024 0.000985714281473 0
0.00405249634529 0.000394285712872 0
0.00408121837094 0.000788571421503 0
0.00406685736377 0.000591428561532 0
0.00402377432412 0 1
0.00403813532682 0.000197142852902 0
0.00448332675258 0.00197142857001 0
0.00462693689654 0.00276 21
0.00462693689212 0.00256285713862 0
0.00431099458741 0.00118285714144 0
0.00432535560588 0.0013799999901 0
0.00435407763153 0.00177428571004 0
0.00433971661305 0.00157714285007 0
0.00446896574542 0.00216857141868 0
0.00445460472694 0.00236571427865 0
0.00391606670934 0.000295714282887 0
0.00410994039658 0.00118285714144 0
0.00409557938942 0.000985714281473 0
0.00391606669803 0.000492857131547 0
0.00392324722424 0.000788571421503 0
0.00382272013332 0 1
0.00380835911035 0.000197142852902 0
0.00433253610947 0.00206999998869 0
0.00442588270573 0.00276 21
0.00444024370846 0.00256285713862 0
0.00416738445918 0.00197142857001 0
0.00412430141506 0.0013799999901 0
0.00413866242223 0.00157714285007 0
0.0041530234407 0.00177428571004 0
0.00433253610947 0.00226714284866 0
0.00431817509099 0.00246428570863 0
0.00379399810318 0.000394285712872 0
0.00389452519859 0.000985714281473 0
0.00392324722424 0.0013799999901 0
0.00390888620576 0.00118285714144 0
0.0037796370847 0.000591428561532 0
0.00376527607754 0.000788571421503 0
0.00362166594251 0 1
0.003621665938 0.000197142852902 0
0.00418174546635 0.00216857141868 0
0.00422482851493 0.00276 21
0.00421046749199 0.00256285713862 0
0.00398069127553 0.00216857141868 0
0.00396633026836 0.00197142857001 0
0.0039376082314 0.00157714285007 0
0.00381553961393 0.00167571428006 0
0.00395196924988 0.00177428571004 0
0.00419610648483 0.00236571427865 0
0.003621665938 0.000394285712872 0
0.00375091505906 0.000985714281473 0
0.00373655404058 0.00118285714144 0
0.00372219303341 0.0013799999901 0
0.003621665938 0.000591428561532 0
0.003621665938 0.000788571421503 0
0.00342061175171 0 1
0.00342061174718 0.000197142852902 0
0.003995052294 0.00236571427865 0
0.00400941330117 0.00256285713862 0
0.00402377432412 0.00276 21
0.00382272012883 0.00236571427865 0
0.00382272012883 0.00197142857001 0
0.00382272012883 0.00216857141868 0
0.00370783201494 0.00157714285007 0
0.00369347100777 0.00177428571004 0
0.00342061174718 0.000394285712872 0
0.00358576339746 0.000985714281473 0
0.00357858289388 0.00118285714144 0
0.00352113884259 0.0013799999901 0
0.00342061174718 0.000591428561532 0
0.00342061174718 0.000788571421503 0
0.0032195575609 0 1
0.00323391856352 0.000197142852902 0
0.003248279582 0.000394285712872 0
0.00353549984976 0.00157714285007 0
0.00382272012883 0.00256285713862 0
0.00382272013332 0.00276 21
0.00365038796365 0.00236571427865 0
0.00366474898212 0.00216857141868 0
0.00367910998929 0.00197142857001 0
0.00354986086824 0.00177428571004 0
0.00326264060048 0.000591428561532 0
0.00342061174718 0.000985714281473 0
0.00342061174718 0.00118285714144 0
0.00332008465177 0.0013799999901 0
0.00333444565894 0.00157714285007 0
0.00313339146811 0.000492857131547 0
0.00327700160765 0.000788571421503 0
0.0030185033701 0 1
0.00301850336553 0.000197142852902 0
0.00301850336553 0.000394285712872 0
0.00362166594251 0.00276 21
0.00334880667741 0.00177428571004 0
0.00363602694517 0.00256285713862 0
0.0035139583277 0.00246428570863 0
0.00352831934617 0.00226714284866 0
0.00351395833901 0.00206999998869 0
0.00336316769589 0.00197142857001 0
0.00314057198301 0.000689999991518 0
0.00321955755636 0.000985714281473 0
0.00321955755636 0.00118285714144 0
0.00316929400865 0.00147857142009 0
0.00317647451223 0.00167571428006 0
0.00281744917929 0 1
0.00301850336553 0.000591428561532 0
0.00301850336553 0.000788571421503 0
0.00283181018188 0.000197142852902 0
0.00284617120036 0.000394285712872 0
0.00342061175171 0.00276 21
0.00321955755636 0.00197142857001 0
0.0034062507287 0.00256285713862 0
0.00339188972154 0.00236571427865 0
0.00337752870306 0.00216857141868 0
0.00321955755636 0.00216857141868 0
0.00301850336553 0.000985714281473 0
0.00301850336553 0.00118285714144 0
0.00301850336553 0.0013799999901 0
0.00301850336553 0.00157714285007 0
0.00301850336553 0.00177428571004 0
0.00261639498849 0 1
0.00261639498389 0.000197142852902 0
0.00289643474806 0.000689999991518 0
0.00277436613059 0.000591428561532 0
0.00288925424448 0.000887142851488 0
0.00261639498389 0.000394285712872 0
0.0032195575609 0.00276 21
0.00309748893888 0.00206999998869 0
0.00296105931424 0.00197142857001 0
0.00321955755636 0.00256285713862 0
0.00321955755636 0.00236571427865 0
0.00310466944247 0.00226714284866 0
0.00288207372958 0.00108428571146 0
0.002874893226 0.00128142856012 0
0.00286771272242 0.00147857142009 0
0.00285335170394 0.00177428571004 0
0.00281744917471 0.00197142857001 0
0.00241534079768 0 1
0.00241534079307 0.000197142852902 0
0.00276000512342 0.000788571421503 0
0.00261639498389 0.000591428561532 0
0.00274564410494 0.000985714281473 0
0.00241534079307 0.000394285712872 0
0.0030185033701 0.00276 21
0.00297542032141 0.00216857141868 0
0.00281744917471 0.00216857141868 0
0.00300414234706 0.00256285713862 0
0.00298978133989 0.00236571427865 0
0.00273128308647 0.00118285714144 0
0.0027169220793 0.0013799999901 0
0.00270256106082 0.00157714285007 0
0.00268820005365 0.00177428571004 0
0.00267383903518 0.00197142857001 0
0.00241534079307 0.000591428561532 0
0.00221428660224 0.000394285712872 0
0.00221428660688 0 1
0.00221428660224 0.000197142852902 0
0.00261639498389 0.000788571421503 0
0.00257331192846 0.00108428571146 0
0.00221428660224 0.000591428561532 0
0.00281744917929 0.00276 21
0.00281744917471 0.00236571427865 0
0.00265947802801 0.00216857141868 0
0.00281744917471 0.00256285713862 0
0.00256613142487 0.00128142856012 0
0.00255895092129 0.00147857142009 0
0.0025517704177 0.00167571428006 0
0.00254458990281 0.00187285714003 0
0.00253740939923 0.00206999998869 0
0.00241534079307 0.000788571421503 0
0.00221428660224 0.000788571421503 0
0.00201323241607 0 1
0.00205631545554 0.000591428561532 0
0.00204195443706 0.000394285712872 0
0.00202759341859 0.000197142852902 0
0.00241534079307 0.000985714281473 0
0.00241534079307 0.00118285714144 0
0.00207067646271 0.000788571421503 0
0.00261639498849 0.00276 21
0.00264511700953 0.00236571427865 0
0.00253022889564 0.00226714284866 0
0.00260203396541 0.00256285713862 0
0.00192706632318 0.000492857131547 0
0.00241534079307 0.0013799999901 0
0.00241534079307 0.00157714285007 0
0.00241534079307 0.00177428571004 0
0.00241534079307 0.00197142857001 0
0.00241534079307 0.00216857141868 0
0.00225018912016 0.000985714281473 0
0.00208503748119 0.000985714281473 0
0.00182653922776 0.000197142852902 0
0.00181217822527 0 1
0.00193424683807 0.000689999991518 0
0.0018121782206 0.000394285712872 0
0.00225736963505 0.00118285714144 0
0.00194142734165 0.000887142851488 0
0.00241534079768 0.00276 21
0.00241534079307 0.00256285713862 0
0.00241534079307 0.00236571427865 0
0.0018121782206 0.000591428561532 0
0.00227173064222 0.00147857142009 0
0.00227891114581 0.00167571428006 0
0.0022860916607 0.00187285714003 0
0.00229327216428 0.00206999998869 0
0.00230045267918 0.00226714284866 0
0.00209939848835 0.00118285714144 0
0.00194860784524 0.00108428571146 0
0.00161112402977 0.000197142852902 0
0.00161112403446 0 1
0.0018121782206 0.000788571421503 0
0.00161112402977 0.000394285712872 0
0.00211375950683 0.0013799999901 0
0.0018121782206 0.000985714281473 0
0.0021855645766 0.00236571427865 0
0.00221428660688 0.00276 21
0.00219992558376 0.00256285713862 0
0.00161112402977 0.000591428561532 0
0.002128120514 0.00157714285007 0
0.00214248153248 0.00177428571004 0
0.00215684255095 0.00197142857001 0
0.00217120355812 0.00216857141868 0
0.00195578834882 0.00128142856012 0
0.0018121782206 0.00118285714144 0
0.00141006983895 0.000394285712872 0
0.00141006983895 0.000197142852902 0
0.00141006984366 0 1
0.00161112402977 0.000788571421503 0
0.00141006983895 0.000591428561532 0
0.00196296886371 0.00147857142009 0
0.00161112402977 0.000985714281473 0
0.00198451038577 0.00236571427865 0
0.00199887139294 0.00256285713862 0
0.00201323241607 0.00276 21
0.00141006983895 0.000788571421503 0
0.00197732985957 0.00177428571004 0
0.00195578836013 0.00197142857001 0
0.0019701493673 0.00216857141868 0
0.0018121782206 0.0013799999901 0
0.00161112402977 0.00118285714144 0
0.00127092374906 0.000442389879767 0
0.00120901565285 0 1
0.00127092376037 0.000146675612432 0
0.0012245417304 0.000721281760003 0
0.00141006983895 0.000985714281473 0
0.00113177768179 0.000556208352169 0
0.0018121782206 0.00157714285007 0
0.00141006983895 0.00118285714144 0
0.0018121782206 0.00236571427865 0
0.0018121782206 0.00256285713862 0
0.00181217822527 0.00276 21
0.00123613723224 0.000922630225231 0
0.0018121782206 0.00177428571004 0
0.0018121782206 0.00197142857001 0
0.0018121782206 0.00216857141868 0
0.00161112402977 0.0013799999901 0
0.00141006983895 0.0013799999901 0
0.00113177768179 0.000293351220622 0
0.000992631603204 0.000440026828812 0
0.00100796146205 0 1
0.00105988315007 0.000157102419964 0
0.00103901362186 0.0007197063927 0
0.0012004707197 0.00110808389148 0
0.000853485524622 0.000586702448313 0
0.00161112402977 0.00157714285007 0
0.00121380687291 0.00131088322374 0
0.00161112402977 0.00216857141868 0
0.00161112402977 0.00256285713862 0
0.00161112402977 0.00236571427865 0
0.00161112403446 0.00276 21
0.00106220463684 0.000958117598973 0
0.00161112402977 0.00177428571004 0
0.00161112402977 0.00197142857001 0
0.00141006983895 0.00157714285007 0
0.00122333476312 0.00148733387338 0
0.000910750663317 0.000314204846997 0
0.000761618165256 0.00047130727403 0
0.000612485667196 0.000523441345622 0
0.000806907271242 0 1
0.00084218493055 0.000139490992015 0
0.00088827204144 0.000845747822083 0
0.000941742783179 0.00106538364499 0
0.00101754390687 0.00124176645737 0
0.00071433944604 0.000733378056503 0
0.00141006983895 0.00177428571004 0
0.00102707179708 0.00147735997406 0
0.00141006983895 0.00236571427865 0
0.00141006983895 0.00216857141868 0
0.00141006984366 0.00276 21
0.00141006983895 0.00256285713862 0
0.00141006983895 0.00197142857001 0
0.00121635053296 0.0016978826126 0
0.000676408415106 0.000278981991098 0
0.000510631888351 0.000418472990182 0
0.000459526459563 0.000657659540917 0
0.000605853080437 0 1
0.000739352657358 0.000983011320339 0
0.000821280940828 0.001172649691 0
0.000830808831042 0.00134910034065 0
0.00057167336196 0.000883764164207 0
0.0012554630724 0.0024232105255 0
0.00121635053296 0.00184573975192 0
0.0010365996873 0.00171295349074 0
0.000840336721257 0.00152555100161 0
0.00120392749109 0.00204809023626 0
0.00117815971175 0.00225481579461 0
0.00120901565285 0.00276 21
0.00125546308371 0.00262035339678 0
0.000456388708815 0.000156752308181 0
0.000340541474578 0.000561593871232 0
0.000306924341972 0.000313504623431 0
0.000306350971157 0.00079206750639 0
0.000404798889632 0 1
0.000625017974787 0.00110353292463 0
0.000636927837555 0.00132409624518 0
0.000306350971157 0.000950904839323 0
0.000428755020057 0.00103441616957 0
0.00110085632848 0.00248070679497 0
0.00102263122696 0.00191719380511 0
0.000849864611471 0.00170200166257 0
0.000651219672877 0.00158877223661 0
0.000997785154549 0.00212475191381 0
0.00094624958455 0.00234106019317 0
0.00100796146205 0.00276 21
0.000271646666594 0.000139024172534 0
0.000170270734461 0.000704866486992 0
0.000153516354279 0.000315555518901 0
0.000153516354279 0.000474392851834 0
0.000153175482751 0.000926475483172 0
0.000203744698827 0 1
0.000452574734282 0.00147554281066 0
0.000440664871514 0.00125497949012 0
0.000153175482751 0.00111226632259 0
0.000285836678153 0.00118506817494 0
0.000865867296362 0.00261044532154 0
0.000828911909659 0.00193936213764 0
0.000663129535644 0.00184876413141 0
0.00046448459705 0.00169610613121 0
0.000791642829314 0.00220141359136 0
0.00072377313542 0.00246089065581 0
0.000806907271242 0.00276 21
0 0.000209937705891 22
0 0.000848139100718 22
0 0.000635394741006 22
0 0.000422650381293 22
0 0.00106088346043 22
0 0 22
0 0.00127362782014 22
0.000299512865949 0.00160108615978 0
0.000292674772051 0.00139307716736 0
0.000142918336249 0.00133572016899 0
0.00067419755126 0.0026205089995 0
0.000635192614976 0.00206010191148 0
0.000476394459818 0.00191666947437 0
0.000306350971157 0.00180909515219 0
0.000581678974477 0.00231133597876 0
0.000541487836038 0.00248101800042 0
0.000605853080437 0.00276 21
0 0.00148637217986 22
0.000153175482751 0.00164773365762 0
0.000456388708815 0.00260324767203 0
0.000145946346248 0.00185272564465 0
0.000437839038743 0.00215994387084 0
0.00029189268684 0.00200633475775 0
0.000408778120816 0.00234152700134 0
0.000306924341972 0.00244649535678 0
0.000404798889632 0.00276 21
0 0.00169911653957 22
0.000271646666594 0.00262097580767 0
0 0.00191186089928 22
0.000136307482496 0.00205513350453 0
0.000163568982388 0.0022534067632 0
0.000136761985407 0.00248014275489 0
0.000203744698826 0.00276 21
0 0.00255006229411 22
0 0.00212460525899 22
0 0.00233734961871 22
0 0.00276 22

Edges
175
954 951 22
951 953 22
953 952 22
952 946 22
946 944 22
944 935 22
935 924 22
924 922 22
922 919 22
919 920 22
920 921 22
921 918 22
918 923 22
134 153 21
153 173 21
173 195 21
195 215 21
215 235 21
235 254 21
254 273 21
273 292 21
292 310 21
310 328 21
328 344 21
344 359 21
359 379 21
379 396 21
396 413 21
413 432 21
432 450 21
450 467 21
467 484 21
484 501 21
501 519 21
519 536 21
536 553 21
553 569 21
569 587 21
587 603 21
603 620 21
620 638 21
638 655 21
655 670 21
670 687 21
687 704 21
704 721 21
721 738 21
738 756 21
756 774 21
774 792 21
792 810 21
810 827 21
827 846 21
846 865 21
865 883 21
883 900 21
900 917 21
917 934 21
934 943 21
943 950 21
950 954 21
35 50 20
50 66 20
66 81 20
81 98 20
98 116 20
116 134 20
21 35 19
117 99 18
99 82 18
82 67 18
67 51 18
51 36 18
36 21 18
154 135 17
135 117 17
177 158 16
158 154 16
196 198 15
198 177 15
157 176 14
176 196 14
121 139 13
139 157 13
23 39 12
39 55 12
55 71 12
71 86 12
86 103 12
103 121 12
4 5 11
5 2 11
2 3 11
3 12 11
12 13 11
13 11 11
11 24 11
24 23 11
90 75 10
75 60 10
60 44 10
44 29 10
29 15 10
15 4 10
125 107 9
107 90 9
143 130 8
130 125 8
133 152 7
152 143 7
97 115 6
115 133 6
80 96 5
96 97 5
1 9 4
9 20 4
20 34 4
34 49 4
49 65 4
65 80 4
7 1 3
94 78 2
78 63 2
63 47 2
47 32 2
32 18 2
18 7 2
923 906 1
906 889 1
889 872 1
872 855 1
855 836 1
836 818 1
818 803 1
803 786 1
786 769 1
769 749 1
749 733 1
733 715 1
715 698 1
698 682 1
682 667 1
667 650 1
650 634 1
634 617 1
617 600 1
600 584 1
584 566 1
566 550 1
550 532 1
532 515 1
515 497 1
497 480 1
480 463 1
463 446 1
446 430 1
430 412 1
412 395 1
395 378 1
378 369 1
369 352 1
352 336 1
336 321 1
321 302 1
302 284 1
284 267 1
267 248 1
248 230 1
230 211 1
211 190 1
190 169 1
169 150 1
150 131 1
131 112 1
112 94 1

Triangles
1731
954 951 950 0
949 951 953 0
942 949 948 0
941 932 933 0
948 941 942 0
939 932 941 0
940 939 948 0
952 947 948 0
931 930 940 0
930 929 939 0
937 945 942 0
945 951 949 0
949 953 948 0
945 943 950 0
951 945 950 0
916 932 915 0
952 948 953 0
939 929 932 0
940 947 938 0
932 929 915 0
933 932 916 0
928 933 916 0
937 942 933 0
941 948 939 0
947 952 946 0
938 947 946 0
940 948 947 0
911 916 899 0
943 937 934 0
945 949 942 0
938 944 936 0
937 943 945 0
927 935 924 0
927 936 935 0
909 927 924 0
909 892 910 0
939 940 930 0
938 936 931 0
940 938 931 0
946 944 938 0
944 935 936 0
928 911 917 0
937 928 934 0
916 911 928 0
942 941 933 0
915 899 916 0
909 922 905 0
910 927 909 0
893 910 892 0
888 876 892 0
891 907 908 0
890 891 908 0
875 859 862 0
891 875 880 0
874 859 875 0
873 874 890 0
897 896 913 0
874 875 891 0
862 851 868 0
875 862 880 0
859 842 862 0
914 931 925 0
924 922 909 0
933 928 937 0
794 788 777 0
790 804 787 0
852 869 856 0
885 869 870 0
886 887 870 0
889 872 885 0
819 837 818 0
805 822 817 0
835 852 834 0
839 821 824 0
874 858 859 0
822 840 835 0
859 858 839 0
857 860 840 0
847 857 838 0
873 860 857 0
853 869 852 0
911 899 894 0
900 911 894 0
917 934 928 0
923 906 918 0
901 889 885 0
901 887 903 0
889 901 906 0
885 887 901 0
872 869 885 0
901 918 906 0
904 903 887 0
904 921 903 0
904 902 920 0
904 886 902 0
918 903 921 0
887 886 904 0
918 901 903 0
885 870 887 0
856 869 872 0
836 856 855 0
836 818 837 0
834 852 837 0
820 828 838 0
840 853 835 0
842 824 833 0
854 869 853 0
870 854 871 0
852 856 837 0
851 833 850 0
896 880 879 0
842 833 851 0
862 842 851 0
839 824 842 0
855 856 872 0
854 870 869 0
853 840 854 0
888 886 871 0
819 802 817 0
803 802 819 0
803 785 802 0
788 794 805 0
807 821 804 0
788 785 771 0
805 794 811 0
801 785 788 0
828 821 839 0
838 828 847 0
811 821 828 0
892 876 893 0
828 839 847 0
871 860 876 0
822 835 834 0
811 820 805 0
838 840 822 0
820 838 822 0
805 820 822 0
811 828 820 0
847 858 857 0
854 840 860 0
853 852 835 0
802 785 801 0
777 787 794 0
805 801 788 0
833 816 832 0
785 803 786 0
769 785 786 0
771 777 788 0
768 785 769 0
900 917 911 0
804 794 787 0
800 807 790 0
876 888 871 0
859 839 842 0
879 880 862 0
838 857 840 0
858 873 857 0
839 858 847 0
874 873 858 0
890 876 873 0
910 908 926 0
861 868 850 0
920 902 919 0
920 921 904 0
821 807 824 0
884 865 883 0
900 884 883 0
867 861 848 0
900 894 884 0
861 850 841 0
922 919 905 0
866 865 884 0
816 807 800 0
823 832 815 0
832 841 850 0
766 748 747 0
754 772 753 0
767 748 766 0
777 760 770 0
732 720 737 0
750 732 737 0
751 752 734 0
746 730 740 0
812 795 796 0
744 729 745 0
762 744 763 0
762 743 744 0
752 768 749 0
770 755 773 0
777 770 787 0
750 755 770 0
735 719 736 0
703 686 701 0
720 703 718 0
720 716 703 0
700 684 702 0
701 700 717 0
701 683 700 0
712 695 696 0
696 697 713 0
799 815 800 0
784 799 800 0
783 789 799 0
766 783 767 0
778 762 779 0
845 863 843 0
825 845 843 0
825 826 845 0
929 912 915 0
877 863 866 0
882 877 894 0
882 863 877 0
899 882 894 0
881 864 882 0
929 930 913 0
848 829 830 0
823 841 832 0
867 849 864 0
849 848 830 0
831 849 830 0
867 848 849 0
878 895 879 0
863 882 864 0
882 898 881 0
912 929 913 0
896 912 913 0
895 898 912 0
841 829 848 0
780 779 763 0
815 799 806 0
772 754 761 0
783 772 789 0
783 766 772 0
844 845 826 0
866 844 846 0
866 845 844 0
846 844 826 0
780 796 779 0
764 780 763 0
797 796 780 0
776 791 782 0
831 830 813 0
782 781 765 0
812 796 797 0
829 812 813 0
829 823 812 0
779 762 763 0
795 779 796 0
795 778 779 0
826 827 846 0
809 791 793 0
814 808 825 0
814 798 808 0
809 827 826 0
866 884 877 0
865 866 846 0
884 894 877 0
772 766 753 0
787 770 773 0
755 737 748 0
866 863 845 0
778 772 761 0
784 767 783 0
790 784 800 0
790 773 784 0
766 747 753 0
755 748 767 0
755 750 737 0
758 740 757 0
813 812 797 0
798 814 797 0
830 829 813 0
745 730 746 0
763 745 764 0
763 744 745 0
728 712 713 0
724 738 741 0
774 759 756 0
775 776 759 0
781 797 780 0
765 781 764 0
798 797 781 0
775 793 776 0
825 831 814 0
746 740 758 0
764 746 765 0
764 745 746 0
723 706 722 0
729 714 730 0
713 697 706 0
729 713 714 0
729 728 713 0
814 813 797 0
791 808 798 0
831 813 814 0
837 856 836 0
819 834 837 0
803 819 818 0
802 801 817 0
817 801 805 0
834 817 822 0
834 819 817 0
804 811 794 0
860 871 854 0
902 888 905 0
886 870 871 0
804 821 811 0
905 892 909 0
886 888 902 0
926 936 927 0
893 908 910 0
931 936 925 0
807 816 824 0
737 720 731 0
748 737 731 0
750 751 732 0
768 752 771 0
785 768 771 0
769 749 768 0
734 716 732 0
733 734 752 0
733 716 734 0
841 823 829 0
905 888 892 0
832 850 833 0
881 867 864 0
915 912 898 0
879 868 878 0
848 861 841 0
896 895 912 0
816 815 832 0
733 752 749 0
807 804 790 0
815 816 800 0
868 851 850 0
867 878 861 0
879 862 868 0
878 881 895 0
861 878 868 0
867 881 878 0
913 914 897 0
931 914 930 0
890 893 876 0
890 908 893 0
860 873 876 0
891 880 897 0
895 896 879 0
897 907 891 0
896 897 880 0
914 907 897 0
930 914 913 0
925 926 907 0
926 927 910 0
907 926 908 0
890 874 891 0
914 925 907 0
925 936 926 0
919 902 905 0
824 816 833 0
748 731 747 0
760 751 750 0
771 760 777 0
771 751 760 0
751 734 732 0
898 882 899 0
915 898 899 0
895 881 898 0
716 733 715 0
716 715 698 0
849 831 843 0
781 780 764 0
823 806 812 0
778 761 762 0
789 778 795 0
789 772 778 0
843 863 864 0
849 843 864 0
831 825 843 0
826 825 808 0
741 725 724 0
740 739 757 0
723 722 739 0
809 808 791 0
810 809 793 0
826 808 809 0
758 776 765 0
746 758 765 0
757 776 758 0
793 792 810 0
827 809 810 0
791 776 793 0
782 791 798 0
781 782 798 0
765 776 782 0
775 792 793 0
685 699 682 0
699 703 716 0
682 699 698 0
685 703 699 0
698 699 716 0
667 685 682 0
686 683 701 0
773 767 784 0
787 773 790 0
755 767 773 0
719 726 736 0
735 717 719 0
731 735 747 0
718 701 717 0
731 718 735 0
731 720 718 0
702 693 710 0
717 702 719 0
717 700 702 0
784 783 799 0
736 754 753 0
735 736 753 0
726 742 736 0
727 728 743 0
750 770 760 0
751 771 752 0
720 732 716 0
668 685 667 0
650 668 667 0
669 686 668 0
700 683 684 0
651 635 652 0
651 650 634 0
669 651 652 0
668 650 651 0
684 693 702 0
644 648 660 0
693 694 710 0
775 759 774 0
792 775 774 0
776 757 759 0
759 741 756 0
688 697 681 0
691 692 676 0
706 697 688 0
708 725 709 0
691 708 692 0
690 689 707 0
723 730 714 0
651 669 668 0
660 652 644 0
660 677 665 0
635 651 634 0
713 706 714 0
644 652 635 0
562 549 547 0
585 584 566 0
598 595 581 0
601 600 585 0
566 550 567 0
739 741 757 0
712 727 711 0
713 712 696 0
728 727 712 0
743 761 742 0
744 743 728 0
762 761 743 0
730 745 729 0
806 823 815 0
795 806 789 0
795 812 806 0
727 726 711 0
742 754 736 0
743 742 727 0
761 754 742 0
729 744 728 0
789 806 799 0
710 719 702 0
711 710 694 0
726 719 710 0
742 726 727 0
753 747 735 0
665 683 669 0
652 665 669 0
652 660 665 0
666 660 648 0
677 684 683 0
666 677 660 0
666 684 677 0
550 533 551 0
665 677 683 0
649 666 648 0
649 661 666 0
711 726 710 0
695 711 694 0
695 712 711 0
686 703 685 0
703 701 718 0
668 686 685 0
669 683 686 0
717 735 718 0
618 617 601 0
611 618 601 0
635 617 618 0
617 635 634 0
585 600 584 0
628 618 611 0
617 600 601 0
723 714 706 0
725 739 722 0
740 730 723 0
724 707 721 0
565 581 567 0
689 687 704 0
707 708 690 0
721 707 704 0
724 708 707 0
681 664 671 0
696 681 697 0
696 680 681 0
654 656 639 0
672 687 689 0
647 664 663 0
577 568 560 0
561 577 560 0
593 586 577 0
592 590 574 0
586 591 573 0
613 624 631 0
591 608 592 0
640 658 643 0
626 640 643 0
623 622 641 0
605 623 608 0
605 622 623 0
558 541 557 0
572 558 574 0
572 556 558 0
675 676 659 0
657 675 658 0
657 674 675 0
549 564 565 0
559 562 547 0
575 579 562 0
571 576 563 0
580 597 579 0
659 658 675 0
653 659 671 0
643 658 659 0
653 642 659 0
661 645 646 0
540 557 541 0
572 571 556 0
552 568 557 0
607 592 608 0
571 590 589 0
574 573 591 0
679 663 680 0
678 679 694 0
662 663 679 0
680 664 681 0
695 680 696 0
663 664 680 0
694 679 695 0
647 631 642 0
662 647 663 0
662 646 647 0
596 589 606 0
575 580 579 0
571 572 590 0
606 590 607 0
671 688 681 0
688 671 676 0
662 679 678 0
575 562 559 0
563 575 559 0
579 564 562 0
581 565 583 0
598 611 595 0
583 598 581 0
615 611 598 0
595 601 585 0
581 595 585 0
611 601 595 0
551 533 534 0
565 551 549 0
567 550 551 0
678 684 666 0
567 581 585 0
566 567 585 0
615 632 628 0
633 632 616 0
628 635 618 0
678 693 684 0
661 678 666 0
661 662 678 0
673 672 689 0
690 673 689 0
690 674 673 0
687 672 670 0
688 676 692 0
694 693 678 0
594 610 609 0
608 591 605 0
592 574 591 0
558 557 574 0
602 605 591 0
593 602 586 0
619 605 602 0
636 619 627 0
625 643 642 0
624 625 642 0
624 626 625 0
623 626 608 0
623 640 626 0
568 586 573 0
557 568 573 0
574 557 573 0
540 552 557 0
552 560 568 0
570 561 554 0
587 570 569 0
588 578 570 0
593 578 594 0
577 561 578 0
674 691 675 0
656 674 657 0
690 691 674 0
671 664 653 0
674 656 673 0
676 675 691 0
655 670 672 0
549 551 534 0
655 672 654 0
679 680 695 0
656 672 673 0
671 659 676 0
602 593 609 0
723 739 740 0
705 722 706 0
688 705 706 0
688 692 705 0
724 721 738 0
741 739 725 0
756 741 738 0
759 757 741 0
725 708 724 0
709 725 722 0
705 709 722 0
692 708 709 0
705 692 709 0
691 690 708 0
707 689 704 0
533 532 516 0
641 639 657 0
654 636 637 0
657 639 656 0
641 622 639 0
658 640 641 0
619 636 622 0
627 637 636 0
610 621 627 0
609 610 627 0
604 621 610 0
654 672 656 0
636 654 639 0
637 655 654 0
621 637 627 0
638 655 637 0
587 603 604 0
461 476 466 0
434 451 433 0
468 476 461 0
493 492 477 0
485 493 477 0
511 528 527 0
485 502 493 0
520 529 512 0
502 520 512 0
503 504 521 0
508 507 491 0
577 586 568 0
588 604 594 0
561 570 578 0
587 604 588 0
621 620 638 0
577 578 593 0
604 620 621 0
578 588 594 0
603 620 604 0
522 539 538 0
486 502 485 0
488 486 485 0
503 502 486 0
510 492 493 0
518 510 527 0
518 500 510 0
483 476 492 0
458 457 444 0
460 459 443 0
489 505 496 0
479 489 496 0
472 473 489 0
474 473 458 0
474 491 490 0
445 442 429 0
466 449 461 0
466 460 449 0
518 535 523 0
609 619 602 0
594 609 593 0
627 619 609 0
638 637 621 0
641 657 658 0
623 641 640 0
622 636 639 0
525 507 508 0
524 525 542 0
524 507 525 0
522 524 539 0
506 507 524 0
526 509 513 0
457 440 444 0
412 404 420 0
422 408 424 0
604 610 594 0
448 465 447 0
457 472 456 0
607 590 592 0
626 607 608 0
614 630 629 0
613 614 596 0
613 631 614 0
625 626 643 0
631 624 642 0
607 626 624 0
586 602 591 0
619 622 605 0
410 409 393 0
408 406 390 0
427 444 440 0
422 428 410 0
441 444 428 0
448 447 431 0
440 456 439 0
464 482 481 0
462 465 448 0
462 479 478 0
430 412 431 0
524 522 506 0
448 431 439 0
464 463 446 0
482 464 465 0
481 463 464 0
446 430 447 0
514 496 505 0
522 514 505 0
506 522 505 0
538 531 522 0
513 495 514 0
531 513 514 0
531 526 513 0
509 517 499 0
495 509 499 0
526 517 509 0
596 614 597 0
589 596 580 0
614 631 630 0
606 613 596 0
606 624 613 0
430 431 447 0
543 547 530 0
548 543 531 0
559 547 543 0
590 572 574 0
606 589 590 0
624 606 607 0
612 629 616 0
614 612 597 0
614 629 612 0
576 571 589 0
580 576 589 0
580 563 576 0
555 571 563 0
548 555 563 0
539 556 555 0
542 541 558 0
633 645 649 0
646 631 647 0
633 616 629 0
648 633 649 0
648 632 633 0
599 582 597 0
615 599 616 0
583 582 599 0
597 582 579 0
597 612 599 0
596 597 580 0
612 616 599 0
548 563 559 0
543 548 559 0
538 555 548 0
556 542 558 0
555 556 571 0
539 542 556 0
653 664 647 0
642 653 647 0
642 643 659 0
514 494 496 0
509 495 513 0
499 482 495 0
498 499 517 0
482 494 495 0
480 481 498 0
465 464 447 0
499 498 481 0
480 463 481 0
495 494 514 0
516 498 517 0
447 464 446 0
598 583 599 0
564 583 565 0
564 582 583 0
517 534 533 0
531 538 548 0
547 534 530 0
539 555 538 0
646 630 631 0
661 646 662 0
645 630 646 0
645 629 630 0
649 645 661 0
633 629 645 0
632 615 616 0
644 632 648 0
628 611 615 0
644 628 632 0
644 635 628 0
551 565 567 0
547 549 534 0
562 564 549 0
563 580 575 0
598 599 615 0
582 564 579 0
516 515 497 0
498 516 497 0
480 498 497 0
481 482 499 0
517 533 516 0
530 517 526 0
543 530 526 0
534 517 530 0
531 543 526 0
550 532 533 0
532 515 516 0
525 541 542 0
451 461 445 0
437 438 434 0
468 461 451 0
434 438 451 0
477 476 468 0
528 545 544 0
587 588 570 0
503 488 504 0
500 491 483 0
492 500 483 0
508 491 500 0
477 468 485 0
554 569 570 0
554 553 569 0
546 554 561 0
546 537 554 0
544 527 528 0
535 544 552 0
535 527 544 0
523 535 540 0
518 527 535 0
539 524 542 0
433 451 445 0
523 508 518 0
525 523 541 0
525 508 523 0
531 514 522 0
449 460 442 0
425 426 422 0
442 460 443 0
424 442 425 0
423 429 442 0
491 475 483 0
506 491 507 0
474 475 491 0
490 473 474 0
505 490 506 0
505 489 490 0
459 475 474 0
425 442 443 0
466 476 483 0
483 475 466 0
477 492 476 0
518 508 500 0
459 474 458 0
441 459 458 0
490 491 506 0
460 475 459 0
460 466 475 0
421 440 439 0
410 427 409 0
428 444 427 0
560 545 561 0
537 519 536 0
553 537 536 0
560 552 544 0
456 462 448 0
535 552 540 0
438 454 453 0
436 455 437 0
454 470 453 0
455 454 438 0
471 470 454 0
435 450 452 0
488 470 471 0
537 553 554 0
500 492 510 0
470 488 485 0
487 501 504 0
520 537 529 0
404 412 395 0
404 395 388 0
389 404 388 0
420 431 412 0
405 420 404 0
421 439 420 0
546 529 537 0
545 546 561 0
545 529 546 0
544 545 560 0
528 529 545 0
541 523 540 0
470 485 468 0
453 470 468 0
451 453 468 0
451 438 453 0
452 436 435 0
454 455 471 0
438 437 455 0
388 395 378 0
392 389 375 0
393 392 375 0
405 389 392 0
421 405 409 0
440 421 427 0
439 431 420 0
404 389 405 0
369 388 378 0
370 353 372 0
388 370 372 0
369 353 370 0
427 410 428 0
392 409 405 0
393 390 406 0
392 393 409 0
375 390 393 0
405 421 420 0
409 427 421 0
445 429 433 0
449 445 461 0
449 442 445 0
489 473 490 0
479 462 472 0
494 479 496 0
494 478 479 0
457 473 472 0
440 457 456 0
441 443 459 0
479 472 489 0
478 465 462 0
482 478 494 0
482 465 478 0
456 472 462 0
439 456 448 0
444 441 458 0
353 352 337 0
354 353 337 0
354 372 353 0
371 354 355 0
369 352 353 0
338 354 337 0
442 424 423 0
426 425 443 0
441 426 443 0
441 422 426 0
422 424 425 0
428 422 441 0
406 408 422 0
410 406 422 0
410 393 406 0
521 519 537 0
520 521 537 0
504 519 521 0
520 502 503 0
528 512 529 0
528 511 512 0
488 487 504 0
487 488 471 0
501 487 484 0
511 527 510 0
493 511 510 0
493 502 511 0
337 336 321 0
355 354 338 0
352 336 337 0
519 504 501 0
511 502 512 0
488 503 486 0
503 521 520 0
366 350 367 0
386 385 367 0
373 391 390 0
375 373 390 0
374 391 373 0
361 380 360 0
423 424 407 0
408 407 424 0
367 351 368 0
355 338 356 0
373 355 374 0
370 388 369 0
394 411 407 0
381 380 361 0
397 414 411 0
381 397 380 0
381 398 397 0
385 381 366 0
398 415 414 0
397 398 414 0
381 385 398 0
358 360 377 0
376 358 377 0
374 357 376 0
355 356 374 0
306 305 304 0
321 322 337 0
321 302 322 0
303 302 285 0
338 337 322 0
339 338 323 0
324 339 323 0
356 338 339 0
285 302 284 0
267 285 284 0
288 305 303 0
308 306 290 0
307 308 290 0
325 324 306 0
322 323 338 0
303 285 288 0
323 303 305 0
322 302 303 0
270 251 269 0
267 268 285 0
231 248 230 0
270 268 251 0
267 248 268 0
231 249 248 0
324 340 339 0
305 324 323 0
305 306 324 0
322 303 323 0
288 304 305 0
304 290 306 0
308 307 326 0
339 340 356 0
361 350 366 0
374 356 357 0
391 374 376 0
372 389 388 0
371 372 354 0
371 389 372 0
340 341 357 0
309 318 327 0
326 309 327 0
326 307 309 0
341 326 342 0
357 341 358 0
325 326 341 0
325 308 326 0
309 307 318 0
340 325 341 0
356 340 357 0
324 325 340 0
325 306 308 0
233 232 213 0
271 289 272 0
253 271 272 0
264 265 281 0
249 232 251 0
248 249 268 0
231 232 249 0
211 212 230 0
232 212 213 0
230 212 231 0
191 171 193 0
252 269 250 0
234 252 250 0
272 269 252 0
245 264 253 0
289 290 272 0
270 285 268 0
172 171 152 0
163 172 152 0
194 213 192 0
172 194 192 0
205 214 194 0
205 210 225 0
168 189 184 0
168 186 189 0
212 191 193 0
233 250 251 0
232 233 251 0
268 249 251 0
231 212 232 0
214 225 234 0
213 214 233 0
213 194 214 0
193 213 212 0
205 225 214 0
327 343 342 0
319 334 318 0
343 350 361 0
318 334 327 0
319 320 334 0
473 457 458 0
435 416 432 0
418 436 437 0
419 418 437 0
401 400 417 0
383 400 384 0
399 413 416 0
450 435 432 0
452 469 455 0
436 452 455 0
450 467 452 0
383 364 363 0
396 399 382 0
415 434 433 0
414 415 433 0
402 386 403 0
415 402 419 0
385 386 402 0
368 386 367 0
403 418 419 0
402 403 419 0
386 387 403 0
402 398 385 0
429 414 433 0
429 411 414 0
364 384 365 0
383 399 400 0
452 467 469 0
469 467 484 0
471 469 487 0
471 455 469 0
368 351 365 0
400 387 384 0
411 429 423 0
394 380 397 0
394 376 377 0
408 391 407 0
408 390 391 0
360 380 377 0
394 397 411 0
367 385 366 0
419 434 415 0
398 402 415 0
403 387 401 0
487 469 484 0
367 350 351 0
387 386 368 0
411 423 407 0
368 365 384 0
381 361 366 0
210 189 208 0
364 383 384 0
382 362 379 0
382 363 362 0
396 382 379 0
416 413 432 0
417 416 435 0
417 400 416 0
382 399 383 0
396 413 399 0
345 328 344 0
347 346 363 0
364 347 363 0
364 349 347 0
364 365 349 0
416 400 399 0
418 417 436 0
401 387 400 0
418 401 417 0
418 403 401 0
434 419 437 0
368 384 387 0
329 333 317 0
363 346 345 0
348 351 335 0
349 348 332 0
365 351 348 0
436 417 435 0
343 327 334 0
360 343 361 0
360 342 343 0
295 297 315 0
278 279 295 0
241 261 242 0
241 260 261 0
263 280 279 0
260 263 279 0
260 244 263 0
253 252 234 0
286 269 272 0
304 288 287 0
206 207 188 0
224 221 203 0
221 222 201 0
147 166 146 0
165 187 186 0
146 166 165 0
127 146 145 0
147 167 166 0
128 147 146 0
128 129 147 0
167 188 166 0
147 148 167 0
203 204 224 0
331 335 320 0
296 291 298 0
315 296 298 0
297 280 296 0
259 278 266 0
246 259 266 0
261 278 259 0
331 314 315 0
319 318 299 0
240 221 224 0
332 348 331 0
256 236 254 0
292 275 273 0
276 277 258 0
274 255 256 0
293 274 275 0
293 294 276 0
329 317 311 0
312 330 313 0
346 333 329 0
314 320 301 0
315 314 301 0
331 320 314 0
200 217 220 0
349 365 348 0
333 349 332 0
333 347 349 0
383 363 382 0
279 280 297 0
240 260 241 0
244 262 263 0
317 316 298 0
313 329 311 0
333 332 317 0
283 301 300 0
283 266 278 0
299 282 300 0
281 289 271 0
279 297 295 0
261 260 279 0
280 291 296 0
316 315 298 0
320 319 301 0
350 343 334 0
342 360 358 0
341 342 358 0
326 327 342 0
261 259 242 0
279 278 261 0
283 300 282 0
266 283 282 0
295 301 283 0
265 264 247 0
282 265 266 0
282 281 265 0
269 251 250 0
287 270 269 0
286 287 269 0
288 270 287 0
288 285 270 0
193 192 213 0
225 229 245 0
194 184 205 0
208 227 210 0
149 168 163 0
144 164 149 0
130 144 149 0
126 145 144 0
165 186 164 0
222 202 201 0
242 223 241 0
223 206 222 0
241 223 222 0
242 226 223 0
320 335 334 0
344 362 345 0
394 377 380 0
391 394 407 0
391 376 394 0
371 355 373 0
375 371 373 0
375 389 371 0
357 358 376 0
362 344 359 0
379 362 359 0
363 345 362 0
346 329 330 0
160 159 148 0
37 35 50 0
52 37 50 0
21 35 37 0
21 37 36 0
52 66 68 0
37 52 36 0
50 66 52 0
51 36 52 0
81 68 66 0
68 51 52 0
83 68 81 0
67 51 68 0
83 81 98 0
100 83 98 0
67 68 83 0
67 83 82 0
100 116 118 0
83 100 82 0
98 116 100 0
100 99 82 0
118 134 136 0
100 118 99 0
116 134 118 0
99 118 117 0
117 118 136 0
136 153 155 0
117 136 135 0
134 153 136 0
135 136 155 0
155 173 174 0
155 153 173 0
154 155 174 0
154 135 155 0
174 173 195 0
199 178 195 0
158 154 174 0
178 174 195 0
177 178 199 0
158 174 178 0
199 215 216 0
158 178 177 0
195 215 199 0
219 199 216 0
216 235 236 0
198 199 219 0
215 235 216 0
235 254 236 0
254 273 256 0
316 332 331 0
315 316 331 0
298 311 317 0
218 237 217 0
198 218 217 0
198 219 218 0
255 238 236 0
275 274 256 0
294 313 311 0
277 294 291 0
262 257 277 0
274 293 276 0
293 313 294 0
258 257 255 0
276 258 274 0
277 257 258 0
294 277 276 0
291 280 277 0
275 292 293 0
237 220 217 0
257 237 238 0
239 220 237 0
257 239 237 0
243 262 244 0
257 243 239 0
257 262 243 0
255 257 238 0
255 274 258 0
280 263 262 0
244 224 239 0
330 345 346 0
313 330 329 0
312 328 330 0
347 333 346 0
335 350 334 0
348 335 331 0
351 350 335 0
177 199 198 0
312 292 310 0
328 312 310 0
317 332 316 0
216 236 219 0
291 311 298 0
262 277 280 0
294 311 291 0
328 345 330 0
293 292 312 0
313 293 312 0
256 273 275 0
8 7 1 0
8 18 7 0
9 8 1 0
9 19 8 0
19 18 8 0
20 19 9 0
32 18 19 0
33 19 20 0
33 32 19 0
33 20 34 0
48 33 34 0
47 32 33 0
48 47 33 0
48 63 47 0
49 48 34 0
49 64 48 0
64 63 48 0
64 49 65 0
79 64 65 0
78 63 64 0
79 78 64 0
80 79 65 0
94 78 79 0
80 95 79 0
96 95 80 0
95 112 94 0
79 95 94 0
96 113 95 0
97 113 96 0
113 112 95 0
115 114 97 0
131 112 113 0
114 115 132 0
114 131 113 0
97 114 113 0
132 131 114 0
133 132 115 0
150 131 132 0
151 132 133 0
152 151 133 0
169 150 151 0
150 132 151 0
171 151 152 0
171 170 151 0
170 190 169 0
151 170 169 0
171 191 170 0
191 211 190 0
170 191 190 0
236 256 255 0
266 247 246 0
242 259 246 0
278 295 283 0
319 300 301 0
318 307 299 0
221 201 203 0
241 221 240 0
241 222 221 0
229 227 247 0
186 208 189 0
186 187 208 0
212 211 191 0
145 126 127 0
226 242 246 0
149 164 168 0
130 149 143 0
130 125 144 0
207 206 226 0
209 207 226 0
209 188 207 0
163 152 143 0
149 163 143 0
227 208 209 0
187 188 209 0
168 184 163 0
148 147 129 0
140 148 129 0
159 167 148 0
179 167 159 0
180 179 159 0
185 167 179 0
188 187 166 0
236 238 219 0
160 148 140 0
180 159 160 0
185 188 167 0
160 140 141 0
182 181 161 0
202 185 179 0
204 220 224 0
160 141 161 0
145 164 144 0
128 146 127 0
165 164 145 0
165 145 146 0
187 165 166 0
186 168 164 0
204 200 220 0
228 246 247 0
227 228 247 0
227 226 228 0
228 226 246 0
227 209 226 0
245 229 247 0
233 234 250 0
233 214 234 0
184 172 163 0
205 184 189 0
194 172 184 0
171 192 193 0
171 172 192 0
189 210 205 0
210 229 225 0
227 229 210 0
245 234 225 0
208 187 209 0
206 223 226 0
185 206 188 0
185 202 206 0
240 244 260 0
286 290 304 0
287 286 304 0
272 290 286 0
281 282 299 0
289 281 299 0
271 264 281 0
253 264 271 0
252 253 272 0
234 245 253 0
245 247 264 0
299 307 289 0
180 181 201 0
179 180 202 0
160 181 180 0
142 161 141 0
183 200 204 0
162 183 182 0
162 175 183 0
126 144 125 0
126 125 107 0
90 91 108 0
162 161 142 0
109 91 92 0
107 108 126 0
107 90 108 0
244 240 224 0
220 239 224 0
295 315 301 0
239 243 244 0
296 315 297 0
266 265 247 0
319 299 300 0
307 290 289 0
222 206 202 0
180 201 202 0
161 181 160 0
203 201 181 0
238 218 219 0
175 162 156 0
237 218 238 0
108 109 126 0
60 45 62 0
109 127 126 0
91 109 108 0
92 93 110 0
109 110 127 0
110 111 128 0
111 122 129 0
123 141 140 0
137 142 124 0
120 137 119 0
120 138 137 0
157 156 139 0
157 176 175 0
197 183 175 0
217 197 196 0
217 200 197 0
197 200 183 0
182 183 204 0
157 175 156 0
176 196 197 0
198 217 196 0
162 142 156 0
176 197 175 0
182 203 181 0
162 182 161 0
204 203 182 0
137 156 142 0
75 91 90 0
30 31 16 0
92 76 77 0
60 44 45 0
124 106 119 0
137 124 119 0
141 123 124 0
123 105 106 0
129 122 140 0
111 104 122 0
54 69 53 0
30 38 46 0
42 43 59 0
14 28 22 0
43 58 59 0
88 77 74 0
62 45 46 0
77 62 61 0
76 60 62 0
123 106 124 0
122 123 140 0
122 105 123 0
57 73 58 0
72 57 56 0
72 73 57 0
104 88 89 0
74 61 69 0
77 61 74 0
77 76 62 0
93 92 77 0
16 10 22 0
138 120 121 0
156 138 139 0
156 137 138 0
141 124 142 0
102 87 103 0
106 101 119 0
101 106 89 0
89 84 101 0
104 89 105 0
74 84 89 0
138 121 139 0
102 120 119 0
103 121 120 0
31 30 46 0
76 91 75 0
10 3 14 0
110 128 127 0
92 110 109 0
93 104 111 0
45 44 31 0
16 17 6 0
101 85 102 0
54 70 69 0
70 73 85 0
71 72 56 0
71 86 72 0
101 84 85 0
119 101 102 0
106 105 89 0
53 61 46 0
38 53 46 0
69 61 53 0
44 29 31 0
17 31 29 0
15 4 5 0
2 6 5 0
15 5 6 0
10 2 3 0
12 14 3 0
16 6 10 0
88 104 93 0
77 88 93 0
74 89 88 0
17 15 6 0
16 31 17 0
2 10 6 0
27 14 12 0
26 27 13 0
26 41 43 0
11 26 13 0
14 27 28 0
29 15 17 0
24 23 39 0
40 56 41 0
25 40 41 0
39 55 40 0
55 56 40 0
39 40 25 0
56 55 71 0
86 87 72 0
25 26 11 0
39 25 24 0
41 26 25 0
87 102 85 0
85 73 87 0
86 103 87 0
25 11 24 0
22 30 16 0
14 22 10 0
13 27 12 0
27 43 28 0
58 41 56 0
84 69 70 0
43 41 58 0
42 54 38 0
43 42 28 0
59 54 42 0
73 59 58 0
70 54 59 0
73 70 59 0
56 57 58 0
72 87 73 0
85 84 70 0
74 69 84 0
42 38 28 0
27 26 43 0
122 104 105 0
128 111 129 0
110 93 111 0
46 45 31 0
38 54 53 0
22 38 30 0
22 28 38 0
61 62 46 0
91 76 92 0
75 60 76 0
102 103 120 0

SubDomainFromMesh
1
3 1 1 0

SubDomainFromGeom
1
2 61 1 0

VertexOnGeometricVertex
175
 1 1
 2 2
 3 3
 4 4
 5 5
 7 6
 9 7
 11 8
 12 9
 13 10
 15 11
 18 12
 20 13
 21 14
 23 15
 24 16
 29 17
 32 18
 34 19
 35 20
 36 21
 39 22
 44 23
 47 24
 49 25
 50 26
 51 27
 55 28
 60 29
 63 30
 65 31
 66 32
 67 33
 71 34
 75 35
 78 36
 80 37
 81 38
 82 39
 86 40
 90 41
 94 42
 96 43
 97 44
 98 45
 99 46
 103 47
 107 48
 112 49
 115 50
 116 51
 117 52
 121 53
 125 54
 130 55
 131 56
 133 57
 134 58
 135 59
 139 60
 143 61
 150 62
 152 63
 153 64
 154 65
 157 66
 158 67
 169 68
 173 69
 176 70
 177 71
 190 72
 195 73
 196 74
 198 75
 211 76
 215 77
 230 78
 235 79
 248 80
 254 81
 267 82
 273 83
 284 84
 292 85
 302 86
 310 87
 321 88
 328 89
 336 90
 344 91
 352 92
 359 93
 369 94
 378 95
 379 96
 395 97
 396 98
 412 99
 413 100
 430 101
 432 102
 446 103
 450 104
 463 105
 467 106
 480 107
 484 108
 497 109
 501 110
 515 111
 519 112
 532 113
 536 114
 550 115
 553 116
 566 117
 569 118
 584 119
 587 120
 600 121
 603 122
 617 123
 620 124
 634 125
 638 126
 650 127
 655 128
 667 129
 670 130
 682 131
 687 132
 698 133
 704 134
 715 135
 721 136
 733 137
 738 138
 749 139
 756 140
 769 141
 774 142
 786 143
 792 144
 803 145
 810 146
 818 147
 827 148
 836 149
 846 150
 855 151
 865 152
 872 153
 883 154
 889 155
 900 156
 906 157
 917 158
 918 159
 919 160
 920 161
 921 162
 922 163
 923 164
 924 165
 934 166
 935 167
 943 168
 944 169
 946 170
 950 171
 951 172
 952 173
 953 174
 954 175

VertexOnGeometricEdge
0

EdgeOnGeometricEdge
175
1 1
2 2
3 3
4 4
5 5
6 6
7 7
8 8
9 9
10 10
11 11
12 12
13 13
14 14
15 15
16 16
17 17
18 18
19 19
20 20
21 21
22 22
23 23
24 24
25 25
26 26
27 27
28 28
29 29
30 30
31 31
32 32
33 33
34 34
35 35
36 36
37 37
38 38
39 39
40 40
41 41
42 42
43 43
44 44
45 45
46 46
47 47
48 48
49 49
50 50
51 51
52 52
53 53
54 54
55 55
56 56
57 57
58 58
59 59
60 60
61 61
62 62
63 63
64 64
65 65
66 66
67 67
68 68
69 69
70 70
71 71
72 72
73 73
74 74
75 75
76 76
77 77
78 78
79 79
80 80
81 81
82 82
83 83
84 84
85 85
86 86
87 87
88 88
89 89
90 90
91 91
92 92
93 93
94 94
95 95
96 96
97 97
98 98
99 99
100 100
101 101
102 102
103 103
104 104
105 105
106 106
107 107
108 108
109 109
110 110
111 111
112 112
113 113
114 114
115 115
116 116
117 117
118 118
119 119
120 120
121 121
122 122
123 123
124 124
125 125
126 126
127 127
128 128
129 129
130 130
131 131
132 132
133 133
134 134
135 135
136 136
137 137
138 138
139 139
140 140
141 141
142 142
143 143
144 144
145 145
146 146
147 147
148 148
149 149
150 150
151 151
152 152
153 153
154 154
155 155
156 156
157 157
158 158
159 159
160 160
161 161
162 162
163 163
164 164
165 165
166 166
167 167
168 168
169 169
170 170
171 171
172 172
173 173
174 174
175 175

End
