MeshVersionFormatted 1

Dimension
2

Identifier
";2, Date: 26/03/29 00:39 20s"

Geometry
"Maillage_L0.00828.mesh.gmsh"

Vertices
737
0 0.00276 22
0 0.00255006229411 22
0.000203826403534 0.00276 21
0 0.00233734961871 22
0.000136817193667 0.00248014275489 0
0.000271756326759 0.00262097581616 0
0.000404962299047 0.00276 21
0 0.00212460525899 22
0 0.00191186089928 22
0 0.00169911653957 22
0 0.00148637217986 22
0 0.00127362782014 22
0 0.00106088346043 22
0.000153578467283 0.00228560714251 0
0 0.000848139100718 22
0 0.000635394741006 22
0 0.000422650381293 22
0.000307048515671 0.00244649536243 0
0.00045657335133 0.00260324767485 0
0.00060609819456 0.00276 21
0.000153237598582 0.000926475483172 0
0.000170339740899 0.00205513351018 0
0.000153237598582 0.00164773366045 0
0.000153237598582 0.00183352450835 0
0.000340679494521 0.00219840611746 0
0.000142976301317 0.0014242798197 0
0.000158862564088 0.00113019538005 0
0.000285952615358 0.00157493181658 0
0.000408943683392 0.00234152700699 0
0 0 22
0 0.000209937705891 22
0.000170339740899 0.000704866481337 0
0.000163635234845 0.000506593231142 0
0.000136817193667 0.000279857236625 0
0.000541707152128 0.00248101800325 0
0.000674470620864 0.0026205089995 0
0.000807234090072 0.00276 21
0.000306475192924 0.00079206750639 0
0.000317725123934 0.000986762945772 0
0.000306475192924 0.00196793248513 0
0.000306475192924 0.00180909515219 0
0.000459712795747 0.00210234045343 0
0.000296543448722 0.001378875515 0
0.000307134282087 0.0011828192219 0
0.000440843607391 0.00150502049009 0
0.000428928920916 0.00172558382194 0
0.000612734018835 0.00223655864307 0
0.000203826403534 0 1
0.000340679494521 0.000561593874059 0
0.000327270473932 0.000377791719563 0
0.000307048515671 0.000208536273646 0
0.000761926985711 0.00236741898124 0
0.000911119952587 0.00249827931941 0
0.00100836998558 0.00276 21
0.000459712795747 0.00065765953809 0
0.000476587692263 0.000843330511493 0
0.000464672997306 0.00106389383486 0
0.000476587692263 0.00191666948002 0
0.000635450260592 0.0020601019143 0
0.000452758302348 0.00128445716672 0
0.000598505072665 0.00149199056028 0
0.000609309045456 0.00166798651193 0
0.000791963926753 0.00220141359136 0
0.000404962299047 0 1
0.000510838851114 0.000418472984527 0
0.000488601759544 0.000250803704117 0
0.000612734018835 0.00052344134845 0
0.000946633381699 0.00234106019034 0
0.00110130284513 0.00248070678932 0
0.0012095058811 0.00276 21
0.00061637711086 0.00116114557099 0
0.000748860784794 0.00103308785468 0
0.000635450260592 0.000699898077214 0
0.000663398508207 0.0008718072604 0
0.000708518904096 0.00181574830528 0
0.000807728771219 0.00196351009863 0
0.000686271820158 0.00132005310497 0
0.000756166537939 0.00147896063896 0
0.000856094498398 0.00166620742924 0
0.000989098581332 0.00202869223558 0
0.000998189872336 0.00219046619669 0
0.00060609819456 0 1
0.000674470620864 0.000139490992015 0
0.000761926985711 0.000392581010277 0
0.000791963926753 0.000558586400159 0
0.00117863757684 0.00225481580309 0
0.00127143925659 0.00261332438474 0
0.00127033914602 0.00242321053115 0
0.00141064177661 0.00276 21
0.000834323061381 0.00119436844895 0
0.000904536457679 0.00105681847452 0
0.000829248125716 0.000771352121917 0
0.00098000729881 0.00186691828296 0
0.00091978534645 0.00135564905171 0
0.0009700693115 0.00155279190885 0
0.00100419014543 0.00171826694826 0
0.00129907285487 0.00202892480839 0
0.00113721997271 0.0019878496507 0
0.000998189872336 0.000635248072055 0
0.000807234090072 0 1
0.000911119952587 0.000261720672104 0
0.000946633381699 0.00041893980118 0
0.00141064177198 0.00216857142433 0
0.00143937547236 0.00236571428147 0
0.00142500861793 0.00256285713862 0
0.00161177767212 0.00276 21
0.00108340415496 0.00123233745598 0
0.00106021214753 0.00108054911134 0
0.0010370201401 0.000928760766695 0
0.00115228581792 0.00177032647577 0
0.00115044944452 0.00149519459883 0
0.00120711686201 0.00133496737664 0
0.00146810917273 0.00197142856719 0
0.00130984798721 0.00188106768037 0
0.00110130283664 0.000427150338696 0
0.00120441581792 0.000711909743952 0
0.00100836998558 0 1
0.00110130284513 0.0002792932022 0
0.00161177766611 0.00216857142433 0
0.00161177766611 0.00236571428147 0
0.00161177766611 0.00256285713862 0
0.0017985467143 0.00256285713862 0
0.00181291356764 0.00276 21
0.00124702296347 0.00110902586872 0
0.00122383094756 0.000957237524084 0
0.00128326007588 0.00160683104501 0
0.00133082957754 0.0014375972973 0
0.0013663467135 0.00125891225338 0
0.00161177766611 0.00197142856719 0
0.00148247601868 0.00177428571004 0
0.00141064177198 0.00078857142433 0
0.00141064177198 0.000591428567187 0
0.00125597230007 0.000435360884694 0
0.0012095058811 0 1
0.00125597230856 0.000139646594738 0
0.00176981301392 0.00216857142433 0
0.00175544616798 0.00197142856719 0
0.00178417985987 0.00236571428147 0
0.00192066493452 0.0024642857058 0
0.00201404946315 0.00276 21
0.0020284163088 0.00256285713862 0
0.00141064177198 0.000985714281473 0
0.00161896109333 0.00167571427723 0
0.0014968428731 0.0015771428529 0
0.00151120971905 0.00137999999576 0
0.00152557657348 0.00118285713862 0
0.00174107931355 0.00177428571004 0
0.00188474781541 0.00187285712589 0
0.00155431026537 0.00078857142433 0
0.00141064177198 0.000394285710044 0
0.00156867711979 0.000591428567187 0
0.00141064177198 0.000197142852902 0
0.00141064177661 0 1
0.00197094890805 0.00216857142433 0
0.00201404946285 0.00197142856719 0
0.00204278315474 0.00236571428147 0
0.00221518535698 0.00256285713862 0
0.00221518535866 0.00276 21
0.00161177766611 0.000985714281473 0
0.0017267124676 0.0015771428529 0
0.00171234561318 0.00137999999576 0
0.00169797876723 0.00118285713862 0
0.0018775643882 0.00167571427723 0
0.00201404946285 0.00177428571004 0
0.0016836119128 0.000689999991518 0
0.00158304396574 0.000394285710044 0
0.00169797875875 0.000492857134375 0
0.00181291356024 0.000591428567187 0
0.00162614452054 0.000197142852902 0
0.00161177767212 0 1
0.00221518535698 0.00197142856719 0
0.00221518535698 0.00216857142433 0
0.00221518535698 0.00236571428147 0
0.00241632125111 0.00197142856719 0
0.00241632125111 0.00256285713862 0
0.00241632125417 0.00276 21
0.00181291356024 0.000985714281473 0
0.00187038096099 0.00147857142009 0
0.00185601411504 0.00118285713862 0
0.00201404946285 0.0015771428529 0
0.00221518535698 0.00177428571004 0
0.00187038096099 0.00078857142433 0
0.00201404946285 0.000591428567187 0
0.00181291356024 0.000394285710044 0
0.00201404946285 0.000394285710044 0
0.00181291356024 0.000197142852902 0
0.00181291356764 0 1
0.00241632125111 0.00177428571004 0
0.00241632125111 0.00236571428147 0
0.00241632125111 0.00216857142433 0
0.00253843947133 0.00206999998304 0
0.00254562289854 0.00187285712589 0
0.00261745714524 0.00256285713862 0
0.00261745714969 0.00276 21
0.00201404946285 0.000985714281473 0
0.00201404946285 0.00118285713862 0
0.00201404946285 0.00137999999576 0
0.00221518535698 0.0015771428529 0
0.00241632125111 0.0015771428529 0
0.00201404946285 0.00078857142433 0
0.00217208480218 0.000591428567187 0
0.00201404946285 0.000197142852902 0
0.00218645165661 0.000394285710044 0
0.00201404946315 0 1
0.00255280631728 0.00167571427723 0
0.00261745714524 0.00236571428147 0
0.0028185930452 0.00276 21
0.00266055769155 0.00216857142433 0
0.00267492454598 0.00197142856719 0
0.00268929139193 0.00177428571004 0
0.00281859303936 0.00256285713862 0
0.00214335110181 0.00088714284866 0
0.00215053452902 0.0010842857058 0
0.00221518535698 0.00137999999576 0
0.00241632125111 0.00137999999576 0
0.00255998974449 0.00147857142009 0
0.00227265274924 0.00078857142433 0
0.00232293672277 0.000492857134375 0
0.00220081850255 0.000197142852902 0
0.00230856987683 0.000295714277232 0
0.00221518535866 0 1
0.00270365824635 0.0015771428529 0
0.00281859303936 0.00236571428147 0
0.00301972893349 0.00256285713862 0
0.00301972894071 0.00276 21
0.00281859303936 0.00197142856719 0
0.00281859303936 0.00216857142433 0
0.00285451015847 0.00177428571004 0
0.00301972893349 0.00236571428147 0
0.00228701960367 0.000985714281473 0
0.00230138644962 0.00118285713862 0
0.00247378865185 0.00078857142433 0
0.00250252235223 0.00118285713862 0
0.0027180250923 0.00137999999576 0
0.00245942179743 0.000591428567187 0
0.00244505495148 0.000394285710044 0
0.00261745714524 0.000591428567187 0
0.00241632125417 0 1
0.00243068809705 0.000197142852902 0
0.0028688770129 0.00147857142009 0
0.00301972893349 0.00216857142433 0
0.0032208648361 0.00256285713862 0
0.00322086483622 0.00276 21
0.00301972893349 0.00197142856719 0
0.00301972893349 0.0015771428529 0
0.00301972893349 0.00177428571004 0
0.0032208648361 0.00236571428147 0
0.0024881554978 0.000985714281473 0
0.00262464057245 0.0010842857058 0
0.00273957536546 0.000689999991518 0
0.00261745714524 0.00078857142433 0
0.00273239194673 0.00118285713862 0
0.00287606043163 0.00128142856295 0
0.00261745714524 0.000197142852902 0
0.00261745714524 0.000394285710044 0
0.00273239193825 0.000492857134375 0
0.00261745714969 0 1
0.00301972893349 0.00137999999576 0
0.0032208648361 0.00216857142433 0
0.00342200073023 0.00236571428147 0
0.00342200073174 0.00276 21
0.00342200073023 0.00256285713862 0
0.00317058085409 0.00147857142009 0
0.0032208648361 0.00197142856719 0
0.0031777642813 0.00167571427723 0
0.00342200073023 0.00216857142433 0
0.00286169359416 0.000591428567187 0
0.00274675879267 0.000985714281473 0
0.00287606044011 0.00078857142433 0
0.00288324385884 0.0010842857058 0
0.00301972893349 0.00118285713862 0
0.00280422619342 0.000197142852902 0
0.00284732673974 0.000394285710044 0
0.0028185930452 0 1
0.00316339742687 0.00128142856295 0
0.00315621400814 0.0010842857058 0
0.00336453332949 0.00197142856719 0
0.00358003607804 0.00216857142433 0
0.00362313662725 0.00276 21
0.00359440292399 0.00236571428147 0
0.00360876976993 0.00256285713862 0
0.00332143278317 0.00137999999576 0
0.00333579962911 0.0015771428529 0
0.00335016647506 0.00177428571004 0
0.00356566922361 0.00197142856719 0
0.00301972893349 0.000394285710044 0
0.00301972893349 0.000591428567187 0
0.00301972893349 0.00078857142433 0
0.00301972893349 0.000985714281473 0
0.00301972893349 0.000197142852902 0
0.00301972894071 0 1
0.00329269908279 0.000985714281473 0
0.00330706592874 0.00118285713862 0
0.003709337717 0.00226714284866 0
0.00370215428978 0.00206999998304 0
0.00382427252276 0.00276 21
0.00382427251849 0.00256285713862 0
0.00382427251849 0.00236571428147 0
0.00350820182287 0.00118285713862 0
0.0035225686773 0.00137999999576 0
0.00353693552324 0.0015771428529 0
0.00362313662436 0.00177428571004 0
0.00382427251849 0.00197142856719 0
0.00319213113573 0.000394285710044 0
0.0031777642813 0.000591428567187 0
0.00330706592874 0.000492857134375 0
0.0032208648361 0.00078857142433 0
0.00342200073023 0.00078857142433 0
0.0032208648361 0.000197142852902 0
0.00322086483622 0 1
0.00361595318866 0.0010842857058 0
0.00349383497692 0.000985714281473 0
0.00382427251849 0.00216857142433 0
0.00402540841262 0.00236571428147 0
0.00402540841828 0.00276 21
0.00402540841262 0.00256285713862 0
0.0039823078663 0.00216857142433 0
0.00396794101187 0.00197142856719 0
0.00373807141737 0.00118285713862 0
0.00372370457142 0.00137999999576 0
0.003709337717 0.0015771428529 0
0.00382427251849 0.00177428571004 0
0.00342200073174 0 1
0.00362313662436 0.00078857142433 0
0.00342200073023 0.000394285710044 0
0.00342200073023 0.000591428567187 0
0.00362313662436 0.000591428567187 0
0.00342200073023 0.000197142852902 0
0.0037524382718 0.000985714281473 0
0.00388892333797 0.0010842857058 0
0.00418344376043 0.00216857142433 0
0.00422654431379 0.00276 21
0.00419781060637 0.00236571428147 0
0.00422654430674 0.00256285713862 0
0.00398949128503 0.00177428571004 0
0.00416907691448 0.00197142856719 0
0.00392484046555 0.00137999999576 0
0.00393920731998 0.0015771428529 0
0.00402540841262 0.00118285713862 0
0.00362313662725 0 1
0.00376680511774 0.00078857142433 0
0.00362313662436 0.000394285710044 0
0.00378117197217 0.000591428567187 0
0.00362313662436 0.000197142852902 0
0.0038961067567 0.00088714284866 0
0.00402540841262 0.000985714281473 0
0.00431274539938 0.00226714284866 0
0.00430556198065 0.00206999998304 0
0.0044276802093 0.00276 21
0.00442768020087 0.00236571428147 0
0.00442768020087 0.00256285713862 0
0.00415471006005 0.00177428571004 0
0.00429837855344 0.00187285713437 0
0.00412597635968 0.00137999999576 0
0.00422654430674 0.0015771428529 0
0.00418344376043 0.00118285713862 0
0.00382427252276 0 1
0.00390329018391 0.000689999991518 0
0.00391047361112 0.000492857134375 0
0.00379553881811 0.000394285710044 0
0.00383863936443 0.000197142852902 0
0.00402540841262 0.00078857142433 0
0.00419062717916 0.000985714281473 0
0.00442768020087 0.00216857142433 0
0.00442768020087 0.00197142856719 0
0.00462881610481 0.00276 21
0.00462881610348 0.00236571428147 0
0.00462881610348 0.00216857142433 0
0.00462881610348 0.00256285713862 0
0.00442768020087 0.00177428571004 0
0.00432711225381 0.00137999999576 0
0.00442768020087 0.0015771428529 0
0.00434147910824 0.00118285713862 0
0.00402540841828 0 1
0.00402540841262 0.000197142852902 0
0.00402540841262 0.000591428567187 0
0.00402540841262 0.000394285710044 0
0.00435584595418 0.000985714281473 0
0.00422654430674 0.00078857142433 0
0.00451388130199 0.00118285713862 0
0.0045928989759 0.00177428571004 0
0.00457134870274 0.00197142856719 0
0.00482995200033 0.00276 21
0.00482995199761 0.00197142856719 0
0.00482995199761 0.00256285713862 0
0.00487305254393 0.00216857142433 0
0.00482995199761 0.00236571428147 0
0.00458571554868 0.0015771428529 0
0.00452824815642 0.00137999999576 0
0.00422654431379 0 1
0.00422654430674 0.000197142852902 0
0.00422654430674 0.000394285710044 0
0.00422654430674 0.000591428567187 0
0.00449951445605 0.000985714281473 0
0.00437021280861 0.00078857142433 0
0.00471501719612 0.00118285713862 0
0.00470065035017 0.000985714281473 0
0.00474375089649 0.0015771428529 0
0.00475811775092 0.00177428571004 0
0.00503108789584 0.00276 21
0.00503108789174 0.00197142856719 0
0.0049017862443 0.00177428571004 0
0.00503108789174 0.00256285713862 0
0.00503108789174 0.00216857142433 0
0.00503108789174 0.00236571428147 0
0.00472938405055 0.00137999999576 0
0.00487305254393 0.00118285713862 0
0.00503108789174 0.00118285713862 0
0.0044276802093 0 1
0.00442768020087 0.000197142852902 0
0.00439894650898 0.000394285710044 0
0.00447078075567 0.000591428567187 0
0.00462881610348 0.00078857142433 0
0.00482995199761 0.00078857142433 0
0.00486586911672 0.000985714281473 0
0.00502390446453 0.00167571427723 0
0.00491615309025 0.0015771428529 0
0.00523222379135 0.00276 21
0.00523222378587 0.00256285713862 0
0.00517475638512 0.00197142856719 0
0.00516038953918 0.00177428571004 0
0.00523222378587 0.00236571428147 0
0.00518912323955 0.00216857142433 0
0.00503108789174 0.00137999999576 0
0.00518912323955 0.00118285713862 0
0.00503108789174 0.000985714281473 0
0.00462881610481 0 1
0.00462881610348 0.000197142852902 0
0.00462881610348 0.000394285710044 0
0.00462881610348 0.000591428567187 0
0.00482995199761 0.000591428567187 0
0.00503108789174 0.00078857142433 0
0.00531124145977 0.00206999998304 0
0.00514602269323 0.0015771428529 0
0.00543335968 0.00236571428147 0
0.00543335968 0.00256285713862 0
0.00543335968686 0.00276 21
0.00543335968 0.00197142856719 0
0.00530405803256 0.00177428571004 0
0.00543335968 0.00216857142433 0
0.00533279173293 0.00137999999576 0
0.00534715858736 0.00118285713862 0
0.00519630665828 0.000985714281473 0
0.00523222378587 0.00078857142433 0
0.00482995200033 0 1
0.00482995199761 0.000197142852902 0
0.00494488679062 0.000492857134375 0
0.00482995199761 0.000394285710044 0
0.00507418843806 0.000591428567187 0
0.00531842488699 0.0015771428529 0
0.00546104101771 0.00182121069546 0
0.00561569329562 0.00258680979602 0
0.00558991064365 0.00238662310904 0
0.00563449558238 0.00276 21
0.00558997880042 0.00199946679701 0
0.00548872237238 0.00167099284917 0
0.00554955882996 0.00142532512493 0
0.00566637510623 0.00220425397725 0
0.00554584077821 0.00118286119324 0
0.00536152543331 0.000985714281473 0
0.00523222378587 0.000591428567187 0
0.00537589228773 0.00078857142433 0
0.00503108789584 0 1
0.00504545473769 0.000197142852902 0
0.00505982159211 0.000394285710044 0
0.00523222378587 0.000394285710044 0
0.00564946037596 0.00182591750819 0
0.00564298426932 0.00130409510582 0
0.00582404205119 0.00232230669461 0
0.00579033908148 0.00260975252863 0
0.00577785091957 0.00246484979961 0
0.00583563147789 0.00276 21
0.00574091004923 0.0020264867977 0
0.00570380352442 0.00164645731774 0
0.00575764742768 0.00146883562131 0
0.0058702331828 0.00217976359809 0
0.00573640970868 0.00118286508671 0
0.00557579140995 0.000995602205151 0
0.00558631169448 0.000851242177096 0
0.00543335968 0.000591428567187 0
0.00558973455572 0.000683997657174 0
0.00523222379135 0 1
0.00523222378587 0.000197142852902 0
0.00543335968 0.000394285710044 0
0.00581465200703 0.00185061087324 0
0.00576179004483 0.00104696524421 0
0.00586615135964 0.00130653740864 0
0.00599558257705 0.00232833061688 0
0.00595722700617 0.00253951180177 0
0.0060367673734 0.00276 21
0.00592193587757 0.00203245300514 0
0.00588647460726 0.00167931266656 0
0.00595722700617 0.00151056691626 0
0.00604515620175 0.00218323926281 0
0.0059193342058 0.001182868819 0
0.00578717038945 0.000911065401719 0
0.00574104816107 0.000773570639792 0
0.00561546832312 0.000510534312901 0
0.00576554692092 0.00060327807424 0
0.00543335968686 0 1
0.00543335968 0.000197142852902 0
0.00561569329562 0.000269638801362 0
0.00597477093332 0.0018637806029 0
0.00597297044932 0.00106274063241 0
0.0060267286201 0.00134480430361 0
0.00614486280326 0.00231747191509 0
0.00611701760936 0.00247225825021 0
0.00607863646379 0.00260987600818 0
0.00623790326892 0.00276 21
0.00609472982646 0.00203814790874 0
0.00609427539424 0.0016237276058 0
0.00607170769777 0.00175641942298 0
0.0061168430907 0.00149103579711 0
0.00621030722716 0.00215988686853 0
0.00609462408379 0.00118287240709 0
0.00602660669285 0.000942612462782 0
0.00592913388618 0.000763695041166 0
0.00579004568925 0.000432985517169 0
0.00594310856135 0.000561240502174 0
0.00563449558238 0 1
0.00579019238536 0.000291616490027 0
0.00579033908148 0.000150247462884 0
0.00612834461224 0.00187641200006 0
0.006161804669 0.00102264549026 0
0.00620526463522 0.00127602995258 0
0.00628361086098 0.00225624588238 0
0.00627022464979 0.00240777562146 0
0.00630290044134 0.00260975252863 0
0.00643903916443 0.00276 21
0.00627575165955 0.00200230183046 0
0.0062484866677 0.00183000699104 0
0.00627005902925 0.00167452524475 0
0.00627005902925 0.00147228782347 0
0.00641699999788 0.00204876922816 0
0.00641699999788 0.00219738461408 0
0.00628968600898 0.00118965787847 0
0.00608080838737 0.000816397320567 0
0.00622698498222 0.000867189259292 0
0.00605257187095 0.00066904339059 0
0.00595708323651 0.000358785971665 0
0.006061422429 0.000495155268864 0
0.00583563147789 0 1
0.00597210255528 0.000178617883828 0
0.00634741472119 0.000954436929536 0
0.00631270830731 0.00136649577623 0
0.006417 0.002346 15
0.00638397141126 0.00248686226646 0
0.00650375877156 0.00257014886173 0
0.00664017505994 0.00276 21
0.00641699999788 0.00190015384224 0
0.00641699999788 0.00175153845632 0
0.00641699999788 0.0016029230704 0
0.00641699999788 0.00145430768448 0
0.00647720876846 0.00119618110532 0
0.00656150105948 0.00229123466371 15
0.00653741754752 0.00197836221912 0
0.00656150105575 0.00212555562653 0
0.00646516701434 0.00103974488425 0
0.00645312526023 0.000883308663191 0
0.00629184448782 0.000712498148559 0
0.00617200129579 0.000577465487577 0
0.00611701760936 0.000287741741309 0
0.00617603769525 0.000431135936541 0
0.0060367673734 0 1
0.00617476009713 0.000150247462884 0
0.00648925052257 0.00135261732638 0
0.00668616972201 0.00259260227366 0
0.00656150105948 0.00240076533629 16
0.00644108350611 0.000726872442127 0
0.00684131095545 0.00276 21
0.00651333403929 0.00166548976851 0
0.0065253757934 0.00182192598957 0
0.00663556742622 0.00150357923089 0
0.00665080292963 0.0013415580138 0
0.00666634837459 0.00117624064684 0
0.00672975104917 0.00225801208087 14
0.00672975104715 0.00190680724131 0
0.00672975104715 0.0020824096565 0
0.00656150105575 0.000965802417453 0
0.00656150105575 0.00080012339122 0
0.00635446161431 0.000563155168918 0
0.00629863353033 0.000422417578034 0
0.00630103983348 0.000287741741309 0
0.00623790326892 0 1
0.00633567841291 0.000113825033605 0
0.00683279856908 0.00260128025553 0
0.00672975104917 0.00243398791913 16
0.00656150105948 0.000468765336293 8
0.00656150105575 0.000634444364988 0
0.00668189382804 0.00101092328836 0
0.00697942741615 0.0026099582374 0
0.00704244685097 0.00276 21
0.00672975104715 0.00173120482613 0
0.00677122141234 0.00158108047381 0
0.00677945215514 0.00140603539188 0
0.00681800336607 0.00114638701232 0
0.00691640798224 0.00223208350991 14
0.00691640797383 0.00185337972632 0
0.00691640797383 0.00204273161516 0
0.00671374089767 0.000672247072874 0
0.00669773075667 0.000842506234397 0
0.006417 0.000414 7
0.00642730153606 0.000220488189752 0
0.00643903916443 0 1
0.00691640798224 0.00245991649009 17
0.00672975104917 0.00050198791913 8
0.00681636130946 0.00096797944749 0
0.00708445118887 0.00247595981888 17
0.00716091000092 0.00261122943972 0
0.007245 0.00276 21
0.00691640797383 0.00166402782901 0
0.00691640797383 0.00147467594018 0
0.00691640797383 0.00128532405134 0
0.00697489878652 0.00111550178874 0
0.00708445118887 0.00221604018112 13
0.00708445118767 0.00171441606926 0
0.00706673716123 0.00203808913359 0
0.00704902313478 0.00186013809616 0
0.00691640798224 0.000527916490087 9
0.00693609473812 0.000725685199454 0
0.00656150105948 0.000359234663707 7
0.0065985968078 0.000189851129789 0
0.00664017505994 0 1
0.00695578150241 0.00092345391138 0
0.007245 0.002484 18
0.00733947779142 0.00262201302062 0
0.00744790549451 0.00276 20
0.00708445118767 0.00154720803251 0
0.00708445118767 0.00137999999576 0
0.00708445118767 0.00121279195901 0
0.00708445118767 0.00104558392226 0
0.007245 0.002208 13
0.00724499999788 0.00204239999237 0
0.00724499999788 0.00171119999406 0
0.00724499999788 0.00187679999746 0
0.00708445118887 0.00054395981888 9
0.00711656094293 0.000876767852152 0
0.00708445118767 0.000711167848759 0
0.00672975104917 0.00032601208087 6
0.0067840281849 0.000167397717861 0
0.00684131095545 0 1
0.00743395559576 0.0024840260469 18
0.00754414610658 0.002622 0
0.0076522110664 0.00276 20
0.00724499999788 0.00154559999915 0
0.00724499999788 0.00137999999576 0
0.00724499999788 0.00121439999237 0
0.00724499999788 0.00104879999746 0
0.00724499999788 0.000883199994062 0
0.00743663849168 0.00220798085466 12
0.00741391141113 0.00201159229023 0
0.00743663848502 0.00158699520952 0
0.00743663848502 0.00179399042327 0
0.007245 0.000552 10
0.00724499999788 0.000717599999152 0
0.00691640798224 0.000300083509913 6
0.00697942741615 0.000150041754115 0
0.00704244685097 0 1
0.00764038673457 0.002484 18
0.00785654547284 0.00276 20
0.00775043682443 0.002622 0
0.00743663848502 0.00137999999576 0
0.00743663848502 0.001173004782 0
0.00743663848502 0.000966009568244 0
0.00743663848502 0.000759014354487 0
0.007577100446 0.00186294057382 0
0.00764630102029 0.002208 12
0.00757719874105 0.00206998404444 0
0.00762405214276 0.00144899839469 0
0.00762405214276 0.001609994673 0
0.00743663849168 0.000552019145337 10
0.00708445118887 0.00028404018112 5
0.00716091000092 0.000148770551796 0
0.007245 0 2
0.00784866258495 0.002484 18
0.00806087987928 0.00276 20
0.00795674195402 0.002622 0
0.00757719874105 0.000690015947074 0
0.00762405214276 0.00128800211638 0
0.00757719872409 0.00100050877195 0
0.0077177589886 0.0008280127619 0
0.00785753401352 0.002208 12
0.00769428312326 0.00174796735515 0
0.0077177589886 0.00193198722962 0
0.00780472576132 0.00205274999947 0
0.00781146580899 0.00137999998728 0
0.00781146581747 0.00163299414496 0
0.00764630102029 0.000552 10
0.007245 0.000276 5
0.00733947779142 0.000137986970901 0
0.00744790549451 0 2
0.00828 0.00276 20
0.00805693843533 0.002484 18
0.00816629335645 0.00262722295505 0
0.00780472576132 0.000707249992048 0
0.00785562320521 0.00103960211553 0
0.00781146581747 0.00119600424548 0
0.00799887949218 0.00128800211638 0
0.0078997806099 0.000883199994062 0
0.00806876700676 0.002208 12
0.00796315050613 0.00205274999947 0
0.0078997806099 0.00187679999746 0
0.00799887949218 0.00147199786665 0
0.00799887949218 0.00165599361693 0
0.00785753401352 0.000552 10
0.00743395559576 0.000275973953103 4
0.00754414610658 0.000138 0
0.0076522110664 0 2
0.00828 0.002484 19
0.00828 0.002208 12
0.00796315050613 0.000707249992048 0
0.00799887949218 0.00110400637459 0
0.00813943974821 0.00124200318941 0
0.00806876699985 0.000862499996819 0
0.00828 0.002001 11
0.00806876699985 0.0018974999947 0
0.00813943974821 0.0015179968021 0
0.00812157525095 0.00174224999841 0
0.00806876700676 0.000552 10
0.00764038673457 0.000276 4
0.00785654547284 0 2
0.00775043682443 0.000138 0
0.00828 0.000759 11
0.00812157525095 0.00101774999311 0
0.00828 0.001173 11
0.00828 0.00138 11
0.00828 0.000966 11
0.00828 0.001794 11
0.00828 0.001587 11
0.00828 0.000552 11
0.00806087987928 0 2
0.00784866258495 0.000276 4
0.00795674195402 0.000138 0
0.00828 0 3
0.00816629335645 0.000132777036472 0
0.00805693843533 0.000276 4
0.00828 0.000276 4

Edges
145
1 2 22
2 4 22
4 8 22
8 9 22
9 10 22
10 11 22
11 12 22
12 13 22
13 15 22
15 16 22
16 17 22
17 31 22
31 30 22
610 592 21
592 570 21
570 549 21
549 529 21
529 509 21
509 490 21
490 472 21
472 454 21
454 437 21
437 418 21
418 400 21
400 383 21
383 366 21
366 349 21
349 332 21
332 315 21
315 296 21
296 279 21
279 261 21
261 243 21
243 225 21
225 207 21
207 194 21
194 176 21
176 158 21
158 140 21
140 123 21
123 106 21
106 89 21
89 70 21
70 54 21
54 37 21
37 20 21
20 7 21
7 3 21
3 1 21
692 676 20
676 660 20
660 644 20
644 627 20
627 610 20
709 692 19
625 642 18
642 659 18
659 675 18
675 693 18
693 709 18
605 608 17
608 625 17
568 587 16
587 605 16
555 546 15
546 568 15
597 576 14
576 555 14
632 615 13
615 597 13
710 700 12
700 682 12
682 667 12
667 650 12
650 632 12
730 723 11
723 727 11
727 725 11
725 726 11
726 729 11
729 728 11
728 715 11
715 710 11
654 671 10
671 688 10
688 705 10
705 719 10
719 730 10
619 636 9
636 654 9
588 606 8
606 619 8
621 602 7
602 588 7
656 639 6
639 621 6
689 672 5
672 656 5
737 736 4
736 732 4
732 720 4
720 706 4
706 689 4
734 737 3
674 691 2
691 708 2
708 721 2
721 731 2
731 734 2
30 48 1
48 64 1
64 82 1
82 100 1
100 117 1
117 134 1
134 153 1
153 170 1
170 187 1
187 204 1
204 221 1
221 238 1
238 257 1
257 274 1
274 291 1
291 310 1
310 323 1
323 340 1
340 357 1
357 374 1
374 390 1
390 409 1
409 427 1
427 445 1
445 463 1
463 482 1
482 500 1
500 520 1
520 542 1
542 564 1
564 584 1
584 604 1
604 623 1
623 641 1
641 658 1
658 674 1

Triangles
1327
3 1 2 0
6 19 7 0
2 6 3 0
18 19 6 0
5 18 6 0
4 5 2 0
14 25 29 0
4 14 5 0
4 8 14 0
29 35 18 0
5 14 18 0
25 14 22 0
14 8 22 0
6 2 5 0
24 9 10 0
28 41 23 0
40 22 24 0
36 35 52 0
20 36 37 0
52 63 68 0
36 52 53 0
35 29 47 0
7 19 20 0
47 59 63 0
35 47 52 0
29 25 42 0
10 23 24 0
87 70 69 0
88 87 69 0
105 89 87 0
23 10 11 0
12 26 11 0
22 8 9 0
52 68 53 0
47 63 52 0
26 28 23 0
57 39 56 0
74 57 56 0
73 74 56 0
92 109 91 0
60 44 57 0
73 92 74 0
43 28 26 0
61 78 62 0
60 61 45 0
77 78 61 0
62 46 45 0
43 45 28 0
27 43 26 0
60 45 43 0
75 59 58 0
93 110 98 0
75 93 76 0
96 110 93 0
79 96 93 0
79 95 96 0
81 68 63 0
76 80 63 0
98 86 81 0
24 22 9 0
58 40 41 0
58 42 40 0
42 58 59 0
47 42 59 0
25 22 40 0
41 24 23 0
58 41 46 0
40 24 41 0
43 27 44 0
80 93 98 0
63 80 81 0
76 93 80 0
19 35 36 0
3 6 7 0
18 35 19 0
25 40 42 0
19 36 20 0
53 54 37 0
15 21 13 0
21 39 27 0
13 21 27 0
15 32 21 0
58 46 62 0
32 16 33 0
49 32 33 0
38 21 32 0
149 131 132 0
177 159 165 0
159 142 149 0
111 110 96 0
144 126 127 0
144 130 126 0
61 62 45 0
60 77 61 0
94 95 78 0
107 111 94 0
128 127 112 0
145 144 127 0
126 130 114 0
46 28 45 0
92 73 85 0
116 109 99 0
128 124 142 0
145 128 146 0
112 124 128 0
72 74 92 0
91 90 72 0
71 57 72 0
90 71 72 0
77 60 71 0
108 124 107 0
90 91 107 0
109 125 108 0
131 125 116 0
111 127 126 0
94 111 95 0
112 127 111 0
107 112 111 0
107 124 112 0
54 69 70 0
26 23 11 0
27 26 12 0
13 27 12 0
44 60 43 0
39 44 27 0
39 57 44 0
91 72 92 0
108 91 109 0
108 107 91 0
77 90 94 0
77 71 90 0
146 128 142 0
71 60 57 0
74 72 57 0
94 78 77 0
90 107 94 0
99 109 92 0
125 124 108 0
95 79 78 0
172 173 156 0
181 188 171 0
189 206 193 0
190 189 173 0
190 206 189 0
174 190 172 0
208 206 190 0
14 29 18 0
41 28 46 0
42 47 29 0
69 68 86 0
53 37 36 0
69 53 68 0
69 54 53 0
31 30 48 0
51 48 64 0
31 48 34 0
67 65 84 0
34 17 31 0
66 84 65 0
38 56 39 0
32 49 38 0
17 33 16 0
17 34 33 0
67 73 55 0
83 101 84 0
51 34 48 0
66 51 64 0
66 50 51 0
55 49 65 0
33 34 50 0
100 117 101 0
126 110 111 0
114 110 126 0
113 114 130 0
97 98 114 0
98 81 80 0
159 177 162 0
178 197 180 0
161 178 160 0
161 179 178 0
146 161 145 0
162 179 161 0
146 162 161 0
146 142 159 0
49 33 50 0
65 49 50 0
55 38 49 0
170 152 153 0
102 84 101 0
115 116 99 0
135 133 118 0
150 132 133 0
132 131 116 0
67 84 85 0
56 55 73 0
66 64 82 0
83 66 82 0
65 50 66 0
55 65 67 0
50 34 51 0
83 100 101 0
66 83 84 0
82 100 83 0
117 134 135 0
118 101 117 0
152 133 135 0
133 132 116 0
38 39 21 0
16 32 15 0
55 56 38 0
75 58 62 0
79 75 62 0
76 59 75 0
182 168 183 0
179 162 177 0
195 179 177 0
196 197 179 0
177 165 182 0
102 101 118 0
152 169 166 0
170 169 152 0
170 187 169 0
200 195 182 0
135 118 117 0
153 135 134 0
152 150 133 0
153 152 135 0
167 184 168 0
165 167 168 0
166 184 167 0
202 219 203 0
185 202 203 0
201 185 203 0
184 202 185 0
186 204 202 0
70 87 89 0
204 219 202 0
89 105 106 0
106 105 121 0
204 221 219 0
137 148 155 0
197 214 198 0
199 188 181 0
136 119 137 0
192 209 191 0
205 192 188 0
210 209 192 0
215 216 199 0
226 227 209 0
222 234 240 0
264 277 259 0
241 244 259 0
246 265 264 0
155 172 154 0
97 113 103 0
59 76 63 0
114 113 97 0
99 85 102 0
124 125 142 0
67 85 73 0
125 131 142 0
109 116 125 0
85 99 92 0
102 115 99 0
115 118 133 0
116 115 133 0
102 118 115 0
165 168 182 0
151 165 149 0
151 167 165 0
132 151 149 0
132 150 151 0
84 102 85 0
166 169 184 0
150 166 151 0
150 152 166 0
164 180 181 0
171 164 181 0
148 163 164 0
180 197 198 0
181 180 198 0
161 144 145 0
163 160 178 0
164 163 180 0
147 160 163 0
143 144 160 0
147 143 160 0
147 130 143 0
129 147 137 0
160 144 161 0
196 213 214 0
147 129 130 0
155 154 137 0
171 155 164 0
171 172 155 0
154 136 137 0
137 119 129 0
138 136 154 0
119 113 129 0
191 209 208 0
190 191 208 0
174 192 191 0
188 174 171 0
188 192 174 0
205 188 199 0
174 191 190 0
138 122 121 0
119 136 120 0
139 122 138 0
156 139 138 0
156 141 139 0
157 141 156 0
175 157 173 0
175 158 157 0
119 104 103 0
156 138 154 0
138 121 120 0
106 121 122 0
86 103 104 0
81 86 68 0
97 103 86 0
180 163 178 0
79 93 75 0
78 79 62 0
95 111 96 0
114 98 110 0
97 86 98 0
149 142 131 0
165 159 149 0
195 177 182 0
195 196 179 0
162 146 159 0
197 178 179 0
145 127 128 0
130 144 143 0
113 130 129 0
213 230 231 0
195 213 196 0
195 212 213 0
138 120 136 0
120 104 119 0
105 104 121 0
105 87 88 0
186 202 184 0
239 219 221 0
220 236 218 0
88 86 104 0
105 88 104 0
69 86 88 0
176 175 193 0
140 123 141 0
156 154 172 0
120 121 104 0
141 122 139 0
123 106 122 0
239 221 238 0
239 238 257 0
272 273 255 0
257 272 254 0
274 291 290 0
166 167 151 0
186 184 169 0
187 186 169 0
187 204 186 0
183 168 184 0
185 183 184 0
220 203 219 0
239 220 219 0
239 236 220 0
218 235 217 0
220 218 203 0
236 235 218 0
254 236 239 0
273 286 267 0
200 182 183 0
201 218 217 0
113 119 103 0
212 195 200 0
217 212 200 0
217 230 212 0
198 215 199 0
148 147 163 0
155 148 164 0
137 147 148 0
214 231 215 0
198 214 215 0
197 196 214 0
201 203 218 0
200 201 217 0
183 185 201 0
198 199 181 0
157 158 141 0
141 158 140 0
123 122 141 0
156 173 157 0
291 309 290 0
290 273 272 0
274 290 272 0
309 304 290 0
211 229 224 0
175 189 193 0
158 175 176 0
173 189 175 0
172 190 173 0
284 285 277 0
298 313 317 0
297 298 314 0
297 281 298 0
266 260 247 0
285 266 277 0
278 260 266 0
295 303 313 0
285 295 278 0
285 303 295 0
266 285 278 0
247 259 266 0
208 227 223 0
209 210 226 0
172 171 174 0
253 271 258 0
233 252 234 0
249 248 268 0
252 249 268 0
233 248 249 0
230 248 231 0
268 269 289 0
233 249 252 0
251 269 268 0
232 251 248 0
232 237 251 0
248 233 231 0
216 222 205 0
233 216 215 0
234 222 216 0
233 234 216 0
231 233 215 0
248 251 268 0
253 258 240 0
252 253 234 0
252 270 253 0
276 271 289 0
292 276 289 0
292 293 276 0
263 283 265 0
205 199 216 0
210 205 222 0
210 192 205 0
322 335 318 0
285 302 303 0
321 338 322 0
193 194 176 0
211 193 206 0
211 194 193 0
309 291 310 0
328 310 323 0
340 328 323 0
325 304 309 0
194 211 207 0
211 223 229 0
207 211 225 0
206 208 223 0
292 289 307 0
300 282 299 0
319 300 299 0
320 321 300 0
240 245 228 0
253 240 234 0
258 245 240 0
275 258 271 0
276 275 271 0
293 282 275 0
265 284 264 0
237 235 255 0
256 237 255 0
273 256 255 0
273 267 256 0
250 269 251 0
305 288 287 0
255 236 254 0
267 250 256 0
235 236 255 0
212 230 213 0
183 201 200 0
232 230 217 0
237 232 235 0
252 268 270 0
287 269 267 0
246 228 245 0
288 289 269 0
288 307 289 0
232 217 235 0
250 267 269 0
237 250 251 0
237 256 250 0
231 214 213 0
305 326 307 0
286 304 305 0
290 286 273 0
290 304 286 0
328 309 310 0
328 325 309 0
326 325 342 0
306 304 325 0
326 306 325 0
326 305 306 0
288 305 307 0
287 286 305 0
287 267 286 0
288 269 287 0
275 282 263 0
276 293 275 0
308 292 307 0
311 329 319 0
308 312 292 0
308 324 312 0
311 312 329 0
299 311 319 0
299 312 311 0
270 289 271 0
253 270 271 0
268 289 270 0
232 248 230 0
272 257 274 0
255 254 272 0
239 257 254 0
328 340 344 0
260 280 262 0
247 260 242 0
224 229 242 0
225 224 242 0
225 211 224 0
259 277 266 0
241 259 247 0
229 241 247 0
242 229 247 0
223 241 229 0
227 244 241 0
227 226 244 0
278 280 260 0
361 344 357 0
338 354 355 0
356 339 346 0
371 356 373 0
354 339 356 0
355 354 371 0
337 339 354 0
320 337 338 0
320 319 337 0
363 378 373 0
346 363 356 0
346 362 363 0
413 412 430 0
396 380 397 0
341 324 327 0
358 341 343 0
359 358 343 0
362 345 358 0
379 362 376 0
379 378 363 0
329 324 341 0
356 363 373 0
393 379 376 0
395 378 379 0
312 293 292 0
321 301 300 0
376 377 393 0
395 379 393 0
343 327 342 0
362 358 376 0
341 327 343 0
326 327 308 0
359 360 377 0
376 359 377 0
376 358 359 0
429 410 428 0
393 411 412 0
393 392 411 0
362 346 345 0
377 392 393 0
360 361 377 0
342 360 343 0
342 344 360 0
361 375 377 0
375 391 392 0
374 375 361 0
391 411 392 0
390 391 374 0
390 410 391 0
390 409 410 0
377 375 392 0
344 361 360 0
328 344 342 0
340 357 344 0
374 391 375 0
295 313 294 0
302 322 303 0
335 336 318 0
333 334 316 0
331 333 314 0
347 364 350 0
331 347 333 0
331 348 347 0
333 350 334 0
317 331 314 0
298 317 314 0
313 303 318 0
335 352 336 0
338 335 322 0
338 352 335 0
319 330 337 0
355 352 338 0
337 354 338 0
371 372 355 0
380 389 373 0
373 389 371 0
378 380 373 0
396 389 380 0
406 398 388 0
372 370 355 0
381 370 388 0
398 381 388 0
399 382 381 0
365 348 353 0
368 367 350 0
386 368 384 0
385 383 369 0
387 385 369 0
403 419 400 0
387 403 385 0
387 405 403 0
368 387 367 0
404 423 405 0
386 404 405 0
386 384 401 0
334 332 315 0
318 303 322 0
317 318 336 0
317 313 318 0
349 332 334 0
262 261 243 0
242 262 243 0
225 242 243 0
223 227 241 0
280 281 262 0
294 280 278 0
295 294 278 0
313 298 294 0
281 261 262 0
294 298 280 0
279 261 281 0
281 297 279 0
396 397 415 0
417 406 424 0
441 450 434 0
402 399 417 0
330 346 339 0
337 330 339 0
329 345 330 0
227 208 209 0
242 260 262 0
211 206 223 0
361 357 374 0
412 395 393 0
306 305 304 0
327 326 342 0
308 307 326 0
299 282 293 0
312 299 293 0
319 320 300 0
300 283 282 0
228 246 244 0
222 228 210 0
222 240 228 0
263 245 258 0
275 263 258 0
282 283 263 0
228 226 210 0
265 246 245 0
263 265 245 0
283 284 265 0
284 277 264 0
301 302 284 0
300 301 283 0
321 302 301 0
244 264 259 0
228 244 226 0
246 264 244 0
325 328 342 0
316 297 314 0
302 321 322 0
284 302 285 0
284 283 301 0
324 329 312 0
327 324 308 0
343 360 359 0
394 395 413 0
406 389 396 0
345 329 341 0
358 345 341 0
346 330 345 0
379 363 362 0
356 371 354 0
432 444 443 0
399 402 384 0
388 389 406 0
399 381 398 0
372 389 388 0
406 417 398 0
372 371 389 0
370 372 388 0
370 352 355 0
330 319 329 0
378 394 380 0
396 407 406 0
428 410 427 0
446 428 445 0
463 446 445 0
464 465 448 0
431 430 448 0
432 431 449 0
414 397 413 0
298 281 280 0
296 297 316 0
296 279 297 0
316 314 333 0
315 316 334 0
315 296 316 0
429 448 430 0
351 349 334 0
350 351 334 0
369 366 351 0
367 369 351 0
367 387 369 0
350 367 351 0
368 386 387 0
429 411 410 0
483 464 482 0
500 483 482 0
466 465 483 0
484 466 483 0
484 480 466 0
501 484 483 0
500 501 483 0
500 520 501 0
414 431 432 0
426 415 432 0
413 431 414 0
429 430 412 0
447 465 449 0
448 447 431 0
448 465 447 0
461 480 462 0
466 461 449 0
466 480 461 0
464 483 465 0
522 520 542 0
502 498 484 0
540 518 521 0
562 540 543 0
562 563 541 0
539 541 561 0
502 520 522 0
428 427 445 0
391 410 411 0
409 427 410 0
366 349 351 0
464 463 482 0
429 428 446 0
448 429 446 0
464 448 446 0
447 449 431 0
412 411 429 0
446 463 464 0
369 383 366 0
401 420 404 0
386 401 404 0
384 402 401 0
399 398 417 0
368 364 382 0
353 336 352 0
370 353 352 0
370 365 353 0
382 365 370 0
384 382 399 0
384 368 382 0
364 347 348 0
434 424 441 0
400 383 385 0
422 419 403 0
444 462 460 0
449 444 432 0
461 462 444 0
522 542 543 0
543 542 564 0
583 562 565 0
502 501 520 0
521 502 522 0
543 521 522 0
518 502 521 0
518 498 502 0
501 502 484 0
385 403 400 0
723 719 730 0
714 723 727 0
711 723 714 0
713 725 726 0
698 703 686 0
717 703 713 0
717 704 703 0
724 725 713 0
680 663 664 0
713 698 712 0
662 663 679 0
714 727 724 0
711 695 705 0
723 711 719 0
714 699 711 0
725 724 727 0
695 688 705 0
724 712 714 0
681 678 695 0
726 717 713 0
705 719 711 0
715 710 700 0
701 715 700 0
701 700 682 0
667 685 682 0
716 715 701 0
716 728 715 0
718 717 729 0
716 718 728 0
716 701 702 0
652 653 634 0
682 685 701 0
668 650 651 0
651 650 633 0
634 653 635 0
668 667 650 0
653 666 651 0
685 667 668 0
702 701 685 0
633 635 651 0
717 726 729 0
684 702 685 0
651 666 668 0
666 653 670 0
668 666 684 0
653 652 670 0
635 653 651 0
704 717 718 0
683 666 670 0
687 683 670 0
687 702 683 0
669 662 679 0
645 652 634 0
686 669 679 0
698 686 697 0
703 687 686 0
669 670 652 0
697 686 679 0
687 670 669 0
702 687 704 0
702 684 683 0
652 662 669 0
665 664 649 0
671 665 655 0
678 681 665 0
699 681 695 0
697 712 698 0
680 697 679 0
696 699 712 0
680 696 697 0
680 681 696 0
728 718 729 0
595 594 573 0
611 598 593 0
615 617 633 0
615 597 599 0
578 557 556 0
678 688 695 0
680 665 681 0
671 688 678 0
633 650 632 0
598 611 616 0
617 599 618 0
577 593 598 0
629 612 613 0
634 628 645 0
616 611 628 0
635 618 616 0
593 573 594 0
556 550 572 0
577 556 572 0
557 534 556 0
594 612 611 0
593 594 611 0
573 574 595 0
646 647 662 0
655 665 649 0
632 615 633 0
578 599 597 0
678 665 671 0
577 598 599 0
597 576 578 0
566 554 574 0
573 566 574 0
525 513 505 0
573 553 566 0
512 531 523 0
533 532 513 0
525 533 513 0
545 553 533 0
552 551 532 0
531 532 551 0
545 525 536 0
566 545 554 0
553 552 533 0
553 545 566 0
579 575 558 0
580 589 600 0
631 637 648 0
630 631 648 0
614 624 631 0
596 574 575 0
595 612 594 0
596 595 574 0
613 612 595 0
636 638 620 0
635 633 617 0
648 663 647 0
666 683 684 0
716 702 704 0
685 668 684 0
680 679 663 0
665 680 664 0
681 699 696 0
713 712 724 0
703 698 713 0
687 703 704 0
687 669 686 0
718 716 704 0
629 628 612 0
614 630 613 0
646 645 629 0
652 645 662 0
634 616 628 0
628 611 612 0
635 616 634 0
618 598 616 0
617 618 635 0
599 578 577 0
618 599 598 0
617 615 599 0
596 613 595 0
607 624 614 0
601 607 590 0
601 620 607 0
648 647 630 0
662 647 663 0
646 629 647 0
645 646 662 0
645 628 629 0
699 695 711 0
712 699 714 0
696 712 697 0
648 664 663 0
630 614 631 0
629 630 647 0
629 613 630 0
649 664 648 0
631 624 637 0
655 654 671 0
637 655 649 0
638 654 655 0
596 590 607 0
613 596 614 0
575 590 596 0
636 654 638 0
576 555 557 0
535 555 546 0
620 601 600 0
637 624 620 0
655 637 638 0
649 648 637 0
614 596 607 0
535 557 555 0
588 606 589 0
600 589 606 0
619 600 606 0
601 580 600 0
620 624 607 0
619 620 600 0
638 637 620 0
601 579 580 0
547 546 568 0
528 547 548 0
527 546 547 0
507 527 528 0
453 436 435 0
472 470 489 0
454 437 452 0
453 435 440 0
438 455 440 0
471 470 452 0
458 469 453 0
469 489 471 0
526 546 527 0
471 489 470 0
503 510 491 0
507 489 488 0
443 426 432 0
442 443 460 0
425 426 443 0
441 425 442 0
408 426 425 0
572 551 571 0
557 578 576 0
534 557 535 0
514 506 494 0
494 506 488 0
530 514 510 0
530 534 514 0
527 507 506 0
572 550 551 0
593 572 571 0
577 578 556 0
506 507 488 0
571 552 573 0
577 572 593 0
551 552 571 0
512 503 492 0
530 510 523 0
550 530 531 0
534 535 514 0
491 485 503 0
525 505 515 0
536 525 515 0
545 533 525 0
552 532 533 0
493 505 513 0
534 550 556 0
694 692 676 0
694 676 677 0
709 694 693 0
709 692 694 0
677 676 660 0
661 677 660 0
693 694 677 0
693 677 675 0
661 644 643 0
677 661 675 0
660 644 661 0
675 661 659 0
627 643 644 0
643 659 661 0
626 643 627 0
642 659 643 0
610 626 627 0
626 642 643 0
609 626 610 0
625 642 626 0
609 625 626 0
609 610 592 0
591 609 592 0
608 625 609 0
591 592 570 0
608 591 605 0
608 609 591 0
586 570 567 0
586 591 570 0
587 586 567 0
605 591 586 0
548 549 529 0
605 586 587 0
570 549 567 0
567 568 587 0
567 549 548 0
528 529 509 0
568 548 547 0
568 567 548 0
528 548 529 0
508 528 509 0
527 547 528 0
508 490 489 0
528 508 507 0
509 490 508 0
490 472 489 0
470 472 454 0
422 435 436 0
507 508 489 0
419 437 418 0
400 419 418 0
422 436 419 0
451 467 455 0
476 458 473 0
510 494 491 0
488 489 469 0
453 440 458 0
422 440 435 0
526 535 546 0
506 526 527 0
514 535 526 0
491 473 485 0
511 493 513 0
532 511 513 0
512 492 511 0
506 514 526 0
494 510 514 0
476 494 488 0
476 491 494 0
523 531 530 0
458 440 455 0
423 433 440 0
439 450 456 0
457 456 450 0
512 532 531 0
503 512 523 0
510 503 523 0
485 492 503 0
492 493 511 0
457 450 441 0
474 456 457 0
492 474 475 0
492 485 474 0
474 467 456 0
530 550 534 0
512 511 532 0
551 550 531 0
451 438 439 0
456 451 439 0
456 467 451 0
473 455 467 0
473 458 455 0
420 439 438 0
416 421 402 0
420 421 439 0
420 401 421 0
404 420 423 0
434 417 424 0
439 434 450 0
416 402 417 0
434 416 417 0
434 421 416 0
451 455 438 0
485 467 474 0
485 473 467 0
491 476 473 0
405 422 403 0
386 405 387 0
423 422 405 0
421 434 439 0
440 422 423 0
469 476 488 0
453 469 471 0
458 476 469 0
452 470 454 0
453 452 436 0
453 471 452 0
437 436 452 0
437 419 436 0
421 401 402 0
338 321 320 0
382 364 365 0
336 331 317 0
370 381 382 0
347 350 333 0
348 365 364 0
336 348 331 0
336 353 348 0
368 350 364 0
589 581 588 0
589 569 581 0
619 636 620 0
580 559 569 0
589 580 569 0
601 590 579 0
573 593 571 0
481 479 462 0
552 553 573 0
536 554 545 0
524 536 515 0
524 544 536 0
558 575 554 0
579 558 559 0
580 579 559 0
590 575 579 0
575 574 554 0
459 441 442 0
468 475 457 0
459 468 457 0
477 487 468 0
505 487 495 0
505 493 487 0
493 492 475 0
498 480 484 0
543 540 521 0
537 517 539 0
544 558 536 0
559 544 538 0
559 558 544 0
515 505 495 0
538 544 524 0
478 459 460 0
486 495 477 0
516 504 496 0
516 524 504 0
487 493 475 0
536 558 554 0
479 460 462 0
496 478 479 0
517 496 497 0
504 495 486 0
468 487 475 0
478 477 459 0
495 487 477 0
459 442 460 0
486 477 478 0
496 486 478 0
496 504 486 0
457 441 459 0
477 468 459 0
475 474 457 0
433 423 420 0
438 433 420 0
438 440 433 0
424 408 425 0
441 424 425 0
442 425 443 0
406 407 424 0
460 443 444 0
407 415 426 0
424 407 408 0
396 415 407 0
444 449 461 0
415 414 432 0
408 407 426 0
397 414 415 0
413 395 412 0
431 413 430 0
394 378 395 0
397 394 413 0
397 380 394 0
449 465 466 0
481 480 498 0
499 481 498 0
479 478 460 0
497 479 481 0
497 496 479 0
538 560 559 0
539 561 560 0
499 519 517 0
519 541 539 0
515 495 504 0
462 480 481 0
560 581 569 0
499 497 481 0
518 499 498 0
518 519 499 0
524 516 538 0
524 515 504 0
581 602 588 0
517 516 496 0
560 537 539 0
538 516 537 0
561 582 581 0
543 564 565 0
585 584 604 0
603 585 604 0
603 583 585 0
561 581 560 0
561 563 582 0
538 537 560 0
517 497 499 0
519 539 517 0
540 519 518 0
541 563 561 0
540 541 519 0
540 562 541 0
537 516 517 0
562 583 563 0
565 562 543 0
582 602 581 0
583 582 563 0
583 602 582 0
564 584 565 0
585 565 584 0
622 603 604 0
583 565 585 0
602 583 603 0
560 569 559 0
622 621 603 0
622 604 623 0
603 621 602 0
640 622 623 0
640 639 622 0
641 640 623 0
657 641 658 0
639 640 656 0
639 621 622 0
657 640 641 0
657 658 673 0
656 657 672 0
656 640 657 0
673 674 690 0
657 673 672 0
658 674 673 0
673 689 672 0
690 706 689 0
673 690 689 0
674 691 690 0
690 691 707 0
707 720 706 0
690 707 706 0
691 708 707 0
722 707 708 0
735 734 737 0
735 731 734 0
736 735 737 0
736 733 735 0
733 731 735 0
732 733 736 0
721 731 733 0
732 722 733 0
722 721 733 0
720 722 732 0
708 721 722 0
722 720 707 0

SubDomainFromMesh
1
3 1 1 0

SubDomainFromGeom
1
2 1 1 0

VertexOnGeometricVertex
145
 1 1
 2 2
 3 3
 4 4
 7 5
 8 6
 9 7
 10 8
 11 9
 12 10
 13 11
 15 12
 16 13
 17 14
 20 15
 30 16
 31 17
 37 18
 48 19
 54 20
 64 21
 70 22
 82 23
 89 24
 100 25
 106 26
 117 27
 123 28
 134 29
 140 30
 153 31
 158 32
 170 33
 176 34
 187 35
 194 36
 204 37
 207 38
 221 39
 225 40
 238 41
 243 42
 257 43
 261 44
 274 45
 279 46
 291 47
 296 48
 310 49
 315 50
 323 51
 332 52
 340 53
 349 54
 357 55
 366 56
 374 57
 383 58
 390 59
 400 60
 409 61
 418 62
 427 63
 437 64
 445 65
 454 66
 463 67
 472 68
 482 69
 490 70
 500 71
 509 72
 520 73
 529 74
 542 75
 546 76
 549 77
 555 78
 564 79
 568 80
 570 81
 576 82
 584 83
 587 84
 588 85
 592 86
 597 87
 602 88
 604 89
 605 90
 606 91
 608 92
 610 93
 615 94
 619 95
 621 96
 623 97
 625 98
 627 99
 632 100
 636 101
 639 102
 641 103
 642 104
 644 105
 650 106
 654 107
 656 108
 658 109
 659 110
 660 111
 667 112
 671 113
 672 114
 674 115
 675 116
 676 117
 682 118
 688 119
 689 120
 691 121
 692 122
 693 123
 700 124
 705 125
 706 126
 708 127
 709 128
 710 129
 715 130
 719 131
 720 132
 721 133
 723 134
 725 135
 726 136
 727 137
 728 138
 729 139
 730 140
 731 141
 732 142
 734 143
 736 144
 737 145

VertexOnGeometricEdge
0

EdgeOnGeometricEdge
145
1 1
2 2
3 3
4 4
5 5
6 6
7 7
8 8
9 9
10 10
11 11
12 12
13 13
14 14
15 15
16 16
17 17
18 18
19 19
20 20
21 21
22 22
23 23
24 24
25 25
26 26
27 27
28 28
29 29
30 30
31 31
32 32
33 33
34 34
35 35
36 36
37 37
38 38
39 39
40 40
41 41
42 42
43 43
44 44
45 45
46 46
47 47
48 48
49 49
50 50
51 51
52 52
53 53
54 54
55 55
56 56
57 57
58 58
59 59
60 60
61 61
62 62
63 63
64 64
65 65
66 66
67 67
68 68
69 69
70 70
71 71
72 72
73 73
74 74
75 75
76 76
77 77
78 78
79 79
80 80
81 81
82 82
83 83
84 84
85 85
86 86
87 87
88 88
89 89
90 90
91 91
92 92
93 93
94 94
95 95
96 96
97 97
98 98
99 99
100 100
101 101
102 102
103 103
104 104
105 105
106 106
107 107
108 108
109 109
110 110
111 111
112 112
113 113
114 114
115 115
116 116
117 117
118 118
119 119
120 120
121 121
122 122
123 123
124 124
125 125
126 126
127 127
128 128
129 129
130 130
131 131
132 132
133 133
134 134
135 135
136 136
137 137
138 138
139 139
140 140
141 141
142 142
143 143
144 144
145 145

End
