MeshVersionFormatted 1

Dimension
2

Identifier
";2, Date: 26/03/14 10:41 42s"

Geometry
"Maillage_L0.057.mesh.gmsh"

Vertices
1213
0.057 0.019 20
0.057 0.0171 19
0.0558529945554 0.019 20
0.0558529277423 0.0180499999416 0
0.0558528609839 0.0171 18
0.0548611615245 0.019 20
0.054861027911 0.01805 0
0.0548608943815 0.0171 18
0.0538693284936 0.019 20
0.0538691280797 0.0180499999416 0
0.0538689277791 0.0171 18
0.0528774954628 0.019 20
0 0.019 22
0.0528772283068 0.0180499999416 0
0.0528769611768 0.0171 18
0.0518856624319 0.019 20
0.0518849945744 0.0171 18
0 0.018 22
0.001 0.019 21
0 0.017 22
0 0.015 22
0 0.016 22
0.000749999987707 0.0174999999954 0
0 0.014 22
0.0518853284755 0.01805 0
0.0508938294011 0.019 20
0.0508930279721 0.0171 18
0.00133333328877 0.0183333332826 0
0.002 0.019 21
0.000714285678942 0.0147142856636 0
0.000749999987707 0.0167499999785 0
0.00083333331643 0.0156666666467 0
0.00149999994622 0.0174999999954 0
0 0.013 22
0.000749999987707 0.0137499999693 0
0.00149999994622 0.0144999999862 0
0.0503975121591 0.0180499999416 0
0.0499019963702 0.019 20
0.0499010613697 0.0171 18
0 0.01 22
0 0.009 22
0 0.008 22
0 0.007 22
0 0.011 22
0 0.012 22
0.000692307665238 0.0106923076376 0
0 0.004 22
0 0.003 22
0 0.002 22
0.00224999996312 0.0182499999539 0
0.00266666666513 0.0176666666528 0
0.003 0.019 21
0.00187499995467 0.0152499999447 0
0.00199999997695 0.0169999999647 0
0.00166666666206 0.0163333332765 0
0.000699999955436 0.0126999999923 0
0.00139999999846 0.0133999999769 0
0.0020999999831 0.0140999999616 0
0.0494056123278 0.01805 0
0.0489101633394 0.019 20
0.0489090947674 0.0171 18
0.000692307665238 0.00976923071166 0
0.000692307665238 0.00830769230403 0
0.000727272721545 0.00727272724465 0
0 0.006 22
0.000699999955436 0.00629999994929 0
0 0.005 22
0.000749999987707 0.0116666666344 0
0.00138461535967 0.0105384614833 0
0 0 22
0.000666666658983 0.00333333329492 0
0.000714285678942 0.00428571427803 0
0 0.001 22
0.000749999987707 0.00224999996312 0
0.000749999987707 0.00149999994622 0
0.00333333329492 0.0183333332826 0
0.00285714280336 0.0168571428464 0
0.00357142856989 0.0175714285545 0
0.004 0.019 21
0.00279999996773 0.0147999999462 0
0.00249999994929 0.0159999999616 0
0.00145454541389 0.0124545454477 0
0.00218181816464 0.01318181814 0
0.00290909085698 0.0139090908908 0
0.0484137124965 0.0180499999416 0
0.0479183303085 0.019 20
0.047917128165 0.0171 18
0.00155769226868 0.00963461531204 0
0.00173076917769 0.00873076919921 0
0.00138461535967 0.00761538460959 0
0.00145454541389 0.00654545449391 0
0.000777777744483 0.00533333330106 0
0.00207692305411 0.0113076922549 0
0.00221538456964 0.010292307613 0
0.001 0 1
0.00166666666206 0.00266666666513 0
0.00149999994622 0.00374999999693 0
0.00155555551816 0.00466666661288 0
0.00133333328877 0.000666666658983 0
0.00149999994622 0.00149999994622 0
0.00199999997695 0.00199999997695 0
0.00428571427803 0.0182857142627 0
0.00374999999693 0.0167499999785 0
0.00449999995544 0.0174999999954 0
0.005 0.019 21
0.00363636360773 0.0146363635831 0
0.00381818179541 0.0153636363339 0
0.00445454542311 0.0160909090846 0
0.00276923074854 0.0120769230264 0
0.00311538456657 0.0127692307209 0
0.00346153844298 0.0134615384153 0
0.0474218126652 0.0180499999416 0
0.0469264972777 0.019 20
0.0469251615627 0.0171 18
0.00235384608517 0.00927692302952 0
0.00207692305411 0.00801923075008 0
0.00207692305411 0.00692307691516 0
0.0022777777199 0.00499999992778 0
0.00218181816464 0.00581818180156 0
0.00306593402113 0.0109780219325 0
0.00320439547827 0.00996263729065 0
0.002 0 1
0.00224999996312 0.00312499994391 0
0.00233333329184 0.0039999999831 0
0.00304166661519 0.00433333329799 0
0.00224999996312 0.000749999987707 0
0.00285714280336 0.00214285709522 0
0.00266666666513 0.00133333328877 0
0.00524999997234 0.0182499999539 0
0.00489999998002 0.0168999999585 0
0.00559999996466 0.0175999999431 0
0.00534265729272 0.0160069929845 0
0.006 0.019 21
0.00415384613742 0.0141538461098 0
0.00484615383185 0.0148461538042 0
0.003807692261 0.0118974358075 0
0.0043846153105 0.0130512819649 0
0.0464299128922 0.0180499999416 0
0.0459346642468 0.019 20
0.0459331949603 0.0171 18
0.00308571420427 0.00852527466889 0
0.00294230765756 0.00718910247184 0
0.00276923074854 0.00623076922072 0
0.00299999998002 0.00533333330106 0
0.00405494498816 0.0106483516102 0
0.00398241745535 0.00887252740219 0
0.00404175806315 0.00959120871307 0
0.003 0 1
0.00299999998002 0.00299999998002 0
0.00349999995236 0.00349999995236 0
0.00374999999693 0.00466666661288 0
0.00374999999693 0.00224999996312 0
0.00333333329492 0.000666666658983 0
0.00357142856989 0.00142857138708 0
0.00629999994929 0.0182999999862 0
0.00581818180156 0.016818181777 0
0.00654545449391 0.0175454545277 0
0.00553846152629 0.0151538461128 0
0.00623076922072 0.0159230768844 0
0.007 0.019 21
0.00512307680452 0.013723076866 0
0.00576346143793 0.0141692306902 0
0.00530769229481 0.0129743588877 0
0.00454945050087 0.0111978021279 0
0.00492857131025 0.0120860804786 0
0.0454380130609 0.0180499999416 0
0.044942831216 0.019 20
0.0449412283579 0.0171 18
0.00381758226498 0.00777362630826 0
0.003807692261 0.00635897431039 0
0.00377884612896 0.00551282040324 0
0.00504395601358 0.0103186812878 0
0.00471428563284 0.00812087904156 0
0.00487912076482 0.00921978019389 0
0.004 0 1
0.00462499997772 0.00505555549972 0
0.00419999999539 0.00279999996773 0
0.00449999995544 0.0039999999831 0
0.00449999995544 0.00149999994622 0
0.00428571427803 0.000714285678942 0
0.00727272724465 0.0182727272201 0
0.00692307691516 0.016692307656 0
0.00761538460959 0.0176153845819 0
0.00640384612973 0.0146153845727 0
0.00715384614664 0.0152820512025 0
0.008 0.019 21
0.0060923076468 0.0132923076222 0
0.00623076922072 0.0122307691224 0
0.00588461534431 0.0115384614863 0
0.0444461132296 0.0180499999416 0
0.0439509981851 0.019 20
0.0439492617556 0.0171 18
0.00454945050087 0.00702197800602 0
0.00465384610976 0.00590170934848 0
0.00543956037703 0.00741758236947 0
0.0060329669806 0.00998901096549 0
0.00583516474048 0.00913186808068 0
0.00563736255876 0.00827472519588 0
0.00549999995851 0.00544444438656 0
0.005 0 1
0.00539999995236 0.00439999994929 0
0.00509090905082 0.00218181816464 0
0.00553846152629 0.00346153844298 0
0.00509090905082 0.00290909085698 0
0.00544444438656 0.00133333328877 0
0.00824999998156 0.0183333332826 0
0.00796153842761 0.0163461537796 0
0.00830769230403 0.0173076922733 0
0.00726923073318 0.0140769230326 0
0.00830769230403 0.0155641025049 0
0.00807692307255 0.014641025579 0
0.009 0.019 21
0.00706153843069 0.0128615383784 0
0.00715384614664 0.0118205127303 0
0.00659340653442 0.0109047618479 0
0.0434542133983 0.0180499999416 0
0.0429591651543 0.019 20
0.0429572951532 0.0171 18
0.00588461534431 0.00661538454813 0
0.00632967031158 0.00781318679132 0
0.00702197800602 0.00965934064315 0
0.00721978018775 0.00820879115477 0
0.00667582412961 0.00873626371723 0
0.00637499999769 0.0058333332734 0
0.00629999994929 0.00479999997388 0
0.006 0 1
0.00640384612973 0.00409615381495 0
0.00581818180156 0.00218181816464 0
0.00623076922072 0.00276923074854 0
0.00654545449391 0.00145454541389 0
0.00636363630622 0.000727272721545 0
0.00899999999846 0.0179999999677 0
0.00899999999846 0.0159999999616 0
0.00899999999846 0.0169999999647 0
0.00813461533662 0.0135384614341 0
0.00978947366666 0.0149999999585 0
0.00899999999846 0.0149999999585 0
0.00899999999846 0.0139999999554 0
0.01 0.019 21
0.0100526315561 0.0179999999677 0
0.00803076921457 0.0124307691347 0
0.00749175818762 0.0104194138458 0
0.00796153842761 0.0111794871068 0
0.0424623136254 0.0180499999416 0
0.0419673321234 0.019 20
0.0419653285509 0.0171 18
0.00692307691516 0.00674358969619 0
0.00759065927848 0.00754029294112 0
0.00810989006391 0.00943956038932 0
0.00810989006391 0.00860439557662 0
0.00719999994622 0.00579999997695 0
0.00726923073318 0.00473076918691 0
0.00731056002664 0.0038429486446 0
0.007 0 1
0.00715384614664 0.0028461538257 0
0.00692307691516 0.00207692305411 0
0.00749999996466 0.00133333328877 0
0.0103947368064 0.0144999999278 0
0.00999999994314 0.0169999999647 0
0.0104210525545 0.0154999999308 0
0.00984210522118 0.0159999999616 0
0.00899999999846 0.0129999999524 0
0.00973684205374 0.0139999999554 0
0.0109999999462 0.0139999999554 0
0.0109999999462 0.0179999999677 0
0.012 0.019 21
0.011 0.019 21
0.0109999999462 0.0169999999647 0
0.00899999999846 0.0119999999493 0
0.00855494497279 0.0102197801386 0
0.00899999999846 0.0109999999462 0
0.0409754990926 0.019 20
0.0414704137941 0.0180499999416 0
0.0409733619485 0.0171 18
0.00796153842761 0.00687179484425 0
0.00855494497279 0.00780219775527 0
0.00899999999846 0.00899999999846 0
0.00809999994314 0.00559999996466 0
0.00813461533662 0.00461538460037 0
0.00821727392354 0.00358974353265 0
0.008 0 1
0.00824999998156 0.000666666658983 0
0.00796153842761 0.00253846151707 0
0.00830263153608 0.00166666660366 0
0.0109999999462 0.0149999999585 0
0.0109999999462 0.0159999999616 0
0.0117368420599 0.0139999999554 0
0.00999999994314 0.0129999999524 0
0.0110131578494 0.0132499999385 0
0.010368421 0.0119999999493 0
0.013 0.019 21
0.0129999999524 0.0179999999677 0
0.0119999999493 0.0179999999677 0
0.0119999999493 0.0169999999647 0
0.00999999994314 0.0109999999462 0
0.00952631577726 0.00999999994314 0
0.0399836660617 0.019 20
0.0404785139628 0.0180499999416 0
0.0399813953462 0.0171 18
0.0389918330309 0.019 20
0.00899999999846 0.00599999998924 0
0.00899999999846 0.00699999999232 0
0.00942105260982 0.00799999999539 0
0.00999999994314 0.00899999999846 0
0.00899999999846 0.00499999998617 0
0.00921052627495 0.0039999999831 0
0.00899999999846 0.00299999998002 0
0.009 0 1
0.00905263155299 0.000999999973876 0
0.00910526310751 0.00199999997695 0
0.0123684209477 0.0134999999247 0
0.0123947368126 0.0144999999278 0
0.0117894736728 0.0149999999585 0
0.0119999999493 0.0159999999616 0
0.0116842105054 0.0129999999524 0
0.0110263157527 0.0124999999216 0
0.0109999999462 0.0109999999462 0
0.014 0.019 21
0.0139473684009 0.0179999999677 0
0.0129999999524 0.0169999999647 0
0.0129999999524 0.0159999999616 0
0.0109999999462 0.00999999994314 0
0.0109999999462 0.00899999999846 0
0.0389906442159 0.0180500003504 0
0.0389894555014 0.0171000007979 18
0.038 0.019 21
0.00984210522118 0.00599999998924 0
0.00999999994314 0.00699999999232 0
0.0105789473349 0.00799999999539 0
0.00999999994314 0.00499999998617 0
0.00999999994314 0.0039999999831 0
0.00999999994314 0.00299999998002 0
0.01 0 1
0.00999999994314 0.000999999973876 0
0.00999999994314 0.00199999997695 0
0.015 0.019 21
0.0129999999524 0.0129999999524 0
0.0129999999524 0.0139999999554 0
0.0129999999524 0.0149999999585 0
0.0119999999493 0.0109999999462 0
0.0119999999493 0.0119999999493 0
0.0129999999524 0.0119999999493 0
0.0149999999585 0.0179999999677 0
0.0141052631229 0.0169999999647 0
0.0138421052335 0.0159999999616 0
0.011421052616 0.00799999999539 0
0.0119999999493 0.00999999994314 0
0.0119999999493 0.00899999999846 0
0.038 0.0171 18
0.037 0.019 21
0.0379999999708 0.0180499999416 0
0.0106842105023 0.00599999998924 0
0.0113684210031 0.00699999999232 0
0.0109999999462 0.00499999998617 0
0.0109999999462 0.0039999999831 0
0.0111578947266 0.00299999998002 0
0.011 0 1
0.0111052631137 0.00199999997695 0
0.0109473683917 0.000999999973876 0
0.016 0.019 21
0.0159999999616 0.0179999999677 0
0.018 0.019 21
0.017 0.019 21
0.0139999999554 0.0129999999524 0
0.0139999999554 0.0139999999554 0
0.0139999999554 0.0149999999585 0
0.0129999999524 0.0109999999462 0
0.0139999999554 0.0119999999493 0
0.0149999999585 0.0169999999647 0
0.0149999999585 0.0149999999585 0
0.0149999999585 0.0159999999616 0
0.019 0.019 21
0.02 0.019 21
0.0122105262842 0.00799999999539 0
0.0121842104777 0.00699999999232 0
0.0137105262596 0.0104999999155 0
0.0129999999524 0.00799999999539 0
0.0129999999524 0.00999999994314 0
0.0129999999524 0.00899999999846 0
0.0370384078644 0.0170863784291 17
0.036 0.019 21
0.0365464827863 0.0180067992396 0
0.0119999999493 0.00599999998924 0
0.0119999999493 0.00499999998617 0
0.0119999999493 0.0039999999831 0
0.0119999999493 0.00299999998002 0
0.012 0 1
0.0119999999493 0.00199999997695 0
0.0119999999493 0.000999999973876 0
0.0169473684101 0.0179999999677 0
0.0159999999616 0.0169999999647 0
0.0179999999677 0.0179999999677 0
0.0148421052365 0.0129999999524 0
0.0149999999585 0.0139999999554 0
0.0149999999585 0.0119999999493 0
0.0144736841797 0.00999999994314 0
0.0144210526252 0.0109999999462 0
0.0158421052396 0.0159999999616 0
0.0157894736267 0.0149999999585 0
0.0190526315253 0.0179999999677 0
0.0200526315284 0.0179999999677 0
0.021 0.019 21
0.0129999999524 0.00699999999232 0
0.0129999999524 0.00599999998924 0
0.0139999999554 0.00799999999539 0
0.0139999999554 0.00899999999846 0
0.0361078195964 0.0170461287851 17
0.035 0.019 21
0.0355797913791 0.0179977896993 0
0.034 0.019 21
0.0129999999524 0.00499999998617 0
0.0127894736759 0.0039999999831 0
0.0139999999554 0.00499999998617 0
0.0134210525637 0.00349999995236 0
0.0128421052304 0.00299999998002 0
0.013 0 1
0.0129999999524 0.00199999997695 0
0.0129999999524 0.000999999973876 0
0.022 0.019 21
0.024 0.019 21
0.023 0.019 21
0.0171052631321 0.0169999999647 0
0.0179999999677 0.0169999999647 0
0.0168421052427 0.0159999999616 0
0.0188947368034 0.0169999999647 0
0.0149999999585 0.00899999999846 0
0.0159999999616 0.0139999999554 0
0.0158157894332 0.0119999999493 0
0.0156842105177 0.0129999999524 0
0.0155789473502 0.0109999999462 0
0.0155263157373 0.00999999994314 0
0.017421052576 0.0154999999308 0
0.0167894736298 0.0149999999585 0
0.0209999999769 0.0179999999677 0
0.0201052631413 0.0169999999647 0
0.0219473683671 0.0179999999677 0
0.0139999999554 0.00599999998924 0
0.0139999999554 0.00699999999232 0
0.0149999999585 0.00799999999539 0
0.025 0.019 21
0.027 0.019 21
0.026 0.019 21
0.03515 0.0169727241336 17
0.0348061033992 0.0179656972737 0
0.0340324154776 0.0179336049066 0
0.033 0.019 21
0.0147368420691 0.00499999998617 0
0.0139999999554 0.0039999999831 0
0.0139999999554 0.00299999998002 0
0.014 0 1
0.0139999999554 0.00199999997695 0
0.0139999999554 0.000999999973876 0
0.0229999999831 0.0179999999677 0
0.0249999999892 0.0179999999677 0
0.0239999999862 0.0179999999677 0
0.0179999999677 0.0159999999616 0
0.0191578946928 0.0159999999616 0
0.0159999999616 0.00899999999846 0
0.0169999999647 0.0139999999554 0
0.0165789473533 0.0109999999462 0
0.0166315789078 0.0119999999493 0
0.0166842105207 0.0129999999524 0
0.0165263157404 0.00999999994314 0
0.0179999999677 0.0149999999585 0
0.0179999999677 0.0139999999554 0
0.0209999999769 0.0169999999647 0
0.0201578946958 0.0159999999616 0
0.0221052631475 0.0169999999647 0
0.0149999999585 0.00599999998924 0
0.0153684210153 0.00699999999232 0
0.0159999999616 0.00799999999539 0
0.028 0.019 21
0.029 0.019 21
0.032 0.019 21
0.03 0.019 21
0.031 0.019 21
0.0258998405124 0.0181154212257 0
0.0268973496058 0.0182592538728 0
0.0278227587267 0.017897963999 0
0.034065738272 0.0168373622271 16
0.0330325388609 0.0177859603623 0
0.032103326894 0.0180183939959 0
0.0154999999308 0.00499999998617 0
0.0152105262934 0.0039999999831 0
0.0149999999585 0.00299999998002 0
0.015 0 1
0.0151052631259 0.00199999997695 0
0.0150526315714 0.000999999973876 0
0.0257996810324 0.0172308425389 0
0.0229999999831 0.0169999999647 0
0.0248947368218 0.0169999999647 0
0.0239999999862 0.0169999999647 0
0.0189999999708 0.0149999999585 0
0.0202105263088 0.0149999999585 0
0.0167631578233 0.00899999999846 0
0.0179999999677 0.0129999999524 0
0.017421052576 0.0109999999462 0
0.0173684210215 0.0119999999493 0
0.0174736841889 0.00999999994314 0
0.0189999999708 0.0139999999554 0
0.0209999999769 0.0149999999585 0
0.0209999999769 0.0159999999616 0
0.0229999999831 0.0159999999616 0
0.022157894702 0.0159999999616 0
0.0163157894639 0.00599999998924 0
0.0163684210184 0.00699999999232 0
0.0170789473256 0.00724999997849 0
0.0169999999647 0.00799999999539 0
0.0287455993907 0.017537676924 0
0.0288711350021 0.0182592698728 0
0.0298360554384 0.018155909413 0
0.0313505609904 0.0181388239344 0
0.0305977950869 0.0182592538728 0
0.0313934189785 0.0173282613 0
0.0265484355653 0.0173027588041 0
0.027414959843 0.0170858709766 0
0.0283078897954 0.0167999907845 0
0.0330636551984 0.016625 16
0.032203309382 0.0170685607981 0
0.016263157851 0.00499999998617 0
0.0169999999647 0.00499999998617 0
0.0162105262965 0.0039999999831 0
0.0159999999616 0.00299999998002 0
0.016105263129 0.00199999997695 0
0.016 0 1
0.0160526315745 0.000999999973876 0
0.0261995215832 0.0163462637938 0
0.0238421052058 0.0159999999616 0
0.0248421052089 0.0159999999616 0
0.0199999999739 0.0139999999554 0
0.0209999999769 0.0139999999554 0
0.0175263157435 0.00899999999846 0
0.0189999999708 0.0129999999524 0
0.018631578914 0.0119999999493 0
0.0182105262442 0.0109999999462 0
0.0185263157465 0.00999999994314 0
0.0199999999739 0.0129999999524 0
0.02199999998 0.0149999999585 0
0.0237894736513 0.0149999999585 0
0.0229999999831 0.0149999999585 0
0.02199999998 0.0139999999554 0
0.0174473683825 0.00574999994468 0
0.0171578946866 0.00649999996158 0
0.0179999999677 0.00699999999232 0
0.0179999999677 0.00799999999539 0
0.0290063872459 0.0166492034792 0
0.0296769293637 0.0173366271641 0
0.0314350293219 0.0165412962348 0
0.0306309854934 0.0172562072251 0
0.0273147745529 0.0161536823209 0
0.0283358451865 0.0159617798527 0
0.0323 0.01615 15
0.0169999999647 0.0039999999831 0
0.0177368420783 0.00499999998617 0
0.017578947298 0.00349999995236 0
0.0169999999647 0.00299999998002 0
0.0169999999647 0.00199999997695 0
0.0169999999647 0.000999999973876 0
0.017 0 1
0.0257207336714 0.0157308424467 0
0.026599362134 0.0154616850486 0
0.0247894736544 0.0149999999585 0
0.0209999999769 0.0129999999524 0
0.0189999999708 0.00799999999539 0
0.0189999999708 0.00899999999846 0
0.0209999999769 0.0119999999493 0
0.0193684210276 0.0119999999493 0
0.0189999999708 0.0109999999462 0
0.0194736841951 0.00999999994314 0
0.0201842105023 0.0119999999493 0
0.0229999999831 0.0139999999554 0
0.0237368420968 0.0139999999554 0
0.0223157894239 0.0129999999524 0
0.019631578917 0.00699999999232 0
0.01831578947 0.00599999998924 0
0.0188157894424 0.00699999999232 0
0.0317233528326 0.0158197530376 0
0.0290867788054 0.0156962326006 0
0.0298213790011 0.0163175971063 0
0.0306363708732 0.0159859907917 0
0.0282303633338 0.0150962454104 0
0.0274324706046 0.0153246186808 0
0.0330636551984 0.015675 15
0.0322999999708 0.0152633333217 0
0.0189999999708 0.00499999998617 0
0.0182105263026 0.0039999999831 0
0.0189999999708 0.0039999999831 0
0.0181578946897 0.00299999998002 0
0.0179999999677 0.00199999997695 0
0.0179999999677 0.000999999973876 0
0.018 0 1
0.024368421043 0.0134999999247 0
0.0269947610676 0.0145869325997 0
0.0259973804992 0.0142934662776 0
0.0249999999892 0.0139999999554 0
0.02199999998 0.0119999999493 0
0.0199999999739 0.00899999999846 0
0.0199999999739 0.00799999999539 0
0.0204736841982 0.00999999994314 0
0.0215789473103 0.0109999999462 0
0.0204210525852 0.0109999999462 0
0.0236842104839 0.0129999999524 0
0.0229999999831 0.0119999999493 0
0.0209999999769 0.00799999999539 0
0.0206315789201 0.00699999999232 0
0.0196842104716 0.00599999998924 0
0.0273844070317 0.0137249076323 0
0.0315288900827 0.0150341971347 0
0.029028256063 0.0148678721401 0
0.0298377124828 0.015430685407 0
0.0305026128715 0.0150533033351 0
0.0282063315473 0.0142963898862 0
0.034065738272 0.0154626377729 14
0.0330636551736 0.0147928570845 0
0.0322999999708 0.0143766666433 0
0.03515 0.0153272758664 14
0.0197368420845 0.00499999998617 0
0.0189999999708 0.00299999998002 0
0.019789473639 0.0039999999831 0
0.0203684210307 0.00549999995851 0
0.0189999999708 0.000999999973876 0
0.0189999999708 0.00199999997695 0
0.019 0 1
0.0249999999892 0.0129999999524 0
0.0265896046842 0.0134832717001 0
0.0259246843247 0.0129542942094 0
0.0224210525914 0.0109999999462 0
0.02199999998 0.00999999994314 0
0.0209999999769 0.00899999999846 0
0.0212368420599 0.00999999994314 0
0.0239999999862 0.0119999999493 0
0.0232105262596 0.0109999999462 0
0.0217894736451 0.00799999999539 0
0.0213684210338 0.00699999999232 0
0.0209999999769 0.00599999998924 0
0.0277740529957 0.0128628827234 0
0.0313344273912 0.0142486412317 0
0.0293870352316 0.0139904363151 0
0.0303688548699 0.0141206158786 0
0.0286946887052 0.0129904464142 0
0.0322999999708 0.013489999965 0
0.0339774899178 0.0143937384578 0
0.0330636551736 0.0139107142419 0
0.0350514307034 0.0142554654962 0
0.0361078195964 0.0152538712149 13
0.036031314116 0.0143288316826 0
0.0205263157527 0.00449999995544 0
0.0198421052519 0.00299999998002 0
0.0203947367788 0.00349999995236 0
0.0212631578663 0.00499999998617 0
0.0199999999739 0.000999999973876 0
0.0199999999739 0.00199999997695 0
0.02 0 1
0.0257613622378 0.0122387172364 0
0.0249999999892 0.0119999999493 0
0.0265227244863 0.0124774345818 0
0.0229999999831 0.00999999994314 0
0.02199999998 0.00899999999846 0
0.0225789473133 0.00799999999539 0
0.0239999999862 0.0109999999462 0
0.0237631578448 0.00999999994314 0
0.0249999999892 0.0109999999462 0
0.0226315789263 0.00699999999232 0
0.02199999998 0.00599999998924 0
0.02199999998 0.00499999998617 0
0.0271207646479 0.0120005749543 0
0.0281636989014 0.0120008577561 0
0.0309270610897 0.0136586487458 0
0.0314852674262 0.0131966816714 0
0.029400572345 0.0131768313572 0
0.0301064560432 0.0133632163002 0
0.0290038780589 0.012123234548 0
0.0322999999708 0.0126033332866 0
0.0329000147813 0.012926785707 0
0.0338892416307 0.0133248392285 0
0.0359548086721 0.0134037921953 0
0.0349528614652 0.0131836551546 0
0.0370384078644 0.0152136215709 13
0.0370384078131 0.0142613512536 0
0.0368833098098 0.0133023727496 0
0.0212105263118 0.0039999999831 0
0.0209999999769 0.00299999998002 0
0.02199999998 0.0039999999831 0
0.020947368364 0.000999999973876 0
0.0209999999769 0.00199999997695 0
0.021 0 1
0.0260545662544 0.0113336192162 0
0.0267987143824 0.0110702775611 0
0.0234736842074 0.00899999999846 0
0.0234210525945 0.00799999999539 0
0.024526315765 0.00999999994314 0
0.0242368420691 0.00899999999846 0
0.0254988755282 0.0101640089763 0
0.0233684210399 0.00699999999232 0
0.0229999999831 0.00599999998924 0
0.0227368420937 0.00499999998617 0
0.027676029624 0.0106107583601 0
0.0285533448655 0.0111388328471 0
0.03067053494 0.0129033634363 0
0.0314852674262 0.0124846628739 0
0.0298440572748 0.0126058167803 0
0.0295032765738 0.0112853375419 0
0.0322999999708 0.0117166666667 0
0.0330636551736 0.0121464285568 0
0.0340657382632 0.0122102898472 0
0.0361078195598 0.0123769355996 0
0.0348542922271 0.0121118448713 0
0.0368057607498 0.0123467483343 0
0.038 0.0152 13
0.0379999999708 0.0141636363185 0
0.0379999999708 0.0131272727246 0
0.0229999999831 0.0039999999831 0
0.02199999998 0.00299999998002 0
0.02199999998 0.000999999973876 0
0.02199999998 0.00199999997695 0
0.022 0 1
0.0267987143824 0.0100826839314 0
0.0279650305626 0.00997477575273 0
0.0242236841075 0.00824999998156 0
0.0242105262627 0.00749999996466 0
0.0249999999892 0.00899999999846 0
0.0259977511255 0.00932801806468 0
0.0241052630952 0.00674999994775 0
0.0239999999862 0.00599999998924 0
0.0239999999862 0.00499999998617 0
0.0289353249919 0.0102937672276 0
0.0314692801621 0.0113653605774 0
0.0304524772486 0.0118811697124 0
0.0297872088613 0.0106540234122 0
0.0322999999708 0.0108299999883 0
0.0329883666008 0.0114802187427 0
0.0337163064438 0.0112301778808 0
0.0347557229889 0.0110400345296 0
0.0361078195598 0.0114179570372 0
0.0361078195598 0.0104589785332 0
0.0370384078131 0.0114045405073 0
0.0379999999708 0.0120909090723 0
0.0389971330638 0.0151999999406 12
0.0388158361022 0.0131272726662 0
0.0389064845548 0.0141636362601 0
0.0387251876496 0.0120909090139 0
0.0231578947051 0.00299999998002 0
0.0242105262627 0.0039999999831 0
0.0239999999862 0.00299999998002 0
0.0231052631505 0.00199999997695 0
0.0229999999831 0.000999999973876 0
0.023 0 1
0.0271899803108 0.00923057968326 0
0.0284648578641 0.00916783108918 0
0.0249999999892 0.00799999999539 0
0.0249999999892 0.00699999999232 0
0.0259548240574 0.00812505782766 0
0.0267527966111 0.00859078044895 0
0.0249999999892 0.00599999998924 0
0.0249999999892 0.00499999998617 0
0.0293147762525 0.0094542962716 0
0.0314692801621 0.0106976070031 0
0.0306385603534 0.0105652140763 0
0.0303211123468 0.00961915347648 0
0.0322999999708 0.00994333330998 0
0.0330636551736 0.0103821428133 0
0.0340657382632 0.0100420579344 0
0.0351499999416 0.0100297523489 0
0.0370384078131 0.010452270239 0
0.0361078195598 0.0094999999708 0
0.0379999999708 0.01105454542 0
0.0399967894348 0.0152 12
0.0399059115382 0.0141636363185 0
0.0398150337143 0.0131272727246 0
0.0396332789425 0.011572727217 0
0.0389971330073 0.01105454542 0
0.0249999999892 0.0039999999831 0
0.0239999999862 0.00199999997695 0
0.0249999999892 0.00299999998002 0
0.0239999999862 0.000999999973876 0
0.024 0 1
0.0257875068332 0.00446008583876 0
0.0278474416638 0.00797952661796 0
0.0287708345592 0.00829717596681 0
0.0258612342444 0.00630135842557 0
0.0260334810838 0.00715793547324 0
0.0270669622367 0.00731587101255 0
0.0259912458086 0.00519026059242 0
0.0296942275131 0.00861482531565 0
0.0314314091321 0.00950049731187 0
0.0322999999708 0.00905666663163 0
0.0305628182934 0.00876210571538 0
0.0330636551736 0.0094999999708 0
0.0337850007073 0.00920875261785 0
0.0345585844541 0.00889641384617 0
0.0355616497295 0.00865004590377 0
0.0377911492496 0.0102352259742 0
0.0404511822772 0.0136454545216 0
0.040269424936 0.0120909090723 0
0.0375192038919 0.0095068107463 0
0.0370384078131 0.00854772970257 0
0.0385438907445 0.0100181817678 0
0.0364180156831 0.00756862637449 0
0.0409964530815 0.0152 12
0.0409964530746 0.0141636363185 0
0.0409964530746 0.0131272727246 0
0.0399967894205 0.0100181817678 0
0.0403603034606 0.01105454542 0
0.0257591869473 0.00348564403936 0
0.0249999999892 0.00199999997695 0
0.0259489836722 0.00261041468723 0
0.025 0 1
0.0249999999892 0.000999999973876 0
0.0267787526526 0.00465034644501 0
0.0265750137356 0.00392017169136 0
0.0292431301759 0.0074847332816 0
0.0284125816366 0.0071941122035 0
0.0269824916279 0.00538052119867 0
0.0277788463779 0.00647691439029 0
0.0268539542184 0.00631818148193 0
0.0300736787737 0.00777535441809 0
0.0315578928856 0.00862956254099 0
0.0326272807553 0.00834642855683 0
0.0309066971425 0.00766035528985 0
0.0334645050634 0.0081802568463 0
0.0344600152159 0.00782460350448 0
0.0354806203331 0.00767030689942 0
0.0377458250525 0.00876477390902 0
0.0412690885901 0.0120909090723 0
0.0363404666231 0.00661300195918 0
0.0371996240399 0.00775480518695 0
0.038453242292 0.00898181811546 0
0.0379999999708 0.00794545452157 0
0.039451522302 0.00898181817386 0
0.0370384078131 0.00664318916611 0
0.0405420605099 0.00898181817386 0
0.0419961166703 0.0141636363185 0
0.0419961167282 0.0152 12
0.0419961166703 0.0131272727246 0
0.0413599671147 0.01105454542 0
0.0414508456393 0.0100181817678 0
0.0266551147854 0.00299577307733 0
0.0259486747683 0.00137037302285 0
0.026607820786 0.00191724136124 0
0.026 0 1
0.0276662152985 0.00447571164446 0
0.0273612460154 0.00338113146744 0
0.0295617021488 0.00678289377152 0
0.0286702742634 0.00630296233152 0
0.02797118464 0.00557029182149 0
0.0304531300343 0.00693588346214 0
0.0317397155696 0.00754535616161 0
0.0325727339968 0.00743035709176 0
0.0314856586071 0.00672508454442 0
0.0330636551736 0.00685357138478 0
0.0340657382632 0.00678971009444 0
0.0351499999416 0.00685123819709 0
0.0419961166703 0.0120909090723 0
0.0419506774371 0.0105363635647 0
0.0415417241055 0.00898181817386 0
0.0353165825702 0.00568690075347 0
0.0370384078131 0.00569091889788 0
0.0361078195598 0.00566408583803 0
0.0379999999708 0.00690909086928 0
0.0393606444197 0.00794545457996 0
0.0389971330073 0.00690909092767 0
0.0399513524648 0.00846363637691 0
0.0378397346306 0.00570227020984 0
0.0409964530746 0.00794545452157 0
0.0429957803749 0.0152 12
0.0429957803243 0.0141636363185 0
0.0429957803243 0.0131272727246 0
0.0427231448089 0.0120909090723 0
0.0425413877596 0.0100181817678 0
0.0426322662842 0.01105454542 0
0.0424505092934 0.00898181817386 0
0.0272669668038 0.00246410969963 0
0.0272367212613 0.0013806065583 0
0.0268973496058 0.00074074606876 0
0.027 0 1
0.0286865454971 0.00489204877116 0
0.02807245886 0.00376263568328 0
0.0281230960284 0.00285880767257 0
0.0298723775695 0.00593520848368 0
0.0292794615333 0.00541362862742 0
0.0308229740927 0.00611766684397 0
0.0325181871799 0.00651428568509 0
0.031892829289 0.00611754223133 0
0.0333007959415 0.00619734576405 0
0.0340657382632 0.00570559410886 0
0.0419961166703 0.00794545452157 0
0.0351499999416 0.00473222880148 0
0.0361078195598 0.00470510727563 0
0.0370384078131 0.00473864868804 0
0.0389971330073 0.00587272727538 0
0.0399967894205 0.00690909086928 0
0.0379999999708 0.00483636362309 0
0.0409964530746 0.00690909086928 0
0.0419961166703 0.00690909086928 0
0.0439954439784 0.0141636363185 0
0.0439954440216 0.0152 12
0.0439954439784 0.0131272727246 0
0.0439954439784 0.0120909090723 0
0.0433592944228 0.01105454542 0
0.0435410514137 0.00898181817386 0
0.043450172889 0.0100181817678 0
0.0429957803243 0.00794545452157 0
0.0280062830681 0.00216059897999 0
0.0288849460414 0.0023364838777 0
0.0278656217366 0.00084397175535 0
0.028 0 1
0.0294019063542 0.00421380577922 0
0.0291201816491 0.00319718517153 0
0.0301038891046 0.00432145416333 0
0.0299540074307 0.00513532656542 0
0.031192230533 0.00530075013298 0
0.0322999999708 0.00550999997664 0
0.0332217490189 0.0052398971809 0
0.0340657382632 0.00462147818168 0
0.0429957803243 0.00690909086928 0
0.038 0.0038 10
0.03515 0.0036727241336 9
0.0361078195964 0.00374612878513 9
0.0370384078644 0.00378637842914 9
0.0439500047453 0.0105363635647 0
0.0389971330073 0.00483636368149 0
0.0409964530746 0.00587272721699 0
0.0399967894205 0.00587272721699 0
0.0389971330638 0.00380000005944 10
0.0418143596794 0.00587272721699 0
0.0429957803243 0.00587272721699 0
0.0449951076683 0.0152 12
0.0449951076325 0.0141636363185 0
0.0449951076325 0.0131272727246 0
0.044722472117 0.0120909090723 0
0.0446315935924 0.01105454542 0
0.0439954439784 0.00794545452157 0
0.0449951076325 0.00898181817386 0
0.0445407150677 0.0100181817678 0
0.0439954439784 0.00690909086928 0
0.030033154674 0.00268580755157 0
0.0296467961128 0.00181416008283 0
0.0286151066607 0.00079235088289 0
0.0287455993907 0.00146232301762 0
0.029 0 1
0.0308845167938 0.00293809879859 0
0.0301172672697 0.00353556278728 0
0.0308058719134 0.00442910260584 0
0.0315614870317 0.00448383342198 0
0.0322999999708 0.0046233332983 0
0.0330636551736 0.00420714285714 0
0.034065738272 0.00353736222707 8
0.0399967894205 0.00483636362309 0
0.0453131824394 0.0105363635647 0
0.0429957803243 0.00483636362309 0
0.04090557455 0.00483636362309 0
0.0399967894348 0.0038 10
0.0420869951949 0.00483636362309 0
0.0441772010276 0.00587272721699 0
0.0439045654538 0.00483636362309 0
0.045994771315 0.0152 12
0.0458130142373 0.0131272727246 0
0.0460856498111 0.0141636363185 0
0.045722135771 0.0120909090723 0
0.0459947712865 0.01105454542 0
0.0449951076325 0.00794545452157 0
0.0457675750042 0.00898181817386 0
0.0459947712865 0.0100181817678 0
0.0452677432063 0.00690909086928 0
0.0305460317332 0.00216523154528 0
0.0301222955706 0.0012774530466 0
0.0293645915847 0.000740730068824 0
0.03 0 1
0.0314350293219 0.00245870370679 0
0.0314982581476 0.00347126856439 0
0.0322999999708 0.00373666661995 0
0.0330636551984 0.003325 8
0.0429957803749 0.0038 10
0.0464037245597 0.0126090908693 0
0.0409964530815 0.0038 10
0.0419961167282 0.0038 10
0.0439954440216 0.0038 10
0.0451768646817 0.00587272721699 0
0.0449951076325 0.00483636362309 0
0.0469944349617 0.0152 12
0.0469944349406 0.0131272727246 0
0.0469944349406 0.0141636363185 0
0.0469944349406 0.0120909090723 0
0.0468126778913 0.01105454542 0
0.0459947712865 0.00690909086928 0
0.0459947712865 0.00794545452157 0
0.0465400423759 0.00898181817386 0
0.0469944349406 0.0100181817678 0
0.0459947712865 0.00587272721699 0
0.031 0 1
0.0311801203336 0.00146232301762 0
0.0305977950869 0.00074074606876 0
0.031881007322 0.0019314391435 0
0.0323 0.00285 7
0.032 0 1
0.0449951076683 0.0038 10
0.0465400423759 0.00535454542004 0
0.0459947712865 0.00483636362309 0
0.0477214630208 0.0120909090723 0
0.0479940986084 0.0152 12
0.0479940985946 0.0131272727246 0
0.0479940985946 0.0141636363185 0
0.0476305845545 0.01105454542 0
0.0467217993667 0.00690909086928 0
0.0469944349406 0.00794545452157 0
0.0484484911594 0.0100181817678 0
0.0479940985946 0.00898181817386 0
0.0471761919314 0.00587272721699 0
0.0327191531446 0.00160577300941 0
0.032103326894 0.000981605945743 0
0.0330636551984 0.002375 7
0.033 0 1
0.0483576126347 0.011572727217 0
0.045994771315 0.0038 10
0.0479940985946 0.00794545452157 0
0.0470853134652 0.00483636362309 0
0.0469944349617 0.0038 10
0.0489937622487 0.0120909090723 0
0.0489937622487 0.0131272727246 0
0.0489937622551 0.0152 12
0.0489937622487 0.0141636363185 0
0.0489937622487 0.01105454542 0
0.0495390332797 0.0100181817678 0
0.0479940985946 0.00690909086928 0
0.0489937622487 0.00898181817386 0
0.0479940985946 0.00483636362309 0
0.0479940985946 0.00587272721699 0
0.0335255147448 0.00106639503503 0
0.034065738272 0.00216263777293 6
0.034 0 1
0.0489937622487 0.00794545452157 0
0.0496299118043 0.011572727217 0
0.0479940986084 0.0038 10
0.0502660614182 0.0120909090723 0
0.0499934258444 0.0131272727246 0
0.0499934259017 0.0152 12
0.0499934258444 0.0141636363185 0
0.0499934258444 0.00898181817386 0
0.0503569399429 0.01105454542 0
0.0504478184675 0.0100181817678 0
0.0489937622487 0.00587272721699 0
0.0492663977642 0.00690909086928 0
0.0499934258444 0.00794545452157 0
0.0489937622487 0.00483636362309 0
0.034568517436 0.00100221024235 0
0.03515 0.0020272758664 6
0.035 0 1
0.0489937622551 0.0038 10
0.0512579027388 0.0112164115129 0
0.0509930894984 0.0120909090723 0
0.0509930894984 0.0131272727246 0
0.0509930894984 0.0141636363185 0
0.0509930895484 0.0152 12
0.0509930894984 0.00898181817386 0
0.0515227159792 0.0103419139534 0
0.0499934258444 0.00483636362309 0
0.0499934258444 0.00690909086928 0
0.0499934258444 0.00587272721699 0
0.0509930894984 0.00690909086928 0
0.0509930894984 0.00794545452157 0
0.0499934259017 0.0038 10
0.0355797913791 0.00100221024235 0
0.0361078195964 0.00195387121487 5
0.036 0 1
0.0518941260459 0.00929260103939 0
0.0517439533367 0.0144226220787 0
0.0520640758434 0.0114592106521 0
0.052597613491 0.0106656461391 0
0.0517439532783 0.0124796505729 0
0.0521193852266 0.0131922031493 0
0.0519927531951 0.0152 12
0.0519316692524 0.00849589125434 0
0.0527951625934 0.00960338396333 0
0.0509022110322 0.00483636362309 0
0.0508113325076 0.00587272721699 0
0.051510798071 0.00635844380158 0
0.0517439532783 0.00721125841184 0
0.0509930895484 0.0038 10
0.0365464827863 0.000993200701981 0
0.0370384078644 0.00191362157086 5
0.037 0 1
0.0528327057999 0.00880667411988 0
0.0524948171165 0.0139047557258 0
0.0536961991993 0.00991416682886 0
0.0536725110027 0.0109893783247 0
0.0528702490065 0.0117020097914 0
0.0529953929698 0.0124366439723 0
0.0532456809548 0.0132571336324 0
0.0529924168418 0.0152 12
0.0518051425794 0.00468825157707 0
0.0528702490065 0.00800996433483 0
0.0537525139507 0.0087191020929 0
0.0526825330323 0.00724351334767 0
0.052028506702 0.00580779673388 0
0.0524948171165 0.0064770623605 0
0.0519927531951 0.0038 10
0.0375192038919 0.000956810775499 0
0.038 0.0019 5
0.038 0 2
0.0536603473145 0.0145095114807 0
0.0545972357468 0.0092749497236 0
0.0545972357468 0.0102249497528 0
0.0547474085729 0.0113131105688 0
0.0538345278687 0.0117994449027 0
0.0539965447346 0.0126095114807 0
0.0543282778808 0.0138190229906 0
0.0539920804885 0.0152 12
0.0527080741265 0.00454013953106 0
0.0546535505566 0.00807988498763 0
0.0538088287605 0.00752403741532 0
0.0539737723883 0.00677222800425 0
0.0532456809548 0.00574286630917 0
0.0529924168418 0.0038 10
0.0384947277308 0.000949999591243 0
0.0389894555014 0.00189999920205 4
0.0389918330309 0 2
0.0547440603236 0.0144237787456 0
0.0554982723527 0.00958573264753 0
0.0554982723527 0.00863573267673 0
0.0554982723527 0.0105357326767 0
0.0554982723527 0.0113142672357 0
0.0548540370487 0.0122394416714 0
0.0549962083887 0.0131285345006 0
0.0554960401865 0.0136475575204 0
0.0549917441352 0.0152 12
0.0536603473145 0.00449048846088 0
0.0554982723527 0.00768573270592 0
0.0541387160746 0.00602041865156 0
0.0547474085729 0.00703811055421 0
0.0543282778808 0.00518097695096 0
0.0539920804885 0.0038 10
0.0394866141315 0.00095 0
0.0399813953462 0.0019 4
0.0399836660617 0 2
0.0556611627334 0.0145110536643 0
0.0562480201079 0.0136498708542 0
0.056249136191 0.00975835484304 0
0.0562846789968 0.00824083739071 0
0.0562846789968 0.0107591625509 0
0.0561654588636 0.0117475575204 0
0.0561984833146 0.0127160920735 0
0.0559914077819 0.0152 12
0.0547440603236 0.00457622119601 0
0.0561654588636 0.00725244242121 0
0.055330917698 0.00656195393113 0
0.0549962083887 0.00587146544105 0
0.0554960401865 0.00535244242121 0
0.0549917441352 0.0038 10
0.0404785139628 0.00095 0
0.0409733619485 0.0019 4
0.0409754990926 0 2
0.057 0.0141711402033 11
0.057 0.013133161157 11
0.057 0.00898097697757 11
0.057 0.0100190230224 11
0.057 0.0079429309327 11
0.057 0.0110570690673 11
0.057 0.0120951151122 11
0.057 0.0152 12
0.0556611627334 0.00448894627731 0
0.057 0.00690488488784 11
0.0562480201079 0.00535012908746 0
0.0562480201079 0.00612866364641 0
0.0559914077819 0.0038 10
0.0414704137941 0.00095 0
0.0419653285509 0.0019 4
0.0419673321234 0 2
0.057 0.00482885979668 11
0.057 0.00586683884298 11
0.057 0.0038 11
0.0429572951532 0.0019 4
0.0424623136254 0.00095 0
0.0429591651543 0 2
0.0439492617556 0.0019 4
0.0434542133983 0.00095 0
0.0439509981851 0 2
0.0449412283579 0.0019 4
0.0444461132296 0.00095 0
0.044942831216 0 2
0.0459346642468 0 2
0.0459331949603 0.0019 4
0.0459339295461 0.00095 0
0.0469264972777 0 2
0.0469251615627 0.0019 4
0.0474218126652 0.00095 0
0.0479183303085 0 2
0.047917128165 0.0019 4
0.0484137124965 0.00095 0
0.0489101633394 0 2
0.0489090947674 0.0019 4
0.0494056123278 0.00095 0
0.0499019963702 0 2
0.0499010613697 0.0019 4
0.0503975121591 0.00095 0
0.0508938294011 0 2
0.0508930279721 0.0019 4
0.051389411932 0.00095 0
0.0518856624319 0 2
0.0518849945744 0.0019 4
0.0528772283068 0.00095 0
0.0528774954628 0 2
0.0528769611768 0.0019 4
0.0538689277791 0.0019 4
0.0538693284936 0 2
0.0538691280797 0.00095 0
0.0548608943815 0.0019 4
0.0553570111988 0.00095 0
0.0548611615245 0 2
0.0558528609839 0.0019 4
0.0563735680987 0.000862323506281 0
0.0558529945554 0 2
0.057 0.0019 4
0.057 0 3

Edges
246
13 18 22
18 20 22
20 22 22
22 21 22
21 24 22
24 34 22
34 45 22
45 44 22
44 40 22
40 41 22
41 42 22
42 43 22
43 65 22
65 67 22
67 47 22
47 48 22
48 49 22
49 73 22
73 70 22
326 350 21
350 381 21
381 408 21
408 410 21
410 446 21
446 474 21
474 476 21
476 475 21
475 473 21
473 472 21
472 441 21
441 442 21
442 440 21
440 420 21
420 421 21
421 419 21
419 402 21
402 373 21
373 372 21
372 362 21
362 363 21
363 360 21
360 336 21
336 318 21
318 291 21
291 266 21
266 267 21
267 239 21
239 212 21
212 186 21
186 160 21
160 133 21
133 105 21
105 79 21
79 52 21
52 29 21
29 19 21
19 13 21
1 3 20
3 6 20
6 9 20
9 12 20
12 16 20
16 26 20
26 38 20
38 60 20
60 86 20
86 113 20
113 139 20
139 167 20
167 191 20
191 217 20
217 245 20
245 272 20
272 297 20
297 300 20
300 326 20
2 1 19
349 325 18
325 299 18
299 274 18
274 246 18
246 218 18
218 192 18
192 168 18
168 140 18
140 114 18
114 87 18
87 61 18
61 39 18
39 27 18
27 17 18
17 15 18
15 11 18
11 8 18
8 5 18
5 2 18
443 407 17
407 380 17
380 349 17
518 480 16
480 443 16
583 552 15
552 518 15
616 613 14
613 583 14
709 678 13
678 645 13
645 616 13
1159 1142 12
1142 1125 12
1125 1107 12
1107 1089 12
1089 1071 12
1071 1053 12
1053 1036 12
1036 1020 12
1020 1000 12
1000 980 12
980 956 12
956 927 12
927 896 12
896 865 12
865 833 12
833 799 12
799 767 12
767 738 12
738 709 12
1170 1168 11
1168 1169 11
1169 1161 11
1161 1156 11
1156 1154 11
1154 1155 11
1155 1157 11
1157 1158 11
1158 1153 11
1153 1152 11
1152 1159 11
916 924 10
924 952 10
952 975 10
975 976 10
976 973 10
973 977 10
977 996 10
996 1014 10
1014 1017 10
1017 1033 10
1033 1048 10
1048 1061 10
1061 1078 10
1078 1096 10
1096 1113 10
1113 1131 10
1131 1148 10
1148 1164 10
1164 1170 10
917 918 9
918 919 9
919 916 9
972 947 8
947 917 8
1011 994 7
994 972 7
1046 1029 6
1029 1011 6
1098 1080 5
1080 1063 5
1063 1046 5
1212 1209 4
1209 1206 4
1206 1203 4
1203 1202 4
1202 1199 4
1199 1196 4
1196 1193 4
1193 1190 4
1190 1187 4
1187 1184 4
1184 1181 4
1181 1177 4
1177 1174 4
1174 1171 4
1171 1166 4
1166 1150 4
1150 1133 4
1133 1115 4
1115 1098 4
1213 1212 3
1099 1116 2
1116 1134 2
1134 1151 2
1151 1167 2
1167 1173 2
1173 1176 2
1176 1179 2
1179 1180 2
1180 1183 2
1183 1186 2
1186 1189 2
1189 1192 2
1192 1195 2
1195 1198 2
1198 1201 2
1201 1204 2
1204 1208 2
1208 1211 2
1211 1213 2
70 95 1
95 122 1
122 148 1
148 175 1
175 200 1
200 226 1
226 254 1
254 281 1
281 308 1
308 333 1
333 357 1
357 387 1
387 416 1
416 450 1
450 486 1
486 525 1
525 559 1
559 591 1
591 623 1
623 653 1
653 686 1
686 716 1
716 747 1
747 776 1
776 807 1
807 840 1
840 875 1
875 906 1
906 940 1
940 968 1
968 990 1
990 995 1
995 1012 1
1012 1030 1
1030 1047 1
1047 1064 1
1064 1081 1
1081 1099 1

Triangles
2178
13 18 19 0
23 20 31 0
23 28 18 0
28 29 19 0
18 28 19 0
33 50 28 0
30 32 21 0
51 33 54 0
52 50 76 0
29 28 50 0
31 22 32 0
35 30 24 0
103 81 107 0
76 50 51 0
54 55 81 0
51 50 33 0
78 51 77 0
78 76 51 0
33 55 54 0
131 130 156 0
29 50 52 0
77 54 81 0
56 57 35 0
32 55 31 0
21 32 22 0
53 58 80 0
30 36 53 0
30 35 36 0
24 30 21 0
35 57 36 0
158 132 135 0
102 79 76 0
31 20 22 0
33 31 55 0
23 18 20 0
33 23 31 0
33 28 23 0
64 63 42 0
119 117 91 0
89 62 63 0
88 69 62 0
89 88 62 0
117 116 90 0
173 169 193 0
198 195 220 0
223 198 220 0
197 174 198 0
172 174 196 0
146 147 121 0
88 115 94 0
142 117 143 0
193 169 170 0
116 117 142 0
89 116 115 0
89 90 116 0
110 136 137 0
57 58 36 0
109 83 82 0
111 134 106 0
83 110 84 0
248 220 247 0
250 222 248 0
250 221 223 0
269 241 243 0
223 197 198 0
242 215 221 0
249 242 221 0
243 215 242 0
142 141 116 0
195 173 193 0
197 196 174 0
189 172 196 0
215 189 196 0
221 215 196 0
214 189 215 0
188 163 165 0
121 120 94 0
141 121 115 0
145 120 121 0
164 145 172 0
164 136 145 0
243 214 215 0
249 270 242 0
223 222 250 0
277 296 270 0
271 269 243 0
115 121 94 0
211 209 235 0
120 93 94 0
136 120 145 0
109 93 120 0
109 120 136 0
69 94 93 0
88 89 115 0
270 296 271 0
135 107 106 0
84 80 58 0
109 82 93 0
81 53 80 0
57 82 83 0
58 57 83 0
35 34 56 0
53 55 32 0
58 53 36 0
81 55 53 0
24 34 35 0
56 45 68 0
57 56 82 0
34 45 56 0
46 40 62 0
93 68 69 0
44 40 46 0
52 76 79 0
46 68 44 0
81 80 107 0
103 77 81 0
130 103 108 0
78 77 103 0
130 104 103 0
132 130 108 0
131 129 104 0
77 51 54 0
53 32 30 0
68 45 44 0
69 68 46 0
82 56 68 0
264 287 285 0
260 258 285 0
263 288 264 0
131 156 157 0
155 131 157 0
129 102 104 0
79 102 105 0
104 78 103 0
131 104 130 0
102 78 104 0
105 102 129 0
76 78 102 0
93 82 68 0
41 62 40 0
237 210 211 0
182 156 159 0
181 155 157 0
206 181 183 0
160 155 181 0
155 129 131 0
133 155 160 0
133 129 155 0
133 105 129 0
347 322 323 0
341 340 367 0
341 316 317 0
84 111 106 0
83 84 58 0
110 109 136 0
84 110 111 0
83 109 110 0
132 156 130 0
185 210 207 0
184 185 159 0
184 209 185 0
162 187 184 0
158 162 184 0
161 187 162 0
238 237 211 0
208 207 234 0
157 182 183 0
210 237 233 0
159 185 182 0
159 158 184 0
263 237 238 0
181 206 186 0
156 182 157 0
232 259 240 0
207 210 233 0
183 207 208 0
182 185 207 0
233 261 234 0
236 233 237 0
261 259 234 0
106 80 84 0
135 106 134 0
107 80 106 0
108 107 135 0
108 103 107 0
62 41 63 0
90 89 63 0
69 46 62 0
203 178 204 0
228 229 204 0
302 328 303 0
353 346 329 0
383 353 352 0
383 404 375 0
275 278 301 0
329 304 303 0
161 135 134 0
137 161 134 0
189 188 165 0
172 189 164 0
214 213 188 0
185 211 210 0
135 162 158 0
187 213 209 0
188 187 163 0
211 235 238 0
188 213 187 0
241 269 262 0
214 241 213 0
214 243 241 0
189 214 188 0
235 262 238 0
213 235 209 0
241 262 235 0
162 135 161 0
235 213 241 0
185 209 211 0
184 187 209 0
296 295 271 0
137 163 161 0
110 137 111 0
136 164 165 0
42 63 41 0
69 88 94 0
43 64 42 0
206 212 186 0
207 183 182 0
232 208 234 0
232 206 208 0
160 181 186 0
132 159 156 0
135 132 108 0
158 159 132 0
312 287 311 0
339 312 338 0
313 287 312 0
355 354 330 0
332 355 331 0
385 412 384 0
355 385 384 0
385 386 412 0
236 261 233 0
263 236 237 0
262 263 238 0
288 316 289 0
260 261 236 0
258 260 236 0
285 286 260 0
258 264 285 0
263 258 236 0
263 264 258 0
313 314 286 0
340 322 347 0
317 295 322 0
341 317 340 0
290 295 317 0
295 296 322 0
340 317 322 0
290 288 269 0
321 320 314 0
371 399 398 0
394 370 366 0
394 399 370 0
433 427 459 0
371 370 399 0
391 369 398 0
345 366 371 0
394 427 399 0
311 315 337 0
338 311 337 0
287 315 311 0
495 463 458 0
545 532 508 0
507 545 508 0
564 565 545 0
499 463 495 0
536 499 532 0
536 535 499 0
498 461 497 0
365 364 393 0
378 379 406 0
376 378 406 0
397 376 396 0
397 367 376 0
367 347 378 0
396 406 426 0
397 396 431 0
376 367 378 0
538 541 571 0
468 466 502 0
501 531 538 0
504 502 538 0
494 493 530 0
502 494 501 0
467 457 494 0
462 496 459 0
596 566 600 0
573 596 603 0
602 573 603 0
541 563 573 0
563 566 596 0
531 563 541 0
538 531 541 0
530 563 531 0
537 570 563 0
500 537 530 0
570 601 566 0
292 319 291 0
371 344 345 0
343 318 319 0
418 416 450 0
417 418 451 0
449 417 451 0
389 358 359 0
415 388 417 0
386 356 388 0
389 359 357 0
418 389 387 0
388 358 389 0
332 331 306 0
359 358 335 0
333 359 334 0
357 387 389 0
354 383 352 0
356 385 355 0
411 383 384 0
206 232 212 0
240 265 267 0
212 232 239 0
268 286 294 0
232 234 259 0
239 232 240 0
206 183 208 0
261 286 259 0
488 486 525 0
487 488 526 0
487 451 488 0
487 523 485 0
239 240 267 0
320 345 344 0
319 292 320 0
369 343 344 0
318 291 319 0
339 313 312 0
345 339 366 0
314 313 339 0
294 314 320 0
294 286 314 0
293 294 320 0
265 240 268 0
293 265 268 0
293 267 265 0
267 293 266 0
286 285 313 0
268 259 286 0
293 268 294 0
240 259 268 0
261 260 286 0
487 524 523 0
452 488 451 0
526 524 487 0
526 488 525 0
266 293 291 0
292 293 320 0
344 319 320 0
291 293 292 0
590 559 591 0
391 398 424 0
390 391 422 0
361 369 391 0
590 591 623 0
621 590 623 0
651 621 623 0
651 622 621 0
589 557 590 0
543 542 575 0
522 553 520 0
483 522 520 0
523 524 556 0
553 554 521 0
553 586 554 0
523 556 522 0
555 586 553 0
622 588 589 0
618 586 588 0
587 585 586 0
618 587 586 0
622 618 588 0
590 622 589 0
652 648 622 0
649 682 681 0
648 649 619 0
648 682 649 0
622 648 618 0
652 682 648 0
619 617 587 0
617 585 587 0
647 650 620 0
649 647 619 0
681 650 647 0
618 648 619 0
683 650 681 0
635 605 606 0
556 553 522 0
589 556 557 0
555 553 556 0
588 555 556 0
588 586 555 0
575 554 585 0
505 543 506 0
557 524 558 0
588 556 589 0
524 526 558 0
361 390 360 0
319 344 343 0
369 371 398 0
343 369 361 0
336 343 361 0
336 318 343 0
344 371 369 0
485 523 484 0
448 485 484 0
449 451 485 0
451 487 485 0
559 526 525 0
558 590 557 0
559 558 526 0
559 590 558 0
413 448 447 0
388 418 417 0
335 310 334 0
332 335 358 0
332 310 335 0
355 332 356 0
307 310 332 0
388 389 418 0
488 452 486 0
415 386 388 0
414 415 449 0
448 414 449 0
448 412 414 0
412 386 415 0
452 450 486 0
418 452 451 0
418 450 452 0
557 556 524 0
470 505 506 0
412 415 414 0
520 521 505 0
469 483 505 0
484 523 522 0
651 684 652 0
622 651 652 0
653 684 651 0
466 436 434 0
456 422 424 0
425 423 456 0
425 392 423 0
460 497 461 0
428 430 460 0
462 428 461 0
395 430 428 0
431 458 463 0
371 366 370 0
321 314 339 0
345 321 339 0
345 320 321 0
390 361 391 0
653 651 623 0
618 619 587 0
590 621 622 0
682 713 681 0
684 685 652 0
684 714 685 0
716 714 686 0
649 681 647 0
685 682 652 0
685 713 682 0
715 746 745 0
686 714 684 0
716 746 714 0
712 696 683 0
433 398 399 0
432 456 424 0
459 464 433 0
493 456 464 0
422 391 424 0
392 390 422 0
400 392 425 0
362 363 392 0
361 360 336 0
423 392 422 0
363 360 390 0
493 457 456 0
531 501 494 0
390 392 363 0
435 434 401 0
467 435 457 0
493 494 457 0
502 504 468 0
494 502 467 0
501 538 502 0
466 434 435 0
467 466 435 0
468 436 466 0
372 362 392 0
536 569 568 0
463 499 497 0
545 544 576 0
439 471 458 0
574 606 605 0
565 564 598 0
576 575 606 0
772 755 743 0
724 694 695 0
755 724 725 0
751 720 723 0
781 750 751 0
781 815 782 0
754 780 751 0
754 755 783 0
749 748 778 0
697 718 726 0
697 717 718 0
757 760 730 0
787 785 759 0
817 786 785 0
717 697 688 0
693 717 687 0
722 748 717 0
753 748 722 0
782 753 752 0
778 748 753 0
778 779 749 0
750 721 719 0
692 721 691 0
690 719 689 0
719 721 692 0
726 718 749 0
698 697 726 0
722 721 752 0
718 717 748 0
687 662 693 0
783 755 777 0
787 819 817 0
779 811 784 0
812 778 782 0
844 812 814 0
811 779 812 0
756 779 784 0
749 718 748 0
756 749 779 0
756 726 749 0
781 752 750 0
815 781 780 0
782 752 781 0
847 848 818 0
817 847 818 0
846 819 816 0
846 849 819 0
846 881 849 0
692 691 661 0
752 721 750 0
697 698 667 0
661 657 689 0
660 661 691 0
660 632 661 0
631 660 655 0
624 631 655 0
602 603 631 0
633 658 629 0
634 664 663 0
690 689 659 0
603 596 627 0
632 603 627 0
602 572 571 0
629 598 604 0
599 630 601 0
657 628 658 0
657 627 628 0
568 535 536 0
664 635 650 0
694 663 695 0
634 604 605 0
635 634 605 0
663 659 633 0
690 659 663 0
627 600 628 0
664 634 635 0
629 604 633 0
628 630 658 0
597 565 598 0
599 597 629 0
599 569 597 0
598 605 604 0
536 565 569 0
574 576 606 0
576 544 575 0
564 576 574 0
564 545 576 0
598 564 574 0
565 532 545 0
629 597 598 0
536 532 565 0
507 506 543 0
544 507 543 0
508 506 507 0
606 575 585 0
620 606 617 0
605 598 574 0
455 454 420 0
421 455 420 0
492 491 455 0
503 528 490 0
491 527 489 0
490 528 492 0
560 561 527 0
562 560 529 0
562 595 594 0
775 776 808 0
805 775 808 0
745 746 775 0
500 465 496 0
531 494 530 0
456 423 422 0
432 464 456 0
433 432 424 0
433 464 432 0
457 425 456 0
400 425 435 0
373 400 401 0
372 392 400 0
773 775 805 0
715 714 746 0
685 715 713 0
685 714 715 0
747 776 775 0
776 807 808 0
438 439 405 0
507 544 545 0
521 542 505 0
575 544 543 0
471 439 470 0
508 471 506 0
508 495 471 0
838 805 808 0
840 838 808 0
872 839 873 0
906 905 875 0
905 939 903 0
906 940 938 0
880 879 844 0
907 880 876 0
910 879 880 0
909 910 907 0
943 911 910 0
816 811 843 0
812 779 778 0
879 843 844 0
816 784 811 0
712 743 725 0
905 874 875 0
773 745 775 0
774 773 805 0
742 745 773 0
712 742 744 0
712 713 742 0
807 840 808 0
1210 1207 1211 0
1212 1210 1213 0
1212 1209 1210 0
1207 1210 1209 0
1210 1211 1213 0
1207 1209 1206 0
1205 1207 1206 0
1208 1211 1207 0
1205 1208 1207 0
1205 1206 1203 0
1205 1204 1208 0
1200 1205 1203 0
1200 1201 1205 0
1205 1201 1204 0
1202 1200 1203 0
1202 1199 1200 0
1198 1201 1200 0
1199 1197 1200 0
1197 1198 1200 0
1196 1197 1199 0
1194 1195 1197 0
1194 1197 1196 0
1194 1192 1195 0
1198 1197 1195 0
1196 1193 1194 0
1190 1191 1193 0
1191 1192 1194 0
1191 1194 1193 0
1187 1188 1190 0
1189 1192 1191 0
1188 1185 1186 0
1189 1188 1186 0
1191 1190 1188 0
1185 1188 1187 0
1191 1188 1189 0
1185 1183 1186 0
1184 1185 1187 0
1184 1182 1185 0
1183 1185 1182 0
1181 1182 1184 0
1182 1180 1183 0
1177 1182 1181 0
1179 1180 1182 0
1177 1178 1182 0
1178 1177 1174 0
1176 1178 1175 0
1179 1182 1178 0
1178 1174 1175 0
1178 1176 1179 0
1171 1175 1174 0
1172 1173 1175 0
1171 1172 1175 0
1172 1171 1166 0
1173 1172 1167 0
1173 1176 1175 0
1165 1166 1150 0
1165 1151 1167 0
1166 1165 1172 0
1149 1151 1165 0
1150 1149 1165 0
1172 1165 1167 0
1133 1149 1150 0
1132 1134 1149 0
1132 1149 1133 0
1151 1149 1134 0
1132 1133 1115 0
1098 1114 1115 0
1116 1134 1132 0
1114 1116 1132 0
1115 1114 1132 0
1097 1099 1114 0
1097 1114 1098 0
1114 1099 1116 0
1080 1097 1098 0
1079 1062 1064 0
1080 1079 1097 0
1080 1063 1079 0
1081 1099 1097 0
1062 1079 1063 0
1079 1081 1097 0
1079 1064 1081 0
1046 1062 1063 0
1045 1029 1028 0
1047 1064 1062 0
1045 1047 1062 0
1046 1045 1062 0
1028 1030 1045 0
1029 1045 1046 0
1045 1030 1047 0
1011 1028 1029 0
1012 1030 1028 0
1009 1028 1011 0
993 1009 1011 0
1010 1028 1009 0
1010 1012 1028 0
991 969 965 0
1009 993 1010 0
994 969 993 0
1010 992 990 0
971 970 994 0
993 991 1010 0
1010 995 1012 0
994 993 1011 0
991 965 966 0
1010 991 992 0
993 969 991 0
992 968 990 0
995 1010 990 0
965 937 966 0
967 937 939 0
992 966 967 0
992 991 966 0
881 910 911 0
846 879 881 0
880 845 876 0
937 936 904 0
941 970 942 0
970 944 943 0
969 970 941 0
971 944 970 0
971 945 944 0
743 755 725 0
774 772 743 0
873 903 872 0
874 873 839 0
905 903 873 0
837 810 804 0
839 837 806 0
842 810 837 0
845 880 844 0
878 908 877 0
909 943 910 0
942 909 907 0
942 943 909 0
841 845 813 0
810 841 809 0
877 907 876 0
839 838 874 0
905 873 874 0
872 837 839 0
839 806 838 0
878 842 872 0
904 878 903 0
908 942 907 0
842 837 872 0
774 805 806 0
967 966 937 0
905 938 939 0
940 968 967 0
967 968 992 0
528 562 529 0
504 540 503 0
572 562 539 0
540 572 539 0
573 571 541 0
573 602 571 0
592 624 595 0
602 592 572 0
602 624 592 0
563 596 573 0
631 624 602 0
691 662 660 0
845 844 814 0
736 734 735 0
710 680 711 0
706 707 734 0
680 706 708 0
676 677 706 0
678 646 679 0
677 707 706 0
733 705 732 0
708 706 734 0
677 705 707 0
644 677 676 0
675 674 705 0
644 675 677 0
642 613 614 0
646 644 676 0
680 646 676 0
645 616 646 0
643 615 641 0
642 614 643 0
644 642 675 0
644 616 642 0
613 583 614 0
704 732 705 0
584 615 614 0
552 584 583 0
579 549 547 0
552 548 577 0
552 519 548 0
762 790 763 0
733 762 763 0
788 786 818 0
761 788 762 0
761 760 788 0
704 703 731 0
760 786 788 0
847 882 848 0
765 796 795 0
763 765 735 0
791 796 765 0
821 791 790 0
822 798 791 0
821 822 791 0
820 821 790 0
789 820 790 0
762 789 790 0
788 820 789 0
818 848 820 0
851 852 821 0
852 856 825 0
816 819 787 0
700 727 703 0
729 758 728 0
702 729 728 0
701 702 728 0
698 726 702 0
726 756 729 0
759 785 758 0
752 753 722 0
1152 1159 1142 0
1125 1117 1135 0
1141 1123 1122 0
1158 1141 1140 0
1136 1124 1141 0
1142 1135 1152 0
1123 1105 1122 0
1135 1117 1124 0
1136 1135 1124 0
1142 1125 1135 0
1100 1106 1117 0
1083 1100 1089 0
1083 1088 1100 0
1124 1117 1106 0
1141 1124 1123 0
1136 1152 1135 0
1125 1107 1117 0
1106 1088 1105 0
1124 1106 1123 0
1117 1107 1100 0
1136 1153 1152 0
1107 1089 1100 0
1136 1141 1153 0
1069 1051 1050 0
1069 1070 1051 0
1049 1067 1050 0
1087 1070 1069 0
1088 1083 1070 0
1123 1106 1105 0
1089 1071 1083 0
1140 1121 1139 0
1153 1141 1158 0
1122 1103 1121 0
1037 1051 1052 0
1036 1037 1053 0
1140 1157 1158 0
1139 1155 1157 0
1140 1139 1157 0
1120 1137 1139 0
1170 1168 1164 0
1162 1160 1168 0
1162 1169 1163 0
1160 1148 1164 0
1168 1160 1164 0
1147 1130 1143 0
1161 1144 1163 0
1143 1126 1131 0
1146 1130 1147 0
1128 1112 1130 0
1156 1144 1161 0
1143 1130 1126 0
1160 1143 1148 0
1160 1147 1143 0
1138 1156 1154 0
1137 1138 1154 0
1127 1144 1138 0
1127 1145 1144 0
1072 1054 1060 0
1073 1068 1055 0
1072 1082 1065 0
1084 1068 1073 0
1101 1119 1118 0
1073 1092 1084 0
1092 1109 1101 0
1120 1103 1102 0
1086 1104 1087 0
1128 1146 1129 0
1126 1130 1112 0
1146 1163 1145 0
1163 1169 1161 0
1145 1163 1144 0
1127 1129 1145 0
1156 1138 1144 0
1101 1118 1102 0
1109 1119 1101 0
1127 1138 1119 0
1146 1147 1163 0
1129 1146 1145 0
1128 1130 1146 0
1162 1168 1169 0
1147 1162 1163 0
1147 1160 1162 0
1126 1113 1131 0
1148 1143 1131 0
1112 1108 1126 0
1119 1137 1118 0
1090 1078 1096 0
1090 1074 1078 0
1108 1090 1096 0
1108 1094 1090 0
1075 1058 1056 0
1055 1040 1054 0
1111 1110 1093 0
1128 1111 1112 0
1128 1129 1111 0
1118 1120 1102 0
1155 1137 1154 0
1155 1139 1137 0
1122 1105 1104 0
1056 1058 1044 0
1061 1056 1044 0
1074 1075 1056 0
1077 1059 1076 0
1109 1129 1127 0
1093 1110 1091 0
1111 1129 1110 0
1058 1041 1044 0
1057 1058 1075 0
1057 1042 1058 0
1043 1057 1059 0
1042 1031 1024 0
1059 1057 1075 0
1085 1102 1103 0
1122 1104 1103 0
1068 1084 1085 0
1032 1034 1018 0
1039 1032 1022 0
1039 1034 1032 0
1087 1105 1088 0
1067 1068 1086 0
1039 1049 1050 0
1055 1068 1067 0
1067 1049 1055 0
1069 1067 1086 0
1069 1050 1067 0
1092 1073 1082 0
1092 1101 1084 0
1091 1092 1082 0
1109 1127 1119 0
1110 1109 1092 0
1110 1129 1109 0
1102 1085 1084 0
1086 1068 1085 0
1104 1086 1085 0
1103 1104 1085 0
1105 1087 1104 0
1087 1069 1086 0
1055 1065 1073 0
1039 1055 1049 0
1039 1040 1055 0
1077 1060 1059 0
1118 1137 1120 0
1084 1101 1102 0
1119 1138 1137 0
1072 1060 1077 0
1082 1072 1091 0
1110 1092 1091 0
1073 1065 1082 0
1065 1054 1072 0
1055 1054 1065 0
1040 1023 1038 0
1023 1040 1039 0
1023 1025 1038 0
1093 1095 1111 0
1077 1093 1091 0
1077 1095 1093 0
1072 1077 1091 0
1076 1075 1094 0
1095 1076 1094 0
1059 1075 1076 0
1121 1140 1122 0
1120 1121 1103 0
1120 1139 1121 0
1140 1141 1122 0
1066 1071 1053 0
1051 1070 1052 0
1083 1071 1066 0
1052 1070 1066 0
1088 1106 1100 0
981 958 957 0
981 999 1001 0
960 983 959 0
984 1003 983 0
960 984 983 0
960 963 984 0
1051 1034 1050 0
1021 1002 1001 0
1020 1021 1037 0
1020 1002 1021 0
1035 1018 1034 0
981 983 999 0
982 981 1001 0
982 958 981 0
988 963 987 0
1005 1007 987 0
1003 984 988 0
1013 1003 1022 0
1018 1013 1022 0
999 1003 1013 0
999 983 1003 0
1052 1066 1053 0
1037 1052 1053 0
1066 1070 1083 0
1034 1051 1035 0
1070 1087 1088 0
1002 1000 982 0
1001 1002 982 0
1019 1035 1021 0
1001 1019 1021 0
1001 999 1018 0
1051 1037 1035 0
1024 1027 1041 0
1031 1015 1024 0
1043 1031 1042 0
1043 1025 1031 0
1004 985 989 0
1005 1004 1024 0
1005 986 1004 0
1016 997 998 0
1017 1016 998 0
1027 1024 1008 0
1016 1026 1008 0
1042 1057 1043 0
1041 1042 1024 0
1041 1058 1042 0
1061 1074 1056 0
930 959 929 0
1108 1096 1113 0
1126 1108 1113 0
1094 1075 1074 0
1112 1094 1108 0
1095 1077 1076 0
1112 1095 1094 0
1112 1111 1095 0
986 985 1004 0
1094 1074 1090 0
1036 1020 1037 0
1000 1002 1020 0
980 982 1000 0
901 899 870 0
871 902 900 0
933 962 963 0
1038 1043 1054 0
1040 1038 1054 0
1025 1043 1038 0
1006 1025 1023 0
1015 1031 1025 0
1007 1015 1025 0
988 1007 1006 0
988 987 1007 0
1005 1024 1015 0
959 930 931 0
1019 1018 1035 0
984 963 988 0
1023 1039 1022 0
1003 1006 1022 0
1039 1050 1034 0
1043 1060 1054 0
1043 1059 1060 0
866 865 833 0
800 832 833 0
867 897 866 0
853 868 834 0
895 928 896 0
897 895 866 0
897 928 895 0
898 897 867 0
929 928 897 0
1061 1078 1074 0
958 980 956 0
1018 999 1013 0
1032 1018 1022 0
1019 1001 1018 0
1037 1021 1035 0
981 957 974 0
974 959 983 0
981 974 983 0
957 959 974 0
928 957 958 0
929 959 957 0
920 899 901 0
934 920 901 0
934 931 920 0
959 931 960 0
930 898 931 0
982 980 958 0
927 928 956 0
871 900 901 0
836 871 869 0
855 886 871 0
954 964 935 0
949 960 931 0
934 933 963 0
899 920 931 0
901 900 934 0
1006 1023 1022 0
988 1006 1003 0
1007 1005 1015 0
962 987 963 0
961 962 933 0
986 987 962 0
964 986 961 0
1005 987 986 0
1006 1007 1025 0
1044 1033 1048 0
1061 1044 1048 0
1041 1027 1044 0
1027 1008 1026 0
956 928 958 0
895 896 866 0
957 928 929 0
927 896 928 0
998 1014 1017 0
997 1008 989 0
998 997 989 0
1016 1008 997 0
1033 1016 1017 0
1026 1044 1027 0
1033 1026 1016 0
1033 1044 1026 0
978 954 979 0
902 886 915 0
935 902 915 0
932 933 900 0
854 835 836 0
869 854 836 0
869 870 854 0
898 868 899 0
853 835 870 0
836 855 871 0
996 1014 998 0
896 865 866 0
832 866 833 0
834 832 800 0
834 866 832 0
979 955 977 0
998 979 996 0
998 978 979 0
926 950 955 0
894 926 915 0
925 953 926 0
977 955 973 0
893 894 864 0
926 954 935 0
954 978 964 0
979 954 955 0
1004 1008 1024 0
964 985 986 0
964 978 989 0
935 964 961 0
932 935 961 0
915 926 935 0
989 1008 1004 0
964 989 985 0
978 998 989 0
930 897 898 0
861 860 828 0
890 861 859 0
891 860 861 0
923 891 890 0
893 864 891 0
801 769 794 0
834 801 824 0
800 768 793 0
834 800 801 0
853 834 824 0
835 853 824 0
868 898 867 0
870 868 853 0
870 899 868 0
867 866 834 0
833 799 800 0
823 795 796 0
799 767 800 0
767 768 800 0
977 996 979 0
710 740 709 0
770 794 769 0
803 770 771 0
803 794 770 0
794 824 801 0
739 741 769 0
803 824 794 0
802 803 771 0
835 824 803 0
831 836 802 0
869 901 870 0
897 930 929 0
834 868 867 0
899 931 898 0
740 738 709 0
793 768 769 0
801 793 769 0
801 800 793 0
767 738 768 0
953 975 976 0
894 925 926 0
886 894 915 0
886 864 894 0
923 890 921 0
922 923 951 0
922 891 923 0
894 893 925 0
864 862 891 0
949 963 960 0
934 949 931 0
934 963 949 0
900 933 934 0
869 871 901 0
932 961 933 0
902 932 900 0
902 935 932 0
961 986 962 0
864 886 855 0
862 864 831 0
829 827 860 0
802 829 831 0
802 797 829 0
861 890 891 0
923 921 948 0
926 953 950 0
710 709 679 0
680 710 679 0
710 739 740 0
948 921 924 0
951 948 952 0
951 923 948 0
975 951 952 0
922 893 891 0
925 922 951 0
925 893 922 0
826 859 828 0
857 830 825 0
857 863 830 0
858 857 825 0
892 921 890 0
889 892 863 0
889 916 892 0
975 953 951 0
953 976 973 0
950 953 973 0
955 950 973 0
955 954 926 0
925 951 953 0
852 822 821 0
885 852 851 0
825 822 852 0
889 857 858 0
826 828 796 0
830 826 798 0
830 859 826 0
766 797 771 0
735 764 736 0
735 765 764 0
836 835 803 0
855 836 831 0
864 855 831 0
886 902 871 0
854 870 835 0
737 741 711 0
736 737 708 0
736 766 737 0
735 734 733 0
791 765 763 0
792 797 766 0
795 792 764 0
795 797 792 0
862 860 891 0
829 862 831 0
829 860 862 0
795 827 797 0
828 860 827 0
798 826 796 0
859 861 828 0
737 766 741 0
734 736 708 0
741 771 770 0
711 741 739 0
766 771 741 0
764 766 736 0
764 792 766 0
823 828 827 0
795 823 827 0
796 828 823 0
739 769 740 0
708 737 711 0
741 770 769 0
802 771 797 0
802 836 803 0
739 710 711 0
768 740 769 0
768 738 740 0
680 676 706 0
711 680 708 0
679 646 680 0
678 679 709 0
678 645 646 0
921 892 924 0
952 948 924 0
863 859 830 0
646 616 644 0
863 857 889 0
890 863 892 0
890 859 863 0
889 888 919 0
924 892 916 0
858 888 889 0
642 616 613 0
856 852 885 0
887 856 885 0
858 825 856 0
888 858 856 0
918 888 887 0
918 919 888 0
798 796 791 0
825 798 822 0
825 830 798 0
584 614 583 0
827 829 797 0
643 675 642 0
615 643 614 0
674 675 643 0
887 917 918 0
919 916 889 0
885 913 914 0
888 856 887 0
851 850 884 0
517 509 479 0
551 546 517 0
582 551 550 0
561 582 550 0
593 612 582 0
593 607 612 0
546 509 517 0
887 914 917 0
946 913 945 0
917 914 947 0
887 885 914 0
850 820 848 0
795 764 765 0
761 732 731 0
762 732 761 0
791 763 790 0
734 707 733 0
733 707 705 0
762 733 732 0
763 735 733 0
762 788 789 0
820 788 818 0
730 760 761 0
674 673 704 0
727 700 728 0
758 727 728 0
757 730 727 0
759 758 729 0
784 759 756 0
727 730 703 0
785 757 758 0
785 760 757 0
758 757 727 0
731 703 730 0
761 731 730 0
732 704 731 0
608 615 584 0
610 609 638 0
579 610 580 0
549 579 580 0
546 578 579 0
546 551 578 0
669 700 673 0
637 669 641 0
699 700 669 0
668 699 669 0
637 668 669 0
639 671 668 0
608 611 637 0
615 608 637 0
577 580 608 0
671 670 701 0
610 638 639 0
609 612 638 0
701 728 699 0
674 641 673 0
674 643 641 0
672 698 702 0
615 637 641 0
703 704 673 0
705 674 704 0
705 677 675 0
581 609 578 0
612 581 582 0
612 609 581 0
636 612 607 0
671 701 699 0
638 671 639 0
670 640 672 0
638 670 671 0
638 640 670 0
722 693 721 0
667 666 697 0
672 701 670 0
698 672 667 0
702 701 672 0
637 639 668 0
726 729 702 0
729 756 759 0
673 641 669 0
656 625 626 0
655 660 662 0
817 819 847 0
760 785 786 0
787 784 816 0
785 787 817 0
759 784 787 0
820 851 821 0
820 850 851 0
786 817 818 0
883 881 911 0
847 849 882 0
847 819 849 0
884 885 851 0
912 911 944 0
913 912 945 0
882 849 883 0
848 882 850 0
883 911 912 0
882 883 912 0
849 881 883 0
913 885 884 0
850 882 884 0
946 971 972 0
884 882 912 0
913 884 912 0
804 810 777 0
774 804 772 0
806 837 804 0
814 812 782 0
754 724 755 0
782 778 753 0
751 780 781 0
812 844 843 0
815 814 782 0
815 845 814 0
877 841 842 0
815 813 845 0
841 810 842 0
783 809 813 0
783 777 809 0
772 777 755 0
804 774 806 0
908 878 904 0
936 908 904 0
907 877 908 0
813 809 841 0
842 878 877 0
751 723 754 0
912 944 945 0
876 845 841 0
877 876 841 0
907 910 880 0
843 811 812 0
846 843 879 0
846 816 843 0
783 780 754 0
810 809 777 0
815 780 783 0
970 969 994 0
994 972 971 0
946 947 914 0
482 514 519 0
472 479 510 0
560 527 529 0
546 579 547 0
509 546 547 0
517 550 551 0
516 517 479 0
478 516 479 0
515 550 516 0
593 582 561 0
581 551 582 0
640 638 612 0
611 580 610 0
639 611 610 0
639 637 611 0
4 1 3 0
4 3 6 0
2 4 5 0
2 1 4 0
4 6 7 0
7 5 4 0
7 6 9 0
10 7 9 0
8 5 7 0
8 7 10 0
10 12 14 0
10 11 8 0
12 10 9 0
14 11 10 0
16 14 12 0
15 11 14 0
16 25 14 0
25 15 14 0
25 26 37 0
15 25 17 0
16 26 25 0
25 27 17 0
38 59 37 0
37 27 25 0
38 37 26 0
59 39 37 0
37 39 27 0
60 59 38 0
60 86 85 0
39 59 61 0
85 86 112 0
85 61 59 0
60 85 59 0
112 87 85 0
113 112 86 0
138 113 139 0
87 112 114 0
87 61 85 0
138 139 166 0
138 112 113 0
140 138 166 0
114 112 138 0
166 167 190 0
138 140 114 0
167 166 139 0
190 168 166 0
191 190 167 0
216 191 217 0
168 190 192 0
168 140 166 0
217 244 216 0
216 192 190 0
191 216 190 0
244 218 216 0
244 217 245 0
272 273 245 0
218 192 216 0
218 244 246 0
298 273 272 0
273 244 245 0
274 273 298 0
246 244 273 0
272 297 298 0
273 274 246 0
324 298 297 0
299 274 298 0
300 324 297 0
324 299 298 0
324 325 299 0
326 324 300 0
351 349 325 0
326 351 324 0
326 350 351 0
325 324 351 0
351 380 349 0
351 350 382 0
382 407 380 0
351 382 380 0
350 381 382 0
409 381 408 0
407 382 409 0
444 408 410 0
407 409 443 0
382 381 409 0
445 444 410 0
444 443 409 0
408 444 409 0
445 480 444 0
446 445 410 0
480 443 444 0
481 446 482 0
480 445 481 0
446 474 482 0
512 482 474 0
513 512 476 0
513 549 512 0
518 519 552 0
481 445 446 0
519 481 482 0
518 480 481 0
513 476 475 0
511 513 475 0
514 548 519 0
549 514 512 0
549 548 514 0
482 512 514 0
518 481 519 0
474 476 512 0
511 473 510 0
549 511 547 0
475 473 511 0
478 472 441 0
516 478 515 0
549 513 511 0
478 479 472 0
454 489 477 0
516 550 517 0
594 595 626 0
560 562 594 0
562 572 595 0
547 511 510 0
515 527 550 0
477 515 478 0
489 527 515 0
477 489 515 0
442 477 478 0
442 440 477 0
454 491 489 0
454 440 420 0
491 454 455 0
529 491 492 0
529 527 491 0
673 700 703 0
672 640 667 0
700 699 728 0
578 610 579 0
581 578 551 0
609 610 578 0
654 624 655 0
654 656 626 0
687 654 655 0
687 656 654 0
625 594 626 0
636 625 656 0
607 593 625 0
640 612 636 0
667 640 636 0
671 699 668 0
584 577 608 0
548 549 580 0
593 594 625 0
594 593 561 0
560 594 561 0
595 624 626 0
654 626 624 0
666 656 687 0
666 636 656 0
572 592 595 0
693 662 691 0
721 693 691 0
722 717 693 0
688 687 717 0
666 688 697 0
666 687 688 0
636 666 667 0
636 607 625 0
655 662 687 0
478 441 442 0
561 550 527 0
510 473 472 0
509 510 479 0
509 547 510 0
477 440 454 0
453 436 468 0
745 742 713 0
608 580 611 0
552 577 584 0
548 580 577 0
601 568 569 0
570 566 563 0
567 570 537 0
567 601 570 0
599 601 569 0
600 566 601 0
601 630 600 0
565 597 569 0
630 628 600 0
629 630 599 0
629 658 630 0
627 596 600 0
632 627 657 0
661 632 657 0
660 631 632 0
632 631 603 0
563 530 537 0
946 972 947 0
913 946 914 0
945 971 946 0
468 490 453 0
723 694 724 0
754 723 724 0
720 694 723 0
750 720 751 0
690 694 720 0
719 690 720 0
750 719 720 0
692 689 719 0
661 689 692 0
657 658 689 0
689 658 659 0
696 712 725 0
724 695 725 0
647 617 619 0
696 665 683 0
620 617 647 0
635 620 650 0
635 606 620 0
606 585 617 0
683 713 712 0
665 650 683 0
695 664 696 0
664 650 665 0
681 713 683 0
696 664 665 0
725 695 696 0
633 659 658 0
634 633 604 0
634 663 633 0
695 663 664 0
694 690 663 0
585 554 586 0
653 686 684 0
746 716 747 0
775 746 747 0
745 713 715 0
938 967 939 0
906 938 905 0
940 967 938 0
941 942 936 0
969 941 965 0
879 910 881 0
970 943 942 0
944 911 943 0
874 838 840 0
875 874 840 0
903 939 904 0
806 805 838 0
783 813 815 0
772 804 777 0
872 903 878 0
937 904 939 0
936 965 941 0
908 936 942 0
937 965 936 0
743 712 744 0
744 742 773 0
774 744 773 0
774 743 744 0
436 453 419 0
490 468 504 0
455 490 492 0
453 421 419 0
455 453 490 0
455 421 453 0
402 436 419 0
402 373 401 0
528 539 562 0
492 528 529 0
503 539 528 0
504 503 490 0
466 467 502 0
538 540 504 0
540 571 572 0
503 540 539 0
538 571 540 0
435 425 457 0
435 401 400 0
402 434 436 0
402 401 434 0
373 372 400 0
73 70 95 0
99 75 73 0
126 122 148 0
100 126 128 0
99 122 126 0
75 99 100 0
95 122 99 0
153 154 128 0
175 153 148 0
180 154 153 0
178 150 177 0
74 48 49 0
74 71 48 0
97 72 71 0
128 127 101 0
175 180 153 0
179 152 154 0
177 152 179 0
178 177 204 0
150 149 177 0
149 127 152 0
124 149 150 0
123 127 149 0
71 96 97 0
101 127 123 0
100 101 96 0
100 99 126 0
128 126 153 0
127 128 154 0
101 100 128 0
75 100 74 0
49 75 74 0
73 95 99 0
126 148 153 0
205 179 180 0
180 175 200 0
205 180 200 0
179 154 180 0
228 202 205 0
152 127 154 0
71 47 48 0
74 100 96 0
71 74 96 0
49 73 75 0
92 65 67 0
47 72 67 0
98 119 92 0
123 124 97 0
64 90 63 0
66 64 43 0
66 91 64 0
125 151 144 0
118 125 144 0
124 150 125 0
142 143 170 0
91 117 90 0
147 174 172 0
121 147 145 0
146 174 147 0
169 146 141 0
173 174 146 0
119 143 117 0
171 151 176 0
194 171 176 0
170 143 171 0
201 227 225 0
119 144 143 0
119 98 118 0
92 119 91 0
118 124 125 0
119 118 144 0
98 124 118 0
227 203 229 0
255 227 229 0
256 255 229 0
283 280 255 0
305 279 306 0
253 227 255 0
280 253 255 0
280 279 253 0
278 252 279 0
224 247 219 0
278 251 252 0
278 275 251 0
301 278 305 0
251 224 225 0
225 199 201 0
252 225 227 0
252 251 225 0
301 302 275 0
171 143 144 0
194 170 171 0
199 194 176 0
199 219 194 0
174 173 198 0
145 147 172 0
121 141 146 0
116 141 115 0
169 173 146 0
142 169 141 0
142 170 169 0
194 193 170 0
195 198 173 0
219 195 193 0
224 219 199 0
225 224 199 0
251 247 224 0
247 220 219 0
197 221 196 0
197 223 221 0
220 222 223 0
179 202 177 0
226 205 200 0
230 231 257 0
72 47 71 0
98 72 97 0
98 92 72 0
282 254 281 0
177 149 152 0
151 150 178 0
123 96 101 0
124 123 149 0
151 125 150 0
98 97 124 0
97 96 123 0
257 254 282 0
67 72 92 0
92 91 66 0
334 309 333 0
233 234 207 0
183 181 157 0
137 134 111 0
269 295 290 0
256 283 255 0
330 305 306 0
277 276 303 0
276 275 302 0
220 248 222 0
247 275 248 0
247 251 275 0
330 327 305 0
270 249 277 0
243 270 271 0
243 242 270 0
144 151 171 0
250 277 249 0
221 250 249 0
276 302 303 0
248 276 250 0
248 275 276 0
327 302 301 0
276 277 250 0
329 303 328 0
353 329 328 0
346 323 329 0
195 219 220 0
193 194 219 0
178 176 151 0
178 203 201 0
201 203 227 0
176 201 199 0
176 178 201 0
426 458 431 0
396 426 431 0
406 439 426 0
348 346 374 0
406 379 377 0
347 323 348 0
521 520 553 0
483 447 484 0
522 483 484 0
520 505 483 0
542 543 505 0
554 542 521 0
554 575 542 0
470 439 438 0
437 469 438 0
506 471 470 0
386 385 356 0
358 388 356 0
417 449 415 0
448 413 411 0
485 448 449 0
484 447 448 0
411 384 412 0
463 460 430 0
495 532 499 0
471 495 458 0
508 532 495 0
497 460 463 0
429 462 427 0
365 393 394 0
393 368 395 0
428 460 461 0
397 430 395 0
431 463 430 0
498 462 461 0
535 534 498 0
499 535 497 0
568 534 535 0
496 462 498 0
534 496 498 0
601 567 568 0
537 533 567 0
500 493 464 0
533 500 496 0
534 533 496 0
537 500 533 0
530 493 500 0
428 462 429 0
534 567 533 0
497 535 498 0
568 567 534 0
427 394 429 0
459 427 462 0
433 424 398 0
427 433 399 0
465 500 464 0
459 465 464 0
459 496 465 0
368 367 397 0
364 337 342 0
428 429 395 0
365 337 364 0
366 365 394 0
366 339 338 0
341 367 342 0
337 315 341 0
368 364 342 0
367 368 342 0
393 429 394 0
368 393 364 0
395 429 393 0
397 395 368 0
397 431 430 0
338 312 311 0
365 338 337 0
365 366 338 0
285 287 313 0
337 341 342 0
264 289 287 0
288 290 316 0
322 296 304 0
316 290 317 0
315 316 341 0
289 264 288 0
315 289 316 0
315 287 289 0
165 137 136 0
189 165 164 0
163 137 165 0
295 269 271 0
161 163 187 0
288 262 269 0
288 263 262 0
426 439 458 0
347 379 378 0
340 347 367 0
323 346 348 0
353 328 352 0
416 418 387 0
356 332 358 0
256 228 230 0
306 279 280 0
203 204 229 0
335 334 359 0
283 310 307 0
309 334 310 0
284 309 310 0
282 308 309 0
231 230 205 0
254 231 226 0
254 257 231 0
279 305 278 0
202 179 205 0
204 202 228 0
204 177 202 0
281 308 282 0
333 357 359 0
280 307 306 0
252 253 279 0
283 307 280 0
252 227 253 0
256 257 283 0
228 256 229 0
257 284 283 0
230 257 256 0
205 230 228 0
205 226 231 0
284 310 283 0
282 284 257 0
282 309 284 0
308 333 309 0
330 352 327 0
327 352 328 0
302 327 328 0
301 305 327 0
331 330 306 0
307 332 306 0
355 330 331 0
354 352 330 0
384 354 355 0
384 383 354 0
404 383 411 0
413 437 411 0
412 448 411 0
447 437 413 0
376 406 396 0
348 379 347 0
348 374 379 0
438 405 403 0
404 438 403 0
469 505 470 0
439 406 405 0
329 323 304 0
404 403 375 0
377 405 406 0
374 377 379 0
375 374 346 0
375 403 374 0
403 405 377 0
374 403 377 0
353 375 346 0
353 383 375 0
469 447 483 0
438 469 470 0
437 447 469 0
404 437 438 0
404 411 437 0
304 296 277 0
303 304 277 0
323 322 304 0
64 91 90 0
65 66 43 0
65 92 66 0

SubDomainFromMesh
1
3 1 1 0

SubDomainFromGeom
1
2 57 1 0

VertexOnGeometricVertex
246
 1 1
 2 2
 3 3
 5 4
 6 5
 8 6
 9 7
 11 8
 12 9
 13 10
 15 11
 16 12
 17 13
 18 14
 19 15
 20 16
 21 17
 22 18
 24 19
 26 20
 27 21
 29 22
 34 23
 38 24
 39 25
 40 26
 41 27
 42 28
 43 29
 44 30
 45 31
 47 32
 48 33
 49 34
 52 35
 60 36
 61 37
 65 38
 67 39
 70 40
 73 41
 79 42
 86 43
 87 44
 95 45
 105 46
 113 47
 114 48
 122 49
 133 50
 139 51
 140 52
 148 53
 160 54
 167 55
 168 56
 175 57
 186 58
 191 59
 192 60
 200 61
 212 62
 217 63
 218 64
 226 65
 239 66
 245 67
 246 68
 254 69
 266 70
 267 71
 272 72
 274 73
 281 74
 291 75
 297 76
 299 77
 300 78
 308 79
 318 80
 325 81
 326 82
 333 83
 336 84
 349 85
 350 86
 357 87
 360 88
 362 89
 363 90
 372 91
 373 92
 380 93
 381 94
 387 95
 402 96
 407 97
 408 98
 410 99
 416 100
 419 101
 420 102
 421 103
 440 104
 441 105
 442 106
 443 107
 446 108
 450 109
 472 110
 473 111
 474 112
 475 113
 476 114
 480 115
 486 116
 518 117
 525 118
 552 119
 559 120
 583 121
 591 122
 613 123
 616 124
 623 125
 645 126
 653 127
 678 128
 686 129
 709 130
 716 131
 738 132
 747 133
 767 134
 776 135
 799 136
 807 137
 833 138
 840 139
 865 140
 875 141
 896 142
 906 143
 916 144
 917 145
 918 146
 919 147
 924 148
 927 149
 940 150
 947 151
 952 152
 956 153
 968 154
 972 155
 973 156
 975 157
 976 158
 977 159
 980 160
 990 161
 994 162
 995 163
 996 164
 1000 165
 1011 166
 1012 167
 1014 168
 1017 169
 1020 170
 1029 171
 1030 172
 1033 173
 1036 174
 1046 175
 1047 176
 1048 177
 1053 178
 1061 179
 1063 180
 1064 181
 1071 182
 1078 183
 1080 184
 1081 185
 1089 186
 1096 187
 1098 188
 1099 189
 1107 190
 1113 191
 1115 192
 1116 193
 1125 194
 1131 195
 1133 196
 1134 197
 1142 198
 1148 199
 1150 200
 1151 201
 1152 202
 1153 203
 1154 204
 1155 205
 1156 206
 1157 207
 1158 208
 1159 209
 1161 210
 1164 211
 1166 212
 1167 213
 1168 214
 1169 215
 1170 216
 1171 217
 1173 218
 1174 219
 1176 220
 1177 221
 1179 222
 1180 223
 1181 224
 1183 225
 1184 226
 1186 227
 1187 228
 1189 229
 1190 230
 1192 231
 1193 232
 1195 233
 1196 234
 1198 235
 1199 236
 1201 237
 1202 238
 1203 239
 1204 240
 1206 241
 1208 242
 1209 243
 1211 244
 1212 245
 1213 246

VertexOnGeometricEdge
0

EdgeOnGeometricEdge
246
1 1
2 2
3 3
4 4
5 5
6 6
7 7
8 8
9 9
10 10
11 11
12 12
13 13
14 14
15 15
16 16
17 17
18 18
19 19
20 20
21 21
22 22
23 23
24 24
25 25
26 26
27 27
28 28
29 29
30 30
31 31
32 32
33 33
34 34
35 35
36 36
37 37
38 38
39 39
40 40
41 41
42 42
43 43
44 44
45 45
46 46
47 47
48 48
49 49
50 50
51 51
52 52
53 53
54 54
55 55
56 56
57 57
58 58
59 59
60 60
61 61
62 62
63 63
64 64
65 65
66 66
67 67
68 68
69 69
70 70
71 71
72 72
73 73
74 74
75 75
76 76
77 77
78 78
79 79
80 80
81 81
82 82
83 83
84 84
85 85
86 86
87 87
88 88
89 89
90 90
91 91
92 92
93 93
94 94
95 95
96 96
97 97
98 98
99 99
100 100
101 101
102 102
103 103
104 104
105 105
106 106
107 107
108 108
109 109
110 110
111 111
112 112
113 113
114 114
115 115
116 116
117 117
118 118
119 119
120 120
121 121
122 122
123 123
124 124
125 125
126 126
127 127
128 128
129 129
130 130
131 131
132 132
133 133
134 134
135 135
136 136
137 137
138 138
139 139
140 140
141 141
142 142
143 143
144 144
145 145
146 146
147 147
148 148
149 149
150 150
151 151
152 152
153 153
154 154
155 155
156 156
157 157
158 158
159 159
160 160
161 161
162 162
163 163
164 164
165 165
166 166
167 167
168 168
169 169
170 170
171 171
172 172
173 173
174 174
175 175
176 176
177 177
178 178
179 179
180 180
181 181
182 182
183 183
184 184
185 185
186 186
187 187
188 188
189 189
190 190
191 191
192 192
193 193
194 194
195 195
196 196
197 197
198 198
199 199
200 200
201 201
202 202
203 203
204 204
205 205
206 206
207 207
208 208
209 209
210 210
211 211
212 212
213 213
214 214
215 215
216 216
217 217
218 218
219 219
220 220
221 221
222 222
223 223
224 224
225 225
226 226
227 227
228 228
229 229
230 230
231 231
232 232
233 233
234 234
235 235
236 236
237 237
238 238
239 239
240 240
241 241
242 242
243 243
244 244
245 245
246 246

End
