MeshVersionFormatted 1

Dimension
2

Identifier
";2, Date: 26/03/14 10:41 25s"

Geometry
"Maillage_L0.038.mesh.gmsh"

Vertices
818
0.038 0.0019 4
0.038 0 3
0.0368529277326 0.000949999980535 0
0.0368528609839 0.0019 4
0.0368529945554 0 2
0.0358611615245 0 2
0.0358608943815 0.0019 4
0.0358610279208 0.000949999980535 0
0.0348689277791 0.0019 4
0.0348693284936 0 2
0.0348691281089 0.000949999980535 0
0.0338769611768 0.0019 4
0.0338774954628 0 2
0.033381311773 0.000949999980535 0
0.0328849945744 0.0019 4
0.0328856624319 0 2
0.0318934286734 0.000949999980535 0
0.0318930279721 0.0019 4
0.0309010613697 0.0019 4
0.0318938294011 0 2
0.0309019963702 0 2
0.0309015288616 0.000949999980535 0
0.0299090947674 0.0019 4
0.0299101633394 0 2
0.0294137125257 0.000949999980535 0
0.028917128165 0.0019 4
0.0289183303085 0 2
0.0284218127138 0.000949999980535 0
0.0279251615627 0.0019 4
0.0269331949603 0.0019 4
0.0279264972777 0 2
0.038 0.0038 11
0.0269339295753 0.000949999980535 0
0.0259412283579 0.0019 4
0.0269346642468 0 2
0.025942831216 0 2
0.038 0.00690488488784 11
0.038 0.00482885979668 11
0.038 0.00586683884298 11
0.0369914077819 0.0038 10
0.038 0.0079429309327 11
0.0371654588344 0.00725244242121 0
0.038 0.0120951151122 11
0.038 0.013133161157 11
0.0249492617556 0.0019 4
0.0254461132394 0.000949999980535 0
0.0239572951532 0.0019 4
0.0249509981851 0 2
0.0372480200981 0.00612866366587 0
0.0364960402157 0.00483341940137 0
0.0373305813618 0.00517789252543 0
0.0359917441352 0.0038 10
0.038 0.0110570690673 11
0.038 0.00898097697757 11
0.038 0.0100190230224 11
0.0363309177272 0.00656195395059 0
0.0364982723819 0.00768573270592 0
0.037284679026 0.00824083739071 0
0.038 0.0152 12
0.0371654588344 0.0117475575204 0
0.038 0.0141711402033 11
0.0371984833633 0.012716092054 0
0.0372480200981 0.0136498708347 0
0.0239582301397 0.000949999980535 0
0.0229653285509 0.0019 4
0.0239591651543 0 2
0.0229673321234 0 2
0.0357440603333 0.00457622121547 0
0.0359962084179 0.00587146544105 0
0.0339924168418 0.0038 10
0.0349920804885 0.0038 10
0.0372491361618 0.0106666451229 0
0.0372491361618 0.00924164511803 0
0.0357474085631 0.00703811059314 0
0.0355596925695 0.007815882761 0
0.0364982723819 0.00846426726488 0
0.0369914077819 0.0152 12
0.0364982723819 0.0113142672357 0
0.0363309177272 0.0124380460299 0
0.0359962084179 0.0131285345006 0
0.0366611627431 0.0145110537032 0
0.0364960402157 0.0136475575399 0
0.0224704138038 0.000949999980535 0
0.0219733619485 0.0019 4
0.0219754990926 0 2
0.034661835435 0.00518097697043 0
0.0349965447444 0.00639048848035 0
0.0329927531951 0.0038 10
0.0338272943278 0.00449048846088 0
0.036498272304 0.0103642672454 0
0.036498272304 0.00941426725515 0
0.0348088287897 0.00752403747372 0
0.0353719766148 0.00859365496779 0
0.0356535505274 0.0109201148567 0
0.0359917441352 0.0152 12
0.0357474085631 0.0119618893874 0
0.0351387160844 0.01297958129 0
0.0355954500898 0.0139580460222 0
0.021478513992 0.000949999980535 0
0.0209813953462 0.0019 4
0.0209836660617 0 2
0.0342456809645 0.00613213362757 0
0.0334948171457 0.00535475573549 0
0.0341518229288 0.00713030568667 0
0.0319930895484 0.0038 10
0.0327439533269 0.00457737784342 0
0.0338702490162 0.0080099643543 0
0.0355972357371 0.00972505015961 0
0.0346961991701 0.00908583307381 0
0.0349683872713 0.0104790245449 0
0.0348088287897 0.0114759624679 0
0.0349920804885 0.0152 12
0.0343523094014 0.0124983223031 0
0.0346603473631 0.0145095114807 0
0.0344233951298 0.0137197208308 0
0.0204866141802 0.000949999980535 0
0.0199894555014 0.00189999920205 4
0.0199918330309 0 2
0.0309934259017 0.0038 10
0.032743953288 0.00561374147624 0
0.0334948171068 0.00673657389962 0
0.0329942412146 0.00742713248187 0
0.0319930895471 0.00587272725592 0
0.0309934258736 0.00483636362309 0
0.031902211003 0.00483636362309 0
0.0329316692427 0.00849589123488 0
0.0335659027573 0.0120170633161 0
0.0337951626032 0.00939661597828 0
0.0342832240932 0.0100379343111 0
0.0338702490162 0.0109900355484 0
0.0328941260362 0.00970739888275 0
0.0339924168418 0.0152 12
0.0335481313447 0.0127480773267 0
0.0334948171457 0.0139047557258 0
0.019 0.0019 5
0.0189999999805 0.000949999980535 0
0.019 0 2
0.018 0 1
0.0299937622551 0.0038 10
0.0289940986084 0.0038 10
0.029993762239 0.00483636362309 0
0.0319930895471 0.00690909088874 0
0.0319930895471 0.00794545452157 0
0.0309934258736 0.00587272725592 0
0.0309934258736 0.00690909088874 0
0.0319930895471 0.00898181815439 0
0.0327794961133 0.0120539861845 0
0.0329316692427 0.011281381373 0
0.0329316692427 0.0105041086678 0
0.0319930895471 0.0100181817872 0
0.0329927531951 0.0152 12
0.032743953288 0.0129978323504 0
0.032743953288 0.0140341960221 0
0.0180384078644 0.00191362157086 5
0.0175464827571 0.000993200701981 0
0.017 0 1
0.0279944349617 0.0038 10
0.0289940986044 0.00483636362309 0
0.0280853134749 0.00483636362309 0
0.0309934258736 0.00898181815439 0
0.0298120051897 0.00587272725592 0
0.0309934258736 0.00794545452157 0
0.029993762239 0.00690909088874 0
0.0309934258736 0.0100181817872 0
0.0319930895471 0.0120909090529 0
0.0319930895471 0.01105454542 0
0.0309934258736 0.01105454542 0
0.0319930895484 0.0152 12
0.0319930895471 0.0131272727246 0
0.0319930895471 0.0141636363574 0
0.026994771315 0.0038 10
0.0171078195964 0.00195387121487 5
0.0160741544368 0.00100221022289 0
0.016 0 1
0.0269038927911 0.00483636362309 0
0.0289940986044 0.00587272725592 0
0.0278126779205 0.00587272725592 0
0.0301073603801 0.00975909085954 0
0.029993762239 0.00898181815439 0
0.0289940986044 0.00690909088874 0
0.0296302481794 0.00794545452157 0
0.0302209585213 0.0105363636036 0
0.031266061428 0.0120909090529 0
0.0309934258736 0.0131272727246 0
0.0301073603801 0.0113136363088 0
0.0309934259017 0.0152 12
0.0310843043787 0.0141636363574 0
0.0259951076616 0.00483636362309 0
0.0259951076683 0.0038 10
0.0150324154874 0.00106639507396 0
0.01615 0.0020272758664 6
0.015 0 1
0.0138574833029 0.000814854831216 0
0.0269947712962 0.00587272725592 0
0.0282670704852 0.00690909088874 0
0.0269947712962 0.00690909088874 0
0.0294484911691 0.0100181817872 0
0.0290395378375 0.00846363633798 0
0.0292440144838 0.00924090904313 0
0.0283579489904 0.00794545452157 0
0.029357612625 0.01105454542 0
0.0301755192493 0.0131272727246 0
0.029993762239 0.0120909090529 0
0.0299937622551 0.0152 12
0.029993762239 0.0141636363574 0
0.0258133506124 0.00587272725592 0
0.0249954439881 0.00483636362309 0
0.0249954440216 0.0038 10
0.0137191531543 0.00160577298995 0
0.015065738272 0.00216263777293 6
0.014 0 1
0.013 0 1
0.0131033269232 0.000981605965208 0
0.0259951076616 0.00690909088874 0
0.0276309208713 0.00794545452157 0
0.0266312572367 0.00794545452157 0
0.0286305845448 0.01105454542 0
0.0285397060397 0.0100181817872 0
0.0280398742029 0.0105363636036 0
0.0284488274956 0.00898181815439 0
0.0289940986044 0.0120909090529 0
0.0291758556147 0.0131272727246 0
0.0289940986084 0.0152 12
0.0289032200603 0.0141636363574 0
0.0239957803749 0.0038 10
0.0249954439881 0.00690909088874 0
0.0249954439881 0.00587272725592 0
0.0239957803535 0.00483636362309 0
0.0130851002326 0.00199963032394 0
0.0140636551984 0.002375 7
0.012367156184 0.00136269932139 0
0.012 0 1
0.0124510473109 0.00239348769686 0
0.0256315936021 0.00794545452157 0
0.0269947712962 0.00898181815439 0
0.0259951076616 0.00898181815439 0
0.0279944349308 0.0120909090529 0
0.0273582853558 0.01105454542 0
0.027449163861 0.0100181817872 0
0.0279944349308 0.0131272727246 0
0.0279944349617 0.0152 12
0.0279944349308 0.0141636363574 0
0.0243592944131 0.00794545452157 0
0.0229961167282 0.0038 10
0.0219964530815 0.0038 10
0.0242684159079 0.00690909088874 0
0.0238140233432 0.00587272725592 0
0.0229961167189 0.00587272725592 0
0.0229961167189 0.00483636362309 0
0.0133 0.00285 7
0.0116309854836 0.0017437927165 0
0.0115977950771 0.000740746049295 0
0.011 0 1
0.0111363083901 0.00252258475374 0
0.0125011034792 0.00327948191076 0
0.0115956874457 0.00338179674943 0
0.0249954439881 0.00898181815439 0
0.0259951076616 0.0100181817872 0
0.0272674068507 0.0120909090529 0
0.0263586217212 0.01105454542 0
0.0249954439881 0.0100181817872 0
0.0269947712962 0.0131272727246 0
0.026994771315 0.0152 12
0.0270856498014 0.0141636363574 0
0.0209967894348 0.0038 10
0.0239957803535 0.00898181815439 0
0.023632266294 0.00794545452157 0
0.0219964530454 0.00483636362309 0
0.0229961167189 0.00690909088874 0
0.0221782100946 0.00587272725592 0
0.0199971330638 0.00380000005944 10
0.0140636551984 0.003325 8
0.013354546778 0.00376607140667 0
0.010382319562 0.000635492322208 0
0.0106769293735 0.00166337279697 0
0.01 0 1
0.0104942352185 0.00286102979501 0
0.0125023905203 0.00403196978139 0
0.010743531188 0.00383991083688 0
0.0114235584648 0.00427948668267 0
0.0239957803535 0.0100181817872 0
0.0259951076683 0.0152 12
0.0253589580477 0.01105454542 0
0.0259951076616 0.0131272727246 0
0.0259951076616 0.0120909090529 0
0.0246319299675 0.01105454542 0
0.0259951076616 0.0141636363574 0
0.0209059115674 0.00483636362309 0
0.019997133056 0.00483636366202 0
0.0229961167189 0.0100181817872 0
0.0228143596697 0.00794545452157 0
0.0229961167189 0.00898181815439 0
0.0209967894108 0.00587272725592 0
0.0219964530454 0.00690909088874 0
0.0219964530454 0.00794545452157 0
0.019 0.0038 10
0.0180384078644 0.00378637842914 9
0.0189999999805 0.00483636362309 0
0.015065738272 0.00353736222707 8
0.0134090935948 0.00468214285228 0
0.0140636551639 0.00420714283768 0
0.0171078195964 0.00374612878513 9
0.01615 0.0036727241336 9
0.0097783540326 0.00125687442385 0
0.0098152580592 0.0022281746106 0
0.009 0 1
0.00886562178523 0.00084397175535 0
0.0098521620858 0.00319947483628 0
0.0121035857415 0.00471906252845 0
0.0127836130571 0.00515863837424 0
0.0114979030024 0.0051410684985 0
0.00988906615133 0.00417077510089 0
0.0108178757257 0.00470149265272 0
0.0238140233432 0.01105454542 0
0.0229961167189 0.01105454542 0
0.0249954440216 0.0152 12
0.0247228084726 0.0120909090529 0
0.0251772010374 0.0131272727246 0
0.0239957803535 0.0120909090529 0
0.024904565483 0.0141636363574 0
0.019997133056 0.00587272729485 0
0.0222236493278 0.0100181817872 0
0.0219964530454 0.00898181815439 0
0.019997133056 0.00690909092767 0
0.0207241558418 0.00690909088874 0
0.0209967894108 0.00794545452157 0
0.0180384078618 0.00473864866857 0
0.0171078195695 0.00470510731456 0
0.0188397346209 0.00570227024877 0
0.0134636403728 0.00559821425895 0
0.0149774899664 0.00460626146435 0
0.0140636551639 0.00508928569969 0
0.0162332912754 0.00467981242857 0
0.00890256201606 0.00167986717339 0
0.0089395022469 0.00251576259142 0
0.008 0 1
0.0080104145228 0.000795981135914 0
0.00897644247774 0.00335165800946 0
0.0116948135089 0.00584093853719 0
0.0124974067545 0.00611880256689 0
0.0108922202634 0.00556307450748 0
0.0090133827475 0.00418755346643 0
0.0092870338112 0.00500734644808 0
0.00995586148338 0.0055344553721 0
0.0229961167189 0.0120909090529 0
0.0221782100946 0.01105454542 0
0.0239957803749 0.0152 12
0.0239957803535 0.0131272727246 0
0.0239957803535 0.0141636363574 0
0.0189999999805 0.00690909088874 0
0.0214511819755 0.0100181817872 0
0.0205424001551 0.00898181815439 0
0.019997133056 0.0079454545605 0
0.0178833098195 0.00569762719203 0
0.0171078195695 0.00566408583803 0
0.0180384078618 0.00664318920504 0
0.0133 0.00639666663552 0
0.0140636551639 0.0059714285617 0
0.0150657382534 0.00570559410886 0
0.0161499999708 0.00579173351875 0
0.00803711666347 0.00179249165425 0
0.00806381884307 0.00278900217259 0
0.007 0 1
0.00715520722145 0.000747990555407 0
0.00722954638687 0.00150198798687 0
0.00801912350964 0.00396356764316 0
0.0124974067155 0.00682813588621 0
0.0112935168667 0.00658867322015 0
0.010494684696 0.0062208623409 0
0.00813769934367 0.00484893595204 0
0.00846608062011 0.00544868594613 0
0.00927173382414 0.00590223826119 0
0.0228143596697 0.0131272727246 0
0.0219964530454 0.0120909090529 0
0.0213603034704 0.01105454542 0
0.0229961167282 0.0152 12
0.0229961167189 0.0141636363574 0
0.0186794692613 0.00760454050727 0
0.0204515223117 0.0100181817483 0
0.0197712000289 0.00898181815439 0
0.0189999999805 0.00898181815439 0
0.0171078195695 0.00662306436149 0
0.0177282117384 0.00760887602266 0
0.0140636551639 0.00685357142371 0
0.0132999999611 0.00728333331387 0
0.0150657382534 0.00678971007498 0
0.0161499999708 0.00685123823602 0
0.00730388563015 0.00225598541834 0
0.0100971491676 0.00687865021325 0
0.00678771264263 0.00274513112781 0
0.00702486427177 0.00373958185882 0
0.006 0 1
0.00629999999795 0.000699999974901 0
0.00654395245616 0.00172296866409 0
0.00726201593984 0.00473403258983 0
0.01263117225 0.00764289106819 0
0.0117028886491 0.00752606448259 0
0.0109043329932 0.00720409672778 0
0.00764512742902 0.00589002544418 0
0.00907547343669 0.00691527095145 0
0.00836030041339 0.00640264819782 0
0.0219964530454 0.0141636363574 0
0.0219964530454 0.0131272727246 0
0.0212694249652 0.0120909090529 0
0.0203606444683 0.0110545453811 0
0.0219964530815 0.0152 12
0.0196345392068 0.0110545453811 0
0.0180384078618 0.00854772970257 0
0.0189999999805 0.0100181817872 0
0.0188364735148 0.0107534077906 0
0.0185192039017 0.00950681076577 0
0.0164806203428 0.00767030693835 0
0.0171078195695 0.00854102144734 0
0.0132999999611 0.00816999999221 0
0.0140636551639 0.00773571424679 0
0.0150657382534 0.00787382604109 0
0.00986444781736 0.00758466080142 0
0.005 0 1
0.00650718215164 0.00425726394002 0
0.00602146167413 0.00224545944612 0
0.00627003048358 0.00326281320901 0
0.00524999998207 0.000749999968242 0
0.00559999997439 0.00139999999846 0
0.00637924861319 0.00552983979944 0
0.00599361018529 0.00477366357383 0
0.01295063183 0.00880624603402 0
0.0122668499017 0.00829227099385 0
0.0112037913301 0.00844080980214 0
0.0105050551457 0.00793996864584 0
0.00682417423793 0.00633136494223 0
0.00759723845394 0.00682352222109 0
0.00897207897219 0.00781340818215 0
0.00831241147724 0.00733614497472 0
0.021087667916 0.0141636363574 0
0.02117854646 0.0131272727246 0
0.0202697665861 0.0120909090139 0
0.0209967894348 0.0152 12
0.0189999999805 0.0120909090529 0
0.0175731136962 0.00952012481435 0
0.0180384078618 0.0114045405073 0
0.0180384078618 0.010452270239 0
0.0166422947479 0.00962513741346 0
0.0161499999708 0.00897024763163 0
0.0140636551639 0.00861785710879 0
0.0150657382534 0.00895794200721 0
0.0136818275625 0.0092624999635 0
0.00963174650607 0.00829067142852 0
0.004 0 1
0.0042857142683 0.000714285698407 0
0.00575234840238 0.00378049532914 0
0.00511073078123 0.00252272968746 0
0.00466666666154 0.00155555553763 0
0.00583129227919 0.00601698660698 0
0.00548003825786 0.00529006320763 0
0.0050533588273 0.00446004210171 0
0.0126012637378 0.00944249211475 0
0.0119025275534 0.00894165095844 0
0.0109823350149 0.00923804871402 0
0.0103070407605 0.00876436007127 0
0.00875843790533 0.00864137425012 0
0.0059858440657 0.00678204618369 0
0.00754934955672 0.00775701903692 0
0.00688672304692 0.00733516991295 0
0.00815389373103 0.00819919664352 0
0.0200880108993 0.0141636362796 0
0.019997133056 0.0131272726857 0
0.0199971330638 0.0151999999406 12
0.0189999999805 0.0131272727246 0
0.0182788058817 0.0123602161535 0
0.0167210621972 0.0105775268442 0
0.0171078195695 0.0114179570567 0
0.0155585845028 0.0101035860954 0
0.0145466192145 0.00982514330407 0
0.0132999999611 0.00994333330998 0
0.0140636551639 0.0103821428328 0
0.00942591815714 0.00910601202907 0
0.003 0 1
0.00333333332411 0.00083333331643 0
0.00425139343324 0.00424226215127 0
0.00374999998719 0.00149999998515 0
0.00462667939675 0.00363002103472 0
0.00419999996619 0.00279999996773 0
0.00374999998719 0.00224999996312 0
0.00356552283211 0.00493785339453 0
0.00528333598411 0.00650413345346 0
0.00458082794145 0.00622622072322 0
0.0125544914881 0.0103649413449 0
0.0118637922154 0.00998814753344 0
0.0107608786997 0.0100352876648 0
0.00982930487369 0.0100186689483 0
0.00875068895356 0.00935355010787 0
0.00788512926566 0.00899207707172 0
0.00514283439894 0.00723524311333 0
0.00590154309124 0.00774070556489 0
0.00694927185592 0.00833897488368 0
0.0189999999805 0.0141636363574 0
0.019 0.0152 13
0.0180384078618 0.0133090810437 0
0.0168783032186 0.0124787527468 0
0.0161499999708 0.0110892570272 0
0.0161499999708 0.0121487617445 0
0.0150657382534 0.0111261739005 0
0.0132999999611 0.0108299999883 0
0.0140636551639 0.0112642856948 0
0.00874294004072 0.0100657259656 0
0.002 0 1
0.00224999999232 0.000749999968242 0
0.0026666666554 0.0013333333277 0
0.00344942807811 0.00402448223976 0
0.00285714285202 0.00214285711468 0
0.00333333332411 0.00311111108499 0
0.00368161762504 0.0058512245493 0
0.00289080877974 0.00537561225493 0
0.00277873771757 0.00463225053733 0
0.00444032631734 0.00695733038309 0
0.00368161762504 0.00657441120457 0
0.00429982473217 0.00768844004296 0
0.0118250569164 0.0110346441084 0
0.0124396165054 0.0113188201711 0
0.0103647383579 0.0107073163363 0
0.0110948976371 0.0108709802224 0
0.00912500347572 0.0106873481442 0
0.00793204088214 0.00974493079977 0
0.00701182066492 0.00934277989333 0
0.00519903500965 0.0081183696794 0
0.00581724211678 0.00869936498501 0
0.0181185405221 0.014262486412 0
0.0180384078644 0.0152136215709 13
0.0171078195695 0.0133359141425 0
0.0161499999708 0.0132082664229 0
0.0153614459875 0.0122472067788 0
0.0140636551639 0.0121464285568 0
0.0132999999611 0.0117166666277 0
0.0145466191756 0.0126997077307 0
0.0083299734114 0.0106173731072 0
0.001 0 1
0.00149999997541 0.000999999973876 0
0.00199999998668 0.00199999999641 0
0.0026666666554 0.00388888885867 0
0.00249999999795 0.00299999998002 0
0.00276821104462 0.00613623486654 0
0.00209999997336 0.00489999999949 0
0.00368161762504 0.00729759782091 0
0.00276821104462 0.00692809869543 0
0.00414527294565 0.00869193054293 0
0.0034568150654 0.00814163697259 0
0.0110875853941 0.0115802994882 0
0.0118526992771 0.0119340927499 0
0.0126178131991 0.0122878860116 0
0.00950706694965 0.0113089703616 0
0.0103179661082 0.0116297655664 0
0.00616162846746 0.00961370139137 0
0.00872790597959 0.0114898154145 0
0.00707436947392 0.0103465848641 0
0.00472835462729 0.00928827667724 0
0.00531143630893 0.00988462288942 0
0.0170313141062 0.0143288317215 0
0.0171078195964 0.0152538712149 13
0.0161499999708 0.0142677711401 0
0.0132999999611 0.0126033333061 0
0.0150657382534 0.0132944058327 0
0.0139000147911 0.012926785707 0
0.00764639788619 0.0110622633841 0
0 0 22
0 0.001 22
0.000666666649251 0.0013333333277 0
0.00149999997541 0.0044999999749 0
0.000749999997439 0.00224999996312 0
0.00133333331797 0.00266666666513 0
0.0018749999644 0.00374999999693 0
0.00184547404921 0.00642415658811 0
0.00133333331797 0.00544444440603 0
0.00276821104462 0.00771996252432 0
0.00184547404921 0.00728539913524 0
0.00351301567612 0.00903182823042 0
0.00259519786285 0.00860483720988 0
0.011285774455 0.0123369432934 0
0.0119356264372 0.0128591054345 0
0.0126178131991 0.01317455269 0
0.00955467423243 0.0120614307093 0
0.0107188496329 0.0127397938759 0
0.00356921632576 0.00992201952717 0
0.00879045478859 0.0124936204242 0
0.00604116113739 0.0104711812286 0
0.00784392507146 0.0119863881695 0
0.00689739539325 0.0114791559149 0
0.00428858456331 0.0102588985602 0
0.0050079528398 0.0105957775931 0
0.01615 0.0153272758664 14
0.0150657382534 0.0143785217989 0
0.0132999999611 0.0134899999844 0
0.0140636551639 0.0139107142808 0
0 0.002 22
0 0.005 22
0.000714285688674 0.00428571427803 0
0 0.003 22
0.000666666649251 0.00333333329492 0
0 0.006 22
0.000922737014874 0.00671207827075 0
0.00184547404921 0.00814664168236 0
0.000922737014874 0.00764269953612 0
0.00265286891046 0.00949657061235 0
0.00173013191505 0.0090698914543 0
0.0112534396363 0.0134303248184 0
0.0124478436645 0.0140466963319 0
0.00985846621614 0.013080836279 0
0.0103001328759 0.0136914545115 0
0.0036254169754 0.0108122108239 0
0.00271053995808 0.0103883040148 0
0.00887517082708 0.0132172657054 0
0.00802623534475 0.0129258101391 0
0.00542383760821 0.0116508760605 0
0.0061606164618 0.0115650159682 0
0.00707970566655 0.0124185778845 0
0.0062798719622 0.012476290275 0
0.00455272761663 0.0116766390711 0
0.015065738272 0.0154626377729 14
0.0141427021254 0.0147175513633 0
0.0132999999611 0.0143766666628 0
0 0.004 22
0 0.007 22
0 0.008 22
0.000922737014874 0.00857332084041 0
0.00086506592833 0.00953494573765 0
0.00178780296267 0.00996162485677 0
0.00368161762504 0.0117024021207 0
0.0107417995746 0.0143020727441 0
0.0124478437034 0.0149974349275 0
0.0115956874457 0.0146033927183 0
0.00943592446236 0.0137854903373 0
0.00988906615133 0.014572763664 0
0.00276821104462 0.0112800374173 0
0.00184547404921 0.0108533582982 0
0.00813769934367 0.0137629211241 0
0.00726201593984 0.0133579998541 0
0.00548003825786 0.0125340026655 0
0.00637924861319 0.0134701601422 0
0.00368161762504 0.012425588776 0
0.00458082794145 0.0127737792184 0
0.0140636551984 0.015675 15
0.0132999999611 0.0152633333022 0
0 0.009 22
0 0.01 22
0.000922737014874 0.0104266791401 0
0.00276821104462 0.0120719012462 0
0.0124478437034 0.0158200296886 0
0.010743531188 0.0151600891437 0
0.0115956874457 0.0156182032311 0
0.0090133827475 0.0144901444346 0
0.00920462553958 0.0153033896665 0
0.0098521620858 0.0156295509226 0
0.00184547404921 0.0117146008453 0
0.000922737014874 0.0113573004055 0
0.00813769934367 0.0145392069329 0
0.00726201593984 0.0142659673518 0
0.00650073561799 0.0142050541177 0
0.00548003825786 0.013709936734 0
0.00436748822617 0.0138443665966 0
0.00276821104462 0.0128637650751 0
0.00368161762504 0.0131487754312 0
0.0133 0.01615 15
0 0.011 22
0.00184547404921 0.0125758433924 0
0.0124350293511 0.0165412962348 0
0.0104218054566 0.0160211011905 0
0.0111363083901 0.0164774151879 0
0.00831967992486 0.0154434122268 0
0.00895802666867 0.0161411661864 0
0.0098152580592 0.0166863381813 0
0 0.012 22
0.000699999965169 0.0126999999729 0
0.0075132016536 0.015292431696 0
0.00662222262278 0.0149399481711 0
0.00583779070558 0.014739952986 0
0.0050533588273 0.014539957801 0
0.00209999997336 0.014099999981 0
0.0035908088033 0.0143243876713 0
0.00289080877974 0.0136243876867 0
0.0128810073122 0.017068560837 0
0.0140636551984 0.016625 16
0.00131162588225 0.013121254997 0
0.011591799111 0.017068560837 0
0.0121801203239 0.017537676924 0
0.0106769293735 0.0173366271836 0
0.0125846953179 0.0182592698533 0
0.0133646470974 0.0181857916479 0
0.00777645365454 0.0159167960143 0
0.00823004739036 0.0165843094339 0
0.00868364116511 0.0172518228924 0
0.0097783540326 0.0177431255178 0
0 0.013 22
0.000777777754215 0.0136666666405 0
0.00149999997541 0.0144999999667 0
0.00692772496457 0.015665063967 0
0.00598242934466 0.0156139290293 0
0.00462667939675 0.015369978868 0
0.00349999998156 0.0154999999892 0
0.00233333330158 0.014999999978 0
0.0140325426857 0.0177858189517 0
0.015065738272 0.0168373622271 16
0.013 0.019 21
0.011359708717 0.0178257060515 0
0.010382319562 0.0183645075415 0
0.012 0.019 21
0.014 0.019 21
0.0145108397771 0.0183860927782 0
0.01 0.019 21
0.00723322738421 0.0163901798408 0
0.00772524354442 0.0172982186959 0
0.0080104145228 0.0182040187668 0
0.00886562178523 0.0181560282252 0
0 0.014 22
0.00142857139681 0.0154285714106 0
0.000714285688674 0.0147142857025 0
0.00624467268786 0.0168224414192 0
0.00419999996619 0.0161999999739 0
0.00532480734999 0.0163066912816 0
0.00299999997029 0.0159999999616 0
0.00214285710495 0.0161428571188 0
0.0155685174652 0.0179977897187 0
0.01615 0.0169727241336 17
0.011 0.019 21
0.015 0.019 21
0.009 0.019 21
0.00374999998719 0.0167499999785 0
0.00676684592372 0.0173446145772 0
0.00715520726038 0.0182520093473 0
0.008 0.019 21
0.00133333331797 0.0163333333154 0
0 0.015 22
0.000666666649251 0.0156666666467 0
0.00559999997439 0.0175999999821 0
0.00466666666154 0.0169999999841 0
0.00285714285202 0.0168571428269 0
0.016 0.019 21
0.0015999999621 0.0171999999964 0
0.0165797914083 0.0179977897187 0
0.0171078195964 0.0170461287851 17
0.00401785712775 0.0175178571303 0
0.00239999997234 0.0177999999944 0
0.00629999999795 0.0182999999667 0
0.007 0.019 21
0.000749999997439 0.0167499999785 0
0 0.016 22
0.00524999998207 0.0182499999734 0
0.0042857142683 0.0182857142821 0
0.00333333332411 0.0181666666641 0
0.017 0.019 21
0.00149999997541 0.0179999999677 0
0.000666666649251 0.0176666666528 0
0.0175464827571 0.0180067992396 0
0.0180384078644 0.0170863784291 17
0.003 0.019 21
0.002 0.019 21
0.006 0.019 21
0 0.017 22
0.005 0.019 21
0.004 0.019 21
0.018 0.019 21
0.001 0.019 21
0 0.018 22
0.019 0.0171 18
0.0189999999805 0.0180499999611 0
0.019 0.019 21
0 0.019 22
0.0199894555014 0.0171000007979 18
0.0199918330309 0.019 20
0.0204866141802 0.0180499999611 0
0.0209813953462 0.0171 18
0.0209836660617 0.019 20
0.021478513992 0.0180499999611 0
0.0219733619485 0.0171 18
0.0219754990926 0.019 20
0.0229663303279 0.0180499999611 0
0.0229653285509 0.0171 18
0.0229673321234 0.019 20
0.0239572951532 0.0171 18
0.0239582301397 0.0180499999611 0
0.0239591651543 0.019 20
0.0249492617556 0.0171 18
0.0249501299516 0.0180499999611 0
0.0249509981851 0.019 20
0.0259412283579 0.0171 18
0.0259420297634 0.0180499999611 0
0.025942831216 0.019 20
0.0269331949603 0.0171 18
0.0269339295753 0.0180499999611 0
0.0269346642468 0.019 20
0.0279251615627 0.0171 18
0.0279264972777 0.019 20
0.0284218127138 0.0180499999611 0
0.028917128165 0.0171 18
0.0289183303085 0.019 20
0.0299096290497 0.01805 0
0.0299090947674 0.0171 18
0.0299101633394 0.019 20
0.0309010613697 0.0171 18
0.0309015288616 0.0180499999611 0
0.0309019963702 0.019 20
0.0318938294011 0.019 20
0.0318930279721 0.0171 18
0.0323894119612 0.0180499999611 0
0.0328856624319 0.019 20
0.0328849945744 0.0171 18
0.0338772282971 0.0180499999611 0
0.0338774954628 0.019 20
0.0338769611768 0.0171 18
0.0348693284936 0.019 20
0.0353651114356 0.01805 0
0.0348689277791 0.0171 18
0.0358611615245 0.019 20
0.0363570112475 0.0180499999611 0
0.0358608943815 0.0171 18
0.0368529945554 0.019 20
0.0373735855683 0.0181376475303 0
0.0368528609839 0.0171 18
0.038 0.019 20
0.038 0.0171 19

Edges
208
765 761 22
761 756 22
756 744 22
744 730 22
730 712 22
712 691 22
691 670 22
670 662 22
662 643 22
643 642 22
642 622 22
622 621 22
621 598 22
598 594 22
594 620 22
620 596 22
596 593 22
593 565 22
565 564 22
764 759 21
759 748 21
748 735 21
735 723 21
723 705 21
705 701 21
701 704 21
704 722 21
722 707 21
707 724 21
724 728 21
728 742 21
742 755 21
755 757 21
757 758 21
758 753 21
753 754 21
754 760 21
760 765 21
817 814 20
814 811 20
811 808 20
808 806 20
806 803 20
803 800 20
800 799 20
799 796 20
796 793 20
793 790 20
790 788 20
788 785 20
785 782 20
782 779 20
779 776 20
776 773 20
773 770 20
770 767 20
767 764 20
818 817 19
762 766 18
766 769 18
769 772 18
772 775 18
775 777 18
777 780 18
780 783 18
783 786 18
786 789 18
789 792 18
792 795 18
795 797 18
797 801 18
801 804 18
804 807 18
807 810 18
810 813 18
813 816 18
816 818 18
721 738 17
738 752 17
752 762 17
680 700 16
700 721 16
640 661 15
661 680 15
589 617 14
617 640 14
497 528 13
528 558 13
558 589 13
59 77 12
77 95 12
95 112 12
112 132 12
132 151 12
151 168 12
168 186 12
186 204 12
204 223 12
223 241 12
241 263 12
263 282 12
282 316 12
316 347 12
347 376 12
376 406 12
406 437 12
437 467 12
467 497 12
32 38 11
38 39 11
39 37 11
37 41 11
41 54 11
54 55 11
55 53 11
53 43 11
43 44 11
44 61 11
61 59 11
296 271 10
271 265 10
265 245 10
245 244 10
244 225 10
225 208 10
208 189 10
189 171 10
171 157 10
157 140 10
140 139 10
139 119 10
119 105 10
105 88 10
88 70 10
70 71 10
71 52 10
52 40 10
40 32 10
303 302 9
302 297 9
297 296 9
272 299 8
299 303 8
230 250 7
250 272 7
191 210 6
210 230 6
135 154 5
154 172 5
172 191 5
1 4 4
4 7 4
7 9 4
9 12 4
12 15 4
15 18 4
18 19 4
19 23 4
23 26 4
26 29 4
29 30 4
30 34 4
34 45 4
45 47 4
47 65 4
65 84 4
84 100 4
100 117 4
117 135 4
2 1 3
137 118 2
118 101 2
101 85 2
85 67 2
67 66 2
66 48 2
48 36 2
36 35 2
35 31 2
31 27 2
27 24 2
24 21 2
21 20 2
20 16 2
16 13 2
13 10 2
10 6 2
6 5 2
5 2 2
564 536 1
536 506 1
506 477 1
477 448 1
448 418 1
418 392 1
392 363 1
363 336 1
336 306 1
306 276 1
276 253 1
253 232 1
232 212 1
212 211 1
211 192 1
192 174 1
174 156 1
156 138 1
138 137 1

Triangles
1426
765 761 760 0
760 761 750 0
743 756 744 0
736 750 743 0
754 749 740 0
760 750 749 0
761 756 750 0
749 754 760 0
718 698 697 0
725 718 716 0
734 736 719 0
736 729 719 0
749 736 740 0
749 750 736 0
743 744 731 0
756 743 750 0
731 730 714 0
729 731 713 0
744 730 731 0
739 746 747 0
734 739 747 0
725 733 739 0
729 736 743 0
740 753 754 0
713 731 714 0
681 671 663 0
676 681 663 0
692 671 681 0
747 746 758 0
740 747 753 0
740 734 747 0
671 692 691 0
732 741 745 0
747 758 753 0
733 746 739 0
745 757 746 0
671 691 670 0
745 755 757 0
758 746 757 0
717 716 696 0
695 717 696 0
637 656 657 0
688 667 668 0
694 687 708 0
672 667 687 0
694 672 687 0
673 655 672 0
715 732 717 0
695 715 717 0
745 733 732 0
725 716 733 0
725 734 718 0
734 725 739 0
736 734 740 0
719 713 698 0
734 719 718 0
729 713 719 0
714 692 693 0
676 663 659 0
676 693 681 0
713 693 698 0
718 719 698 0
729 743 731 0
714 712 692 0
713 714 693 0
730 712 714 0
712 691 692 0
662 653 670 0
697 716 718 0
677 697 698 0
676 678 698 0
660 658 677 0
658 639 657 0
677 658 675 0
660 639 658 0
624 643 642 0
545 575 546 0
609 602 582 0
609 633 625 0
574 573 600 0
571 544 574 0
599 571 574 0
572 542 571 0
515 486 485 0
543 515 517 0
543 516 515 0
609 608 632 0
609 582 608 0
633 609 632 0
609 625 602 0
545 517 525 0
587 582 555 0
546 517 545 0
644 653 662 0
603 625 624 0
633 652 653 0
625 633 644 0
624 625 644 0
603 602 625 0
632 652 633 0
650 631 651 0
630 607 631 0
562 591 560 0
604 605 629 0
679 664 661 0
665 666 684 0
651 665 669 0
651 647 665 0
605 604 578 0
641 628 619 0
648 647 629 0
631 627 647 0
577 547 548 0
578 577 548 0
581 551 577 0
607 581 604 0
606 580 581 0
666 682 684 0
664 682 666 0
661 664 646 0
679 683 664 0
683 685 702 0
741 755 745 0
643 624 644 0
657 639 636 0
674 695 696 0
657 674 675 0
673 695 674 0
656 673 674 0
635 656 637 0
655 673 656 0
655 654 672 0
635 655 656 0
717 732 733 0
654 667 672 0
689 668 669 0
710 689 711 0
710 727 709 0
694 673 672 0
715 694 708 0
695 673 694 0
654 649 667 0
675 696 677 0
677 696 697 0
656 674 657 0
674 696 675 0
716 697 696 0
677 678 660 0
693 676 698 0
693 692 681 0
659 645 638 0
678 676 659 0
660 678 659 0
677 698 678 0
663 645 659 0
670 653 671 0
675 658 657 0
638 639 660 0
659 638 660 0
645 632 626 0
652 632 645 0
671 652 663 0
653 644 633 0
671 653 652 0
662 643 644 0
588 587 556 0
639 638 616 0
575 602 576 0
546 575 576 0
545 555 575 0
663 652 645 0
573 574 544 0
603 600 576 0
576 602 603 0
623 601 600 0
624 623 603 0
624 642 623 0
623 642 622 0
615 614 637 0
636 615 637 0
636 613 615 0
638 626 616 0
494 461 463 0
512 484 486 0
398 397 429 0
431 462 463 0
399 431 430 0
401 400 433 0
371 401 399 0
433 462 431 0
401 433 431 0
432 447 460 0
400 432 433 0
400 389 417 0
485 461 493 0
515 485 493 0
486 454 485 0
453 430 461 0
415 385 384 0
474 456 446 0
473 475 446 0
549 548 519 0
619 628 605 0
627 607 604 0
649 630 631 0
610 583 606 0
630 610 606 0
607 630 606 0
581 607 606 0
627 631 607 0
649 634 630 0
634 611 610 0
637 614 635 0
583 580 606 0
614 585 611 0
464 492 495 0
433 464 462 0
460 492 464 0
585 586 563 0
584 613 612 0
552 584 556 0
554 586 584 0
584 586 613 0
553 550 580 0
522 535 505 0
490 522 505 0
550 553 522 0
458 428 457 0
490 459 489 0
459 429 428 0
585 583 611 0
586 615 613 0
488 456 487 0
521 551 520 0
428 397 427 0
503 533 519 0
385 357 384 0
313 344 312 0
256 255 278 0
389 400 372 0
344 369 372 0
429 397 428 0
339 368 341 0
427 396 414 0
428 427 457 0
397 396 427 0
372 400 401 0
344 372 343 0
312 344 343 0
369 389 372 0
341 369 344 0
341 368 369 0
369 368 398 0
396 397 367 0
414 396 385 0
488 487 518 0
426 456 457 0
427 426 457 0
414 444 426 0
426 446 456 0
427 414 426 0
395 370 399 0
370 342 343 0
733 745 746 0
716 717 733 0
710 711 728 0
742 727 728 0
688 708 687 0
710 709 689 0
726 708 709 0
732 726 741 0
689 688 668 0
715 708 726 0
715 695 694 0
638 645 626 0
622 601 623 0
577 604 581 0
577 578 604 0
518 548 547 0
549 578 548 0
533 549 519 0
560 591 579 0
579 591 605 0
549 579 578 0
549 560 579 0
583 610 611 0
650 668 667 0
647 651 631 0
647 648 665 0
654 634 649 0
614 611 635 0
612 613 636 0
639 616 636 0
615 586 614 0
588 584 612 0
588 556 584 0
552 526 524 0
554 552 524 0
556 526 552 0
463 462 495 0
430 463 461 0
430 431 463 0
488 457 456 0
521 489 488 0
488 458 457 0
518 521 488 0
476 460 447 0
459 476 447 0
490 505 476 0
520 490 489 0
520 550 522 0
458 459 428 0
464 433 432 0
460 464 432 0
429 417 398 0
372 371 343 0
616 612 636 0
608 616 626 0
588 612 616 0
608 587 616 0
632 608 626 0
587 588 616 0
582 587 608 0
582 575 555 0
584 552 554 0
602 575 582 0
417 447 432 0
400 417 432 0
389 398 417 0
417 429 447 0
489 458 488 0
526 495 524 0
555 526 556 0
587 555 556 0
545 525 555 0
494 495 526 0
580 551 581 0
492 523 524 0
585 563 553 0
583 585 553 0
614 586 585 0
586 554 563 0
535 522 553 0
430 424 399 0
313 341 344 0
280 313 279 0
280 309 311 0
357 367 340 0
367 397 368 0
385 367 357 0
369 398 389 0
340 368 339 0
397 398 368 0
338 308 312 0
278 255 273 0
300 278 273 0
309 280 278 0
384 386 415 0
301 332 300 0
487 456 474 0
503 487 474 0
401 371 372 0
415 444 414 0
385 415 414 0
358 384 357 0
358 386 384 0
416 445 444 0
445 443 472 0
446 444 473 0
416 443 445 0
331 299 303 0
358 332 359 0
301 299 331 0
440 441 410 0
471 440 469 0
471 441 440 0
501 471 499 0
470 442 439 0
500 470 471 0
500 472 470 0
501 500 471 0
530 501 499 0
531 500 501 0
472 442 470 0
387 382 412 0
386 360 387 0
386 359 360 0
415 386 416 0
358 359 386 0
332 301 331 0
359 332 331 0
358 330 332 0
327 297 296 0
329 327 298 0
328 297 327 0
410 407 438 0
409 410 441 0
409 407 410 0
439 411 441 0
381 380 409 0
634 610 630 0
635 611 634 0
549 533 560 0
518 519 548 0
521 520 489 0
547 521 518 0
547 551 521 0
577 551 547 0
524 523 554 0
505 491 476 0
495 492 524 0
495 462 464 0
459 458 489 0
476 459 490 0
447 429 459 0
535 553 563 0
554 535 563 0
522 490 520 0
523 505 535 0
491 460 476 0
523 491 505 0
523 492 491 0
554 523 535 0
492 460 491 0
551 550 520 0
551 580 550 0
580 583 553 0
487 519 518 0
487 503 519 0
605 578 579 0
619 605 591 0
629 627 604 0
628 629 605 0
628 648 629 0
504 533 503 0
532 560 533 0
591 592 619 0
618 590 617 0
641 618 640 0
727 726 709 0
728 727 710 0
741 726 727 0
688 687 667 0
709 688 689 0
709 708 688 0
690 707 711 0
603 623 600 0
532 562 560 0
474 446 475 0
534 561 562 0
531 534 532 0
531 561 534 0
664 683 682 0
273 301 300 0
250 273 255 0
272 301 273 0
333 331 303 0
310 309 278 0
272 299 301 0
331 333 359 0
592 591 562 0
618 619 592 0
646 648 628 0
327 354 328 0
271 298 296 0
321 350 329 0
641 619 618 0
646 641 661 0
646 628 641 0
661 641 640 0
532 534 562 0
561 530 559 0
562 561 592 0
531 530 561 0
617 640 618 0
302 328 333 0
530 531 501 0
529 530 499 0
590 589 617 0
529 559 530 0
557 589 559 0
592 561 590 0
288 289 271 0
381 378 353 0
298 327 296 0
356 354 329 0
378 383 356 0
382 354 356 0
382 360 355 0
443 413 442 0
387 412 416 0
386 387 416 0
360 382 387 0
382 383 412 0
355 354 382 0
333 355 360 0
328 354 355 0
333 328 355 0
359 333 360 0
303 302 333 0
302 297 328 0
383 408 413 0
412 383 413 0
356 350 378 0
590 561 559 0
589 590 559 0
618 592 590 0
529 557 559 0
469 498 499 0
498 496 527 0
558 589 557 0
294 326 325 0
528 558 557 0
502 531 532 0
504 502 532 0
533 504 532 0
475 473 502 0
503 475 504 0
503 474 475 0
472 500 502 0
443 442 472 0
412 443 416 0
412 413 443 0
470 441 471 0
473 445 472 0
413 408 439 0
379 407 409 0
468 469 438 0
529 498 527 0
529 499 498 0
293 288 268 0
294 293 270 0
321 288 293 0
329 298 321 0
356 329 350 0
354 327 329 0
271 265 288 0
289 321 298 0
271 289 298 0
288 321 289 0
268 288 265 0
268 270 293 0
32 38 40 0
51 40 38 0
51 38 39 0
49 51 39 0
37 49 39 0
56 69 49 0
69 68 50 0
37 42 49 0
42 37 41 0
56 42 57 0
56 49 42 0
74 56 57 0
69 51 49 0
68 86 71 0
40 50 52 0
69 86 68 0
50 51 69 0
52 50 68 0
40 51 50 0
150 166 164 0
146 150 164 0
107 126 122 0
42 41 58 0
68 71 52 0
58 41 54 0
55 73 54 0
57 42 58 0
73 76 58 0
72 73 55 0
72 78 90 0
53 72 55 0
91 93 76 0
73 91 76 0
90 108 91 0
72 90 73 0
94 96 111 0
87 86 69 0
92 87 74 0
109 92 93 0
104 102 87 0
176 161 180 0
145 142 162 0
144 145 163 0
144 142 145 0
163 145 162 0
141 144 161 0
158 141 161 0
139 119 141 0
119 105 125 0
109 128 107 0
120 103 121 0
103 86 102 0
121 103 102 0
125 120 123 0
106 103 120 0
105 106 125 0
88 89 106 0
86 87 102 0
160 164 178 0
162 160 179 0
146 164 160 0
90 91 73 0
104 121 102 0
107 104 92 0
107 122 104 0
109 107 92 0
128 131 126 0
75 57 76 0
69 74 87 0
75 76 93 0
146 160 162 0
86 89 71 0
53 60 72 0
61 59 77 0
82 81 98 0
62 82 80 0
63 81 82 0
80 97 96 0
63 82 62 0
98 97 80 0
82 98 80 0
61 81 63 0
77 95 81 0
95 112 98 0
134 114 132 0
63 62 44 0
77 81 61 0
81 95 98 0
60 78 72 0
62 60 43 0
79 80 96 0
78 79 96 0
62 80 79 0
61 63 44 0
62 79 60 0
151 134 132 0
79 78 60 0
129 149 128 0
111 127 130 0
115 113 97 0
115 134 133 0
147 166 148 0
131 150 146 0
126 131 146 0
128 149 131 0
133 134 152 0
147 133 152 0
113 115 133 0
98 115 97 0
114 134 115 0
112 114 98 0
112 132 114 0
170 168 187 0
184 169 187 0
153 151 168 0
60 53 43 0
44 62 43 0
131 149 150 0
126 107 128 0
143 126 146 0
122 121 104 0
143 122 126 0
143 142 122 0
110 108 94 0
111 110 94 0
129 108 110 0
91 108 93 0
149 166 150 0
130 127 148 0
129 130 149 0
109 129 128 0
94 90 78 0
130 110 111 0
108 90 94 0
109 108 129 0
109 93 108 0
111 113 127 0
129 110 130 0
96 113 111 0
96 97 113 0
187 168 186 0
202 184 187 0
222 202 205 0
222 203 202 0
152 165 147 0
187 169 170 0
184 183 169 0
184 203 183 0
165 169 183 0
187 205 202 0
223 205 204 0
222 221 203 0
224 222 205 0
242 241 264 0
262 240 264 0
224 241 242 0
220 199 218 0
235 220 239 0
215 200 220 0
163 162 181 0
180 163 181 0
200 180 181 0
195 176 180 0
161 144 163 0
139 141 158 0
106 105 88 0
120 125 106 0
142 123 120 0
142 144 123 0
144 141 124 0
199 197 218 0
198 199 220 0
198 179 199 0
162 179 181 0
178 182 197 0
160 178 179 0
164 182 178 0
88 70 89 0
166 183 167 0
96 94 78 0
58 76 57 0
58 54 73 0
170 153 168 0
153 134 151 0
169 153 170 0
169 152 153 0
166 165 183 0
148 149 130 0
147 148 127 0
133 147 127 0
165 166 147 0
166 149 148 0
115 98 114 0
121 142 120 0
87 92 104 0
122 142 121 0
162 143 146 0
162 142 143 0
89 86 103 0
106 89 103 0
70 71 89 0
69 56 74 0
204 205 186 0
75 93 92 0
74 75 92 0
74 57 75 0
144 125 123 0
223 224 205 0
264 241 263 0
287 264 263 0
240 237 221 0
264 240 242 0
262 259 240 0
124 141 119 0
125 124 119 0
125 144 124 0
195 177 176 0
200 195 180 0
198 200 181 0
215 195 200 0
215 196 195 0
159 175 157 0
176 177 159 0
161 176 158 0
161 163 180 0
196 214 194 0
158 140 139 0
287 263 282 0
316 287 282 0
242 240 224 0
318 284 287 0
285 260 259 0
235 239 258 0
262 264 287 0
261 286 281 0
285 283 260 0
317 319 286 0
285 317 283 0
285 318 317 0
259 262 285 0
238 259 260 0
239 238 260 0
219 218 217 0
240 222 224 0
238 217 237 0
203 184 202 0
349 320 347 0
261 258 283 0
257 261 281 0
257 258 261 0
292 266 281 0
236 235 258 0
234 236 257 0
234 216 236 0
140 158 159 0
236 258 257 0
216 235 236 0
214 216 234 0
215 235 216 0
177 195 196 0
199 179 178 0
200 198 220 0
181 179 198 0
239 260 258 0
215 220 235 0
240 221 222 0
238 237 259 0
217 221 237 0
219 217 238 0
239 219 238 0
239 218 219 0
220 218 239 0
197 201 218 0
201 203 221 0
218 201 217 0
182 164 167 0
183 185 167 0
197 199 178 0
320 316 347 0
159 158 176 0
175 159 177 0
194 175 177 0
196 194 177 0
206 188 194 0
188 189 175 0
157 140 159 0
346 345 374 0
348 373 345 0
348 349 377 0
317 348 319 0
318 320 348 0
347 376 349 0
402 377 406 0
435 402 434 0
403 373 402 0
188 175 194 0
175 171 157 0
207 228 208 0
206 207 188 0
227 228 207 0
214 226 206 0
247 228 227 0
189 171 175 0
411 381 409 0
441 411 409 0
439 408 411 0
382 356 383 0
378 381 408 0
383 378 408 0
350 353 378 0
325 293 294 0
353 325 326 0
321 293 325 0
323 295 291 0
324 350 321 0
353 324 325 0
353 350 324 0
248 247 269 0
270 248 269 0
270 249 248 0
377 349 376 0
406 377 376 0
373 348 377 0
314 319 345 0
290 314 315 0
286 319 314 0
286 283 317 0
345 319 348 0
403 374 373 0
315 314 345 0
402 373 377 0
406 434 402 0
435 404 403 0
269 247 246 0
291 269 267 0
292 291 267 0
295 294 291 0
294 270 269 0
225 228 244 0
527 497 528 0
468 466 496 0
469 468 498 0
438 466 468 0
465 467 496 0
244 268 245 0
434 406 437 0
467 465 437 0
182 201 197 0
185 203 201 0
182 185 201 0
182 167 185 0
166 167 164 0
183 203 185 0
152 134 153 0
165 152 169 0
127 113 133 0
187 186 205 0
237 240 259 0
241 224 223 0
221 217 201 0
283 258 260 0
318 348 317 0
284 318 285 0
262 284 285 0
262 287 284 0
320 349 348 0
287 320 318 0
287 316 320 0
314 281 286 0
283 286 261 0
346 375 351 0
345 346 315 0
374 375 346 0
436 404 435 0
436 405 404 0
315 346 322 0
321 325 324 0
291 292 323 0
323 351 352 0
295 323 326 0
294 295 326 0
294 269 291 0
292 290 322 0
227 207 206 0
215 216 196 0
249 270 268 0
244 249 268 0
228 247 249 0
249 247 248 0
208 228 225 0
208 188 207 0
227 206 226 0
257 266 243 0
380 379 409 0
353 380 381 0
352 379 380 0
326 352 353 0
326 323 352 0
266 292 267 0
243 266 267 0
257 281 266 0
322 290 315 0
351 322 346 0
351 323 322 0
281 290 292 0
281 314 290 0
351 379 352 0
292 322 323 0
375 379 351 0
374 403 404 0
375 374 404 0
345 373 374 0
436 407 405 0
405 407 379 0
375 405 379 0
375 404 405 0
434 466 435 0
434 465 466 0
403 402 435 0
437 465 434 0
467 497 496 0
469 499 471 0
468 496 498 0
435 466 436 0
465 496 466 0
527 528 557 0
529 527 557 0
496 497 527 0
439 442 413 0
381 411 408 0
441 470 439 0
438 440 410 0
500 531 502 0
245 268 265 0
438 407 436 0
466 438 436 0
469 440 438 0
444 446 426 0
416 444 415 0
445 473 444 0
502 473 472 0
502 504 475 0
188 208 189 0
214 206 194 0
216 214 196 0
226 246 227 0
234 226 214 0
234 243 226 0
246 267 269 0
227 246 247 0
243 267 246 0
226 243 246 0
234 257 243 0
380 353 352 0
249 244 228 0
2 1 3 0
3 1 4 0
3 5 2 0
8 3 4 0
8 6 3 0
8 4 7 0
9 11 7 0
6 5 3 0
10 6 8 0
11 8 7 0
11 13 10 0
8 11 10 0
9 12 11 0
12 14 11 0
11 14 13 0
17 15 18 0
13 14 16 0
12 15 14 0
17 16 14 0
17 18 22 0
16 17 20 0
14 15 17 0
22 21 17 0
18 19 22 0
22 25 24 0
20 17 21 0
19 23 22 0
23 25 22 0
21 22 24 0
25 27 24 0
26 25 23 0
26 29 28 0
28 27 25 0
28 31 27 0
26 28 25 0
29 33 28 0
33 31 28 0
33 35 31 0
30 33 29 0
30 34 33 0
33 36 35 0
34 46 33 0
46 48 36 0
33 46 36 0
34 45 46 0
45 47 64 0
64 48 46 0
64 66 48 0
45 64 46 0
47 65 64 0
83 67 64 0
65 83 64 0
83 99 85 0
66 64 67 0
65 84 83 0
84 99 83 0
83 85 67 0
99 101 85 0
100 99 84 0
100 117 116 0
116 101 99 0
116 118 101 0
100 116 99 0
117 135 136 0
136 118 116 0
136 137 118 0
117 136 116 0
135 154 136 0
136 154 155 0
136 138 137 0
172 155 154 0
155 138 136 0
191 173 172 0
156 138 155 0
173 191 190 0
156 173 174 0
155 172 173 0
173 156 155 0
190 174 173 0
190 191 210 0
230 209 210 0
192 174 190 0
193 192 190 0
209 190 210 0
209 193 190 0
250 229 230 0
193 211 192 0
213 193 209 0
213 212 193 0
250 233 229 0
229 233 231 0
213 231 232 0
211 193 212 0
231 233 251 0
209 229 213 0
209 230 229 0
252 253 232 0
212 213 232 0
251 275 252 0
252 275 274 0
277 279 308 0
251 233 254 0
310 278 300 0
272 273 250 0
340 330 357 0
309 310 339 0
341 311 339 0
280 256 278 0
311 313 280 0
339 311 309 0
341 313 311 0
279 256 280 0
300 330 310 0
304 307 276 0
274 304 276 0
253 274 276 0
253 252 274 0
308 279 312 0
335 308 338 0
277 256 279 0
277 254 256 0
305 277 308 0
305 275 277 0
275 251 254 0
233 256 254 0
312 342 338 0
454 425 424 0
399 370 371 0
424 395 399 0
485 453 461 0
453 454 424 0
430 453 424 0
485 454 453 0
493 517 515 0
544 571 541 0
511 540 510 0
481 511 482 0
539 540 511 0
452 483 480 0
481 482 451 0
421 391 419 0
484 512 513 0
514 484 513 0
542 514 513 0
539 509 514 0
509 479 484 0
450 419 425 0
451 450 481 0
421 390 391 0
451 421 450 0
420 390 421 0
362 391 390 0
395 424 425 0
454 486 455 0
484 455 486 0
420 451 423 0
342 312 343 0
395 391 366 0
396 367 385 0
370 343 371 0
312 279 313 0
304 274 275 0
565 564 536 0
507 506 477 0
537 507 508 0
537 506 507 0
538 537 508 0
566 536 537 0
537 536 506 0
508 507 478 0
477 478 507 0
568 566 538 0
538 566 537 0
597 568 569 0
593 566 568 0
565 536 566 0
477 448 478 0
593 565 566 0
538 508 510 0
540 538 510 0
569 568 538 0
422 418 392 0
422 449 418 0
423 452 422 0
361 337 334 0
335 361 334 0
388 365 361 0
363 364 393 0
337 307 334 0
336 337 364 0
336 307 337 0
451 482 452 0
423 451 452 0
420 421 451 0
393 394 423 0
450 421 419 0
452 480 449 0
393 423 422 0
482 483 452 0
478 448 449 0
418 449 448 0
570 540 539 0
595 570 567 0
569 540 570 0
593 568 596 0
570 539 542 0
538 540 569 0
510 483 511 0
422 392 393 0
597 596 568 0
570 597 569 0
595 620 597 0
393 392 363 0
336 364 363 0
480 508 478 0
480 510 508 0
366 338 342 0
388 362 390 0
394 388 390 0
365 364 337 0
394 365 388 0
394 364 365 0
335 338 362 0
361 365 337 0
420 394 390 0
420 423 394 0
334 304 305 0
362 361 335 0
307 304 334 0
482 511 483 0
362 388 361 0
307 306 276 0
305 335 334 0
370 395 366 0
364 394 393 0
366 391 362 0
338 366 362 0
342 370 366 0
425 454 455 0
450 425 455 0
419 395 425 0
481 450 455 0
391 395 419 0
336 306 307 0
330 358 357 0
340 367 368 0
310 340 339 0
310 330 340 0
300 332 330 0
571 599 572 0
595 572 594 0
596 597 620 0
567 572 595 0
597 570 595 0
513 512 541 0
539 514 542 0
479 481 455 0
484 479 455 0
509 481 479 0
514 509 484 0
539 511 509 0
572 599 598 0
620 595 594 0
516 544 541 0
486 516 512 0
543 544 516 0
486 515 516 0
573 576 600 0
543 573 544 0
546 576 573 0
517 546 543 0
525 493 494 0
525 526 555 0
493 525 517 0
494 526 525 0
461 494 493 0
463 495 494 0
546 573 543 0
541 512 516 0
542 541 571 0
542 513 541 0
567 542 572 0
567 570 542 0
509 511 481 0
480 478 449 0
422 452 449 0
483 510 480 0
233 250 255 0
256 233 255 0
231 252 232 0
229 231 213 0
251 252 231 0
305 308 335 0
275 305 304 0
275 254 277 0
599 601 621 0
601 574 600 0
621 601 622 0
599 574 601 0
598 599 621 0
598 594 572 0
654 655 634 0
636 637 657 0
431 399 401 0
634 655 635 0
812 815 814 0
815 817 814 0
816 815 812 0
818 817 815 0
812 814 811 0
808 809 811 0
816 818 815 0
816 812 813 0
809 812 811 0
806 805 808 0
810 813 809 0
809 813 812 0
805 806 803 0
810 805 807 0
809 808 805 0
810 809 805 0
802 805 803 0
804 805 802 0
803 800 802 0
805 804 807 0
798 802 800 0
801 804 802 0
800 799 798 0
798 797 801 0
802 798 801 0
799 796 798 0
794 796 793 0
797 794 795 0
798 796 794 0
797 798 794 0
791 794 793 0
792 794 791 0
787 790 788 0
795 794 792 0
793 790 791 0
792 791 789 0
787 786 789 0
790 787 791 0
788 785 787 0
787 789 791 0
787 785 784 0
784 786 787 0
782 784 785 0
783 786 784 0
781 780 783 0
782 781 784 0
782 779 781 0
783 784 781 0
778 777 780 0
779 778 781 0
779 776 778 0
778 780 781 0
774 776 773 0
777 774 775 0
778 776 774 0
777 778 774 0
771 774 773 0
772 774 771 0
771 770 768 0
771 773 770 0
769 771 768 0
772 775 774 0
767 768 770 0
768 766 769 0
772 771 769 0
767 764 763 0
763 764 759 0
766 763 762 0
768 767 763 0
763 766 768 0
752 762 763 0
763 759 751 0
751 752 763 0
737 748 735 0
752 751 738 0
759 748 751 0
737 738 751 0
737 751 748 0
723 720 735 0
721 738 737 0
720 723 706 0
721 720 700 0
737 735 720 0
721 737 720 0
699 706 686 0
706 723 705 0
686 706 705 0
699 720 706 0
679 699 686 0
700 720 699 0
685 701 704 0
702 685 704 0
683 679 685 0
700 699 680 0
705 701 686 0
680 699 679 0
702 704 722 0
680 679 661 0
686 701 685 0
703 722 707 0
684 703 690 0
684 702 703 0
703 702 722 0
682 683 702 0
648 646 664 0
666 665 648 0
664 666 648 0
689 690 711 0
702 684 682 0
650 667 649 0
631 650 649 0
651 668 650 0
669 668 651 0
684 669 665 0
684 690 669 0
669 690 689 0
647 627 629 0
679 686 685 0
703 707 690 0
707 724 711 0
728 711 724 0
741 742 755 0
715 726 732 0
741 727 742 0

SubDomainFromMesh
1
3 1 1 0

SubDomainFromGeom
1
2 38 1 0

VertexOnGeometricVertex
208
 1 1
 2 2
 4 3
 5 4
 6 5
 7 6
 9 7
 10 8
 12 9
 13 10
 15 11
 16 12
 18 13
 19 14
 20 15
 21 16
 23 17
 24 18
 26 19
 27 20
 29 21
 30 22
 31 23
 32 24
 34 25
 35 26
 36 27
 37 28
 38 29
 39 30
 40 31
 41 32
 43 33
 44 34
 45 35
 47 36
 48 37
 52 38
 53 39
 54 40
 55 41
 59 42
 61 43
 65 44
 66 45
 67 46
 70 47
 71 48
 77 49
 84 50
 85 51
 88 52
 95 53
 100 54
 101 55
 105 56
 112 57
 117 58
 118 59
 119 60
 132 61
 135 62
 137 63
 138 64
 139 65
 140 66
 151 67
 154 68
 156 69
 157 70
 168 71
 171 72
 172 73
 174 74
 186 75
 189 76
 191 77
 192 78
 204 79
 208 80
 210 81
 211 82
 212 83
 223 84
 225 85
 230 86
 232 87
 241 88
 244 89
 245 90
 250 91
 253 92
 263 93
 265 94
 271 95
 272 96
 276 97
 282 98
 296 99
 297 100
 299 101
 302 102
 303 103
 306 104
 316 105
 336 106
 347 107
 363 108
 376 109
 392 110
 406 111
 418 112
 437 113
 448 114
 467 115
 477 116
 497 117
 506 118
 528 119
 536 120
 558 121
 564 122
 565 123
 589 124
 593 125
 594 126
 596 127
 598 128
 617 129
 620 130
 621 131
 622 132
 640 133
 642 134
 643 135
 661 136
 662 137
 670 138
 680 139
 691 140
 700 141
 701 142
 704 143
 705 144
 707 145
 712 146
 721 147
 722 148
 723 149
 724 150
 728 151
 730 152
 735 153
 738 154
 742 155
 744 156
 748 157
 752 158
 753 159
 754 160
 755 161
 756 162
 757 163
 758 164
 759 165
 760 166
 761 167
 762 168
 764 169
 765 170
 766 171
 767 172
 769 173
 770 174
 772 175
 773 176
 775 177
 776 178
 777 179
 779 180
 780 181
 782 182
 783 183
 785 184
 786 185
 788 186
 789 187
 790 188
 792 189
 793 190
 795 191
 796 192
 797 193
 799 194
 800 195
 801 196
 803 197
 804 198
 806 199
 807 200
 808 201
 810 202
 811 203
 813 204
 814 205
 816 206
 817 207
 818 208

VertexOnGeometricEdge
0

EdgeOnGeometricEdge
208
1 1
2 2
3 3
4 4
5 5
6 6
7 7
8 8
9 9
10 10
11 11
12 12
13 13
14 14
15 15
16 16
17 17
18 18
19 19
20 20
21 21
22 22
23 23
24 24
25 25
26 26
27 27
28 28
29 29
30 30
31 31
32 32
33 33
34 34
35 35
36 36
37 37
38 38
39 39
40 40
41 41
42 42
43 43
44 44
45 45
46 46
47 47
48 48
49 49
50 50
51 51
52 52
53 53
54 54
55 55
56 56
57 57
58 58
59 59
60 60
61 61
62 62
63 63
64 64
65 65
66 66
67 67
68 68
69 69
70 70
71 71
72 72
73 73
74 74
75 75
76 76
77 77
78 78
79 79
80 80
81 81
82 82
83 83
84 84
85 85
86 86
87 87
88 88
89 89
90 90
91 91
92 92
93 93
94 94
95 95
96 96
97 97
98 98
99 99
100 100
101 101
102 102
103 103
104 104
105 105
106 106
107 107
108 108
109 109
110 110
111 111
112 112
113 113
114 114
115 115
116 116
117 117
118 118
119 119
120 120
121 121
122 122
123 123
124 124
125 125
126 126
127 127
128 128
129 129
130 130
131 131
132 132
133 133
134 134
135 135
136 136
137 137
138 138
139 139
140 140
141 141
142 142
143 143
144 144
145 145
146 146
147 147
148 148
149 149
150 150
151 151
152 152
153 153
154 154
155 155
156 156
157 157
158 158
159 159
160 160
161 161
162 162
163 163
164 164
165 165
166 166
167 167
168 168
169 169
170 170
171 171
172 172
173 173
174 174
175 175
176 176
177 177
178 178
179 179
180 180
181 181
182 182
183 183
184 184
185 185
186 186
187 187
188 188
189 189
190 190
191 191
192 192
193 193
194 194
195 195
196 196
197 197
198 198
199 199
200 200
201 201
202 202
203 203
204 204
205 205
206 206
207 207
208 208

End
